%TF.GenerationSoftware,KiCad,Pcbnew,10.0.3-10.0.3~ubuntu24.04.1*%
%TF.CreationDate,2026-05-16T21:25:18+07:00*%
%TF.ProjectId,MCU Datalogger,4d435520-4461-4746-916c-6f676765722e,1*%
%TF.SameCoordinates,Original*%
%TF.FileFunction,Legend,Bot*%
%TF.FilePolarity,Positive*%
%FSLAX46Y46*%
G04 Gerber Fmt 4.6, Leading zero omitted, Abs format (unit mm)*
G04 Created by KiCad (PCBNEW 10.0.3-10.0.3~ubuntu24.04.1) date 2026-05-16 21:25:18*
%MOMM*%
%LPD*%
G01*
G04 APERTURE LIST*
%ADD10C,0.100000*%
%ADD11C,0.010000*%
G04 APERTURE END LIST*
D10*
X39000000Y-60300000D02*
X50200000Y-60300000D01*
X50200000Y-68700000D01*
X39000000Y-68700000D01*
X39000000Y-60300000D01*
X49643734Y-61557120D02*
X49643734Y-60757120D01*
X49643734Y-60757120D02*
X49453258Y-60757120D01*
X49453258Y-60757120D02*
X49338972Y-60795215D01*
X49338972Y-60795215D02*
X49262782Y-60871405D01*
X49262782Y-60871405D02*
X49224687Y-60947596D01*
X49224687Y-60947596D02*
X49186591Y-61099977D01*
X49186591Y-61099977D02*
X49186591Y-61214263D01*
X49186591Y-61214263D02*
X49224687Y-61366644D01*
X49224687Y-61366644D02*
X49262782Y-61442834D01*
X49262782Y-61442834D02*
X49338972Y-61519025D01*
X49338972Y-61519025D02*
X49453258Y-61557120D01*
X49453258Y-61557120D02*
X49643734Y-61557120D01*
X48500877Y-61557120D02*
X48500877Y-61138072D01*
X48500877Y-61138072D02*
X48538972Y-61061882D01*
X48538972Y-61061882D02*
X48615163Y-61023786D01*
X48615163Y-61023786D02*
X48767544Y-61023786D01*
X48767544Y-61023786D02*
X48843734Y-61061882D01*
X48500877Y-61519025D02*
X48577068Y-61557120D01*
X48577068Y-61557120D02*
X48767544Y-61557120D01*
X48767544Y-61557120D02*
X48843734Y-61519025D01*
X48843734Y-61519025D02*
X48881830Y-61442834D01*
X48881830Y-61442834D02*
X48881830Y-61366644D01*
X48881830Y-61366644D02*
X48843734Y-61290453D01*
X48843734Y-61290453D02*
X48767544Y-61252358D01*
X48767544Y-61252358D02*
X48577068Y-61252358D01*
X48577068Y-61252358D02*
X48500877Y-61214263D01*
X48234210Y-61023786D02*
X47929448Y-61023786D01*
X48119924Y-60757120D02*
X48119924Y-61442834D01*
X48119924Y-61442834D02*
X48081829Y-61519025D01*
X48081829Y-61519025D02*
X48005639Y-61557120D01*
X48005639Y-61557120D02*
X47929448Y-61557120D01*
X47319924Y-61557120D02*
X47319924Y-61138072D01*
X47319924Y-61138072D02*
X47358019Y-61061882D01*
X47358019Y-61061882D02*
X47434210Y-61023786D01*
X47434210Y-61023786D02*
X47586591Y-61023786D01*
X47586591Y-61023786D02*
X47662781Y-61061882D01*
X47319924Y-61519025D02*
X47396115Y-61557120D01*
X47396115Y-61557120D02*
X47586591Y-61557120D01*
X47586591Y-61557120D02*
X47662781Y-61519025D01*
X47662781Y-61519025D02*
X47700877Y-61442834D01*
X47700877Y-61442834D02*
X47700877Y-61366644D01*
X47700877Y-61366644D02*
X47662781Y-61290453D01*
X47662781Y-61290453D02*
X47586591Y-61252358D01*
X47586591Y-61252358D02*
X47396115Y-61252358D01*
X47396115Y-61252358D02*
X47319924Y-61214263D01*
X46215162Y-61557120D02*
X46291352Y-61519025D01*
X46291352Y-61519025D02*
X46329447Y-61442834D01*
X46329447Y-61442834D02*
X46329447Y-60757120D01*
X45796114Y-61557120D02*
X45872304Y-61519025D01*
X45872304Y-61519025D02*
X45910399Y-61480929D01*
X45910399Y-61480929D02*
X45948495Y-61404739D01*
X45948495Y-61404739D02*
X45948495Y-61176167D01*
X45948495Y-61176167D02*
X45910399Y-61099977D01*
X45910399Y-61099977D02*
X45872304Y-61061882D01*
X45872304Y-61061882D02*
X45796114Y-61023786D01*
X45796114Y-61023786D02*
X45681828Y-61023786D01*
X45681828Y-61023786D02*
X45605637Y-61061882D01*
X45605637Y-61061882D02*
X45567542Y-61099977D01*
X45567542Y-61099977D02*
X45529447Y-61176167D01*
X45529447Y-61176167D02*
X45529447Y-61404739D01*
X45529447Y-61404739D02*
X45567542Y-61480929D01*
X45567542Y-61480929D02*
X45605637Y-61519025D01*
X45605637Y-61519025D02*
X45681828Y-61557120D01*
X45681828Y-61557120D02*
X45796114Y-61557120D01*
X44843732Y-61023786D02*
X44843732Y-61671405D01*
X44843732Y-61671405D02*
X44881827Y-61747596D01*
X44881827Y-61747596D02*
X44919923Y-61785691D01*
X44919923Y-61785691D02*
X44996113Y-61823786D01*
X44996113Y-61823786D02*
X45110399Y-61823786D01*
X45110399Y-61823786D02*
X45186589Y-61785691D01*
X44843732Y-61519025D02*
X44919923Y-61557120D01*
X44919923Y-61557120D02*
X45072304Y-61557120D01*
X45072304Y-61557120D02*
X45148494Y-61519025D01*
X45148494Y-61519025D02*
X45186589Y-61480929D01*
X45186589Y-61480929D02*
X45224685Y-61404739D01*
X45224685Y-61404739D02*
X45224685Y-61176167D01*
X45224685Y-61176167D02*
X45186589Y-61099977D01*
X45186589Y-61099977D02*
X45148494Y-61061882D01*
X45148494Y-61061882D02*
X45072304Y-61023786D01*
X45072304Y-61023786D02*
X44919923Y-61023786D01*
X44919923Y-61023786D02*
X44843732Y-61061882D01*
X44119922Y-61023786D02*
X44119922Y-61671405D01*
X44119922Y-61671405D02*
X44158017Y-61747596D01*
X44158017Y-61747596D02*
X44196113Y-61785691D01*
X44196113Y-61785691D02*
X44272303Y-61823786D01*
X44272303Y-61823786D02*
X44386589Y-61823786D01*
X44386589Y-61823786D02*
X44462779Y-61785691D01*
X44119922Y-61519025D02*
X44196113Y-61557120D01*
X44196113Y-61557120D02*
X44348494Y-61557120D01*
X44348494Y-61557120D02*
X44424684Y-61519025D01*
X44424684Y-61519025D02*
X44462779Y-61480929D01*
X44462779Y-61480929D02*
X44500875Y-61404739D01*
X44500875Y-61404739D02*
X44500875Y-61176167D01*
X44500875Y-61176167D02*
X44462779Y-61099977D01*
X44462779Y-61099977D02*
X44424684Y-61061882D01*
X44424684Y-61061882D02*
X44348494Y-61023786D01*
X44348494Y-61023786D02*
X44196113Y-61023786D01*
X44196113Y-61023786D02*
X44119922Y-61061882D01*
X43434207Y-61519025D02*
X43510398Y-61557120D01*
X43510398Y-61557120D02*
X43662779Y-61557120D01*
X43662779Y-61557120D02*
X43738969Y-61519025D01*
X43738969Y-61519025D02*
X43777065Y-61442834D01*
X43777065Y-61442834D02*
X43777065Y-61138072D01*
X43777065Y-61138072D02*
X43738969Y-61061882D01*
X43738969Y-61061882D02*
X43662779Y-61023786D01*
X43662779Y-61023786D02*
X43510398Y-61023786D01*
X43510398Y-61023786D02*
X43434207Y-61061882D01*
X43434207Y-61061882D02*
X43396112Y-61138072D01*
X43396112Y-61138072D02*
X43396112Y-61214263D01*
X43396112Y-61214263D02*
X43777065Y-61290453D01*
X43053255Y-61557120D02*
X43053255Y-61023786D01*
X43053255Y-61176167D02*
X43015160Y-61099977D01*
X43015160Y-61099977D02*
X42977065Y-61061882D01*
X42977065Y-61061882D02*
X42900874Y-61023786D01*
X42900874Y-61023786D02*
X42824684Y-61023786D01*
X42024684Y-61023786D02*
X41872303Y-61557120D01*
X41872303Y-61557120D02*
X41719922Y-61176167D01*
X41719922Y-61176167D02*
X41567541Y-61557120D01*
X41567541Y-61557120D02*
X41415160Y-61023786D01*
X41110398Y-61557120D02*
X41110398Y-61023786D01*
X41110398Y-60757120D02*
X41148494Y-60795215D01*
X41148494Y-60795215D02*
X41110398Y-60833310D01*
X41110398Y-60833310D02*
X41072303Y-60795215D01*
X41072303Y-60795215D02*
X41110398Y-60757120D01*
X41110398Y-60757120D02*
X41110398Y-60833310D01*
X40843732Y-61023786D02*
X40538970Y-61023786D01*
X40729446Y-60757120D02*
X40729446Y-61442834D01*
X40729446Y-61442834D02*
X40691351Y-61519025D01*
X40691351Y-61519025D02*
X40615161Y-61557120D01*
X40615161Y-61557120D02*
X40538970Y-61557120D01*
X40272303Y-61557120D02*
X40272303Y-60757120D01*
X39929446Y-61557120D02*
X39929446Y-61138072D01*
X39929446Y-61138072D02*
X39967541Y-61061882D01*
X39967541Y-61061882D02*
X40043732Y-61023786D01*
X40043732Y-61023786D02*
X40158018Y-61023786D01*
X40158018Y-61023786D02*
X40234208Y-61061882D01*
X40234208Y-61061882D02*
X40272303Y-61099977D01*
X49681830Y-62616503D02*
X49300877Y-62616503D01*
X49758020Y-62845075D02*
X49491353Y-62045075D01*
X49491353Y-62045075D02*
X49224687Y-62845075D01*
X49072306Y-62045075D02*
X48615163Y-62045075D01*
X48843735Y-62845075D02*
X48843735Y-62045075D01*
X48348496Y-62845075D02*
X48348496Y-62045075D01*
X48348496Y-62045075D02*
X48081830Y-62616503D01*
X48081830Y-62616503D02*
X47815163Y-62045075D01*
X47815163Y-62045075D02*
X47815163Y-62845075D01*
X47129448Y-62806980D02*
X47205639Y-62845075D01*
X47205639Y-62845075D02*
X47358020Y-62845075D01*
X47358020Y-62845075D02*
X47434210Y-62806980D01*
X47434210Y-62806980D02*
X47472306Y-62730789D01*
X47472306Y-62730789D02*
X47472306Y-62426027D01*
X47472306Y-62426027D02*
X47434210Y-62349837D01*
X47434210Y-62349837D02*
X47358020Y-62311741D01*
X47358020Y-62311741D02*
X47205639Y-62311741D01*
X47205639Y-62311741D02*
X47129448Y-62349837D01*
X47129448Y-62349837D02*
X47091353Y-62426027D01*
X47091353Y-62426027D02*
X47091353Y-62502218D01*
X47091353Y-62502218D02*
X47472306Y-62578408D01*
X46405639Y-62311741D02*
X46405639Y-62959360D01*
X46405639Y-62959360D02*
X46443734Y-63035551D01*
X46443734Y-63035551D02*
X46481830Y-63073646D01*
X46481830Y-63073646D02*
X46558020Y-63111741D01*
X46558020Y-63111741D02*
X46672306Y-63111741D01*
X46672306Y-63111741D02*
X46748496Y-63073646D01*
X46405639Y-62806980D02*
X46481830Y-62845075D01*
X46481830Y-62845075D02*
X46634211Y-62845075D01*
X46634211Y-62845075D02*
X46710401Y-62806980D01*
X46710401Y-62806980D02*
X46748496Y-62768884D01*
X46748496Y-62768884D02*
X46786592Y-62692694D01*
X46786592Y-62692694D02*
X46786592Y-62464122D01*
X46786592Y-62464122D02*
X46748496Y-62387932D01*
X46748496Y-62387932D02*
X46710401Y-62349837D01*
X46710401Y-62349837D02*
X46634211Y-62311741D01*
X46634211Y-62311741D02*
X46481830Y-62311741D01*
X46481830Y-62311741D02*
X46405639Y-62349837D01*
X45681829Y-62845075D02*
X45681829Y-62426027D01*
X45681829Y-62426027D02*
X45719924Y-62349837D01*
X45719924Y-62349837D02*
X45796115Y-62311741D01*
X45796115Y-62311741D02*
X45948496Y-62311741D01*
X45948496Y-62311741D02*
X46024686Y-62349837D01*
X45681829Y-62806980D02*
X45758020Y-62845075D01*
X45758020Y-62845075D02*
X45948496Y-62845075D01*
X45948496Y-62845075D02*
X46024686Y-62806980D01*
X46024686Y-62806980D02*
X46062782Y-62730789D01*
X46062782Y-62730789D02*
X46062782Y-62654599D01*
X46062782Y-62654599D02*
X46024686Y-62578408D01*
X46024686Y-62578408D02*
X45948496Y-62540313D01*
X45948496Y-62540313D02*
X45758020Y-62540313D01*
X45758020Y-62540313D02*
X45681829Y-62502218D01*
X45377067Y-62045075D02*
X44881829Y-62045075D01*
X44881829Y-62045075D02*
X45148495Y-62349837D01*
X45148495Y-62349837D02*
X45034210Y-62349837D01*
X45034210Y-62349837D02*
X44958019Y-62387932D01*
X44958019Y-62387932D02*
X44919924Y-62426027D01*
X44919924Y-62426027D02*
X44881829Y-62502218D01*
X44881829Y-62502218D02*
X44881829Y-62692694D01*
X44881829Y-62692694D02*
X44919924Y-62768884D01*
X44919924Y-62768884D02*
X44958019Y-62806980D01*
X44958019Y-62806980D02*
X45034210Y-62845075D01*
X45034210Y-62845075D02*
X45262781Y-62845075D01*
X45262781Y-62845075D02*
X45338972Y-62806980D01*
X45338972Y-62806980D02*
X45377067Y-62768884D01*
X44577067Y-62121265D02*
X44538971Y-62083170D01*
X44538971Y-62083170D02*
X44462781Y-62045075D01*
X44462781Y-62045075D02*
X44272305Y-62045075D01*
X44272305Y-62045075D02*
X44196114Y-62083170D01*
X44196114Y-62083170D02*
X44158019Y-62121265D01*
X44158019Y-62121265D02*
X44119924Y-62197456D01*
X44119924Y-62197456D02*
X44119924Y-62273646D01*
X44119924Y-62273646D02*
X44158019Y-62387932D01*
X44158019Y-62387932D02*
X44615162Y-62845075D01*
X44615162Y-62845075D02*
X44119924Y-62845075D01*
X43662781Y-62387932D02*
X43738971Y-62349837D01*
X43738971Y-62349837D02*
X43777066Y-62311741D01*
X43777066Y-62311741D02*
X43815162Y-62235551D01*
X43815162Y-62235551D02*
X43815162Y-62197456D01*
X43815162Y-62197456D02*
X43777066Y-62121265D01*
X43777066Y-62121265D02*
X43738971Y-62083170D01*
X43738971Y-62083170D02*
X43662781Y-62045075D01*
X43662781Y-62045075D02*
X43510400Y-62045075D01*
X43510400Y-62045075D02*
X43434209Y-62083170D01*
X43434209Y-62083170D02*
X43396114Y-62121265D01*
X43396114Y-62121265D02*
X43358019Y-62197456D01*
X43358019Y-62197456D02*
X43358019Y-62235551D01*
X43358019Y-62235551D02*
X43396114Y-62311741D01*
X43396114Y-62311741D02*
X43434209Y-62349837D01*
X43434209Y-62349837D02*
X43510400Y-62387932D01*
X43510400Y-62387932D02*
X43662781Y-62387932D01*
X43662781Y-62387932D02*
X43738971Y-62426027D01*
X43738971Y-62426027D02*
X43777066Y-62464122D01*
X43777066Y-62464122D02*
X43815162Y-62540313D01*
X43815162Y-62540313D02*
X43815162Y-62692694D01*
X43815162Y-62692694D02*
X43777066Y-62768884D01*
X43777066Y-62768884D02*
X43738971Y-62806980D01*
X43738971Y-62806980D02*
X43662781Y-62845075D01*
X43662781Y-62845075D02*
X43510400Y-62845075D01*
X43510400Y-62845075D02*
X43434209Y-62806980D01*
X43434209Y-62806980D02*
X43396114Y-62768884D01*
X43396114Y-62768884D02*
X43358019Y-62692694D01*
X43358019Y-62692694D02*
X43358019Y-62540313D01*
X43358019Y-62540313D02*
X43396114Y-62464122D01*
X43396114Y-62464122D02*
X43434209Y-62426027D01*
X43434209Y-62426027D02*
X43510400Y-62387932D01*
X43015161Y-62845075D02*
X43015161Y-62045075D01*
X43015161Y-62045075D02*
X42710399Y-62045075D01*
X42710399Y-62045075D02*
X42634209Y-62083170D01*
X42634209Y-62083170D02*
X42596114Y-62121265D01*
X42596114Y-62121265D02*
X42558018Y-62197456D01*
X42558018Y-62197456D02*
X42558018Y-62311741D01*
X42558018Y-62311741D02*
X42596114Y-62387932D01*
X42596114Y-62387932D02*
X42634209Y-62426027D01*
X42634209Y-62426027D02*
X42710399Y-62464122D01*
X42710399Y-62464122D02*
X43015161Y-62464122D01*
X42215161Y-62768884D02*
X42177066Y-62806980D01*
X42177066Y-62806980D02*
X42215161Y-62845075D01*
X42215161Y-62845075D02*
X42253257Y-62806980D01*
X42253257Y-62806980D02*
X42215161Y-62768884D01*
X42215161Y-62768884D02*
X42215161Y-62845075D01*
X49643734Y-65116223D02*
X49034211Y-65116223D01*
X48081830Y-64697175D02*
X48043734Y-64659080D01*
X48043734Y-64659080D02*
X47967544Y-64620985D01*
X47967544Y-64620985D02*
X47777068Y-64620985D01*
X47777068Y-64620985D02*
X47700877Y-64659080D01*
X47700877Y-64659080D02*
X47662782Y-64697175D01*
X47662782Y-64697175D02*
X47624687Y-64773366D01*
X47624687Y-64773366D02*
X47624687Y-64849556D01*
X47624687Y-64849556D02*
X47662782Y-64963842D01*
X47662782Y-64963842D02*
X48119925Y-65420985D01*
X48119925Y-65420985D02*
X47624687Y-65420985D01*
X47281829Y-65420985D02*
X47281829Y-64620985D01*
X47281829Y-64620985D02*
X47015163Y-65192413D01*
X47015163Y-65192413D02*
X46748496Y-64620985D01*
X46748496Y-64620985D02*
X46748496Y-65420985D01*
X46367543Y-65420985D02*
X46367543Y-64620985D01*
X46367543Y-64925747D02*
X46291353Y-64887651D01*
X46291353Y-64887651D02*
X46138972Y-64887651D01*
X46138972Y-64887651D02*
X46062781Y-64925747D01*
X46062781Y-64925747D02*
X46024686Y-64963842D01*
X46024686Y-64963842D02*
X45986591Y-65040032D01*
X45986591Y-65040032D02*
X45986591Y-65268604D01*
X45986591Y-65268604D02*
X46024686Y-65344794D01*
X46024686Y-65344794D02*
X46062781Y-65382890D01*
X46062781Y-65382890D02*
X46138972Y-65420985D01*
X46138972Y-65420985D02*
X46291353Y-65420985D01*
X46291353Y-65420985D02*
X46367543Y-65382890D01*
X45643733Y-65420985D02*
X45643733Y-64887651D01*
X45643733Y-64620985D02*
X45681829Y-64659080D01*
X45681829Y-64659080D02*
X45643733Y-64697175D01*
X45643733Y-64697175D02*
X45605638Y-64659080D01*
X45605638Y-64659080D02*
X45643733Y-64620985D01*
X45643733Y-64620985D02*
X45643733Y-64697175D01*
X45377067Y-64887651D02*
X45072305Y-64887651D01*
X45262781Y-64620985D02*
X45262781Y-65306699D01*
X45262781Y-65306699D02*
X45224686Y-65382890D01*
X45224686Y-65382890D02*
X45148496Y-65420985D01*
X45148496Y-65420985D02*
X45072305Y-65420985D01*
X44196114Y-65001937D02*
X43929448Y-65001937D01*
X43815162Y-65420985D02*
X44196114Y-65420985D01*
X44196114Y-65420985D02*
X44196114Y-64620985D01*
X44196114Y-64620985D02*
X43815162Y-64620985D01*
X43472304Y-65001937D02*
X43205638Y-65001937D01*
X43091352Y-65420985D02*
X43472304Y-65420985D01*
X43472304Y-65420985D02*
X43472304Y-64620985D01*
X43472304Y-64620985D02*
X43091352Y-64620985D01*
X42748494Y-65420985D02*
X42748494Y-64620985D01*
X42748494Y-64620985D02*
X42443732Y-64620985D01*
X42443732Y-64620985D02*
X42367542Y-64659080D01*
X42367542Y-64659080D02*
X42329447Y-64697175D01*
X42329447Y-64697175D02*
X42291351Y-64773366D01*
X42291351Y-64773366D02*
X42291351Y-64887651D01*
X42291351Y-64887651D02*
X42329447Y-64963842D01*
X42329447Y-64963842D02*
X42367542Y-65001937D01*
X42367542Y-65001937D02*
X42443732Y-65040032D01*
X42443732Y-65040032D02*
X42748494Y-65040032D01*
X41491351Y-65420985D02*
X41758018Y-65040032D01*
X41948494Y-65420985D02*
X41948494Y-64620985D01*
X41948494Y-64620985D02*
X41643732Y-64620985D01*
X41643732Y-64620985D02*
X41567542Y-64659080D01*
X41567542Y-64659080D02*
X41529447Y-64697175D01*
X41529447Y-64697175D02*
X41491351Y-64773366D01*
X41491351Y-64773366D02*
X41491351Y-64887651D01*
X41491351Y-64887651D02*
X41529447Y-64963842D01*
X41529447Y-64963842D02*
X41567542Y-65001937D01*
X41567542Y-65001937D02*
X41643732Y-65040032D01*
X41643732Y-65040032D02*
X41948494Y-65040032D01*
X40996113Y-64620985D02*
X40843732Y-64620985D01*
X40843732Y-64620985D02*
X40767542Y-64659080D01*
X40767542Y-64659080D02*
X40691351Y-64735270D01*
X40691351Y-64735270D02*
X40653256Y-64887651D01*
X40653256Y-64887651D02*
X40653256Y-65154318D01*
X40653256Y-65154318D02*
X40691351Y-65306699D01*
X40691351Y-65306699D02*
X40767542Y-65382890D01*
X40767542Y-65382890D02*
X40843732Y-65420985D01*
X40843732Y-65420985D02*
X40996113Y-65420985D01*
X40996113Y-65420985D02*
X41072304Y-65382890D01*
X41072304Y-65382890D02*
X41148494Y-65306699D01*
X41148494Y-65306699D02*
X41186590Y-65154318D01*
X41186590Y-65154318D02*
X41186590Y-64887651D01*
X41186590Y-64887651D02*
X41148494Y-64735270D01*
X41148494Y-64735270D02*
X41072304Y-64659080D01*
X41072304Y-64659080D02*
X40996113Y-64620985D01*
X40310399Y-65420985D02*
X40310399Y-64620985D01*
X40310399Y-64620985D02*
X40043733Y-65192413D01*
X40043733Y-65192413D02*
X39777066Y-64620985D01*
X39777066Y-64620985D02*
X39777066Y-65420985D01*
X49643734Y-66404178D02*
X49034211Y-66404178D01*
X47586591Y-66708940D02*
X47853258Y-66327987D01*
X48043734Y-66708940D02*
X48043734Y-65908940D01*
X48043734Y-65908940D02*
X47738972Y-65908940D01*
X47738972Y-65908940D02*
X47662782Y-65947035D01*
X47662782Y-65947035D02*
X47624687Y-65985130D01*
X47624687Y-65985130D02*
X47586591Y-66061321D01*
X47586591Y-66061321D02*
X47586591Y-66175606D01*
X47586591Y-66175606D02*
X47624687Y-66251797D01*
X47624687Y-66251797D02*
X47662782Y-66289892D01*
X47662782Y-66289892D02*
X47738972Y-66327987D01*
X47738972Y-66327987D02*
X48043734Y-66327987D01*
X47358020Y-65908940D02*
X46900877Y-65908940D01*
X47129449Y-66708940D02*
X47129449Y-65908940D01*
X46177067Y-66632749D02*
X46215163Y-66670845D01*
X46215163Y-66670845D02*
X46329448Y-66708940D01*
X46329448Y-66708940D02*
X46405639Y-66708940D01*
X46405639Y-66708940D02*
X46519925Y-66670845D01*
X46519925Y-66670845D02*
X46596115Y-66594654D01*
X46596115Y-66594654D02*
X46634210Y-66518464D01*
X46634210Y-66518464D02*
X46672306Y-66366083D01*
X46672306Y-66366083D02*
X46672306Y-66251797D01*
X46672306Y-66251797D02*
X46634210Y-66099416D01*
X46634210Y-66099416D02*
X46596115Y-66023225D01*
X46596115Y-66023225D02*
X46519925Y-65947035D01*
X46519925Y-65947035D02*
X46405639Y-65908940D01*
X46405639Y-65908940D02*
X46329448Y-65908940D01*
X46329448Y-65908940D02*
X46215163Y-65947035D01*
X46215163Y-65947035D02*
X46177067Y-65985130D01*
X49643734Y-67692133D02*
X49034211Y-67692133D01*
X48043734Y-67996895D02*
X48043734Y-67196895D01*
X47700878Y-67273085D02*
X47662782Y-67234990D01*
X47662782Y-67234990D02*
X47586592Y-67196895D01*
X47586592Y-67196895D02*
X47396116Y-67196895D01*
X47396116Y-67196895D02*
X47319925Y-67234990D01*
X47319925Y-67234990D02*
X47281830Y-67273085D01*
X47281830Y-67273085D02*
X47243735Y-67349276D01*
X47243735Y-67349276D02*
X47243735Y-67425466D01*
X47243735Y-67425466D02*
X47281830Y-67539752D01*
X47281830Y-67539752D02*
X47738973Y-67996895D01*
X47738973Y-67996895D02*
X47243735Y-67996895D01*
X46443734Y-67920704D02*
X46481830Y-67958800D01*
X46481830Y-67958800D02*
X46596115Y-67996895D01*
X46596115Y-67996895D02*
X46672306Y-67996895D01*
X46672306Y-67996895D02*
X46786592Y-67958800D01*
X46786592Y-67958800D02*
X46862782Y-67882609D01*
X46862782Y-67882609D02*
X46900877Y-67806419D01*
X46900877Y-67806419D02*
X46938973Y-67654038D01*
X46938973Y-67654038D02*
X46938973Y-67539752D01*
X46938973Y-67539752D02*
X46900877Y-67387371D01*
X46900877Y-67387371D02*
X46862782Y-67311180D01*
X46862782Y-67311180D02*
X46786592Y-67234990D01*
X46786592Y-67234990D02*
X46672306Y-67196895D01*
X46672306Y-67196895D02*
X46596115Y-67196895D01*
X46596115Y-67196895D02*
X46481830Y-67234990D01*
X46481830Y-67234990D02*
X46443734Y-67273085D01*
X46062782Y-67958800D02*
X46062782Y-67996895D01*
X46062782Y-67996895D02*
X46100877Y-68073085D01*
X46100877Y-68073085D02*
X46138973Y-68111180D01*
X45148497Y-67958800D02*
X45034211Y-67996895D01*
X45034211Y-67996895D02*
X44843735Y-67996895D01*
X44843735Y-67996895D02*
X44767544Y-67958800D01*
X44767544Y-67958800D02*
X44729449Y-67920704D01*
X44729449Y-67920704D02*
X44691354Y-67844514D01*
X44691354Y-67844514D02*
X44691354Y-67768323D01*
X44691354Y-67768323D02*
X44729449Y-67692133D01*
X44729449Y-67692133D02*
X44767544Y-67654038D01*
X44767544Y-67654038D02*
X44843735Y-67615942D01*
X44843735Y-67615942D02*
X44996116Y-67577847D01*
X44996116Y-67577847D02*
X45072306Y-67539752D01*
X45072306Y-67539752D02*
X45110401Y-67501657D01*
X45110401Y-67501657D02*
X45148497Y-67425466D01*
X45148497Y-67425466D02*
X45148497Y-67349276D01*
X45148497Y-67349276D02*
X45110401Y-67273085D01*
X45110401Y-67273085D02*
X45072306Y-67234990D01*
X45072306Y-67234990D02*
X44996116Y-67196895D01*
X44996116Y-67196895D02*
X44805639Y-67196895D01*
X44805639Y-67196895D02*
X44691354Y-67234990D01*
X44348496Y-67996895D02*
X44348496Y-67196895D01*
X44348496Y-67196895D02*
X44043734Y-67196895D01*
X44043734Y-67196895D02*
X43967544Y-67234990D01*
X43967544Y-67234990D02*
X43929449Y-67273085D01*
X43929449Y-67273085D02*
X43891353Y-67349276D01*
X43891353Y-67349276D02*
X43891353Y-67463561D01*
X43891353Y-67463561D02*
X43929449Y-67539752D01*
X43929449Y-67539752D02*
X43967544Y-67577847D01*
X43967544Y-67577847D02*
X44043734Y-67615942D01*
X44043734Y-67615942D02*
X44348496Y-67615942D01*
X43548496Y-67996895D02*
X43548496Y-67196895D01*
X43129449Y-67958800D02*
X43129449Y-67996895D01*
X43129449Y-67996895D02*
X43167544Y-68073085D01*
X43167544Y-68073085D02*
X43205640Y-68111180D01*
X41758021Y-67234990D02*
X41834211Y-67196895D01*
X41834211Y-67196895D02*
X41948497Y-67196895D01*
X41948497Y-67196895D02*
X42062783Y-67234990D01*
X42062783Y-67234990D02*
X42138973Y-67311180D01*
X42138973Y-67311180D02*
X42177068Y-67387371D01*
X42177068Y-67387371D02*
X42215164Y-67539752D01*
X42215164Y-67539752D02*
X42215164Y-67654038D01*
X42215164Y-67654038D02*
X42177068Y-67806419D01*
X42177068Y-67806419D02*
X42138973Y-67882609D01*
X42138973Y-67882609D02*
X42062783Y-67958800D01*
X42062783Y-67958800D02*
X41948497Y-67996895D01*
X41948497Y-67996895D02*
X41872306Y-67996895D01*
X41872306Y-67996895D02*
X41758021Y-67958800D01*
X41758021Y-67958800D02*
X41719925Y-67920704D01*
X41719925Y-67920704D02*
X41719925Y-67654038D01*
X41719925Y-67654038D02*
X41872306Y-67654038D01*
X41377068Y-67996895D02*
X41377068Y-67196895D01*
X41377068Y-67196895D02*
X41072306Y-67196895D01*
X41072306Y-67196895D02*
X40996116Y-67234990D01*
X40996116Y-67234990D02*
X40958021Y-67273085D01*
X40958021Y-67273085D02*
X40919925Y-67349276D01*
X40919925Y-67349276D02*
X40919925Y-67463561D01*
X40919925Y-67463561D02*
X40958021Y-67539752D01*
X40958021Y-67539752D02*
X40996116Y-67577847D01*
X40996116Y-67577847D02*
X41072306Y-67615942D01*
X41072306Y-67615942D02*
X41377068Y-67615942D01*
X40577068Y-67996895D02*
X40577068Y-67196895D01*
X40043735Y-67196895D02*
X39891354Y-67196895D01*
X39891354Y-67196895D02*
X39815164Y-67234990D01*
X39815164Y-67234990D02*
X39738973Y-67311180D01*
X39738973Y-67311180D02*
X39700878Y-67463561D01*
X39700878Y-67463561D02*
X39700878Y-67730228D01*
X39700878Y-67730228D02*
X39738973Y-67882609D01*
X39738973Y-67882609D02*
X39815164Y-67958800D01*
X39815164Y-67958800D02*
X39891354Y-67996895D01*
X39891354Y-67996895D02*
X40043735Y-67996895D01*
X40043735Y-67996895D02*
X40119926Y-67958800D01*
X40119926Y-67958800D02*
X40196116Y-67882609D01*
X40196116Y-67882609D02*
X40234212Y-67730228D01*
X40234212Y-67730228D02*
X40234212Y-67463561D01*
X40234212Y-67463561D02*
X40196116Y-67311180D01*
X40196116Y-67311180D02*
X40119926Y-67234990D01*
X40119926Y-67234990D02*
X40043735Y-67196895D01*
D11*
%TO.C,REF\u002A\u002A*%
X61046400Y-60489054D02*
X61035535Y-60602993D01*
X61003918Y-60710616D01*
X60953015Y-60809615D01*
X60884293Y-60897684D01*
X60799219Y-60972516D01*
X60702232Y-61030384D01*
X60595964Y-61070005D01*
X60488950Y-61088573D01*
X60383300Y-61087434D01*
X60281125Y-61067930D01*
X60184534Y-61031406D01*
X60095638Y-60979205D01*
X60016546Y-60912673D01*
X59949369Y-60833152D01*
X59896217Y-60741987D01*
X59859199Y-60640523D01*
X59840427Y-60530102D01*
X59838489Y-60480206D01*
X59838489Y-60392267D01*
X59786560Y-60392267D01*
X59750253Y-60395111D01*
X59723355Y-60406911D01*
X59696249Y-60430649D01*
X59657867Y-60469031D01*
X59657867Y-62660602D01*
X59657876Y-62922739D01*
X59657908Y-63163241D01*
X59657972Y-63383048D01*
X59658076Y-63583101D01*
X59658227Y-63764344D01*
X59658434Y-63927716D01*
X59658706Y-64074160D01*
X59659050Y-64204617D01*
X59659474Y-64320029D01*
X59659987Y-64421338D01*
X59660597Y-64509484D01*
X59661312Y-64585410D01*
X59662140Y-64650057D01*
X59663089Y-64704367D01*
X59664167Y-64749280D01*
X59665383Y-64785740D01*
X59666745Y-64814687D01*
X59668261Y-64837063D01*
X59669938Y-64853809D01*
X59671786Y-64865868D01*
X59673813Y-64874180D01*
X59676025Y-64879687D01*
X59677108Y-64881537D01*
X59681271Y-64888549D01*
X59684805Y-64894996D01*
X59688635Y-64900900D01*
X59693682Y-64906286D01*
X59700871Y-64911178D01*
X59711123Y-64915598D01*
X59725364Y-64919572D01*
X59744514Y-64923121D01*
X59769499Y-64926270D01*
X59801240Y-64929042D01*
X59840662Y-64931461D01*
X59888686Y-64933551D01*
X59946237Y-64935335D01*
X60014237Y-64936837D01*
X60093610Y-64938080D01*
X60185279Y-64939089D01*
X60290166Y-64939885D01*
X60409196Y-64940494D01*
X60543290Y-64940939D01*
X60693373Y-64941243D01*
X60860367Y-64941430D01*
X61045196Y-64941524D01*
X61248783Y-64941548D01*
X61472050Y-64941525D01*
X61715922Y-64941480D01*
X61981321Y-64941437D01*
X62019704Y-64941432D01*
X62286682Y-64941389D01*
X62532002Y-64941318D01*
X62756583Y-64941213D01*
X62961345Y-64941066D01*
X63147206Y-64940869D01*
X63315088Y-64940616D01*
X63465908Y-64940300D01*
X63600587Y-64939913D01*
X63720044Y-64939447D01*
X63825199Y-64938897D01*
X63916971Y-64938253D01*
X63996279Y-64937511D01*
X64064043Y-64936661D01*
X64121182Y-64935697D01*
X64168617Y-64934611D01*
X64207266Y-64933397D01*
X64238049Y-64932047D01*
X64261885Y-64930555D01*
X64279694Y-64928911D01*
X64292395Y-64927111D01*
X64300908Y-64925145D01*
X64305266Y-64923477D01*
X64313728Y-64919906D01*
X64321497Y-64917270D01*
X64328602Y-64914634D01*
X64335073Y-64911062D01*
X64340939Y-64905621D01*
X64346229Y-64897375D01*
X64350974Y-64885390D01*
X64355202Y-64868731D01*
X64358943Y-64846463D01*
X64362227Y-64817652D01*
X64365083Y-64781363D01*
X64367540Y-64736661D01*
X64369629Y-64682611D01*
X64371378Y-64618279D01*
X64372817Y-64542730D01*
X64373976Y-64455030D01*
X64374883Y-64354243D01*
X64375569Y-64239434D01*
X64376063Y-64109670D01*
X64376395Y-63964015D01*
X64376593Y-63801535D01*
X64376687Y-63621295D01*
X64376708Y-63422360D01*
X64376685Y-63203796D01*
X64376646Y-62964668D01*
X64376622Y-62704040D01*
X64376622Y-62661889D01*
X64376636Y-62398992D01*
X64376661Y-62157732D01*
X64376671Y-61937165D01*
X64376642Y-61736352D01*
X64376548Y-61554349D01*
X64376362Y-61390216D01*
X64376059Y-61243011D01*
X64375614Y-61111792D01*
X64375034Y-61001867D01*
X64072197Y-61001867D01*
X64032407Y-61059711D01*
X64021236Y-61075479D01*
X64011166Y-61089441D01*
X64002138Y-61102784D01*
X63994097Y-61116693D01*
X63986986Y-61132356D01*
X63980747Y-61150958D01*
X63975325Y-61173686D01*
X63970662Y-61201727D01*
X63966701Y-61236267D01*
X63963385Y-61278492D01*
X63960659Y-61329589D01*
X63958464Y-61390744D01*
X63956745Y-61463144D01*
X63955444Y-61547975D01*
X63954505Y-61646422D01*
X63953870Y-61759674D01*
X63953484Y-61888916D01*
X63953288Y-62035334D01*
X63953227Y-62200116D01*
X63953243Y-62384447D01*
X63953280Y-62589513D01*
X63953289Y-62712133D01*
X63953265Y-62929082D01*
X63953231Y-63124642D01*
X63953243Y-63299999D01*
X63953358Y-63456341D01*
X63953630Y-63594857D01*
X63954118Y-63716734D01*
X63954876Y-63823160D01*
X63955962Y-63915322D01*
X63957431Y-63994409D01*
X63959340Y-64061608D01*
X63961744Y-64118107D01*
X63964701Y-64165093D01*
X63968266Y-64203755D01*
X63972495Y-64235280D01*
X63977446Y-64260855D01*
X63983173Y-64281670D01*
X63989733Y-64298911D01*
X63997183Y-64313765D01*
X64005579Y-64327422D01*
X64014976Y-64341069D01*
X64025432Y-64355893D01*
X64031523Y-64364783D01*
X64070296Y-64422400D01*
X63538732Y-64422400D01*
X63415483Y-64422365D01*
X63312987Y-64422215D01*
X63229420Y-64421878D01*
X63162956Y-64421286D01*
X63111771Y-64420367D01*
X63074041Y-64419051D01*
X63047940Y-64417269D01*
X63031644Y-64414951D01*
X63023328Y-64412026D01*
X63021168Y-64408424D01*
X63023339Y-64404075D01*
X63024535Y-64402645D01*
X63049685Y-64365573D01*
X63075583Y-64312772D01*
X63099192Y-64250770D01*
X63107461Y-64224357D01*
X63112078Y-64206416D01*
X63115979Y-64185355D01*
X63119248Y-64159089D01*
X63121966Y-64125532D01*
X63124215Y-64082599D01*
X63126077Y-64028204D01*
X63127636Y-63960262D01*
X63128972Y-63876688D01*
X63130169Y-63775395D01*
X63131308Y-63654300D01*
X63131685Y-63609600D01*
X63132702Y-63484449D01*
X63133460Y-63380082D01*
X63133903Y-63294707D01*
X63133970Y-63226533D01*
X63133605Y-63173765D01*
X63132748Y-63134614D01*
X63131341Y-63107285D01*
X63129325Y-63089986D01*
X63126643Y-63080926D01*
X63123236Y-63078312D01*
X63119044Y-63080351D01*
X63114571Y-63084667D01*
X63104216Y-63097602D01*
X63082158Y-63126676D01*
X63049957Y-63169759D01*
X63009174Y-63224718D01*
X62961370Y-63289423D01*
X62908105Y-63361742D01*
X62850940Y-63439544D01*
X62791437Y-63520698D01*
X62731155Y-63603072D01*
X62671655Y-63684536D01*
X62614498Y-63762957D01*
X62561245Y-63836204D01*
X62513457Y-63902147D01*
X62472693Y-63958654D01*
X62440516Y-64003593D01*
X62418485Y-64034834D01*
X62413917Y-64041466D01*
X62390996Y-64078369D01*
X62364188Y-64126359D01*
X62338789Y-64175897D01*
X62335568Y-64182577D01*
X62313890Y-64230772D01*
X62301304Y-64268334D01*
X62295574Y-64304160D01*
X62294456Y-64346200D01*
X62295090Y-64422400D01*
X61140651Y-64422400D01*
X61231815Y-64328669D01*
X61278612Y-64278775D01*
X61328899Y-64222295D01*
X61374944Y-64168026D01*
X61395369Y-64142673D01*
X61425807Y-64103128D01*
X61465862Y-64049916D01*
X61514361Y-63984667D01*
X61570135Y-63909011D01*
X61632011Y-63824577D01*
X61698819Y-63732994D01*
X61769387Y-63635892D01*
X61842545Y-63534901D01*
X61917121Y-63431650D01*
X61991944Y-63327768D01*
X62065843Y-63224885D01*
X62137646Y-63124631D01*
X62206184Y-63028636D01*
X62270284Y-62938527D01*
X62328775Y-62855936D01*
X62380486Y-62782492D01*
X62424247Y-62719824D01*
X62458885Y-62669561D01*
X62483230Y-62633334D01*
X62496111Y-62612771D01*
X62497869Y-62608668D01*
X62489910Y-62597342D01*
X62469115Y-62570162D01*
X62436847Y-62528829D01*
X62394470Y-62475044D01*
X62343347Y-62410506D01*
X62284841Y-62336918D01*
X62220314Y-62255978D01*
X62151131Y-62169388D01*
X62078653Y-62078848D01*
X62004246Y-61986060D01*
X61944517Y-61911702D01*
X60933511Y-61911702D01*
X60927602Y-61924659D01*
X60913272Y-61946908D01*
X60912225Y-61948391D01*
X60893438Y-61978544D01*
X60873791Y-62015375D01*
X60869892Y-62023511D01*
X60866356Y-62031940D01*
X60863230Y-62042059D01*
X60860486Y-62055260D01*
X60858092Y-62072938D01*
X60856019Y-62096484D01*
X60854235Y-62127293D01*
X60852712Y-62166757D01*
X60851419Y-62216269D01*
X60850326Y-62277223D01*
X60849403Y-62351011D01*
X60848619Y-62439028D01*
X60847945Y-62542665D01*
X60847350Y-62663316D01*
X60846805Y-62802374D01*
X60846279Y-62961232D01*
X60845745Y-63140089D01*
X60845206Y-63325207D01*
X60844772Y-63489145D01*
X60844509Y-63633303D01*
X60844484Y-63759079D01*
X60844765Y-63867871D01*
X60845419Y-63961077D01*
X60846514Y-64040097D01*
X60848118Y-64106328D01*
X60850297Y-64161170D01*
X60853119Y-64206021D01*
X60856651Y-64242278D01*
X60860961Y-64271341D01*
X60866117Y-64294609D01*
X60872185Y-64313479D01*
X60879233Y-64329351D01*
X60887329Y-64343622D01*
X60896540Y-64357691D01*
X60905040Y-64370158D01*
X60922176Y-64396452D01*
X60932322Y-64414037D01*
X60933511Y-64417257D01*
X60922604Y-64418334D01*
X60891411Y-64419335D01*
X60842223Y-64420235D01*
X60777333Y-64421010D01*
X60699030Y-64421637D01*
X60609607Y-64422091D01*
X60511356Y-64422349D01*
X60442445Y-64422400D01*
X60337452Y-64422180D01*
X60240610Y-64421548D01*
X60154107Y-64420549D01*
X60080132Y-64419227D01*
X60020874Y-64417626D01*
X59978520Y-64415791D01*
X59955260Y-64413765D01*
X59951378Y-64412493D01*
X59959076Y-64397591D01*
X59967074Y-64389560D01*
X59980246Y-64372434D01*
X59997485Y-64342183D01*
X60009407Y-64317622D01*
X60036045Y-64258711D01*
X60039120Y-63081845D01*
X60042195Y-61904978D01*
X60487853Y-61904978D01*
X60585670Y-61905142D01*
X60676064Y-61905611D01*
X60756630Y-61906347D01*
X60824962Y-61907316D01*
X60878656Y-61908480D01*
X60915305Y-61909803D01*
X60932504Y-61911249D01*
X60933511Y-61911702D01*
X61944517Y-61911702D01*
X61929270Y-61892722D01*
X61855090Y-61800537D01*
X61783069Y-61711204D01*
X61714569Y-61626424D01*
X61650955Y-61547898D01*
X61593588Y-61477326D01*
X61543833Y-61416409D01*
X61503052Y-61366847D01*
X61485888Y-61346178D01*
X61399596Y-61245516D01*
X61322997Y-61162259D01*
X61254183Y-61094438D01*
X61191248Y-61040089D01*
X61181867Y-61032722D01*
X61142356Y-61002117D01*
X62274116Y-61001867D01*
X62268827Y-61049844D01*
X62272130Y-61107188D01*
X62293661Y-61175463D01*
X62333635Y-61255212D01*
X62378943Y-61327495D01*
X62395161Y-61350140D01*
X62423214Y-61387696D01*
X62461430Y-61438021D01*
X62508137Y-61498973D01*
X62561661Y-61568411D01*
X62620331Y-61644194D01*
X62682475Y-61724180D01*
X62746421Y-61806228D01*
X62810495Y-61888196D01*
X62873027Y-61967943D01*
X62932343Y-62043327D01*
X62986771Y-62112207D01*
X63034639Y-62172442D01*
X63074275Y-62221889D01*
X63104006Y-62258408D01*
X63122161Y-62279858D01*
X63125220Y-62283156D01*
X63128079Y-62275149D01*
X63130293Y-62244855D01*
X63131857Y-62192556D01*
X63132767Y-62118531D01*
X63133020Y-62023063D01*
X63132613Y-61906434D01*
X63131704Y-61786445D01*
X63130382Y-61654333D01*
X63128857Y-61542594D01*
X63126881Y-61449025D01*
X63124206Y-61371419D01*
X63120582Y-61307574D01*
X63115761Y-61255283D01*
X63109494Y-61212344D01*
X63101532Y-61176551D01*
X63091627Y-61145700D01*
X63079531Y-61117586D01*
X63064993Y-61090005D01*
X63050311Y-61064966D01*
X63012314Y-61001867D01*
X64072197Y-61001867D01*
X64375034Y-61001867D01*
X64375001Y-60995617D01*
X64374195Y-60893544D01*
X64373170Y-60804633D01*
X64371900Y-60727941D01*
X64370360Y-60662527D01*
X64368524Y-60607449D01*
X64366367Y-60561765D01*
X64363863Y-60524534D01*
X64360987Y-60494813D01*
X64357713Y-60471662D01*
X64354015Y-60454139D01*
X64349869Y-60441301D01*
X64345247Y-60432208D01*
X64340126Y-60425918D01*
X64334478Y-60421488D01*
X64328279Y-60417978D01*
X64321504Y-60414445D01*
X64315508Y-60410876D01*
X64310275Y-60408300D01*
X64302099Y-60405972D01*
X64289886Y-60403878D01*
X64272541Y-60402007D01*
X64248969Y-60400347D01*
X64218077Y-60398884D01*
X64178768Y-60397608D01*
X64129950Y-60396504D01*
X64070527Y-60395561D01*
X63999404Y-60394767D01*
X63915488Y-60394109D01*
X63817683Y-60393575D01*
X63704894Y-60393153D01*
X63576029Y-60392829D01*
X63429991Y-60392592D01*
X63265686Y-60392430D01*
X63082020Y-60392330D01*
X62877897Y-60392280D01*
X62666753Y-60392267D01*
X61046400Y-60392267D01*
X61046400Y-60489054D01*
G36*
X64375614Y-61111792D02*
G01*
X64376059Y-61243011D01*
X64376362Y-61390216D01*
X64376548Y-61554349D01*
X64376642Y-61736352D01*
X64376671Y-61937165D01*
X64376661Y-62157732D01*
X64376636Y-62398992D01*
X64376622Y-62661889D01*
X64376622Y-62704040D01*
X64376646Y-62964668D01*
X64376685Y-63203796D01*
X64376708Y-63422360D01*
X64376687Y-63621295D01*
X64376593Y-63801535D01*
X64376395Y-63964015D01*
X64376063Y-64109670D01*
X64375569Y-64239434D01*
X64374883Y-64354243D01*
X64373976Y-64455030D01*
X64372817Y-64542730D01*
X64371378Y-64618279D01*
X64369629Y-64682611D01*
X64367540Y-64736661D01*
X64365083Y-64781363D01*
X64362227Y-64817652D01*
X64358943Y-64846463D01*
X64355202Y-64868731D01*
X64350974Y-64885390D01*
X64346229Y-64897375D01*
X64340939Y-64905621D01*
X64335073Y-64911062D01*
X64328602Y-64914634D01*
X64321497Y-64917270D01*
X64313728Y-64919906D01*
X64305266Y-64923477D01*
X64300908Y-64925145D01*
X64292395Y-64927111D01*
X64279694Y-64928911D01*
X64261885Y-64930555D01*
X64238049Y-64932047D01*
X64207266Y-64933397D01*
X64168617Y-64934611D01*
X64121182Y-64935697D01*
X64064043Y-64936661D01*
X63996279Y-64937511D01*
X63916971Y-64938253D01*
X63825199Y-64938897D01*
X63720044Y-64939447D01*
X63600587Y-64939913D01*
X63465908Y-64940300D01*
X63315088Y-64940616D01*
X63147206Y-64940869D01*
X62961345Y-64941066D01*
X62756583Y-64941213D01*
X62532002Y-64941318D01*
X62286682Y-64941389D01*
X62019704Y-64941432D01*
X61981321Y-64941437D01*
X61715922Y-64941480D01*
X61472050Y-64941525D01*
X61248783Y-64941548D01*
X61045196Y-64941524D01*
X60860367Y-64941430D01*
X60693373Y-64941243D01*
X60543290Y-64940939D01*
X60409196Y-64940494D01*
X60290166Y-64939885D01*
X60185279Y-64939089D01*
X60093610Y-64938080D01*
X60014237Y-64936837D01*
X59946237Y-64935335D01*
X59888686Y-64933551D01*
X59840662Y-64931461D01*
X59801240Y-64929042D01*
X59769499Y-64926270D01*
X59744514Y-64923121D01*
X59725364Y-64919572D01*
X59711123Y-64915598D01*
X59700871Y-64911178D01*
X59693682Y-64906286D01*
X59688635Y-64900900D01*
X59684805Y-64894996D01*
X59681271Y-64888549D01*
X59677108Y-64881537D01*
X59676025Y-64879687D01*
X59673813Y-64874180D01*
X59671786Y-64865868D01*
X59669938Y-64853809D01*
X59668261Y-64837063D01*
X59666745Y-64814687D01*
X59665383Y-64785740D01*
X59664167Y-64749280D01*
X59663089Y-64704367D01*
X59662140Y-64650057D01*
X59661312Y-64585410D01*
X59660597Y-64509484D01*
X59659987Y-64421338D01*
X59659942Y-64412493D01*
X59951378Y-64412493D01*
X59955260Y-64413765D01*
X59978520Y-64415791D01*
X60020874Y-64417626D01*
X60080132Y-64419227D01*
X60154107Y-64420549D01*
X60240610Y-64421548D01*
X60337452Y-64422180D01*
X60442445Y-64422400D01*
X61140651Y-64422400D01*
X62295090Y-64422400D01*
X62294456Y-64346200D01*
X62295574Y-64304160D01*
X62301304Y-64268334D01*
X62313890Y-64230772D01*
X62335568Y-64182577D01*
X62338789Y-64175897D01*
X62364188Y-64126359D01*
X62390996Y-64078369D01*
X62413917Y-64041466D01*
X62418485Y-64034834D01*
X62440516Y-64003593D01*
X62472693Y-63958654D01*
X62513457Y-63902147D01*
X62561245Y-63836204D01*
X62614498Y-63762957D01*
X62671655Y-63684536D01*
X62731155Y-63603072D01*
X62791437Y-63520698D01*
X62850940Y-63439544D01*
X62908105Y-63361742D01*
X62961370Y-63289423D01*
X63009174Y-63224718D01*
X63049957Y-63169759D01*
X63082158Y-63126676D01*
X63104216Y-63097602D01*
X63114571Y-63084667D01*
X63119044Y-63080351D01*
X63123236Y-63078312D01*
X63126643Y-63080926D01*
X63129325Y-63089986D01*
X63131341Y-63107285D01*
X63132748Y-63134614D01*
X63133605Y-63173765D01*
X63133970Y-63226533D01*
X63133903Y-63294707D01*
X63133460Y-63380082D01*
X63132702Y-63484449D01*
X63131685Y-63609600D01*
X63131308Y-63654300D01*
X63130169Y-63775395D01*
X63128972Y-63876688D01*
X63127636Y-63960262D01*
X63126077Y-64028204D01*
X63124215Y-64082599D01*
X63121966Y-64125532D01*
X63119248Y-64159089D01*
X63115979Y-64185355D01*
X63112078Y-64206416D01*
X63107461Y-64224357D01*
X63099192Y-64250770D01*
X63075583Y-64312772D01*
X63049685Y-64365573D01*
X63024535Y-64402645D01*
X63023339Y-64404075D01*
X63021168Y-64408424D01*
X63023328Y-64412026D01*
X63031644Y-64414951D01*
X63047940Y-64417269D01*
X63074041Y-64419051D01*
X63111771Y-64420367D01*
X63162956Y-64421286D01*
X63229420Y-64421878D01*
X63312987Y-64422215D01*
X63415483Y-64422365D01*
X63538732Y-64422400D01*
X64070296Y-64422400D01*
X64031523Y-64364783D01*
X64025432Y-64355893D01*
X64014976Y-64341069D01*
X64005579Y-64327422D01*
X63997183Y-64313765D01*
X63989733Y-64298911D01*
X63983173Y-64281670D01*
X63977446Y-64260855D01*
X63972495Y-64235280D01*
X63968266Y-64203755D01*
X63964701Y-64165093D01*
X63961744Y-64118107D01*
X63959340Y-64061608D01*
X63957431Y-63994409D01*
X63955962Y-63915322D01*
X63954876Y-63823160D01*
X63954118Y-63716734D01*
X63953630Y-63594857D01*
X63953358Y-63456341D01*
X63953243Y-63299999D01*
X63953231Y-63124642D01*
X63953265Y-62929082D01*
X63953289Y-62712133D01*
X63953280Y-62589513D01*
X63953243Y-62384447D01*
X63953227Y-62200116D01*
X63953288Y-62035334D01*
X63953484Y-61888916D01*
X63953870Y-61759674D01*
X63954505Y-61646422D01*
X63955444Y-61547975D01*
X63956745Y-61463144D01*
X63958464Y-61390744D01*
X63960659Y-61329589D01*
X63963385Y-61278492D01*
X63966701Y-61236267D01*
X63970662Y-61201727D01*
X63975325Y-61173686D01*
X63980747Y-61150958D01*
X63986986Y-61132356D01*
X63994097Y-61116693D01*
X64002138Y-61102784D01*
X64011166Y-61089441D01*
X64021236Y-61075479D01*
X64032407Y-61059711D01*
X64072197Y-61001867D01*
X63012314Y-61001867D01*
X63050311Y-61064966D01*
X63064993Y-61090005D01*
X63079531Y-61117586D01*
X63091627Y-61145700D01*
X63101532Y-61176551D01*
X63109494Y-61212344D01*
X63115761Y-61255283D01*
X63120582Y-61307574D01*
X63124206Y-61371419D01*
X63126881Y-61449025D01*
X63128857Y-61542594D01*
X63130382Y-61654333D01*
X63131704Y-61786445D01*
X63132613Y-61906434D01*
X63133020Y-62023063D01*
X63132767Y-62118531D01*
X63131857Y-62192556D01*
X63130293Y-62244855D01*
X63128079Y-62275149D01*
X63125220Y-62283156D01*
X63122161Y-62279858D01*
X63104006Y-62258408D01*
X63074275Y-62221889D01*
X63034639Y-62172442D01*
X62986771Y-62112207D01*
X62932343Y-62043327D01*
X62873027Y-61967943D01*
X62810495Y-61888196D01*
X62746421Y-61806228D01*
X62682475Y-61724180D01*
X62620331Y-61644194D01*
X62561661Y-61568411D01*
X62508137Y-61498973D01*
X62461430Y-61438021D01*
X62423214Y-61387696D01*
X62395161Y-61350140D01*
X62378943Y-61327495D01*
X62333635Y-61255212D01*
X62293661Y-61175463D01*
X62272130Y-61107188D01*
X62268827Y-61049844D01*
X62274116Y-61001867D01*
X61142356Y-61002117D01*
X61181867Y-61032722D01*
X61191248Y-61040089D01*
X61254183Y-61094438D01*
X61322997Y-61162259D01*
X61399596Y-61245516D01*
X61485888Y-61346178D01*
X61503052Y-61366847D01*
X61543833Y-61416409D01*
X61593588Y-61477326D01*
X61650955Y-61547898D01*
X61714569Y-61626424D01*
X61783069Y-61711204D01*
X61855090Y-61800537D01*
X61929270Y-61892722D01*
X61944517Y-61911702D01*
X62004246Y-61986060D01*
X62078653Y-62078848D01*
X62151131Y-62169388D01*
X62220314Y-62255978D01*
X62284841Y-62336918D01*
X62343347Y-62410506D01*
X62394470Y-62475044D01*
X62436847Y-62528829D01*
X62469115Y-62570162D01*
X62489910Y-62597342D01*
X62497869Y-62608668D01*
X62496111Y-62612771D01*
X62483230Y-62633334D01*
X62458885Y-62669561D01*
X62424247Y-62719824D01*
X62380486Y-62782492D01*
X62328775Y-62855936D01*
X62270284Y-62938527D01*
X62206184Y-63028636D01*
X62137646Y-63124631D01*
X62065843Y-63224885D01*
X61991944Y-63327768D01*
X61917121Y-63431650D01*
X61842545Y-63534901D01*
X61769387Y-63635892D01*
X61698819Y-63732994D01*
X61632011Y-63824577D01*
X61570135Y-63909011D01*
X61514361Y-63984667D01*
X61465862Y-64049916D01*
X61425807Y-64103128D01*
X61395369Y-64142673D01*
X61374944Y-64168026D01*
X61328899Y-64222295D01*
X61278612Y-64278775D01*
X61231815Y-64328669D01*
X61140651Y-64422400D01*
X60442445Y-64422400D01*
X60511356Y-64422349D01*
X60609607Y-64422091D01*
X60699030Y-64421637D01*
X60777333Y-64421010D01*
X60842223Y-64420235D01*
X60891411Y-64419335D01*
X60922604Y-64418334D01*
X60933511Y-64417257D01*
X60932322Y-64414037D01*
X60922176Y-64396452D01*
X60905040Y-64370158D01*
X60896540Y-64357691D01*
X60887329Y-64343622D01*
X60879233Y-64329351D01*
X60872185Y-64313479D01*
X60866117Y-64294609D01*
X60860961Y-64271341D01*
X60856651Y-64242278D01*
X60853119Y-64206021D01*
X60850297Y-64161170D01*
X60848118Y-64106328D01*
X60846514Y-64040097D01*
X60845419Y-63961077D01*
X60844765Y-63867871D01*
X60844484Y-63759079D01*
X60844509Y-63633303D01*
X60844772Y-63489145D01*
X60845206Y-63325207D01*
X60845745Y-63140089D01*
X60846279Y-62961232D01*
X60846805Y-62802374D01*
X60847350Y-62663316D01*
X60847945Y-62542665D01*
X60848619Y-62439028D01*
X60849403Y-62351011D01*
X60850326Y-62277223D01*
X60851419Y-62216269D01*
X60852712Y-62166757D01*
X60854235Y-62127293D01*
X60856019Y-62096484D01*
X60858092Y-62072938D01*
X60860486Y-62055260D01*
X60863230Y-62042059D01*
X60866356Y-62031940D01*
X60869892Y-62023511D01*
X60873791Y-62015375D01*
X60893438Y-61978544D01*
X60912225Y-61948391D01*
X60913272Y-61946908D01*
X60927602Y-61924659D01*
X60933511Y-61911702D01*
X60932504Y-61911249D01*
X60915305Y-61909803D01*
X60878656Y-61908480D01*
X60824962Y-61907316D01*
X60756630Y-61906347D01*
X60676064Y-61905611D01*
X60585670Y-61905142D01*
X60487853Y-61904978D01*
X60042195Y-61904978D01*
X60039120Y-63081845D01*
X60036045Y-64258711D01*
X60009407Y-64317622D01*
X59997485Y-64342183D01*
X59980246Y-64372434D01*
X59967074Y-64389560D01*
X59959076Y-64397591D01*
X59951378Y-64412493D01*
X59659942Y-64412493D01*
X59659474Y-64320029D01*
X59659050Y-64204617D01*
X59658706Y-64074160D01*
X59658434Y-63927716D01*
X59658227Y-63764344D01*
X59658076Y-63583101D01*
X59657972Y-63383048D01*
X59657908Y-63163241D01*
X59657876Y-62922739D01*
X59657867Y-62660602D01*
X59657867Y-60469031D01*
X59696249Y-60430649D01*
X59723355Y-60406911D01*
X59750253Y-60395111D01*
X59786560Y-60392267D01*
X59838489Y-60392267D01*
X59838489Y-60480206D01*
X59840427Y-60530102D01*
X59859199Y-60640523D01*
X59896217Y-60741987D01*
X59949369Y-60833152D01*
X60016546Y-60912673D01*
X60095638Y-60979205D01*
X60184534Y-61031406D01*
X60281125Y-61067930D01*
X60383300Y-61087434D01*
X60488950Y-61088573D01*
X60595964Y-61070005D01*
X60702232Y-61030384D01*
X60799219Y-60972516D01*
X60884293Y-60897684D01*
X60953015Y-60809615D01*
X61003918Y-60710616D01*
X61035535Y-60602993D01*
X61046400Y-60489054D01*
X61046400Y-60392267D01*
X62666753Y-60392267D01*
X62877897Y-60392280D01*
X63082020Y-60392330D01*
X63265686Y-60392430D01*
X63429991Y-60392592D01*
X63576029Y-60392829D01*
X63704894Y-60393153D01*
X63817683Y-60393575D01*
X63915488Y-60394109D01*
X63999404Y-60394767D01*
X64070527Y-60395561D01*
X64129950Y-60396504D01*
X64178768Y-60397608D01*
X64218077Y-60398884D01*
X64248969Y-60400347D01*
X64272541Y-60402007D01*
X64289886Y-60403878D01*
X64302099Y-60405972D01*
X64310275Y-60408300D01*
X64315508Y-60410876D01*
X64321504Y-60414445D01*
X64328279Y-60417978D01*
X64334478Y-60421488D01*
X64340126Y-60425918D01*
X64345247Y-60432208D01*
X64349869Y-60441301D01*
X64354015Y-60454139D01*
X64357713Y-60471662D01*
X64360987Y-60494813D01*
X64363863Y-60524534D01*
X64366367Y-60561765D01*
X64368524Y-60607449D01*
X64370360Y-60662527D01*
X64371900Y-60727941D01*
X64373170Y-60804633D01*
X64374195Y-60893544D01*
X64375001Y-60995617D01*
X64375034Y-61001867D01*
X64375614Y-61111792D01*
G37*
X55426426Y-61866552D02*
X55274508Y-61886567D01*
X55139244Y-61920202D01*
X55019761Y-61967725D01*
X54915185Y-62029405D01*
X54837576Y-62092965D01*
X54768735Y-62167099D01*
X54714994Y-62246871D01*
X54672090Y-62339091D01*
X54656616Y-62382161D01*
X54643756Y-62421142D01*
X54632554Y-62457289D01*
X54622880Y-62492434D01*
X54614604Y-62528410D01*
X54607597Y-62567050D01*
X54601728Y-62610185D01*
X54596869Y-62659649D01*
X54592890Y-62717273D01*
X54589660Y-62784891D01*
X54587051Y-62864334D01*
X54584933Y-62957436D01*
X54583176Y-63066027D01*
X54581651Y-63191942D01*
X54580228Y-63337012D01*
X54578975Y-63479778D01*
X54577649Y-63635968D01*
X54576444Y-63771239D01*
X54575234Y-63887246D01*
X54573894Y-63985645D01*
X54572300Y-64068093D01*
X54570325Y-64136246D01*
X54567844Y-64191760D01*
X54564731Y-64236292D01*
X54560862Y-64271498D01*
X54556111Y-64299034D01*
X54550352Y-64320556D01*
X54543461Y-64337722D01*
X54535311Y-64352186D01*
X54525777Y-64365606D01*
X54514734Y-64379638D01*
X54510434Y-64385071D01*
X54494614Y-64407910D01*
X54487578Y-64423463D01*
X54487556Y-64423922D01*
X54498433Y-64426121D01*
X54529418Y-64428147D01*
X54578043Y-64429942D01*
X54641837Y-64431451D01*
X54718331Y-64432616D01*
X54805056Y-64433380D01*
X54899543Y-64433686D01*
X54910450Y-64433689D01*
X55333343Y-64433689D01*
X55336605Y-64337622D01*
X55339867Y-64241556D01*
X55401956Y-64292543D01*
X55499286Y-64360057D01*
X55609187Y-64414749D01*
X55695651Y-64444978D01*
X55764722Y-64459666D01*
X55848075Y-64469659D01*
X55937841Y-64474646D01*
X56026155Y-64474313D01*
X56105149Y-64468351D01*
X56141378Y-64462638D01*
X56281397Y-64424776D01*
X56407822Y-64369932D01*
X56519740Y-64298924D01*
X56616238Y-64212568D01*
X56696400Y-64111679D01*
X56759313Y-63997076D01*
X56803688Y-63870984D01*
X56816022Y-63814401D01*
X56823632Y-63752202D01*
X56827261Y-63677363D01*
X56827755Y-63643467D01*
X56827690Y-63640282D01*
X56067752Y-63640282D01*
X56058459Y-63715333D01*
X56030272Y-63779160D01*
X55981803Y-63834798D01*
X55976746Y-63839211D01*
X55928452Y-63874037D01*
X55876743Y-63896620D01*
X55816011Y-63908540D01*
X55740648Y-63911383D01*
X55722541Y-63910978D01*
X55668722Y-63908325D01*
X55628692Y-63902909D01*
X55593676Y-63892745D01*
X55554897Y-63875850D01*
X55544255Y-63870672D01*
X55483604Y-63834844D01*
X55436785Y-63792212D01*
X55424048Y-63776973D01*
X55379378Y-63720462D01*
X55379378Y-63524586D01*
X55379914Y-63445939D01*
X55381604Y-63387988D01*
X55384572Y-63348875D01*
X55388943Y-63326741D01*
X55393028Y-63320274D01*
X55408953Y-63317111D01*
X55442736Y-63314488D01*
X55489660Y-63312655D01*
X55545007Y-63311857D01*
X55553894Y-63311842D01*
X55674670Y-63317096D01*
X55777340Y-63333263D01*
X55863894Y-63360961D01*
X55936319Y-63400808D01*
X55991249Y-63447758D01*
X56035796Y-63505645D01*
X56060520Y-63568693D01*
X56067752Y-63640282D01*
X56827690Y-63640282D01*
X56825822Y-63549712D01*
X56817478Y-63470812D01*
X56801232Y-63399590D01*
X56775595Y-63328864D01*
X56751599Y-63276493D01*
X56692980Y-63181196D01*
X56614883Y-63093170D01*
X56519685Y-63014017D01*
X56409762Y-62945340D01*
X56287490Y-62888741D01*
X56155245Y-62845821D01*
X56090578Y-62830882D01*
X55954396Y-62808777D01*
X55805951Y-62794194D01*
X55654495Y-62787813D01*
X55527936Y-62789445D01*
X55366050Y-62796224D01*
X55373470Y-62737245D01*
X55392762Y-62638092D01*
X55423896Y-62557372D01*
X55467731Y-62494466D01*
X55525129Y-62448756D01*
X55596952Y-62419622D01*
X55684059Y-62406447D01*
X55787314Y-62408611D01*
X55825289Y-62412612D01*
X55966480Y-62437780D01*
X56103293Y-62478814D01*
X56197822Y-62516815D01*
X56242982Y-62536190D01*
X56281415Y-62551760D01*
X56307766Y-62561405D01*
X56315454Y-62563452D01*
X56325198Y-62554374D01*
X56341917Y-62525405D01*
X56365768Y-62476217D01*
X56396907Y-62406484D01*
X56435493Y-62315879D01*
X56442090Y-62300089D01*
X56472147Y-62227772D01*
X56499126Y-62162425D01*
X56521864Y-62106906D01*
X56539194Y-62064072D01*
X56549952Y-62036781D01*
X56553059Y-62027942D01*
X56543060Y-62023187D01*
X56516783Y-62017910D01*
X56488511Y-62014231D01*
X56458354Y-62009474D01*
X56410567Y-62000028D01*
X56349388Y-61986820D01*
X56279054Y-61970776D01*
X56203806Y-61952820D01*
X56175245Y-61945797D01*
X56070184Y-61920209D01*
X55982520Y-61900147D01*
X55907932Y-61884969D01*
X55842097Y-61874035D01*
X55780693Y-61866704D01*
X55719398Y-61862335D01*
X55653890Y-61860287D01*
X55595872Y-61859889D01*
X55426426Y-61866552D01*
G36*
X56827755Y-63643467D02*
G01*
X56827261Y-63677363D01*
X56823632Y-63752202D01*
X56816022Y-63814401D01*
X56803688Y-63870984D01*
X56759313Y-63997076D01*
X56696400Y-64111679D01*
X56616238Y-64212568D01*
X56519740Y-64298924D01*
X56407822Y-64369932D01*
X56281397Y-64424776D01*
X56141378Y-64462638D01*
X56105149Y-64468351D01*
X56026155Y-64474313D01*
X55937841Y-64474646D01*
X55848075Y-64469659D01*
X55764722Y-64459666D01*
X55695651Y-64444978D01*
X55609187Y-64414749D01*
X55499286Y-64360057D01*
X55401956Y-64292543D01*
X55339867Y-64241556D01*
X55336605Y-64337622D01*
X55333343Y-64433689D01*
X54910450Y-64433689D01*
X54899543Y-64433686D01*
X54805056Y-64433380D01*
X54718331Y-64432616D01*
X54641837Y-64431451D01*
X54578043Y-64429942D01*
X54529418Y-64428147D01*
X54498433Y-64426121D01*
X54487556Y-64423922D01*
X54487578Y-64423463D01*
X54494614Y-64407910D01*
X54510434Y-64385071D01*
X54514734Y-64379638D01*
X54525777Y-64365606D01*
X54535311Y-64352186D01*
X54543461Y-64337722D01*
X54550352Y-64320556D01*
X54556111Y-64299034D01*
X54560862Y-64271498D01*
X54564731Y-64236292D01*
X54567844Y-64191760D01*
X54570325Y-64136246D01*
X54572300Y-64068093D01*
X54573894Y-63985645D01*
X54575234Y-63887246D01*
X54576444Y-63771239D01*
X54577649Y-63635968D01*
X54578595Y-63524586D01*
X55379378Y-63524586D01*
X55379378Y-63720462D01*
X55424048Y-63776973D01*
X55436785Y-63792212D01*
X55483604Y-63834844D01*
X55544255Y-63870672D01*
X55554897Y-63875850D01*
X55593676Y-63892745D01*
X55628692Y-63902909D01*
X55668722Y-63908325D01*
X55722541Y-63910978D01*
X55740648Y-63911383D01*
X55816011Y-63908540D01*
X55876743Y-63896620D01*
X55928452Y-63874037D01*
X55976746Y-63839211D01*
X55981803Y-63834798D01*
X56030272Y-63779160D01*
X56058459Y-63715333D01*
X56067752Y-63640282D01*
X56060520Y-63568693D01*
X56035796Y-63505645D01*
X55991249Y-63447758D01*
X55936319Y-63400808D01*
X55863894Y-63360961D01*
X55777340Y-63333263D01*
X55674670Y-63317096D01*
X55553894Y-63311842D01*
X55545007Y-63311857D01*
X55489660Y-63312655D01*
X55442736Y-63314488D01*
X55408953Y-63317111D01*
X55393028Y-63320274D01*
X55388943Y-63326741D01*
X55384572Y-63348875D01*
X55381604Y-63387988D01*
X55379914Y-63445939D01*
X55379378Y-63524586D01*
X54578595Y-63524586D01*
X54578975Y-63479778D01*
X54580228Y-63337012D01*
X54581651Y-63191942D01*
X54583176Y-63066027D01*
X54584933Y-62957436D01*
X54587051Y-62864334D01*
X54589660Y-62784891D01*
X54592890Y-62717273D01*
X54596869Y-62659649D01*
X54601728Y-62610185D01*
X54607597Y-62567050D01*
X54614604Y-62528410D01*
X54622880Y-62492434D01*
X54632554Y-62457289D01*
X54643756Y-62421142D01*
X54656616Y-62382161D01*
X54672090Y-62339091D01*
X54714994Y-62246871D01*
X54768735Y-62167099D01*
X54837576Y-62092965D01*
X54915185Y-62029405D01*
X55019761Y-61967725D01*
X55139244Y-61920202D01*
X55274508Y-61886567D01*
X55426426Y-61866552D01*
X55595872Y-61859889D01*
X55653890Y-61860287D01*
X55719398Y-61862335D01*
X55780693Y-61866704D01*
X55842097Y-61874035D01*
X55907932Y-61884969D01*
X55982520Y-61900147D01*
X56070184Y-61920209D01*
X56175245Y-61945797D01*
X56203806Y-61952820D01*
X56279054Y-61970776D01*
X56349388Y-61986820D01*
X56410567Y-62000028D01*
X56458354Y-62009474D01*
X56488511Y-62014231D01*
X56516783Y-62017910D01*
X56543060Y-62023187D01*
X56553059Y-62027942D01*
X56549952Y-62036781D01*
X56539194Y-62064072D01*
X56521864Y-62106906D01*
X56499126Y-62162425D01*
X56472147Y-62227772D01*
X56442090Y-62300089D01*
X56435493Y-62315879D01*
X56396907Y-62406484D01*
X56365768Y-62476217D01*
X56341917Y-62525405D01*
X56325198Y-62554374D01*
X56315454Y-62563452D01*
X56307766Y-62561405D01*
X56281415Y-62551760D01*
X56242982Y-62536190D01*
X56197822Y-62516815D01*
X56103293Y-62478814D01*
X55966480Y-62437780D01*
X55825289Y-62412612D01*
X55787314Y-62408611D01*
X55684059Y-62406447D01*
X55596952Y-62419622D01*
X55525129Y-62448756D01*
X55467731Y-62494466D01*
X55423896Y-62557372D01*
X55392762Y-62638092D01*
X55373470Y-62737245D01*
X55366050Y-62796224D01*
X55527936Y-62789445D01*
X55654495Y-62787813D01*
X55805951Y-62794194D01*
X55954396Y-62808777D01*
X56090578Y-62830882D01*
X56155245Y-62845821D01*
X56287490Y-62888741D01*
X56409762Y-62945340D01*
X56519685Y-63014017D01*
X56614883Y-63093170D01*
X56692980Y-63181196D01*
X56751599Y-63276493D01*
X56775595Y-63328864D01*
X56801232Y-63399590D01*
X56817478Y-63470812D01*
X56825822Y-63549712D01*
X56827690Y-63640282D01*
X56827755Y-63643467D01*
G37*
X51913493Y-62472245D02*
X51913474Y-62706662D01*
X51913448Y-62919603D01*
X51913375Y-63112168D01*
X51913218Y-63285459D01*
X51912936Y-63440576D01*
X51912491Y-63578620D01*
X51911844Y-63700692D01*
X51910955Y-63807894D01*
X51909787Y-63901326D01*
X51908299Y-63982090D01*
X51906454Y-64051286D01*
X51904211Y-64110015D01*
X51901531Y-64159379D01*
X51898377Y-64200478D01*
X51894708Y-64234413D01*
X51890487Y-64262286D01*
X51885673Y-64285198D01*
X51880227Y-64304249D01*
X51874112Y-64320540D01*
X51867288Y-64335173D01*
X51859715Y-64349249D01*
X51851355Y-64363868D01*
X51846161Y-64372974D01*
X51811896Y-64433689D01*
X52670045Y-64433689D01*
X52670045Y-64337733D01*
X52670776Y-64294370D01*
X52672728Y-64261205D01*
X52675537Y-64243424D01*
X52676779Y-64241778D01*
X52688201Y-64248662D01*
X52710916Y-64266505D01*
X52733615Y-64285879D01*
X52788200Y-64326614D01*
X52857679Y-64367617D01*
X52934730Y-64405123D01*
X53012035Y-64435364D01*
X53042887Y-64445012D01*
X53111384Y-64459578D01*
X53194236Y-64469539D01*
X53283629Y-64474583D01*
X53371752Y-64474396D01*
X53450793Y-64468666D01*
X53488489Y-64462858D01*
X53626586Y-64424797D01*
X53753887Y-64367073D01*
X53869708Y-64290211D01*
X53973363Y-64194739D01*
X54064167Y-64081179D01*
X54130969Y-63970381D01*
X54185836Y-63853625D01*
X54227837Y-63734276D01*
X54257833Y-63608283D01*
X54276689Y-63471594D01*
X54285268Y-63320158D01*
X54285994Y-63242711D01*
X54283900Y-63185934D01*
X53454783Y-63185934D01*
X53454576Y-63279002D01*
X53451663Y-63366692D01*
X53446000Y-63443772D01*
X53437545Y-63505009D01*
X53434962Y-63517350D01*
X53403160Y-63624633D01*
X53361502Y-63711658D01*
X53309637Y-63778642D01*
X53247219Y-63825805D01*
X53173900Y-63853365D01*
X53089331Y-63861541D01*
X52993165Y-63850551D01*
X52929689Y-63834829D01*
X52880546Y-63816639D01*
X52826417Y-63790791D01*
X52785756Y-63767089D01*
X52715200Y-63720721D01*
X52715200Y-62570530D01*
X52782608Y-62526962D01*
X52861133Y-62486040D01*
X52945319Y-62459389D01*
X53030443Y-62447465D01*
X53111784Y-62450722D01*
X53184620Y-62469615D01*
X53216574Y-62485184D01*
X53274499Y-62528181D01*
X53323456Y-62584953D01*
X53364610Y-62657575D01*
X53399126Y-62748121D01*
X53428167Y-62858666D01*
X53429448Y-62864533D01*
X53439619Y-62926788D01*
X53447261Y-63004594D01*
X53452330Y-63092720D01*
X53454783Y-63185934D01*
X54283900Y-63185934D01*
X54278143Y-63029895D01*
X54256198Y-62834059D01*
X54220214Y-62655332D01*
X54170241Y-62493845D01*
X54106332Y-62349726D01*
X54028538Y-62223106D01*
X53936911Y-62114115D01*
X53831503Y-62022883D01*
X53786338Y-61991932D01*
X53685389Y-61935785D01*
X53582099Y-61896174D01*
X53472011Y-61872014D01*
X53350670Y-61862219D01*
X53258164Y-61863265D01*
X53128510Y-61874231D01*
X53015916Y-61896046D01*
X52917125Y-61929714D01*
X52828879Y-61976236D01*
X52780014Y-62010448D01*
X52750647Y-62032362D01*
X52728957Y-62047333D01*
X52720747Y-62051733D01*
X52719132Y-62040904D01*
X52717841Y-62010251D01*
X52716862Y-61962526D01*
X52716183Y-61900479D01*
X52715790Y-61826862D01*
X52715670Y-61744427D01*
X52715812Y-61655925D01*
X52716203Y-61564107D01*
X52716829Y-61471724D01*
X52717680Y-61381528D01*
X52718740Y-61296271D01*
X52719999Y-61218703D01*
X52721444Y-61151576D01*
X52723062Y-61097641D01*
X52724839Y-61059650D01*
X52725331Y-61052667D01*
X52732908Y-60982251D01*
X52744469Y-60927102D01*
X52762208Y-60879981D01*
X52788318Y-60833647D01*
X52794585Y-60824067D01*
X52819017Y-60787378D01*
X51913689Y-60787378D01*
X51913493Y-62472245D01*
G36*
X54285994Y-63242711D02*
G01*
X54285268Y-63320158D01*
X54276689Y-63471594D01*
X54257833Y-63608283D01*
X54227837Y-63734276D01*
X54185836Y-63853625D01*
X54130969Y-63970381D01*
X54064167Y-64081179D01*
X53973363Y-64194739D01*
X53869708Y-64290211D01*
X53753887Y-64367073D01*
X53626586Y-64424797D01*
X53488489Y-64462858D01*
X53450793Y-64468666D01*
X53371752Y-64474396D01*
X53283629Y-64474583D01*
X53194236Y-64469539D01*
X53111384Y-64459578D01*
X53042887Y-64445012D01*
X53012035Y-64435364D01*
X52934730Y-64405123D01*
X52857679Y-64367617D01*
X52788200Y-64326614D01*
X52733615Y-64285879D01*
X52710916Y-64266505D01*
X52688201Y-64248662D01*
X52676779Y-64241778D01*
X52675537Y-64243424D01*
X52672728Y-64261205D01*
X52670776Y-64294370D01*
X52670045Y-64337733D01*
X52670045Y-64433689D01*
X51811896Y-64433689D01*
X51846161Y-64372974D01*
X51851355Y-64363868D01*
X51859715Y-64349249D01*
X51867288Y-64335173D01*
X51874112Y-64320540D01*
X51880227Y-64304249D01*
X51885673Y-64285198D01*
X51890487Y-64262286D01*
X51894708Y-64234413D01*
X51898377Y-64200478D01*
X51901531Y-64159379D01*
X51904211Y-64110015D01*
X51906454Y-64051286D01*
X51908299Y-63982090D01*
X51909787Y-63901326D01*
X51910955Y-63807894D01*
X51911844Y-63700692D01*
X51912491Y-63578620D01*
X51912936Y-63440576D01*
X51913218Y-63285459D01*
X51913375Y-63112168D01*
X51913448Y-62919603D01*
X51913474Y-62706662D01*
X51913485Y-62570530D01*
X52715200Y-62570530D01*
X52715200Y-63720721D01*
X52785756Y-63767089D01*
X52826417Y-63790791D01*
X52880546Y-63816639D01*
X52929689Y-63834829D01*
X52993165Y-63850551D01*
X53089331Y-63861541D01*
X53173900Y-63853365D01*
X53247219Y-63825805D01*
X53309637Y-63778642D01*
X53361502Y-63711658D01*
X53403160Y-63624633D01*
X53434962Y-63517350D01*
X53437545Y-63505009D01*
X53446000Y-63443772D01*
X53451663Y-63366692D01*
X53454576Y-63279002D01*
X53454783Y-63185934D01*
X53452330Y-63092720D01*
X53447261Y-63004594D01*
X53439619Y-62926788D01*
X53429448Y-62864533D01*
X53428167Y-62858666D01*
X53399126Y-62748121D01*
X53364610Y-62657575D01*
X53323456Y-62584953D01*
X53274499Y-62528181D01*
X53216574Y-62485184D01*
X53184620Y-62469615D01*
X53111784Y-62450722D01*
X53030443Y-62447465D01*
X52945319Y-62459389D01*
X52861133Y-62486040D01*
X52782608Y-62526962D01*
X52715200Y-62570530D01*
X51913485Y-62570530D01*
X51913493Y-62472245D01*
X51913689Y-60787378D01*
X52819017Y-60787378D01*
X52794585Y-60824067D01*
X52788318Y-60833647D01*
X52762208Y-60879981D01*
X52744469Y-60927102D01*
X52732908Y-60982251D01*
X52725331Y-61052667D01*
X52724839Y-61059650D01*
X52723062Y-61097641D01*
X52721444Y-61151576D01*
X52719999Y-61218703D01*
X52718740Y-61296271D01*
X52717680Y-61381528D01*
X52716829Y-61471724D01*
X52716203Y-61564107D01*
X52715812Y-61655925D01*
X52715670Y-61744427D01*
X52715790Y-61826862D01*
X52716183Y-61900479D01*
X52716862Y-61962526D01*
X52717841Y-62010251D01*
X52719132Y-62040904D01*
X52720747Y-62051733D01*
X52728957Y-62047333D01*
X52750647Y-62032362D01*
X52780014Y-62010448D01*
X52828879Y-61976236D01*
X52917125Y-61929714D01*
X53015916Y-61896046D01*
X53128510Y-61874231D01*
X53258164Y-61863265D01*
X53350670Y-61862219D01*
X53472011Y-61872014D01*
X53582099Y-61896174D01*
X53685389Y-61935785D01*
X53786338Y-61991932D01*
X53831503Y-62022883D01*
X53936911Y-62114115D01*
X54028538Y-62223106D01*
X54106332Y-62349726D01*
X54170241Y-62493845D01*
X54220214Y-62655332D01*
X54256198Y-62834059D01*
X54278143Y-63029895D01*
X54283900Y-63185934D01*
X54285994Y-63242711D01*
G37*
X57771571Y-60949071D02*
X57611430Y-60970245D01*
X57447490Y-61010385D01*
X57277687Y-61069889D01*
X57099957Y-61149154D01*
X57088690Y-61154699D01*
X57030995Y-61182725D01*
X56979448Y-61206802D01*
X56937809Y-61225249D01*
X56909838Y-61236386D01*
X56900267Y-61238933D01*
X56881050Y-61243941D01*
X56876439Y-61248147D01*
X56881542Y-61258580D01*
X56897582Y-61284868D01*
X56922712Y-61324257D01*
X56955086Y-61373991D01*
X56992857Y-61431315D01*
X57034178Y-61493476D01*
X57077202Y-61557718D01*
X57120083Y-61621285D01*
X57160974Y-61681425D01*
X57198029Y-61735380D01*
X57229400Y-61780397D01*
X57253241Y-61813721D01*
X57267706Y-61832597D01*
X57269691Y-61834787D01*
X57279809Y-61830138D01*
X57302150Y-61812962D01*
X57332720Y-61786440D01*
X57348464Y-61771964D01*
X57444953Y-61696682D01*
X57551664Y-61641241D01*
X57667168Y-61606141D01*
X57790038Y-61591880D01*
X57859439Y-61593051D01*
X57980577Y-61610212D01*
X58089795Y-61646094D01*
X58187418Y-61700959D01*
X58273772Y-61775070D01*
X58349185Y-61868688D01*
X58413982Y-61982076D01*
X58451399Y-62068667D01*
X58495252Y-62204366D01*
X58527572Y-62351850D01*
X58548443Y-62507314D01*
X58557949Y-62666956D01*
X58556173Y-62826973D01*
X58543197Y-62983561D01*
X58519106Y-63132918D01*
X58483982Y-63271240D01*
X58437908Y-63394724D01*
X58421627Y-63428978D01*
X58353380Y-63543064D01*
X58272921Y-63639557D01*
X58181430Y-63717670D01*
X58080089Y-63776617D01*
X57970080Y-63815612D01*
X57852585Y-63833868D01*
X57811117Y-63835211D01*
X57689559Y-63824290D01*
X57569122Y-63791474D01*
X57451334Y-63737439D01*
X57337723Y-63662865D01*
X57246315Y-63584539D01*
X57199785Y-63540008D01*
X57018517Y-63837271D01*
X56973420Y-63911433D01*
X56932181Y-63979646D01*
X56896265Y-64039459D01*
X56867134Y-64088420D01*
X56846250Y-64124079D01*
X56835076Y-64143984D01*
X56833625Y-64147079D01*
X56841854Y-64156718D01*
X56867433Y-64173999D01*
X56907127Y-64197283D01*
X56957703Y-64224934D01*
X57015926Y-64255315D01*
X57078563Y-64286790D01*
X57142379Y-64317722D01*
X57204140Y-64346473D01*
X57260612Y-64371408D01*
X57308562Y-64390889D01*
X57332014Y-64399318D01*
X57465779Y-64437133D01*
X57603673Y-64462136D01*
X57751378Y-64475140D01*
X57878167Y-64477468D01*
X57946122Y-64476373D01*
X58011723Y-64474275D01*
X58069153Y-64471434D01*
X58112597Y-64468106D01*
X58126702Y-64466422D01*
X58265716Y-64437587D01*
X58407243Y-64392468D01*
X58544725Y-64333750D01*
X58671606Y-64264120D01*
X58749111Y-64211441D01*
X58876519Y-64103239D01*
X58994822Y-63976671D01*
X59101828Y-63834866D01*
X59195348Y-63680951D01*
X59273190Y-63518053D01*
X59317044Y-63400756D01*
X59367292Y-63217128D01*
X59400791Y-63022581D01*
X59417551Y-62821325D01*
X59417584Y-62617568D01*
X59400899Y-62415521D01*
X59367507Y-62219392D01*
X59317420Y-62033391D01*
X59313603Y-62021803D01*
X59250719Y-61859750D01*
X59173972Y-61711832D01*
X59080758Y-61573865D01*
X58968473Y-61441661D01*
X58924608Y-61396399D01*
X58788466Y-61272457D01*
X58648509Y-61169915D01*
X58502589Y-61087656D01*
X58348558Y-61024564D01*
X58184268Y-60979523D01*
X58088711Y-60962033D01*
X57929977Y-60946466D01*
X57771571Y-60949071D01*
G36*
X58088711Y-60962033D02*
G01*
X58184268Y-60979523D01*
X58348558Y-61024564D01*
X58502589Y-61087656D01*
X58648509Y-61169915D01*
X58788466Y-61272457D01*
X58924608Y-61396399D01*
X58968473Y-61441661D01*
X59080758Y-61573865D01*
X59173972Y-61711832D01*
X59250719Y-61859750D01*
X59313603Y-62021803D01*
X59317420Y-62033391D01*
X59367507Y-62219392D01*
X59400899Y-62415521D01*
X59417584Y-62617568D01*
X59417551Y-62821325D01*
X59400791Y-63022581D01*
X59367292Y-63217128D01*
X59317044Y-63400756D01*
X59273190Y-63518053D01*
X59195348Y-63680951D01*
X59101828Y-63834866D01*
X58994822Y-63976671D01*
X58876519Y-64103239D01*
X58749111Y-64211441D01*
X58671606Y-64264120D01*
X58544725Y-64333750D01*
X58407243Y-64392468D01*
X58265716Y-64437587D01*
X58126702Y-64466422D01*
X58112597Y-64468106D01*
X58069153Y-64471434D01*
X58011723Y-64474275D01*
X57946122Y-64476373D01*
X57878167Y-64477468D01*
X57751378Y-64475140D01*
X57603673Y-64462136D01*
X57465779Y-64437133D01*
X57332014Y-64399318D01*
X57308562Y-64390889D01*
X57260612Y-64371408D01*
X57204140Y-64346473D01*
X57142379Y-64317722D01*
X57078563Y-64286790D01*
X57015926Y-64255315D01*
X56957703Y-64224934D01*
X56907127Y-64197283D01*
X56867433Y-64173999D01*
X56841854Y-64156718D01*
X56833625Y-64147079D01*
X56835076Y-64143984D01*
X56846250Y-64124079D01*
X56867134Y-64088420D01*
X56896265Y-64039459D01*
X56932181Y-63979646D01*
X56973420Y-63911433D01*
X57018517Y-63837271D01*
X57199785Y-63540008D01*
X57246315Y-63584539D01*
X57337723Y-63662865D01*
X57451334Y-63737439D01*
X57569122Y-63791474D01*
X57689559Y-63824290D01*
X57811117Y-63835211D01*
X57852585Y-63833868D01*
X57970080Y-63815612D01*
X58080089Y-63776617D01*
X58181430Y-63717670D01*
X58272921Y-63639557D01*
X58353380Y-63543064D01*
X58421627Y-63428978D01*
X58437908Y-63394724D01*
X58483982Y-63271240D01*
X58519106Y-63132918D01*
X58543197Y-62983561D01*
X58556173Y-62826973D01*
X58557949Y-62666956D01*
X58548443Y-62507314D01*
X58527572Y-62351850D01*
X58495252Y-62204366D01*
X58451399Y-62068667D01*
X58413982Y-61982076D01*
X58349185Y-61868688D01*
X58273772Y-61775070D01*
X58187418Y-61700959D01*
X58089795Y-61646094D01*
X57980577Y-61610212D01*
X57859439Y-61593051D01*
X57790038Y-61591880D01*
X57667168Y-61606141D01*
X57551664Y-61641241D01*
X57444953Y-61696682D01*
X57348464Y-61771964D01*
X57332720Y-61786440D01*
X57302150Y-61812962D01*
X57279809Y-61830138D01*
X57269691Y-61834787D01*
X57267706Y-61832597D01*
X57253241Y-61813721D01*
X57229400Y-61780397D01*
X57198029Y-61735380D01*
X57160974Y-61681425D01*
X57120083Y-61621285D01*
X57077202Y-61557718D01*
X57034178Y-61493476D01*
X56992857Y-61431315D01*
X56955086Y-61373991D01*
X56922712Y-61324257D01*
X56897582Y-61284868D01*
X56881542Y-61258580D01*
X56876439Y-61248147D01*
X56881050Y-61243941D01*
X56900267Y-61238933D01*
X56909838Y-61236386D01*
X56937809Y-61225249D01*
X56979448Y-61206802D01*
X57030995Y-61182725D01*
X57088690Y-61154699D01*
X57099957Y-61149154D01*
X57277687Y-61069889D01*
X57447490Y-61010385D01*
X57611430Y-60970245D01*
X57771571Y-60949071D01*
X57929977Y-60946466D01*
X58088711Y-60962033D01*
G37*
X61791703Y-65270351D02*
X61716888Y-65275581D01*
X61647306Y-65283750D01*
X61587002Y-65294550D01*
X61540020Y-65307673D01*
X61510406Y-65322813D01*
X61505860Y-65327269D01*
X61490054Y-65361850D01*
X61494847Y-65397351D01*
X61519364Y-65427725D01*
X61520534Y-65428596D01*
X61534954Y-65437954D01*
X61550008Y-65442876D01*
X61571005Y-65443473D01*
X61603257Y-65439861D01*
X61652073Y-65432154D01*
X61656000Y-65431505D01*
X61728739Y-65422569D01*
X61807217Y-65418161D01*
X61885927Y-65418119D01*
X61959361Y-65422279D01*
X62022011Y-65430479D01*
X62068370Y-65442557D01*
X62071416Y-65443771D01*
X62105048Y-65462615D01*
X62116864Y-65481685D01*
X62107614Y-65500439D01*
X62078047Y-65518337D01*
X62028911Y-65534837D01*
X61960957Y-65549396D01*
X61915645Y-65556406D01*
X61821456Y-65569889D01*
X61746544Y-65582214D01*
X61687717Y-65594449D01*
X61641785Y-65607661D01*
X61605555Y-65622917D01*
X61575838Y-65641285D01*
X61549442Y-65663831D01*
X61528230Y-65685971D01*
X61503065Y-65716819D01*
X61490681Y-65743345D01*
X61486808Y-65776026D01*
X61486667Y-65787995D01*
X61489576Y-65827712D01*
X61501202Y-65857259D01*
X61521323Y-65883486D01*
X61562216Y-65923576D01*
X61607817Y-65954149D01*
X61661513Y-65976203D01*
X61726692Y-65990735D01*
X61806744Y-65998741D01*
X61905057Y-66001218D01*
X61921289Y-66001177D01*
X61986849Y-65999818D01*
X62051866Y-65996730D01*
X62109252Y-65992356D01*
X62151922Y-65987140D01*
X62155372Y-65986541D01*
X62197796Y-65976491D01*
X62233780Y-65963796D01*
X62254150Y-65952190D01*
X62273107Y-65921572D01*
X62274427Y-65885918D01*
X62258085Y-65854144D01*
X62254429Y-65850551D01*
X62239315Y-65839876D01*
X62220415Y-65835276D01*
X62191162Y-65836059D01*
X62155651Y-65840127D01*
X62115970Y-65843762D01*
X62060345Y-65846828D01*
X61995406Y-65849053D01*
X61927785Y-65850164D01*
X61910000Y-65850237D01*
X61842128Y-65849964D01*
X61792454Y-65848646D01*
X61756610Y-65845827D01*
X61730224Y-65841050D01*
X61708926Y-65833857D01*
X61696126Y-65827867D01*
X61668000Y-65811233D01*
X61650068Y-65796168D01*
X61647447Y-65791897D01*
X61652976Y-65774263D01*
X61679260Y-65757192D01*
X61724478Y-65741458D01*
X61786808Y-65727838D01*
X61805171Y-65724804D01*
X61901090Y-65709738D01*
X61977641Y-65697146D01*
X62037780Y-65686111D01*
X62084460Y-65675720D01*
X62120637Y-65665056D01*
X62149265Y-65653205D01*
X62173298Y-65639251D01*
X62195692Y-65622281D01*
X62219402Y-65601378D01*
X62227380Y-65594049D01*
X62255353Y-65566699D01*
X62270160Y-65545029D01*
X62275952Y-65520232D01*
X62276889Y-65488983D01*
X62266575Y-65427705D01*
X62235752Y-65375640D01*
X62184595Y-65332958D01*
X62113283Y-65299825D01*
X62062400Y-65284964D01*
X62007100Y-65275366D01*
X61940853Y-65269936D01*
X61867706Y-65268367D01*
X61791703Y-65270351D01*
G36*
X61940853Y-65269936D02*
G01*
X62007100Y-65275366D01*
X62062400Y-65284964D01*
X62113283Y-65299825D01*
X62184595Y-65332958D01*
X62235752Y-65375640D01*
X62266575Y-65427705D01*
X62276889Y-65488983D01*
X62275952Y-65520232D01*
X62270160Y-65545029D01*
X62255353Y-65566699D01*
X62227380Y-65594049D01*
X62219402Y-65601378D01*
X62195692Y-65622281D01*
X62173298Y-65639251D01*
X62149265Y-65653205D01*
X62120637Y-65665056D01*
X62084460Y-65675720D01*
X62037780Y-65686111D01*
X61977641Y-65697146D01*
X61901090Y-65709738D01*
X61805171Y-65724804D01*
X61786808Y-65727838D01*
X61724478Y-65741458D01*
X61679260Y-65757192D01*
X61652976Y-65774263D01*
X61647447Y-65791897D01*
X61650068Y-65796168D01*
X61668000Y-65811233D01*
X61696126Y-65827867D01*
X61708926Y-65833857D01*
X61730224Y-65841050D01*
X61756610Y-65845827D01*
X61792454Y-65848646D01*
X61842128Y-65849964D01*
X61910000Y-65850237D01*
X61927785Y-65850164D01*
X61995406Y-65849053D01*
X62060345Y-65846828D01*
X62115970Y-65843762D01*
X62155651Y-65840127D01*
X62191162Y-65836059D01*
X62220415Y-65835276D01*
X62239315Y-65839876D01*
X62254429Y-65850551D01*
X62258085Y-65854144D01*
X62274427Y-65885918D01*
X62273107Y-65921572D01*
X62254150Y-65952190D01*
X62233780Y-65963796D01*
X62197796Y-65976491D01*
X62155372Y-65986541D01*
X62151922Y-65987140D01*
X62109252Y-65992356D01*
X62051866Y-65996730D01*
X61986849Y-65999818D01*
X61921289Y-66001177D01*
X61905057Y-66001218D01*
X61806744Y-65998741D01*
X61726692Y-65990735D01*
X61661513Y-65976203D01*
X61607817Y-65954149D01*
X61562216Y-65923576D01*
X61521323Y-65883486D01*
X61501202Y-65857259D01*
X61489576Y-65827712D01*
X61486667Y-65787995D01*
X61486808Y-65776026D01*
X61490681Y-65743345D01*
X61503065Y-65716819D01*
X61528230Y-65685971D01*
X61549442Y-65663831D01*
X61575838Y-65641285D01*
X61605555Y-65622917D01*
X61641785Y-65607661D01*
X61687717Y-65594449D01*
X61746544Y-65582214D01*
X61821456Y-65569889D01*
X61915645Y-65556406D01*
X61960957Y-65549396D01*
X62028911Y-65534837D01*
X62078047Y-65518337D01*
X62107614Y-65500439D01*
X62116864Y-65481685D01*
X62105048Y-65462615D01*
X62071416Y-65443771D01*
X62068370Y-65442557D01*
X62022011Y-65430479D01*
X61959361Y-65422279D01*
X61885927Y-65418119D01*
X61807217Y-65418161D01*
X61728739Y-65422569D01*
X61656000Y-65431505D01*
X61652073Y-65432154D01*
X61603257Y-65439861D01*
X61571005Y-65443473D01*
X61550008Y-65442876D01*
X61534954Y-65437954D01*
X61520534Y-65428596D01*
X61519364Y-65427725D01*
X61494847Y-65397351D01*
X61490054Y-65361850D01*
X61505860Y-65327269D01*
X61510406Y-65322813D01*
X61540020Y-65307673D01*
X61587002Y-65294550D01*
X61647306Y-65283750D01*
X61716888Y-65275581D01*
X61791703Y-65270351D01*
X61867706Y-65268367D01*
X61940853Y-65269936D01*
G37*
X54355335Y-65271034D02*
X54335745Y-65278035D01*
X54334990Y-65278377D01*
X54308387Y-65298678D01*
X54293730Y-65319561D01*
X54290862Y-65329352D01*
X54291004Y-65342361D01*
X54295039Y-65360895D01*
X54303854Y-65387257D01*
X54318331Y-65423752D01*
X54339355Y-65472687D01*
X54367812Y-65536365D01*
X54404585Y-65617093D01*
X54424825Y-65661216D01*
X54461375Y-65739985D01*
X54495685Y-65812423D01*
X54526448Y-65875880D01*
X54552352Y-65927708D01*
X54572090Y-65965259D01*
X54584350Y-65985884D01*
X54586776Y-65988733D01*
X54617817Y-66001302D01*
X54652879Y-65999619D01*
X54681000Y-65984332D01*
X54682146Y-65983089D01*
X54693332Y-65966154D01*
X54712096Y-65933170D01*
X54736125Y-65888380D01*
X54763103Y-65836032D01*
X54772799Y-65816742D01*
X54845986Y-65670150D01*
X54925760Y-65829393D01*
X54954233Y-65884415D01*
X54980650Y-65932132D01*
X55002852Y-65968893D01*
X55018681Y-65991044D01*
X55024046Y-65995741D01*
X55065743Y-66002102D01*
X55100151Y-65988733D01*
X55110272Y-65974446D01*
X55127786Y-65942692D01*
X55151265Y-65896597D01*
X55179280Y-65839285D01*
X55210401Y-65773880D01*
X55243201Y-65703507D01*
X55276250Y-65631291D01*
X55308119Y-65560355D01*
X55337381Y-65493825D01*
X55362605Y-65434826D01*
X55382364Y-65386481D01*
X55395228Y-65351915D01*
X55399769Y-65334253D01*
X55399723Y-65333613D01*
X55388674Y-65311388D01*
X55366590Y-65288753D01*
X55365290Y-65287768D01*
X55338147Y-65272425D01*
X55313042Y-65272574D01*
X55303632Y-65275466D01*
X55292166Y-65281718D01*
X55279990Y-65294014D01*
X55265643Y-65314908D01*
X55247664Y-65346949D01*
X55224593Y-65392688D01*
X55194970Y-65454677D01*
X55168255Y-65511898D01*
X55137520Y-65578226D01*
X55109979Y-65637874D01*
X55087062Y-65687725D01*
X55070202Y-65724664D01*
X55060827Y-65745573D01*
X55059460Y-65748845D01*
X55053311Y-65743497D01*
X55039178Y-65721109D01*
X55018943Y-65684946D01*
X54994485Y-65638277D01*
X54984752Y-65619022D01*
X54951783Y-65554004D01*
X54926357Y-65506654D01*
X54906388Y-65474219D01*
X54889790Y-65453946D01*
X54874476Y-65443082D01*
X54858360Y-65438875D01*
X54847857Y-65438400D01*
X54829330Y-65440042D01*
X54813096Y-65446831D01*
X54796965Y-65461566D01*
X54778749Y-65487044D01*
X54756261Y-65526061D01*
X54727311Y-65581414D01*
X54711338Y-65612903D01*
X54685430Y-65663087D01*
X54662833Y-65704704D01*
X54645542Y-65734242D01*
X54635550Y-65748189D01*
X54634191Y-65748770D01*
X54627739Y-65737793D01*
X54613292Y-65709290D01*
X54592297Y-65666244D01*
X54566203Y-65611638D01*
X54536454Y-65548454D01*
X54521820Y-65517071D01*
X54483750Y-65436078D01*
X54453095Y-65373756D01*
X54428263Y-65328071D01*
X54407663Y-65296989D01*
X54389702Y-65278478D01*
X54372790Y-65270504D01*
X54355335Y-65271034D01*
G36*
X54389702Y-65278478D02*
G01*
X54407663Y-65296989D01*
X54428263Y-65328071D01*
X54453095Y-65373756D01*
X54483750Y-65436078D01*
X54521820Y-65517071D01*
X54536454Y-65548454D01*
X54566203Y-65611638D01*
X54592297Y-65666244D01*
X54613292Y-65709290D01*
X54627739Y-65737793D01*
X54634191Y-65748770D01*
X54635550Y-65748189D01*
X54645542Y-65734242D01*
X54662833Y-65704704D01*
X54685430Y-65663087D01*
X54711338Y-65612903D01*
X54727311Y-65581414D01*
X54756261Y-65526061D01*
X54778749Y-65487044D01*
X54796965Y-65461566D01*
X54813096Y-65446831D01*
X54829330Y-65440042D01*
X54847857Y-65438400D01*
X54858360Y-65438875D01*
X54874476Y-65443082D01*
X54889790Y-65453946D01*
X54906388Y-65474219D01*
X54926357Y-65506654D01*
X54951783Y-65554004D01*
X54984752Y-65619022D01*
X54994485Y-65638277D01*
X55018943Y-65684946D01*
X55039178Y-65721109D01*
X55053311Y-65743497D01*
X55059460Y-65748845D01*
X55060827Y-65745573D01*
X55070202Y-65724664D01*
X55087062Y-65687725D01*
X55109979Y-65637874D01*
X55137520Y-65578226D01*
X55168255Y-65511898D01*
X55194970Y-65454677D01*
X55224593Y-65392688D01*
X55247664Y-65346949D01*
X55265643Y-65314908D01*
X55279990Y-65294014D01*
X55292166Y-65281718D01*
X55303632Y-65275466D01*
X55313042Y-65272574D01*
X55338147Y-65272425D01*
X55365290Y-65287768D01*
X55366590Y-65288753D01*
X55388674Y-65311388D01*
X55399723Y-65333613D01*
X55399769Y-65334253D01*
X55395228Y-65351915D01*
X55382364Y-65386481D01*
X55362605Y-65434826D01*
X55337381Y-65493825D01*
X55308119Y-65560355D01*
X55276250Y-65631291D01*
X55243201Y-65703507D01*
X55210401Y-65773880D01*
X55179280Y-65839285D01*
X55151265Y-65896597D01*
X55127786Y-65942692D01*
X55110272Y-65974446D01*
X55100151Y-65988733D01*
X55065743Y-66002102D01*
X55024046Y-65995741D01*
X55018681Y-65991044D01*
X55002852Y-65968893D01*
X54980650Y-65932132D01*
X54954233Y-65884415D01*
X54925760Y-65829393D01*
X54845986Y-65670150D01*
X54772799Y-65816742D01*
X54763103Y-65836032D01*
X54736125Y-65888380D01*
X54712096Y-65933170D01*
X54693332Y-65966154D01*
X54682146Y-65983089D01*
X54681000Y-65984332D01*
X54652879Y-65999619D01*
X54617817Y-66001302D01*
X54586776Y-65988733D01*
X54584350Y-65985884D01*
X54572090Y-65965259D01*
X54552352Y-65927708D01*
X54526448Y-65875880D01*
X54495685Y-65812423D01*
X54461375Y-65739985D01*
X54424825Y-65661216D01*
X54404585Y-65617093D01*
X54367812Y-65536365D01*
X54339355Y-65472687D01*
X54318331Y-65423752D01*
X54303854Y-65387257D01*
X54295039Y-65360895D01*
X54291004Y-65342361D01*
X54290862Y-65329352D01*
X54293730Y-65319561D01*
X54308387Y-65298678D01*
X54334990Y-65278377D01*
X54335745Y-65278035D01*
X54355335Y-65271034D01*
X54372790Y-65270504D01*
X54389702Y-65278478D01*
G37*
X62812794Y-65269146D02*
X62743386Y-65269518D01*
X62690997Y-65270385D01*
X62652847Y-65271946D01*
X62626159Y-65274403D01*
X62608153Y-65277957D01*
X62596049Y-65282810D01*
X62587069Y-65289161D01*
X62583818Y-65292084D01*
X62564043Y-65323142D01*
X62560482Y-65358828D01*
X62573491Y-65390510D01*
X62579506Y-65396913D01*
X62589235Y-65403121D01*
X62604901Y-65407910D01*
X62629408Y-65411514D01*
X62665661Y-65414164D01*
X62716565Y-65416095D01*
X62785026Y-65417539D01*
X62847617Y-65418418D01*
X63095334Y-65421467D01*
X63098719Y-65486378D01*
X63102105Y-65551289D01*
X62933958Y-65551289D01*
X62860959Y-65551919D01*
X62807517Y-65554553D01*
X62770628Y-65560309D01*
X62747288Y-65570304D01*
X62734494Y-65585656D01*
X62729242Y-65607482D01*
X62728445Y-65627738D01*
X62730923Y-65652592D01*
X62740277Y-65670906D01*
X62759383Y-65683637D01*
X62791118Y-65691741D01*
X62838359Y-65696176D01*
X62903983Y-65697899D01*
X62939801Y-65698045D01*
X63100978Y-65698045D01*
X63100978Y-65856089D01*
X62852622Y-65856089D01*
X62771213Y-65856202D01*
X62709342Y-65856712D01*
X62663968Y-65857870D01*
X62632054Y-65859930D01*
X62610559Y-65863146D01*
X62596443Y-65867772D01*
X62586668Y-65874059D01*
X62581689Y-65878667D01*
X62564610Y-65905560D01*
X62559111Y-65929467D01*
X62566963Y-65958667D01*
X62581689Y-65980267D01*
X62589546Y-65987066D01*
X62599688Y-65992346D01*
X62614844Y-65996298D01*
X62637741Y-65999113D01*
X62671109Y-66000982D01*
X62717675Y-66002098D01*
X62780167Y-66002651D01*
X62861314Y-66002833D01*
X62903422Y-66002845D01*
X62993598Y-66002765D01*
X63063924Y-66002398D01*
X63117129Y-66001552D01*
X63155940Y-66000036D01*
X63183087Y-65997659D01*
X63201298Y-65994229D01*
X63213300Y-65989554D01*
X63221822Y-65983444D01*
X63225156Y-65980267D01*
X63231755Y-65972670D01*
X63236927Y-65962870D01*
X63240846Y-65948239D01*
X63243684Y-65926152D01*
X63245615Y-65893982D01*
X63246812Y-65849103D01*
X63247448Y-65788889D01*
X63247697Y-65710713D01*
X63247734Y-65637923D01*
X63247700Y-65544707D01*
X63247465Y-65471431D01*
X63246830Y-65415458D01*
X63245594Y-65374151D01*
X63243556Y-65344872D01*
X63240517Y-65324984D01*
X63236277Y-65311850D01*
X63230635Y-65302832D01*
X63223391Y-65295293D01*
X63221606Y-65293612D01*
X63212945Y-65286172D01*
X63202882Y-65280409D01*
X63188625Y-65276112D01*
X63167383Y-65273064D01*
X63136364Y-65271051D01*
X63092777Y-65269860D01*
X63033831Y-65269275D01*
X62956734Y-65269083D01*
X62902001Y-65269067D01*
X62812794Y-65269146D01*
G36*
X62956734Y-65269083D02*
G01*
X63033831Y-65269275D01*
X63092777Y-65269860D01*
X63136364Y-65271051D01*
X63167383Y-65273064D01*
X63188625Y-65276112D01*
X63202882Y-65280409D01*
X63212945Y-65286172D01*
X63221606Y-65293612D01*
X63223391Y-65295293D01*
X63230635Y-65302832D01*
X63236277Y-65311850D01*
X63240517Y-65324984D01*
X63243556Y-65344872D01*
X63245594Y-65374151D01*
X63246830Y-65415458D01*
X63247465Y-65471431D01*
X63247700Y-65544707D01*
X63247734Y-65637923D01*
X63247697Y-65710713D01*
X63247448Y-65788889D01*
X63246812Y-65849103D01*
X63245615Y-65893982D01*
X63243684Y-65926152D01*
X63240846Y-65948239D01*
X63236927Y-65962870D01*
X63231755Y-65972670D01*
X63225156Y-65980267D01*
X63221822Y-65983444D01*
X63213300Y-65989554D01*
X63201298Y-65994229D01*
X63183087Y-65997659D01*
X63155940Y-66000036D01*
X63117129Y-66001552D01*
X63063924Y-66002398D01*
X62993598Y-66002765D01*
X62903422Y-66002845D01*
X62861314Y-66002833D01*
X62780167Y-66002651D01*
X62717675Y-66002098D01*
X62671109Y-66000982D01*
X62637741Y-65999113D01*
X62614844Y-65996298D01*
X62599688Y-65992346D01*
X62589546Y-65987066D01*
X62581689Y-65980267D01*
X62566963Y-65958667D01*
X62559111Y-65929467D01*
X62564610Y-65905560D01*
X62581689Y-65878667D01*
X62586668Y-65874059D01*
X62596443Y-65867772D01*
X62610559Y-65863146D01*
X62632054Y-65859930D01*
X62663968Y-65857870D01*
X62709342Y-65856712D01*
X62771213Y-65856202D01*
X62852622Y-65856089D01*
X63100978Y-65856089D01*
X63100978Y-65698045D01*
X62939801Y-65698045D01*
X62903983Y-65697899D01*
X62838359Y-65696176D01*
X62791118Y-65691741D01*
X62759383Y-65683637D01*
X62740277Y-65670906D01*
X62730923Y-65652592D01*
X62728445Y-65627738D01*
X62729242Y-65607482D01*
X62734494Y-65585656D01*
X62747288Y-65570304D01*
X62770628Y-65560309D01*
X62807517Y-65554553D01*
X62860959Y-65551919D01*
X62933958Y-65551289D01*
X63102105Y-65551289D01*
X63098719Y-65486378D01*
X63095334Y-65421467D01*
X62847617Y-65418418D01*
X62785026Y-65417539D01*
X62716565Y-65416095D01*
X62665661Y-65414164D01*
X62629408Y-65411514D01*
X62604901Y-65407910D01*
X62589235Y-65403121D01*
X62579506Y-65396913D01*
X62573491Y-65390510D01*
X62560482Y-65358828D01*
X62564043Y-65323142D01*
X62583818Y-65292084D01*
X62587069Y-65289161D01*
X62596049Y-65282810D01*
X62608153Y-65277957D01*
X62626159Y-65274403D01*
X62652847Y-65271946D01*
X62690997Y-65270385D01*
X62743386Y-65269518D01*
X62812794Y-65269146D01*
X62902001Y-65269067D01*
X62956734Y-65269083D01*
G37*
X57869657Y-65269260D02*
X57793299Y-65270174D01*
X57734783Y-65272311D01*
X57691745Y-65276175D01*
X57661817Y-65282267D01*
X57642632Y-65291090D01*
X57631824Y-65303146D01*
X57627027Y-65318939D01*
X57625873Y-65338970D01*
X57625867Y-65341335D01*
X57626869Y-65363992D01*
X57631604Y-65381503D01*
X57642667Y-65394574D01*
X57662652Y-65403913D01*
X57694154Y-65410227D01*
X57739768Y-65414222D01*
X57802087Y-65416606D01*
X57883707Y-65418086D01*
X57908723Y-65418414D01*
X58150800Y-65421467D01*
X58154186Y-65486378D01*
X58157571Y-65551289D01*
X57989424Y-65551289D01*
X57923734Y-65551531D01*
X57876828Y-65552556D01*
X57844917Y-65554811D01*
X57824209Y-65558742D01*
X57810916Y-65564798D01*
X57801245Y-65573424D01*
X57801183Y-65573493D01*
X57783644Y-65607112D01*
X57784278Y-65643448D01*
X57802686Y-65674423D01*
X57806329Y-65677607D01*
X57819259Y-65685812D01*
X57836976Y-65691521D01*
X57863430Y-65695162D01*
X57902568Y-65697167D01*
X57958338Y-65697964D01*
X57994006Y-65698045D01*
X58156445Y-65698045D01*
X58156445Y-65856089D01*
X57909839Y-65856089D01*
X57828420Y-65856231D01*
X57766590Y-65856814D01*
X57721363Y-65858068D01*
X57689752Y-65860227D01*
X57668769Y-65863523D01*
X57655427Y-65868189D01*
X57646739Y-65874457D01*
X57644550Y-65876733D01*
X57628386Y-65908280D01*
X57627203Y-65944168D01*
X57640464Y-65975285D01*
X57650957Y-65985271D01*
X57661871Y-65990769D01*
X57678783Y-65995022D01*
X57704367Y-65998180D01*
X57741299Y-66000392D01*
X57792254Y-66001806D01*
X57859906Y-66002572D01*
X57946931Y-66002838D01*
X57966606Y-66002845D01*
X58055089Y-66002787D01*
X58123773Y-66002467D01*
X58175436Y-66001667D01*
X58212855Y-66000167D01*
X58238810Y-65997749D01*
X58256078Y-65994194D01*
X58267438Y-65989282D01*
X58275668Y-65982795D01*
X58280183Y-65978138D01*
X58286979Y-65969889D01*
X58292288Y-65959669D01*
X58296294Y-65944800D01*
X58299179Y-65922602D01*
X58301126Y-65890393D01*
X58302319Y-65845496D01*
X58302939Y-65785228D01*
X58303171Y-65706911D01*
X58303200Y-65640994D01*
X58303129Y-65548628D01*
X58302792Y-65476117D01*
X58302002Y-65420737D01*
X58300574Y-65379765D01*
X58298321Y-65350478D01*
X58295057Y-65330153D01*
X58290596Y-65316066D01*
X58284752Y-65305495D01*
X58279803Y-65298811D01*
X58256406Y-65269067D01*
X57966226Y-65269067D01*
X57869657Y-65269260D01*
G36*
X58279803Y-65298811D02*
G01*
X58284752Y-65305495D01*
X58290596Y-65316066D01*
X58295057Y-65330153D01*
X58298321Y-65350478D01*
X58300574Y-65379765D01*
X58302002Y-65420737D01*
X58302792Y-65476117D01*
X58303129Y-65548628D01*
X58303200Y-65640994D01*
X58303171Y-65706911D01*
X58302939Y-65785228D01*
X58302319Y-65845496D01*
X58301126Y-65890393D01*
X58299179Y-65922602D01*
X58296294Y-65944800D01*
X58292288Y-65959669D01*
X58286979Y-65969889D01*
X58280183Y-65978138D01*
X58275668Y-65982795D01*
X58267438Y-65989282D01*
X58256078Y-65994194D01*
X58238810Y-65997749D01*
X58212855Y-66000167D01*
X58175436Y-66001667D01*
X58123773Y-66002467D01*
X58055089Y-66002787D01*
X57966606Y-66002845D01*
X57946931Y-66002838D01*
X57859906Y-66002572D01*
X57792254Y-66001806D01*
X57741299Y-66000392D01*
X57704367Y-65998180D01*
X57678783Y-65995022D01*
X57661871Y-65990769D01*
X57650957Y-65985271D01*
X57640464Y-65975285D01*
X57627203Y-65944168D01*
X57628386Y-65908280D01*
X57644550Y-65876733D01*
X57646739Y-65874457D01*
X57655427Y-65868189D01*
X57668769Y-65863523D01*
X57689752Y-65860227D01*
X57721363Y-65858068D01*
X57766590Y-65856814D01*
X57828420Y-65856231D01*
X57909839Y-65856089D01*
X58156445Y-65856089D01*
X58156445Y-65698045D01*
X57994006Y-65698045D01*
X57958338Y-65697964D01*
X57902568Y-65697167D01*
X57863430Y-65695162D01*
X57836976Y-65691521D01*
X57819259Y-65685812D01*
X57806329Y-65677607D01*
X57802686Y-65674423D01*
X57784278Y-65643448D01*
X57783644Y-65607112D01*
X57801183Y-65573493D01*
X57801245Y-65573424D01*
X57810916Y-65564798D01*
X57824209Y-65558742D01*
X57844917Y-65554811D01*
X57876828Y-65552556D01*
X57923734Y-65551531D01*
X57989424Y-65551289D01*
X58157571Y-65551289D01*
X58154186Y-65486378D01*
X58150800Y-65421467D01*
X57908723Y-65418414D01*
X57883707Y-65418086D01*
X57802087Y-65416606D01*
X57739768Y-65414222D01*
X57694154Y-65410227D01*
X57662652Y-65403913D01*
X57642667Y-65394574D01*
X57631604Y-65381503D01*
X57626869Y-65363992D01*
X57625867Y-65341335D01*
X57625873Y-65338970D01*
X57627027Y-65318939D01*
X57631824Y-65303146D01*
X57642632Y-65291090D01*
X57661817Y-65282267D01*
X57691745Y-65276175D01*
X57734783Y-65272311D01*
X57793299Y-65270174D01*
X57869657Y-65269260D01*
X57966226Y-65269067D01*
X58256406Y-65269067D01*
X58279803Y-65298811D01*
G37*
X60050081Y-65274599D02*
X59981565Y-65286095D01*
X59928943Y-65303967D01*
X59894708Y-65327499D01*
X59885379Y-65340924D01*
X59875893Y-65372148D01*
X59882277Y-65400395D01*
X59902430Y-65427182D01*
X59933745Y-65439713D01*
X59979183Y-65438696D01*
X60014326Y-65431906D01*
X60092419Y-65418971D01*
X60172226Y-65417742D01*
X60261555Y-65428241D01*
X60286229Y-65432690D01*
X60369291Y-65456108D01*
X60434273Y-65490945D01*
X60480461Y-65536604D01*
X60507145Y-65592494D01*
X60512663Y-65621388D01*
X60509051Y-65680012D01*
X60485729Y-65731879D01*
X60444824Y-65775978D01*
X60388459Y-65811299D01*
X60318760Y-65836829D01*
X60237852Y-65851559D01*
X60147860Y-65854478D01*
X60050910Y-65844575D01*
X60045436Y-65843641D01*
X60006875Y-65836459D01*
X59985494Y-65829521D01*
X59976227Y-65819227D01*
X59974006Y-65801976D01*
X59973956Y-65792841D01*
X59973956Y-65754489D01*
X60042431Y-65754489D01*
X60102900Y-65750347D01*
X60144165Y-65737147D01*
X60168175Y-65713730D01*
X60176877Y-65678936D01*
X60176983Y-65674394D01*
X60171892Y-65644654D01*
X60154433Y-65623419D01*
X60121939Y-65609366D01*
X60071743Y-65601173D01*
X60023123Y-65598161D01*
X59952456Y-65596433D01*
X59901198Y-65599070D01*
X59866239Y-65608800D01*
X59844470Y-65628353D01*
X59832780Y-65660456D01*
X59828060Y-65707838D01*
X59827200Y-65770071D01*
X59828609Y-65839535D01*
X59832848Y-65886786D01*
X59839936Y-65912012D01*
X59841311Y-65913988D01*
X59880228Y-65945508D01*
X59937286Y-65970470D01*
X60008869Y-65988340D01*
X60091358Y-65998586D01*
X60181139Y-66000673D01*
X60274592Y-65994068D01*
X60329556Y-65985956D01*
X60415766Y-65961554D01*
X60495892Y-65921662D01*
X60562977Y-65869887D01*
X60573173Y-65859539D01*
X60606302Y-65816035D01*
X60636194Y-65762118D01*
X60659357Y-65705592D01*
X60672298Y-65654259D01*
X60673858Y-65634544D01*
X60667218Y-65593419D01*
X60649568Y-65542252D01*
X60624297Y-65488394D01*
X60594789Y-65439195D01*
X60568719Y-65406334D01*
X60507765Y-65357452D01*
X60428969Y-65318545D01*
X60335157Y-65290494D01*
X60229150Y-65274179D01*
X60132000Y-65270192D01*
X60050081Y-65274599D01*
G36*
X60229150Y-65274179D02*
G01*
X60335157Y-65290494D01*
X60428969Y-65318545D01*
X60507765Y-65357452D01*
X60568719Y-65406334D01*
X60594789Y-65439195D01*
X60624297Y-65488394D01*
X60649568Y-65542252D01*
X60667218Y-65593419D01*
X60673858Y-65634544D01*
X60672298Y-65654259D01*
X60659357Y-65705592D01*
X60636194Y-65762118D01*
X60606302Y-65816035D01*
X60573173Y-65859539D01*
X60562977Y-65869887D01*
X60495892Y-65921662D01*
X60415766Y-65961554D01*
X60329556Y-65985956D01*
X60274592Y-65994068D01*
X60181139Y-66000673D01*
X60091358Y-65998586D01*
X60008869Y-65988340D01*
X59937286Y-65970470D01*
X59880228Y-65945508D01*
X59841311Y-65913988D01*
X59839936Y-65912012D01*
X59832848Y-65886786D01*
X59828609Y-65839535D01*
X59827200Y-65770071D01*
X59828060Y-65707838D01*
X59832780Y-65660456D01*
X59844470Y-65628353D01*
X59866239Y-65608800D01*
X59901198Y-65599070D01*
X59952456Y-65596433D01*
X60023123Y-65598161D01*
X60071743Y-65601173D01*
X60121939Y-65609366D01*
X60154433Y-65623419D01*
X60171892Y-65644654D01*
X60176983Y-65674394D01*
X60176877Y-65678936D01*
X60168175Y-65713730D01*
X60144165Y-65737147D01*
X60102900Y-65750347D01*
X60042431Y-65754489D01*
X59973956Y-65754489D01*
X59973956Y-65792841D01*
X59974006Y-65801976D01*
X59976227Y-65819227D01*
X59985494Y-65829521D01*
X60006875Y-65836459D01*
X60045436Y-65843641D01*
X60050910Y-65844575D01*
X60147860Y-65854478D01*
X60237852Y-65851559D01*
X60318760Y-65836829D01*
X60388459Y-65811299D01*
X60444824Y-65775978D01*
X60485729Y-65731879D01*
X60509051Y-65680012D01*
X60512663Y-65621388D01*
X60507145Y-65592494D01*
X60480461Y-65536604D01*
X60434273Y-65490945D01*
X60369291Y-65456108D01*
X60286229Y-65432690D01*
X60261555Y-65428241D01*
X60172226Y-65417742D01*
X60092419Y-65418971D01*
X60014326Y-65431906D01*
X59979183Y-65438696D01*
X59933745Y-65439713D01*
X59902430Y-65427182D01*
X59882277Y-65400395D01*
X59875893Y-65372148D01*
X59885379Y-65340924D01*
X59894708Y-65327499D01*
X59928943Y-65303967D01*
X59981565Y-65286095D01*
X60050081Y-65274599D01*
X60132000Y-65270192D01*
X60229150Y-65274179D01*
G37*
X59400114Y-65273448D02*
X59376548Y-65287273D01*
X59345735Y-65309881D01*
X59306078Y-65342338D01*
X59255980Y-65385708D01*
X59193843Y-65441058D01*
X59118072Y-65509451D01*
X59031334Y-65588084D01*
X58850711Y-65751878D01*
X58845067Y-65532029D01*
X58843029Y-65456351D01*
X58841063Y-65399994D01*
X58838734Y-65359706D01*
X58835606Y-65332235D01*
X58831245Y-65314329D01*
X58825216Y-65302737D01*
X58817084Y-65294208D01*
X58812772Y-65290623D01*
X58778241Y-65271670D01*
X58745383Y-65274441D01*
X58719318Y-65290633D01*
X58692667Y-65312199D01*
X58689352Y-65627151D01*
X58688435Y-65719779D01*
X58687968Y-65792544D01*
X58688113Y-65848161D01*
X58689032Y-65889342D01*
X58690887Y-65918803D01*
X58693839Y-65939255D01*
X58698050Y-65953413D01*
X58703682Y-65963991D01*
X58709927Y-65972474D01*
X58723439Y-65988207D01*
X58736883Y-65998636D01*
X58752124Y-66002639D01*
X58771026Y-65999094D01*
X58795455Y-65986879D01*
X58827273Y-65964871D01*
X58868348Y-65931949D01*
X58920542Y-65886991D01*
X58985722Y-65828875D01*
X59059556Y-65762099D01*
X59324845Y-65521458D01*
X59330489Y-65740589D01*
X59332531Y-65816128D01*
X59334502Y-65872354D01*
X59336839Y-65912524D01*
X59339981Y-65939896D01*
X59344364Y-65957728D01*
X59350424Y-65969279D01*
X59358600Y-65977807D01*
X59362784Y-65981282D01*
X59399765Y-66000372D01*
X59434708Y-65997493D01*
X59465136Y-65973100D01*
X59472097Y-65963286D01*
X59477523Y-65951826D01*
X59481603Y-65935968D01*
X59484529Y-65912963D01*
X59486492Y-65880062D01*
X59487683Y-65834516D01*
X59488292Y-65773573D01*
X59488511Y-65694486D01*
X59488534Y-65635956D01*
X59488460Y-65544407D01*
X59488113Y-65472687D01*
X59487301Y-65418045D01*
X59485833Y-65377732D01*
X59483519Y-65348998D01*
X59480167Y-65329093D01*
X59475588Y-65315268D01*
X59469589Y-65304772D01*
X59465136Y-65298811D01*
X59453850Y-65284691D01*
X59443301Y-65274029D01*
X59431893Y-65267892D01*
X59418030Y-65267343D01*
X59400114Y-65273448D01*
G36*
X59431893Y-65267892D02*
G01*
X59443301Y-65274029D01*
X59453850Y-65284691D01*
X59465136Y-65298811D01*
X59469589Y-65304772D01*
X59475588Y-65315268D01*
X59480167Y-65329093D01*
X59483519Y-65348998D01*
X59485833Y-65377732D01*
X59487301Y-65418045D01*
X59488113Y-65472687D01*
X59488460Y-65544407D01*
X59488534Y-65635956D01*
X59488511Y-65694486D01*
X59488292Y-65773573D01*
X59487683Y-65834516D01*
X59486492Y-65880062D01*
X59484529Y-65912963D01*
X59481603Y-65935968D01*
X59477523Y-65951826D01*
X59472097Y-65963286D01*
X59465136Y-65973100D01*
X59434708Y-65997493D01*
X59399765Y-66000372D01*
X59362784Y-65981282D01*
X59358600Y-65977807D01*
X59350424Y-65969279D01*
X59344364Y-65957728D01*
X59339981Y-65939896D01*
X59336839Y-65912524D01*
X59334502Y-65872354D01*
X59332531Y-65816128D01*
X59330489Y-65740589D01*
X59324845Y-65521458D01*
X59059556Y-65762099D01*
X58985722Y-65828875D01*
X58920542Y-65886991D01*
X58868348Y-65931949D01*
X58827273Y-65964871D01*
X58795455Y-65986879D01*
X58771026Y-65999094D01*
X58752124Y-66002639D01*
X58736883Y-65998636D01*
X58723439Y-65988207D01*
X58709927Y-65972474D01*
X58703682Y-65963991D01*
X58698050Y-65953413D01*
X58693839Y-65939255D01*
X58690887Y-65918803D01*
X58689032Y-65889342D01*
X58688113Y-65848161D01*
X58687968Y-65792544D01*
X58688435Y-65719779D01*
X58689352Y-65627151D01*
X58692667Y-65312199D01*
X58719318Y-65290633D01*
X58745383Y-65274441D01*
X58778241Y-65271670D01*
X58812772Y-65290623D01*
X58817084Y-65294208D01*
X58825216Y-65302737D01*
X58831245Y-65314329D01*
X58835606Y-65332235D01*
X58838734Y-65359706D01*
X58841063Y-65399994D01*
X58843029Y-65456351D01*
X58845067Y-65532029D01*
X58850711Y-65751878D01*
X59031334Y-65588084D01*
X59118072Y-65509451D01*
X59193843Y-65441058D01*
X59255980Y-65385708D01*
X59306078Y-65342338D01*
X59345735Y-65309881D01*
X59376548Y-65287273D01*
X59400114Y-65273448D01*
X59418030Y-65267343D01*
X59431893Y-65267892D01*
G37*
X64221371Y-65269066D02*
X64181889Y-65269467D01*
X64066200Y-65272259D01*
X63969311Y-65280550D01*
X63887919Y-65295232D01*
X63818723Y-65317193D01*
X63758420Y-65347322D01*
X63703708Y-65386510D01*
X63684167Y-65403532D01*
X63651750Y-65443363D01*
X63622520Y-65497413D01*
X63599991Y-65557323D01*
X63587679Y-65614739D01*
X63586400Y-65635956D01*
X63594417Y-65694769D01*
X63615899Y-65759013D01*
X63646999Y-65819821D01*
X63683866Y-65868330D01*
X63689854Y-65874182D01*
X63740579Y-65915321D01*
X63796125Y-65947435D01*
X63859696Y-65971365D01*
X63934494Y-65987953D01*
X64023722Y-65998041D01*
X64130582Y-66002469D01*
X64179528Y-66002845D01*
X64241762Y-66002545D01*
X64285528Y-66001292D01*
X64314931Y-65998554D01*
X64334079Y-65993801D01*
X64347077Y-65986501D01*
X64354045Y-65980267D01*
X64360626Y-65972694D01*
X64365788Y-65962924D01*
X64369703Y-65948340D01*
X64372543Y-65926326D01*
X64374480Y-65894264D01*
X64375684Y-65849536D01*
X64376328Y-65789526D01*
X64376583Y-65711617D01*
X64376622Y-65635956D01*
X64376870Y-65535041D01*
X64376817Y-65454427D01*
X64375857Y-65415822D01*
X64229867Y-65415822D01*
X64229867Y-65856089D01*
X64136734Y-65856004D01*
X64080693Y-65854396D01*
X64021999Y-65850256D01*
X63973028Y-65844464D01*
X63971538Y-65844226D01*
X63892392Y-65825090D01*
X63831002Y-65795287D01*
X63784305Y-65752878D01*
X63754635Y-65706961D01*
X63736353Y-65656026D01*
X63737771Y-65608200D01*
X63758988Y-65556933D01*
X63800489Y-65503899D01*
X63857998Y-65464600D01*
X63932750Y-65438331D01*
X63982708Y-65429035D01*
X64039416Y-65422507D01*
X64099519Y-65417782D01*
X64150639Y-65415817D01*
X64153667Y-65415808D01*
X64229867Y-65415822D01*
X64375857Y-65415822D01*
X64375260Y-65391851D01*
X64370998Y-65345055D01*
X64362830Y-65311778D01*
X64349556Y-65289759D01*
X64329974Y-65276739D01*
X64302883Y-65270457D01*
X64267082Y-65268653D01*
X64221371Y-65269066D01*
G36*
X64376817Y-65454427D02*
G01*
X64376870Y-65535041D01*
X64376622Y-65635956D01*
X64376583Y-65711617D01*
X64376328Y-65789526D01*
X64375684Y-65849536D01*
X64374480Y-65894264D01*
X64372543Y-65926326D01*
X64369703Y-65948340D01*
X64365788Y-65962924D01*
X64360626Y-65972694D01*
X64354045Y-65980267D01*
X64347077Y-65986501D01*
X64334079Y-65993801D01*
X64314931Y-65998554D01*
X64285528Y-66001292D01*
X64241762Y-66002545D01*
X64179528Y-66002845D01*
X64130582Y-66002469D01*
X64023722Y-65998041D01*
X63934494Y-65987953D01*
X63859696Y-65971365D01*
X63796125Y-65947435D01*
X63740579Y-65915321D01*
X63689854Y-65874182D01*
X63683866Y-65868330D01*
X63646999Y-65819821D01*
X63615899Y-65759013D01*
X63594417Y-65694769D01*
X63589136Y-65656026D01*
X63736353Y-65656026D01*
X63754635Y-65706961D01*
X63784305Y-65752878D01*
X63831002Y-65795287D01*
X63892392Y-65825090D01*
X63971538Y-65844226D01*
X63973028Y-65844464D01*
X64021999Y-65850256D01*
X64080693Y-65854396D01*
X64136734Y-65856004D01*
X64229867Y-65856089D01*
X64229867Y-65415822D01*
X64153667Y-65415808D01*
X64150639Y-65415817D01*
X64099519Y-65417782D01*
X64039416Y-65422507D01*
X63982708Y-65429035D01*
X63932750Y-65438331D01*
X63857998Y-65464600D01*
X63800489Y-65503899D01*
X63758988Y-65556933D01*
X63737771Y-65608200D01*
X63736353Y-65656026D01*
X63589136Y-65656026D01*
X63586400Y-65635956D01*
X63587679Y-65614739D01*
X63599991Y-65557323D01*
X63622520Y-65497413D01*
X63651750Y-65443363D01*
X63684167Y-65403532D01*
X63703708Y-65386510D01*
X63758420Y-65347322D01*
X63818723Y-65317193D01*
X63887919Y-65295232D01*
X63969311Y-65280550D01*
X64066200Y-65272259D01*
X64181889Y-65269467D01*
X64221371Y-65269066D01*
X64267082Y-65268653D01*
X64302883Y-65270457D01*
X64329974Y-65276739D01*
X64349556Y-65289759D01*
X64362830Y-65311778D01*
X64370998Y-65345055D01*
X64375260Y-65391851D01*
X64375857Y-65415822D01*
X64376817Y-65454427D01*
G37*
X57081691Y-65269275D02*
X56952712Y-65273636D01*
X56843009Y-65286861D01*
X56750774Y-65309741D01*
X56674198Y-65343070D01*
X56611473Y-65387638D01*
X56560788Y-65444236D01*
X56520337Y-65513658D01*
X56519541Y-65515351D01*
X56495399Y-65577483D01*
X56486797Y-65632509D01*
X56493769Y-65687887D01*
X56516346Y-65751073D01*
X56520628Y-65760689D01*
X56549828Y-65816966D01*
X56582644Y-65860451D01*
X56624998Y-65897417D01*
X56682810Y-65934135D01*
X56686169Y-65936052D01*
X56736496Y-65960227D01*
X56793379Y-65978282D01*
X56860473Y-65990839D01*
X56941435Y-65998522D01*
X57039918Y-66001953D01*
X57074714Y-66002251D01*
X57240406Y-66002845D01*
X57263803Y-65973100D01*
X57270743Y-65963319D01*
X57276158Y-65951897D01*
X57280235Y-65936095D01*
X57283163Y-65913175D01*
X57285133Y-65880396D01*
X57285775Y-65856089D01*
X57129156Y-65856089D01*
X57035274Y-65856089D01*
X56980336Y-65854483D01*
X56923940Y-65850255D01*
X56877655Y-65844292D01*
X56874861Y-65843790D01*
X56792652Y-65821736D01*
X56728886Y-65788600D01*
X56681548Y-65742847D01*
X56648618Y-65682939D01*
X56642892Y-65667061D01*
X56637279Y-65642333D01*
X56639709Y-65617902D01*
X56651533Y-65585400D01*
X56658660Y-65569434D01*
X56682000Y-65527006D01*
X56710120Y-65497240D01*
X56741060Y-65476511D01*
X56803034Y-65449537D01*
X56882349Y-65429998D01*
X56974747Y-65418746D01*
X57041667Y-65416270D01*
X57129156Y-65415822D01*
X57129156Y-65856089D01*
X57285775Y-65856089D01*
X57286332Y-65835021D01*
X57286950Y-65774311D01*
X57287175Y-65695526D01*
X57287200Y-65633920D01*
X57287200Y-65324485D01*
X57259491Y-65296776D01*
X57247194Y-65285544D01*
X57233897Y-65277853D01*
X57215328Y-65273040D01*
X57187214Y-65270446D01*
X57145283Y-65269410D01*
X57085263Y-65269270D01*
X57081691Y-65269275D01*
G36*
X57285133Y-65880396D02*
G01*
X57283163Y-65913175D01*
X57280235Y-65936095D01*
X57276158Y-65951897D01*
X57270743Y-65963319D01*
X57263803Y-65973100D01*
X57240406Y-66002845D01*
X57074714Y-66002251D01*
X57039918Y-66001953D01*
X56941435Y-65998522D01*
X56860473Y-65990839D01*
X56793379Y-65978282D01*
X56736496Y-65960227D01*
X56686169Y-65936052D01*
X56682810Y-65934135D01*
X56624998Y-65897417D01*
X56582644Y-65860451D01*
X56549828Y-65816966D01*
X56520628Y-65760689D01*
X56516346Y-65751073D01*
X56493769Y-65687887D01*
X56488034Y-65642333D01*
X56637279Y-65642333D01*
X56642892Y-65667061D01*
X56648618Y-65682939D01*
X56681548Y-65742847D01*
X56728886Y-65788600D01*
X56792652Y-65821736D01*
X56874861Y-65843790D01*
X56877655Y-65844292D01*
X56923940Y-65850255D01*
X56980336Y-65854483D01*
X57035274Y-65856089D01*
X57129156Y-65856089D01*
X57129156Y-65415822D01*
X57041667Y-65416270D01*
X56974747Y-65418746D01*
X56882349Y-65429998D01*
X56803034Y-65449537D01*
X56741060Y-65476511D01*
X56710120Y-65497240D01*
X56682000Y-65527006D01*
X56658660Y-65569434D01*
X56651533Y-65585400D01*
X56639709Y-65617902D01*
X56637279Y-65642333D01*
X56488034Y-65642333D01*
X56486797Y-65632509D01*
X56495399Y-65577483D01*
X56519541Y-65515351D01*
X56520337Y-65513658D01*
X56560788Y-65444236D01*
X56611473Y-65387638D01*
X56674198Y-65343070D01*
X56750774Y-65309741D01*
X56843009Y-65286861D01*
X56952712Y-65273636D01*
X57081691Y-65269275D01*
X57085263Y-65269270D01*
X57145283Y-65269410D01*
X57187214Y-65270446D01*
X57215328Y-65273040D01*
X57233897Y-65277853D01*
X57247194Y-65285544D01*
X57259491Y-65296776D01*
X57287200Y-65324485D01*
X57287200Y-65633920D01*
X57287175Y-65695526D01*
X57286950Y-65774311D01*
X57286332Y-65835021D01*
X57285775Y-65856089D01*
X57285133Y-65880396D01*
G37*
X51871177Y-65274533D02*
X51839798Y-65296776D01*
X51812089Y-65324485D01*
X51812089Y-65633920D01*
X51812162Y-65725799D01*
X51812505Y-65797840D01*
X51813308Y-65852780D01*
X51814759Y-65893360D01*
X51817048Y-65922317D01*
X51820364Y-65942391D01*
X51824895Y-65956321D01*
X51830831Y-65966845D01*
X51835486Y-65973100D01*
X51866217Y-65997673D01*
X51901504Y-66000341D01*
X51933755Y-65985271D01*
X51944412Y-65976374D01*
X51951536Y-65964557D01*
X51955833Y-65945526D01*
X51958009Y-65914992D01*
X51958772Y-65868662D01*
X51958845Y-65832871D01*
X51958845Y-65698045D01*
X52455556Y-65698045D01*
X52455556Y-65820700D01*
X52456069Y-65876787D01*
X52458124Y-65915333D01*
X52462492Y-65941361D01*
X52469944Y-65959897D01*
X52478953Y-65973100D01*
X52509856Y-65997604D01*
X52544804Y-66000506D01*
X52578262Y-65983089D01*
X52587396Y-65973959D01*
X52593848Y-65961855D01*
X52598103Y-65943001D01*
X52600648Y-65913620D01*
X52601971Y-65869937D01*
X52602557Y-65808175D01*
X52602625Y-65794000D01*
X52603109Y-65677631D01*
X52603359Y-65581727D01*
X52603277Y-65504177D01*
X52602769Y-65442869D01*
X52601738Y-65395690D01*
X52600087Y-65360530D01*
X52597721Y-65335276D01*
X52594543Y-65317817D01*
X52590456Y-65306041D01*
X52585366Y-65297835D01*
X52579734Y-65291645D01*
X52547872Y-65271844D01*
X52514643Y-65274533D01*
X52483265Y-65296776D01*
X52470567Y-65311126D01*
X52462474Y-65326978D01*
X52457958Y-65349554D01*
X52455994Y-65384078D01*
X52455556Y-65435776D01*
X52455556Y-65551289D01*
X51958845Y-65551289D01*
X51958845Y-65432756D01*
X51958338Y-65378148D01*
X51956302Y-65341275D01*
X51951965Y-65317307D01*
X51944553Y-65301415D01*
X51936267Y-65291645D01*
X51904406Y-65271844D01*
X51871177Y-65274533D01*
G36*
X52579734Y-65291645D02*
G01*
X52585366Y-65297835D01*
X52590456Y-65306041D01*
X52594543Y-65317817D01*
X52597721Y-65335276D01*
X52600087Y-65360530D01*
X52601738Y-65395690D01*
X52602769Y-65442869D01*
X52603277Y-65504177D01*
X52603359Y-65581727D01*
X52603109Y-65677631D01*
X52602625Y-65794000D01*
X52602557Y-65808175D01*
X52601971Y-65869937D01*
X52600648Y-65913620D01*
X52598103Y-65943001D01*
X52593848Y-65961855D01*
X52587396Y-65973959D01*
X52578262Y-65983089D01*
X52544804Y-66000506D01*
X52509856Y-65997604D01*
X52478953Y-65973100D01*
X52469944Y-65959897D01*
X52462492Y-65941361D01*
X52458124Y-65915333D01*
X52456069Y-65876787D01*
X52455556Y-65820700D01*
X52455556Y-65698045D01*
X51958845Y-65698045D01*
X51958845Y-65832871D01*
X51958772Y-65868662D01*
X51958009Y-65914992D01*
X51955833Y-65945526D01*
X51951536Y-65964557D01*
X51944412Y-65976374D01*
X51933755Y-65985271D01*
X51901504Y-66000341D01*
X51866217Y-65997673D01*
X51835486Y-65973100D01*
X51830831Y-65966845D01*
X51824895Y-65956321D01*
X51820364Y-65942391D01*
X51817048Y-65922317D01*
X51814759Y-65893360D01*
X51813308Y-65852780D01*
X51812505Y-65797840D01*
X51812162Y-65725799D01*
X51812089Y-65633920D01*
X51812089Y-65324485D01*
X51839798Y-65296776D01*
X51871177Y-65274533D01*
X51904406Y-65271844D01*
X51936267Y-65291645D01*
X51944553Y-65301415D01*
X51951965Y-65317307D01*
X51956302Y-65341275D01*
X51958338Y-65378148D01*
X51958845Y-65432756D01*
X51958845Y-65551289D01*
X52455556Y-65551289D01*
X52455556Y-65435776D01*
X52455994Y-65384078D01*
X52457958Y-65349554D01*
X52462474Y-65326978D01*
X52470567Y-65311126D01*
X52483265Y-65296776D01*
X52514643Y-65274533D01*
X52547872Y-65271844D01*
X52579734Y-65291645D01*
G37*
X53136935Y-65269163D02*
X53058228Y-65269542D01*
X52997137Y-65270333D01*
X52951183Y-65271670D01*
X52917886Y-65273683D01*
X52894764Y-65276506D01*
X52879338Y-65280269D01*
X52869129Y-65285105D01*
X52864187Y-65288822D01*
X52838543Y-65321358D01*
X52835441Y-65355138D01*
X52851289Y-65385826D01*
X52861652Y-65398089D01*
X52872804Y-65406450D01*
X52888965Y-65411657D01*
X52914358Y-65414457D01*
X52953202Y-65415596D01*
X53009720Y-65415821D01*
X53020820Y-65415822D01*
X53166756Y-65415822D01*
X53166756Y-65686756D01*
X53166852Y-65772154D01*
X53167289Y-65837864D01*
X53168288Y-65886774D01*
X53170072Y-65921773D01*
X53172863Y-65945749D01*
X53176883Y-65961593D01*
X53182355Y-65972191D01*
X53189334Y-65980267D01*
X53222266Y-66000112D01*
X53256646Y-65998548D01*
X53287824Y-65975906D01*
X53290114Y-65973100D01*
X53297571Y-65962492D01*
X53303253Y-65950081D01*
X53307399Y-65932850D01*
X53310250Y-65907784D01*
X53312046Y-65871867D01*
X53313028Y-65822083D01*
X53313436Y-65755417D01*
X53313511Y-65679589D01*
X53313511Y-65415822D01*
X53452873Y-65415822D01*
X53512678Y-65415418D01*
X53554082Y-65413840D01*
X53581252Y-65410547D01*
X53598354Y-65404992D01*
X53609557Y-65396631D01*
X53610917Y-65395178D01*
X53627275Y-65361939D01*
X53625828Y-65324362D01*
X53607022Y-65291645D01*
X53599750Y-65285298D01*
X53590373Y-65280266D01*
X53576391Y-65276396D01*
X53555304Y-65273537D01*
X53524611Y-65271535D01*
X53481811Y-65270239D01*
X53424405Y-65269498D01*
X53349890Y-65269158D01*
X53255767Y-65269068D01*
X53235740Y-65269067D01*
X53136935Y-65269163D01*
G36*
X53255767Y-65269068D02*
G01*
X53349890Y-65269158D01*
X53424405Y-65269498D01*
X53481811Y-65270239D01*
X53524611Y-65271535D01*
X53555304Y-65273537D01*
X53576391Y-65276396D01*
X53590373Y-65280266D01*
X53599750Y-65285298D01*
X53607022Y-65291645D01*
X53625828Y-65324362D01*
X53627275Y-65361939D01*
X53610917Y-65395178D01*
X53609557Y-65396631D01*
X53598354Y-65404992D01*
X53581252Y-65410547D01*
X53554082Y-65413840D01*
X53512678Y-65415418D01*
X53452873Y-65415822D01*
X53313511Y-65415822D01*
X53313511Y-65679589D01*
X53313436Y-65755417D01*
X53313028Y-65822083D01*
X53312046Y-65871867D01*
X53310250Y-65907784D01*
X53307399Y-65932850D01*
X53303253Y-65950081D01*
X53297571Y-65962492D01*
X53290114Y-65973100D01*
X53287824Y-65975906D01*
X53256646Y-65998548D01*
X53222266Y-66000112D01*
X53189334Y-65980267D01*
X53182355Y-65972191D01*
X53176883Y-65961593D01*
X53172863Y-65945749D01*
X53170072Y-65921773D01*
X53168288Y-65886774D01*
X53167289Y-65837864D01*
X53166852Y-65772154D01*
X53166756Y-65686756D01*
X53166756Y-65415822D01*
X53020820Y-65415822D01*
X53009720Y-65415821D01*
X52953202Y-65415596D01*
X52914358Y-65414457D01*
X52888965Y-65411657D01*
X52872804Y-65406450D01*
X52861652Y-65398089D01*
X52851289Y-65385826D01*
X52835441Y-65355138D01*
X52838543Y-65321358D01*
X52864187Y-65288822D01*
X52869129Y-65285105D01*
X52879338Y-65280269D01*
X52894764Y-65276506D01*
X52917886Y-65273683D01*
X52951183Y-65271670D01*
X52997137Y-65270333D01*
X53058228Y-65269542D01*
X53136935Y-65269163D01*
X53235740Y-65269067D01*
X53255767Y-65269068D01*
G37*
X60373043Y-60026571D02*
X60276768Y-60050809D01*
X60190184Y-60093641D01*
X60115373Y-60153419D01*
X60054418Y-60228494D01*
X60009399Y-60317220D01*
X59983136Y-60413530D01*
X59977286Y-60510795D01*
X59992140Y-60604654D01*
X60025840Y-60692511D01*
X60076528Y-60771770D01*
X60142345Y-60839836D01*
X60221434Y-60894112D01*
X60311934Y-60932002D01*
X60363200Y-60944426D01*
X60407698Y-60951947D01*
X60441999Y-60954919D01*
X60474960Y-60953094D01*
X60515434Y-60946225D01*
X60548531Y-60939250D01*
X60641947Y-60907741D01*
X60725619Y-60856617D01*
X60797665Y-60787429D01*
X60856200Y-60701728D01*
X60870148Y-60674489D01*
X60886586Y-60638122D01*
X60896894Y-60607582D01*
X60902460Y-60575450D01*
X60904669Y-60534307D01*
X60904948Y-60488222D01*
X60900861Y-60403865D01*
X60887446Y-60334586D01*
X60862256Y-60273961D01*
X60822846Y-60215567D01*
X60784298Y-60171302D01*
X60712406Y-60105484D01*
X60637313Y-60060053D01*
X60554562Y-60032850D01*
X60476928Y-60022576D01*
X60373043Y-60026571D01*
G36*
X60554562Y-60032850D02*
G01*
X60637313Y-60060053D01*
X60712406Y-60105484D01*
X60784298Y-60171302D01*
X60822846Y-60215567D01*
X60862256Y-60273961D01*
X60887446Y-60334586D01*
X60900861Y-60403865D01*
X60904948Y-60488222D01*
X60904669Y-60534307D01*
X60902460Y-60575450D01*
X60896894Y-60607582D01*
X60886586Y-60638122D01*
X60870148Y-60674489D01*
X60856200Y-60701728D01*
X60797665Y-60787429D01*
X60725619Y-60856617D01*
X60641947Y-60907741D01*
X60548531Y-60939250D01*
X60515434Y-60946225D01*
X60474960Y-60953094D01*
X60441999Y-60954919D01*
X60407698Y-60951947D01*
X60363200Y-60944426D01*
X60311934Y-60932002D01*
X60221434Y-60894112D01*
X60142345Y-60839836D01*
X60076528Y-60771770D01*
X60025840Y-60692511D01*
X59992140Y-60604654D01*
X59977286Y-60510795D01*
X59983136Y-60413530D01*
X60009399Y-60317220D01*
X60054418Y-60228494D01*
X60115373Y-60153419D01*
X60190184Y-60093641D01*
X60276768Y-60050809D01*
X60373043Y-60026571D01*
X60476928Y-60022576D01*
X60554562Y-60032850D01*
G37*
X61023822Y-65291645D02*
X61017242Y-65299218D01*
X61012079Y-65308987D01*
X61008164Y-65323571D01*
X61005324Y-65345585D01*
X61003387Y-65377648D01*
X61002183Y-65422375D01*
X61001539Y-65482385D01*
X61001284Y-65560294D01*
X61001245Y-65635956D01*
X61001314Y-65729802D01*
X61001638Y-65803689D01*
X61002386Y-65860232D01*
X61003732Y-65902049D01*
X61005846Y-65931757D01*
X61008900Y-65951973D01*
X61013066Y-65965314D01*
X61018516Y-65974398D01*
X61023822Y-65980267D01*
X61056826Y-65999947D01*
X61091991Y-65998181D01*
X61123455Y-65976717D01*
X61130684Y-65968337D01*
X61136334Y-65958614D01*
X61140599Y-65944861D01*
X61143673Y-65924389D01*
X61145752Y-65894512D01*
X61147030Y-65852541D01*
X61147701Y-65795789D01*
X61147959Y-65721567D01*
X61148000Y-65637537D01*
X61148000Y-65324485D01*
X61120291Y-65296776D01*
X61086137Y-65273463D01*
X61053006Y-65272623D01*
X61023822Y-65291645D01*
G36*
X61086137Y-65273463D02*
G01*
X61120291Y-65296776D01*
X61148000Y-65324485D01*
X61148000Y-65637537D01*
X61147959Y-65721567D01*
X61147701Y-65795789D01*
X61147030Y-65852541D01*
X61145752Y-65894512D01*
X61143673Y-65924389D01*
X61140599Y-65944861D01*
X61136334Y-65958614D01*
X61130684Y-65968337D01*
X61123455Y-65976717D01*
X61091991Y-65998181D01*
X61056826Y-65999947D01*
X61023822Y-65980267D01*
X61018516Y-65974398D01*
X61013066Y-65965314D01*
X61008900Y-65951973D01*
X61005846Y-65931757D01*
X61003732Y-65902049D01*
X61002386Y-65860232D01*
X61001638Y-65803689D01*
X61001314Y-65729802D01*
X61001245Y-65635956D01*
X61001284Y-65560294D01*
X61001539Y-65482385D01*
X61002183Y-65422375D01*
X61003387Y-65377648D01*
X61005324Y-65345585D01*
X61008164Y-65323571D01*
X61012079Y-65308987D01*
X61017242Y-65299218D01*
X61023822Y-65291645D01*
X61053006Y-65272623D01*
X61086137Y-65273463D01*
G37*
X53911386Y-65275877D02*
X53887673Y-65290647D01*
X53861022Y-65312227D01*
X53861022Y-65633773D01*
X53861107Y-65727830D01*
X53861471Y-65801932D01*
X53862276Y-65858704D01*
X53863687Y-65900768D01*
X53865867Y-65930748D01*
X53868979Y-65951267D01*
X53873186Y-65964949D01*
X53878652Y-65974416D01*
X53882528Y-65979082D01*
X53913966Y-65999575D01*
X53949767Y-65998739D01*
X53981127Y-65981264D01*
X54007778Y-65959684D01*
X54007778Y-65312227D01*
X53981127Y-65290647D01*
X53955406Y-65274949D01*
X53934400Y-65269067D01*
X53911386Y-65275877D01*
G36*
X53955406Y-65274949D02*
G01*
X53981127Y-65290647D01*
X54007778Y-65312227D01*
X54007778Y-65959684D01*
X53981127Y-65981264D01*
X53949767Y-65998739D01*
X53913966Y-65999575D01*
X53882528Y-65979082D01*
X53878652Y-65974416D01*
X53873186Y-65964949D01*
X53868979Y-65951267D01*
X53865867Y-65930748D01*
X53863687Y-65900768D01*
X53862276Y-65858704D01*
X53861471Y-65801932D01*
X53861107Y-65727830D01*
X53861022Y-65633773D01*
X53861022Y-65312227D01*
X53887673Y-65290647D01*
X53911386Y-65275877D01*
X53934400Y-65269067D01*
X53955406Y-65274949D01*
G37*
%TD*%
M02*
