%TF.GenerationSoftware,KiCad,Pcbnew,10.0.3-10.0.3~ubuntu24.04.1*%
%TF.CreationDate,2026-05-16T21:25:17+07:00*%
%TF.ProjectId,MCU Datalogger,4d435520-4461-4746-916c-6f676765722e,1*%
%TF.SameCoordinates,Original*%
%TF.FileFunction,Legend,Top*%
%TF.FilePolarity,Positive*%
%FSLAX46Y46*%
G04 Gerber Fmt 4.6, Leading zero omitted, Abs format (unit mm)*
G04 Created by KiCad (PCBNEW 10.0.3-10.0.3~ubuntu24.04.1) date 2026-05-16 21:25:17*
%MOMM*%
%LPD*%
G01*
G04 APERTURE LIST*
%ADD10C,0.100000*%
%ADD11C,0.080000*%
%ADD12C,0.120000*%
%ADD13C,0.200000*%
%ADD14C,0.127000*%
G04 APERTURE END LIST*
D10*
X34241979Y-76083942D02*
X34261027Y-76064895D01*
X34261027Y-76064895D02*
X34299122Y-76045847D01*
X34299122Y-76045847D02*
X34394360Y-76045847D01*
X34394360Y-76045847D02*
X34432455Y-76064895D01*
X34432455Y-76064895D02*
X34451503Y-76083942D01*
X34451503Y-76083942D02*
X34470550Y-76122038D01*
X34470550Y-76122038D02*
X34470550Y-76160133D01*
X34470550Y-76160133D02*
X34451503Y-76217276D01*
X34451503Y-76217276D02*
X34222931Y-76445847D01*
X34222931Y-76445847D02*
X34470550Y-76445847D01*
X70061027Y-57145847D02*
X70061027Y-56745847D01*
X70480074Y-57107752D02*
X70461026Y-57126800D01*
X70461026Y-57126800D02*
X70403884Y-57145847D01*
X70403884Y-57145847D02*
X70365788Y-57145847D01*
X70365788Y-57145847D02*
X70308645Y-57126800D01*
X70308645Y-57126800D02*
X70270550Y-57088704D01*
X70270550Y-57088704D02*
X70251503Y-57050609D01*
X70251503Y-57050609D02*
X70232455Y-56974419D01*
X70232455Y-56974419D02*
X70232455Y-56917276D01*
X70232455Y-56917276D02*
X70251503Y-56841085D01*
X70251503Y-56841085D02*
X70270550Y-56802990D01*
X70270550Y-56802990D02*
X70308645Y-56764895D01*
X70308645Y-56764895D02*
X70365788Y-56745847D01*
X70365788Y-56745847D02*
X70403884Y-56745847D01*
X70403884Y-56745847D02*
X70461026Y-56764895D01*
X70461026Y-56764895D02*
X70480074Y-56783942D01*
X70632455Y-57126800D02*
X70689598Y-57145847D01*
X70689598Y-57145847D02*
X70784836Y-57145847D01*
X70784836Y-57145847D02*
X70822931Y-57126800D01*
X70822931Y-57126800D02*
X70841979Y-57107752D01*
X70841979Y-57107752D02*
X70861026Y-57069657D01*
X70861026Y-57069657D02*
X70861026Y-57031561D01*
X70861026Y-57031561D02*
X70841979Y-56993466D01*
X70841979Y-56993466D02*
X70822931Y-56974419D01*
X70822931Y-56974419D02*
X70784836Y-56955371D01*
X70784836Y-56955371D02*
X70708645Y-56936323D01*
X70708645Y-56936323D02*
X70670550Y-56917276D01*
X70670550Y-56917276D02*
X70651503Y-56898228D01*
X70651503Y-56898228D02*
X70632455Y-56860133D01*
X70632455Y-56860133D02*
X70632455Y-56822038D01*
X70632455Y-56822038D02*
X70651503Y-56783942D01*
X70651503Y-56783942D02*
X70670550Y-56764895D01*
X70670550Y-56764895D02*
X70708645Y-56745847D01*
X70708645Y-56745847D02*
X70803884Y-56745847D01*
X70803884Y-56745847D02*
X70861026Y-56764895D01*
X71032455Y-57145847D02*
X71032455Y-56745847D01*
X71032455Y-56745847D02*
X71184836Y-56745847D01*
X71184836Y-56745847D02*
X71222931Y-56764895D01*
X71222931Y-56764895D02*
X71241978Y-56783942D01*
X71241978Y-56783942D02*
X71261026Y-56822038D01*
X71261026Y-56822038D02*
X71261026Y-56879180D01*
X71261026Y-56879180D02*
X71241978Y-56917276D01*
X71241978Y-56917276D02*
X71222931Y-56936323D01*
X71222931Y-56936323D02*
X71184836Y-56955371D01*
X71184836Y-56955371D02*
X71032455Y-56955371D01*
X66961027Y-73745847D02*
X66961027Y-73345847D01*
X67380074Y-73707752D02*
X67361026Y-73726800D01*
X67361026Y-73726800D02*
X67303884Y-73745847D01*
X67303884Y-73745847D02*
X67265788Y-73745847D01*
X67265788Y-73745847D02*
X67208645Y-73726800D01*
X67208645Y-73726800D02*
X67170550Y-73688704D01*
X67170550Y-73688704D02*
X67151503Y-73650609D01*
X67151503Y-73650609D02*
X67132455Y-73574419D01*
X67132455Y-73574419D02*
X67132455Y-73517276D01*
X67132455Y-73517276D02*
X67151503Y-73441085D01*
X67151503Y-73441085D02*
X67170550Y-73402990D01*
X67170550Y-73402990D02*
X67208645Y-73364895D01*
X67208645Y-73364895D02*
X67265788Y-73345847D01*
X67265788Y-73345847D02*
X67303884Y-73345847D01*
X67303884Y-73345847D02*
X67361026Y-73364895D01*
X67361026Y-73364895D02*
X67380074Y-73383942D01*
X67532455Y-73726800D02*
X67589598Y-73745847D01*
X67589598Y-73745847D02*
X67684836Y-73745847D01*
X67684836Y-73745847D02*
X67722931Y-73726800D01*
X67722931Y-73726800D02*
X67741979Y-73707752D01*
X67741979Y-73707752D02*
X67761026Y-73669657D01*
X67761026Y-73669657D02*
X67761026Y-73631561D01*
X67761026Y-73631561D02*
X67741979Y-73593466D01*
X67741979Y-73593466D02*
X67722931Y-73574419D01*
X67722931Y-73574419D02*
X67684836Y-73555371D01*
X67684836Y-73555371D02*
X67608645Y-73536323D01*
X67608645Y-73536323D02*
X67570550Y-73517276D01*
X67570550Y-73517276D02*
X67551503Y-73498228D01*
X67551503Y-73498228D02*
X67532455Y-73460133D01*
X67532455Y-73460133D02*
X67532455Y-73422038D01*
X67532455Y-73422038D02*
X67551503Y-73383942D01*
X67551503Y-73383942D02*
X67570550Y-73364895D01*
X67570550Y-73364895D02*
X67608645Y-73345847D01*
X67608645Y-73345847D02*
X67703884Y-73345847D01*
X67703884Y-73345847D02*
X67761026Y-73364895D01*
X67932455Y-73745847D02*
X67932455Y-73345847D01*
X67932455Y-73345847D02*
X68084836Y-73345847D01*
X68084836Y-73345847D02*
X68122931Y-73364895D01*
X68122931Y-73364895D02*
X68141978Y-73383942D01*
X68141978Y-73383942D02*
X68161026Y-73422038D01*
X68161026Y-73422038D02*
X68161026Y-73479180D01*
X68161026Y-73479180D02*
X68141978Y-73517276D01*
X68141978Y-73517276D02*
X68122931Y-73536323D01*
X68122931Y-73536323D02*
X68084836Y-73555371D01*
X68084836Y-73555371D02*
X67932455Y-73555371D01*
D11*
X66407143Y-70380887D02*
X66407143Y-69980887D01*
X66407143Y-69980887D02*
X66540476Y-70266601D01*
X66540476Y-70266601D02*
X66673809Y-69980887D01*
X66673809Y-69980887D02*
X66673809Y-70380887D01*
X66940476Y-69980887D02*
X67016667Y-69980887D01*
X67016667Y-69980887D02*
X67054762Y-69999935D01*
X67054762Y-69999935D02*
X67092857Y-70038030D01*
X67092857Y-70038030D02*
X67111905Y-70114220D01*
X67111905Y-70114220D02*
X67111905Y-70247554D01*
X67111905Y-70247554D02*
X67092857Y-70323744D01*
X67092857Y-70323744D02*
X67054762Y-70361840D01*
X67054762Y-70361840D02*
X67016667Y-70380887D01*
X67016667Y-70380887D02*
X66940476Y-70380887D01*
X66940476Y-70380887D02*
X66902381Y-70361840D01*
X66902381Y-70361840D02*
X66864286Y-70323744D01*
X66864286Y-70323744D02*
X66845238Y-70247554D01*
X66845238Y-70247554D02*
X66845238Y-70114220D01*
X66845238Y-70114220D02*
X66864286Y-70038030D01*
X66864286Y-70038030D02*
X66902381Y-69999935D01*
X66902381Y-69999935D02*
X66940476Y-69980887D01*
X67845238Y-69980887D02*
X67978571Y-70380887D01*
X67978571Y-70380887D02*
X68111904Y-69980887D01*
X68416666Y-70361840D02*
X68378571Y-70380887D01*
X68378571Y-70380887D02*
X68302380Y-70380887D01*
X68302380Y-70380887D02*
X68264285Y-70361840D01*
X68264285Y-70361840D02*
X68245238Y-70342792D01*
X68245238Y-70342792D02*
X68226190Y-70304697D01*
X68226190Y-70304697D02*
X68226190Y-70190411D01*
X68226190Y-70190411D02*
X68245238Y-70152316D01*
X68245238Y-70152316D02*
X68264285Y-70133268D01*
X68264285Y-70133268D02*
X68302380Y-70114220D01*
X68302380Y-70114220D02*
X68378571Y-70114220D01*
X68378571Y-70114220D02*
X68416666Y-70133268D01*
X66435714Y-71461840D02*
X66492857Y-71480887D01*
X66492857Y-71480887D02*
X66588095Y-71480887D01*
X66588095Y-71480887D02*
X66626190Y-71461840D01*
X66626190Y-71461840D02*
X66645238Y-71442792D01*
X66645238Y-71442792D02*
X66664285Y-71404697D01*
X66664285Y-71404697D02*
X66664285Y-71366601D01*
X66664285Y-71366601D02*
X66645238Y-71328506D01*
X66645238Y-71328506D02*
X66626190Y-71309459D01*
X66626190Y-71309459D02*
X66588095Y-71290411D01*
X66588095Y-71290411D02*
X66511904Y-71271363D01*
X66511904Y-71271363D02*
X66473809Y-71252316D01*
X66473809Y-71252316D02*
X66454762Y-71233268D01*
X66454762Y-71233268D02*
X66435714Y-71195173D01*
X66435714Y-71195173D02*
X66435714Y-71157078D01*
X66435714Y-71157078D02*
X66454762Y-71118982D01*
X66454762Y-71118982D02*
X66473809Y-71099935D01*
X66473809Y-71099935D02*
X66511904Y-71080887D01*
X66511904Y-71080887D02*
X66607143Y-71080887D01*
X66607143Y-71080887D02*
X66664285Y-71099935D01*
X67064285Y-71442792D02*
X67045237Y-71461840D01*
X67045237Y-71461840D02*
X66988095Y-71480887D01*
X66988095Y-71480887D02*
X66949999Y-71480887D01*
X66949999Y-71480887D02*
X66892856Y-71461840D01*
X66892856Y-71461840D02*
X66854761Y-71423744D01*
X66854761Y-71423744D02*
X66835714Y-71385649D01*
X66835714Y-71385649D02*
X66816666Y-71309459D01*
X66816666Y-71309459D02*
X66816666Y-71252316D01*
X66816666Y-71252316D02*
X66835714Y-71176125D01*
X66835714Y-71176125D02*
X66854761Y-71138030D01*
X66854761Y-71138030D02*
X66892856Y-71099935D01*
X66892856Y-71099935D02*
X66949999Y-71080887D01*
X66949999Y-71080887D02*
X66988095Y-71080887D01*
X66988095Y-71080887D02*
X67045237Y-71099935D01*
X67045237Y-71099935D02*
X67064285Y-71118982D01*
X67921429Y-71480887D02*
X67921429Y-71080887D01*
X67921429Y-71080887D02*
X68054762Y-71366601D01*
X68054762Y-71366601D02*
X68188095Y-71080887D01*
X68188095Y-71080887D02*
X68188095Y-71480887D01*
X68378572Y-71480887D02*
X68378572Y-71080887D01*
X66683333Y-72580887D02*
X66550000Y-72390411D01*
X66454762Y-72580887D02*
X66454762Y-72180887D01*
X66454762Y-72180887D02*
X66607143Y-72180887D01*
X66607143Y-72180887D02*
X66645238Y-72199935D01*
X66645238Y-72199935D02*
X66664285Y-72218982D01*
X66664285Y-72218982D02*
X66683333Y-72257078D01*
X66683333Y-72257078D02*
X66683333Y-72314220D01*
X66683333Y-72314220D02*
X66664285Y-72352316D01*
X66664285Y-72352316D02*
X66645238Y-72371363D01*
X66645238Y-72371363D02*
X66607143Y-72390411D01*
X66607143Y-72390411D02*
X66454762Y-72390411D01*
X66835714Y-72561840D02*
X66892857Y-72580887D01*
X66892857Y-72580887D02*
X66988095Y-72580887D01*
X66988095Y-72580887D02*
X67026190Y-72561840D01*
X67026190Y-72561840D02*
X67045238Y-72542792D01*
X67045238Y-72542792D02*
X67064285Y-72504697D01*
X67064285Y-72504697D02*
X67064285Y-72466601D01*
X67064285Y-72466601D02*
X67045238Y-72428506D01*
X67045238Y-72428506D02*
X67026190Y-72409459D01*
X67026190Y-72409459D02*
X66988095Y-72390411D01*
X66988095Y-72390411D02*
X66911904Y-72371363D01*
X66911904Y-72371363D02*
X66873809Y-72352316D01*
X66873809Y-72352316D02*
X66854762Y-72333268D01*
X66854762Y-72333268D02*
X66835714Y-72295173D01*
X66835714Y-72295173D02*
X66835714Y-72257078D01*
X66835714Y-72257078D02*
X66854762Y-72218982D01*
X66854762Y-72218982D02*
X66873809Y-72199935D01*
X66873809Y-72199935D02*
X66911904Y-72180887D01*
X66911904Y-72180887D02*
X67007143Y-72180887D01*
X67007143Y-72180887D02*
X67064285Y-72199935D01*
X68045237Y-72199935D02*
X68007142Y-72180887D01*
X68007142Y-72180887D02*
X67949999Y-72180887D01*
X67949999Y-72180887D02*
X67892856Y-72199935D01*
X67892856Y-72199935D02*
X67854761Y-72238030D01*
X67854761Y-72238030D02*
X67835714Y-72276125D01*
X67835714Y-72276125D02*
X67816666Y-72352316D01*
X67816666Y-72352316D02*
X67816666Y-72409459D01*
X67816666Y-72409459D02*
X67835714Y-72485649D01*
X67835714Y-72485649D02*
X67854761Y-72523744D01*
X67854761Y-72523744D02*
X67892856Y-72561840D01*
X67892856Y-72561840D02*
X67949999Y-72580887D01*
X67949999Y-72580887D02*
X67988095Y-72580887D01*
X67988095Y-72580887D02*
X68045237Y-72561840D01*
X68045237Y-72561840D02*
X68064285Y-72542792D01*
X68064285Y-72542792D02*
X68064285Y-72409459D01*
X68064285Y-72409459D02*
X67988095Y-72409459D01*
X68235714Y-72580887D02*
X68235714Y-72180887D01*
X68235714Y-72180887D02*
X68464285Y-72580887D01*
X68464285Y-72580887D02*
X68464285Y-72180887D01*
D10*
X67500000Y-69600000D02*
X67500000Y-70800000D01*
X67500000Y-70700000D02*
X67500000Y-71900000D01*
X67500000Y-71800000D02*
X67500000Y-73000000D01*
X67500000Y-70800000D02*
X66000000Y-70800000D01*
X68900000Y-70800000D02*
X67400000Y-70800000D01*
X67500000Y-71900000D02*
X66000000Y-71900000D01*
X68900000Y-71900000D02*
X67400000Y-71900000D01*
X66000000Y-69600000D02*
X68900000Y-69600000D01*
X68900000Y-69600000D02*
X68900000Y-73000000D01*
X68900000Y-73000000D02*
X66000000Y-73000000D01*
X66000000Y-73000000D02*
X66000000Y-69600000D01*
X70648634Y-75947845D02*
X70702509Y-75920907D01*
X70702509Y-75920907D02*
X70769852Y-75853564D01*
X70769852Y-75853564D02*
X70783321Y-75813158D01*
X70783321Y-75813158D02*
X70783321Y-75786220D01*
X70783321Y-75786220D02*
X70769852Y-75745814D01*
X70769852Y-75745814D02*
X70742915Y-75718877D01*
X70742915Y-75718877D02*
X70702509Y-75705408D01*
X70702509Y-75705408D02*
X70675571Y-75705408D01*
X70675571Y-75705408D02*
X70635165Y-75718877D01*
X70635165Y-75718877D02*
X70567822Y-75759283D01*
X70567822Y-75759283D02*
X70527416Y-75772752D01*
X70527416Y-75772752D02*
X70500478Y-75772752D01*
X70500478Y-75772752D02*
X70460072Y-75759283D01*
X70460072Y-75759283D02*
X70433135Y-75732345D01*
X70433135Y-75732345D02*
X70419666Y-75691939D01*
X70419666Y-75691939D02*
X70419666Y-75665002D01*
X70419666Y-75665002D02*
X70433135Y-75624596D01*
X70433135Y-75624596D02*
X70500478Y-75557252D01*
X70500478Y-75557252D02*
X70554353Y-75530315D01*
X71079632Y-75489909D02*
X71079632Y-75516846D01*
X71079632Y-75516846D02*
X71052695Y-75570721D01*
X71052695Y-75570721D02*
X71025757Y-75597659D01*
X71025757Y-75597659D02*
X70971882Y-75624596D01*
X70971882Y-75624596D02*
X70918008Y-75624596D01*
X70918008Y-75624596D02*
X70877602Y-75611127D01*
X70877602Y-75611127D02*
X70810258Y-75570721D01*
X70810258Y-75570721D02*
X70769852Y-75530315D01*
X70769852Y-75530315D02*
X70729446Y-75462972D01*
X70729446Y-75462972D02*
X70715977Y-75422566D01*
X70715977Y-75422566D02*
X70715977Y-75368691D01*
X70715977Y-75368691D02*
X70742915Y-75314816D01*
X70742915Y-75314816D02*
X70769852Y-75287879D01*
X70769852Y-75287879D02*
X70823727Y-75260941D01*
X70823727Y-75260941D02*
X70850664Y-75260941D01*
X71227788Y-75395628D02*
X70944945Y-75112785D01*
X71389412Y-75234004D02*
X71106569Y-75193598D01*
X71106569Y-74951161D02*
X71106569Y-75274410D01*
X70648634Y-73347845D02*
X70702509Y-73320907D01*
X70702509Y-73320907D02*
X70769852Y-73253564D01*
X70769852Y-73253564D02*
X70783321Y-73213158D01*
X70783321Y-73213158D02*
X70783321Y-73186220D01*
X70783321Y-73186220D02*
X70769852Y-73145814D01*
X70769852Y-73145814D02*
X70742915Y-73118877D01*
X70742915Y-73118877D02*
X70702509Y-73105408D01*
X70702509Y-73105408D02*
X70675571Y-73105408D01*
X70675571Y-73105408D02*
X70635165Y-73118877D01*
X70635165Y-73118877D02*
X70567822Y-73159283D01*
X70567822Y-73159283D02*
X70527416Y-73172752D01*
X70527416Y-73172752D02*
X70500478Y-73172752D01*
X70500478Y-73172752D02*
X70460072Y-73159283D01*
X70460072Y-73159283D02*
X70433135Y-73132345D01*
X70433135Y-73132345D02*
X70419666Y-73091939D01*
X70419666Y-73091939D02*
X70419666Y-73065002D01*
X70419666Y-73065002D02*
X70433135Y-73024596D01*
X70433135Y-73024596D02*
X70500478Y-72957252D01*
X70500478Y-72957252D02*
X70554353Y-72930315D01*
X70944945Y-73078471D02*
X70662102Y-72795628D01*
X70662102Y-72795628D02*
X70729446Y-72728285D01*
X70729446Y-72728285D02*
X70783321Y-72701347D01*
X70783321Y-72701347D02*
X70837195Y-72701347D01*
X70837195Y-72701347D02*
X70877602Y-72714816D01*
X70877602Y-72714816D02*
X70944945Y-72755222D01*
X70944945Y-72755222D02*
X70985351Y-72795628D01*
X70985351Y-72795628D02*
X71025757Y-72862972D01*
X71025757Y-72862972D02*
X71039226Y-72903378D01*
X71039226Y-72903378D02*
X71039226Y-72957253D01*
X71039226Y-72957253D02*
X71012289Y-73011127D01*
X71012289Y-73011127D02*
X70944945Y-73078471D01*
X71133507Y-72728285D02*
X71268194Y-72593598D01*
X71187382Y-72836034D02*
X70998820Y-72458911D01*
X70998820Y-72458911D02*
X71375943Y-72647472D01*
X70352323Y-70605408D02*
X70729446Y-70793970D01*
X70729446Y-70793970D02*
X70540884Y-70416846D01*
X71025757Y-70470721D02*
X71012289Y-70511127D01*
X71012289Y-70511127D02*
X70958414Y-70565002D01*
X70958414Y-70565002D02*
X70918008Y-70578471D01*
X70918008Y-70578471D02*
X70891070Y-70578471D01*
X70891070Y-70578471D02*
X70850664Y-70565002D01*
X70850664Y-70565002D02*
X70769852Y-70484190D01*
X70769852Y-70484190D02*
X70756383Y-70443784D01*
X70756383Y-70443784D02*
X70756383Y-70416846D01*
X70756383Y-70416846D02*
X70769852Y-70376440D01*
X70769852Y-70376440D02*
X70823727Y-70322565D01*
X70823727Y-70322565D02*
X70864133Y-70309097D01*
X71268194Y-70228285D02*
X71254725Y-70268691D01*
X71254725Y-70268691D02*
X71200850Y-70322566D01*
X71200850Y-70322566D02*
X71160444Y-70336034D01*
X71160444Y-70336034D02*
X71133507Y-70336034D01*
X71133507Y-70336034D02*
X71093101Y-70322566D01*
X71093101Y-70322566D02*
X71012289Y-70241753D01*
X71012289Y-70241753D02*
X70998820Y-70201347D01*
X70998820Y-70201347D02*
X70998820Y-70174410D01*
X70998820Y-70174410D02*
X71012289Y-70134004D01*
X71012289Y-70134004D02*
X71066163Y-70080129D01*
X71066163Y-70080129D02*
X71106570Y-70066660D01*
X70554353Y-68030315D02*
X70513947Y-68043784D01*
X70513947Y-68043784D02*
X70473541Y-68084190D01*
X70473541Y-68084190D02*
X70446603Y-68138065D01*
X70446603Y-68138065D02*
X70446603Y-68191939D01*
X70446603Y-68191939D02*
X70460072Y-68232345D01*
X70460072Y-68232345D02*
X70500478Y-68299689D01*
X70500478Y-68299689D02*
X70540884Y-68340095D01*
X70540884Y-68340095D02*
X70608228Y-68380501D01*
X70608228Y-68380501D02*
X70648634Y-68393970D01*
X70648634Y-68393970D02*
X70702509Y-68393970D01*
X70702509Y-68393970D02*
X70756384Y-68367032D01*
X70756384Y-68367032D02*
X70783321Y-68340095D01*
X70783321Y-68340095D02*
X70810258Y-68286220D01*
X70810258Y-68286220D02*
X70810258Y-68259283D01*
X70810258Y-68259283D02*
X70715977Y-68165002D01*
X70715977Y-68165002D02*
X70662103Y-68218877D01*
X70958414Y-68165002D02*
X70675571Y-67882159D01*
X70675571Y-67882159D02*
X71120038Y-68003378D01*
X71120038Y-68003378D02*
X70837196Y-67720535D01*
X71254726Y-67868690D02*
X70971883Y-67585848D01*
X70971883Y-67585848D02*
X71039227Y-67518504D01*
X71039227Y-67518504D02*
X71093101Y-67491567D01*
X71093101Y-67491567D02*
X71146976Y-67491567D01*
X71146976Y-67491567D02*
X71187382Y-67505035D01*
X71187382Y-67505035D02*
X71254726Y-67545441D01*
X71254726Y-67545441D02*
X71295132Y-67585848D01*
X71295132Y-67585848D02*
X71335538Y-67653191D01*
X71335538Y-67653191D02*
X71349007Y-67693597D01*
X71349007Y-67693597D02*
X71349007Y-67747472D01*
X71349007Y-67747472D02*
X71322069Y-67801347D01*
X71322069Y-67801347D02*
X71254726Y-67868690D01*
X70741979Y-78526800D02*
X70799122Y-78545847D01*
X70799122Y-78545847D02*
X70894360Y-78545847D01*
X70894360Y-78545847D02*
X70932455Y-78526800D01*
X70932455Y-78526800D02*
X70951503Y-78507752D01*
X70951503Y-78507752D02*
X70970550Y-78469657D01*
X70970550Y-78469657D02*
X70970550Y-78431561D01*
X70970550Y-78431561D02*
X70951503Y-78393466D01*
X70951503Y-78393466D02*
X70932455Y-78374419D01*
X70932455Y-78374419D02*
X70894360Y-78355371D01*
X70894360Y-78355371D02*
X70818169Y-78336323D01*
X70818169Y-78336323D02*
X70780074Y-78317276D01*
X70780074Y-78317276D02*
X70761027Y-78298228D01*
X70761027Y-78298228D02*
X70741979Y-78260133D01*
X70741979Y-78260133D02*
X70741979Y-78222038D01*
X70741979Y-78222038D02*
X70761027Y-78183942D01*
X70761027Y-78183942D02*
X70780074Y-78164895D01*
X70780074Y-78164895D02*
X70818169Y-78145847D01*
X70818169Y-78145847D02*
X70913408Y-78145847D01*
X70913408Y-78145847D02*
X70970550Y-78164895D01*
X71141979Y-78336323D02*
X71275312Y-78336323D01*
X71332455Y-78545847D02*
X71141979Y-78545847D01*
X71141979Y-78545847D02*
X71141979Y-78145847D01*
X71141979Y-78145847D02*
X71332455Y-78145847D01*
X71732455Y-78545847D02*
X71599122Y-78355371D01*
X71503884Y-78545847D02*
X71503884Y-78145847D01*
X71503884Y-78145847D02*
X71656265Y-78145847D01*
X71656265Y-78145847D02*
X71694360Y-78164895D01*
X71694360Y-78164895D02*
X71713407Y-78183942D01*
X71713407Y-78183942D02*
X71732455Y-78222038D01*
X71732455Y-78222038D02*
X71732455Y-78279180D01*
X71732455Y-78279180D02*
X71713407Y-78317276D01*
X71713407Y-78317276D02*
X71694360Y-78336323D01*
X71694360Y-78336323D02*
X71656265Y-78355371D01*
X71656265Y-78355371D02*
X71503884Y-78355371D01*
X71903884Y-78545847D02*
X71903884Y-78145847D01*
X72075312Y-78431561D02*
X72265788Y-78431561D01*
X72037217Y-78545847D02*
X72170550Y-78145847D01*
X72170550Y-78145847D02*
X72303883Y-78545847D01*
X72627693Y-78545847D02*
X72437217Y-78545847D01*
X72437217Y-78545847D02*
X72437217Y-78145847D01*
X58345847Y-78038972D02*
X57945847Y-78038972D01*
X57983942Y-77867544D02*
X57964895Y-77848496D01*
X57964895Y-77848496D02*
X57945847Y-77810401D01*
X57945847Y-77810401D02*
X57945847Y-77715163D01*
X57945847Y-77715163D02*
X57964895Y-77677068D01*
X57964895Y-77677068D02*
X57983942Y-77658020D01*
X57983942Y-77658020D02*
X58022038Y-77638973D01*
X58022038Y-77638973D02*
X58060133Y-77638973D01*
X58060133Y-77638973D02*
X58117276Y-77658020D01*
X58117276Y-77658020D02*
X58345847Y-77886592D01*
X58345847Y-77886592D02*
X58345847Y-77638973D01*
X58307752Y-77238973D02*
X58326800Y-77258021D01*
X58326800Y-77258021D02*
X58345847Y-77315163D01*
X58345847Y-77315163D02*
X58345847Y-77353259D01*
X58345847Y-77353259D02*
X58326800Y-77410402D01*
X58326800Y-77410402D02*
X58288704Y-77448497D01*
X58288704Y-77448497D02*
X58250609Y-77467544D01*
X58250609Y-77467544D02*
X58174419Y-77486592D01*
X58174419Y-77486592D02*
X58117276Y-77486592D01*
X58117276Y-77486592D02*
X58041085Y-77467544D01*
X58041085Y-77467544D02*
X58002990Y-77448497D01*
X58002990Y-77448497D02*
X57964895Y-77410402D01*
X57964895Y-77410402D02*
X57945847Y-77353259D01*
X57945847Y-77353259D02*
X57945847Y-77315163D01*
X57945847Y-77315163D02*
X57964895Y-77258021D01*
X57964895Y-77258021D02*
X57983942Y-77238973D01*
X67703884Y-75745847D02*
X67932455Y-75745847D01*
X67818169Y-76145847D02*
X67818169Y-75745847D01*
X68027693Y-75745847D02*
X68294360Y-76145847D01*
X68294360Y-75745847D02*
X68027693Y-76145847D01*
X65389598Y-76145847D02*
X65256265Y-75955371D01*
X65161027Y-76145847D02*
X65161027Y-75745847D01*
X65161027Y-75745847D02*
X65313408Y-75745847D01*
X65313408Y-75745847D02*
X65351503Y-75764895D01*
X65351503Y-75764895D02*
X65370550Y-75783942D01*
X65370550Y-75783942D02*
X65389598Y-75822038D01*
X65389598Y-75822038D02*
X65389598Y-75879180D01*
X65389598Y-75879180D02*
X65370550Y-75917276D01*
X65370550Y-75917276D02*
X65351503Y-75936323D01*
X65351503Y-75936323D02*
X65313408Y-75955371D01*
X65313408Y-75955371D02*
X65161027Y-75955371D01*
X65522931Y-75745847D02*
X65789598Y-76145847D01*
X65789598Y-75745847D02*
X65522931Y-76145847D01*
X62503884Y-75745847D02*
X62637217Y-76145847D01*
X62637217Y-76145847D02*
X62770550Y-75745847D01*
X63075312Y-76126800D02*
X63037217Y-76145847D01*
X63037217Y-76145847D02*
X62961026Y-76145847D01*
X62961026Y-76145847D02*
X62922931Y-76126800D01*
X62922931Y-76126800D02*
X62903884Y-76107752D01*
X62903884Y-76107752D02*
X62884836Y-76069657D01*
X62884836Y-76069657D02*
X62884836Y-75955371D01*
X62884836Y-75955371D02*
X62903884Y-75917276D01*
X62903884Y-75917276D02*
X62922931Y-75898228D01*
X62922931Y-75898228D02*
X62961026Y-75879180D01*
X62961026Y-75879180D02*
X63037217Y-75879180D01*
X63037217Y-75879180D02*
X63075312Y-75898228D01*
X63418169Y-76126800D02*
X63380074Y-76145847D01*
X63380074Y-76145847D02*
X63303883Y-76145847D01*
X63303883Y-76145847D02*
X63265788Y-76126800D01*
X63265788Y-76126800D02*
X63246741Y-76107752D01*
X63246741Y-76107752D02*
X63227693Y-76069657D01*
X63227693Y-76069657D02*
X63227693Y-75955371D01*
X63227693Y-75955371D02*
X63246741Y-75917276D01*
X63246741Y-75917276D02*
X63265788Y-75898228D01*
X63265788Y-75898228D02*
X63303883Y-75879180D01*
X63303883Y-75879180D02*
X63380074Y-75879180D01*
X63380074Y-75879180D02*
X63418169Y-75898228D01*
X60070550Y-75764895D02*
X60032455Y-75745847D01*
X60032455Y-75745847D02*
X59975312Y-75745847D01*
X59975312Y-75745847D02*
X59918169Y-75764895D01*
X59918169Y-75764895D02*
X59880074Y-75802990D01*
X59880074Y-75802990D02*
X59861027Y-75841085D01*
X59861027Y-75841085D02*
X59841979Y-75917276D01*
X59841979Y-75917276D02*
X59841979Y-75974419D01*
X59841979Y-75974419D02*
X59861027Y-76050609D01*
X59861027Y-76050609D02*
X59880074Y-76088704D01*
X59880074Y-76088704D02*
X59918169Y-76126800D01*
X59918169Y-76126800D02*
X59975312Y-76145847D01*
X59975312Y-76145847D02*
X60013408Y-76145847D01*
X60013408Y-76145847D02*
X60070550Y-76126800D01*
X60070550Y-76126800D02*
X60089598Y-76107752D01*
X60089598Y-76107752D02*
X60089598Y-75974419D01*
X60089598Y-75974419D02*
X60013408Y-75974419D01*
X60261027Y-76145847D02*
X60261027Y-75745847D01*
X60261027Y-75745847D02*
X60489598Y-76145847D01*
X60489598Y-76145847D02*
X60489598Y-75745847D01*
X60680075Y-76145847D02*
X60680075Y-75745847D01*
X60680075Y-75745847D02*
X60775313Y-75745847D01*
X60775313Y-75745847D02*
X60832456Y-75764895D01*
X60832456Y-75764895D02*
X60870551Y-75802990D01*
X60870551Y-75802990D02*
X60889598Y-75841085D01*
X60889598Y-75841085D02*
X60908646Y-75917276D01*
X60908646Y-75917276D02*
X60908646Y-75974419D01*
X60908646Y-75974419D02*
X60889598Y-76050609D01*
X60889598Y-76050609D02*
X60870551Y-76088704D01*
X60870551Y-76088704D02*
X60832456Y-76126800D01*
X60832456Y-76126800D02*
X60775313Y-76145847D01*
X60775313Y-76145847D02*
X60680075Y-76145847D01*
X31964895Y-78229449D02*
X31945847Y-78267544D01*
X31945847Y-78267544D02*
X31945847Y-78324687D01*
X31945847Y-78324687D02*
X31964895Y-78381830D01*
X31964895Y-78381830D02*
X32002990Y-78419925D01*
X32002990Y-78419925D02*
X32041085Y-78438972D01*
X32041085Y-78438972D02*
X32117276Y-78458020D01*
X32117276Y-78458020D02*
X32174419Y-78458020D01*
X32174419Y-78458020D02*
X32250609Y-78438972D01*
X32250609Y-78438972D02*
X32288704Y-78419925D01*
X32288704Y-78419925D02*
X32326800Y-78381830D01*
X32326800Y-78381830D02*
X32345847Y-78324687D01*
X32345847Y-78324687D02*
X32345847Y-78286591D01*
X32345847Y-78286591D02*
X32326800Y-78229449D01*
X32326800Y-78229449D02*
X32307752Y-78210401D01*
X32307752Y-78210401D02*
X32174419Y-78210401D01*
X32174419Y-78210401D02*
X32174419Y-78286591D01*
X32345847Y-78038972D02*
X31945847Y-78038972D01*
X31945847Y-78038972D02*
X31945847Y-77886591D01*
X31945847Y-77886591D02*
X31964895Y-77848496D01*
X31964895Y-77848496D02*
X31983942Y-77829449D01*
X31983942Y-77829449D02*
X32022038Y-77810401D01*
X32022038Y-77810401D02*
X32079180Y-77810401D01*
X32079180Y-77810401D02*
X32117276Y-77829449D01*
X32117276Y-77829449D02*
X32136323Y-77848496D01*
X32136323Y-77848496D02*
X32155371Y-77886591D01*
X32155371Y-77886591D02*
X32155371Y-78038972D01*
X32345847Y-77638972D02*
X31945847Y-77638972D01*
X31945847Y-77372306D02*
X31945847Y-77296115D01*
X31945847Y-77296115D02*
X31964895Y-77258020D01*
X31964895Y-77258020D02*
X32002990Y-77219925D01*
X32002990Y-77219925D02*
X32079180Y-77200877D01*
X32079180Y-77200877D02*
X32212514Y-77200877D01*
X32212514Y-77200877D02*
X32288704Y-77219925D01*
X32288704Y-77219925D02*
X32326800Y-77258020D01*
X32326800Y-77258020D02*
X32345847Y-77296115D01*
X32345847Y-77296115D02*
X32345847Y-77372306D01*
X32345847Y-77372306D02*
X32326800Y-77410401D01*
X32326800Y-77410401D02*
X32288704Y-77448496D01*
X32288704Y-77448496D02*
X32212514Y-77467544D01*
X32212514Y-77467544D02*
X32079180Y-77467544D01*
X32079180Y-77467544D02*
X32002990Y-77448496D01*
X32002990Y-77448496D02*
X31964895Y-77410401D01*
X31964895Y-77410401D02*
X31945847Y-77372306D01*
X54203884Y-76045847D02*
X54337217Y-76445847D01*
X54337217Y-76445847D02*
X54470550Y-76045847D01*
X54775312Y-76426800D02*
X54737217Y-76445847D01*
X54737217Y-76445847D02*
X54661026Y-76445847D01*
X54661026Y-76445847D02*
X54622931Y-76426800D01*
X54622931Y-76426800D02*
X54603884Y-76407752D01*
X54603884Y-76407752D02*
X54584836Y-76369657D01*
X54584836Y-76369657D02*
X54584836Y-76255371D01*
X54584836Y-76255371D02*
X54603884Y-76217276D01*
X54603884Y-76217276D02*
X54622931Y-76198228D01*
X54622931Y-76198228D02*
X54661026Y-76179180D01*
X54661026Y-76179180D02*
X54737217Y-76179180D01*
X54737217Y-76179180D02*
X54775312Y-76198228D01*
X55118169Y-76426800D02*
X55080074Y-76445847D01*
X55080074Y-76445847D02*
X55003883Y-76445847D01*
X55003883Y-76445847D02*
X54965788Y-76426800D01*
X54965788Y-76426800D02*
X54946741Y-76407752D01*
X54946741Y-76407752D02*
X54927693Y-76369657D01*
X54927693Y-76369657D02*
X54927693Y-76255371D01*
X54927693Y-76255371D02*
X54946741Y-76217276D01*
X54946741Y-76217276D02*
X54965788Y-76198228D01*
X54965788Y-76198228D02*
X55003883Y-76179180D01*
X55003883Y-76179180D02*
X55080074Y-76179180D01*
X55080074Y-76179180D02*
X55118169Y-76198228D01*
X51770550Y-76064895D02*
X51732455Y-76045847D01*
X51732455Y-76045847D02*
X51675312Y-76045847D01*
X51675312Y-76045847D02*
X51618169Y-76064895D01*
X51618169Y-76064895D02*
X51580074Y-76102990D01*
X51580074Y-76102990D02*
X51561027Y-76141085D01*
X51561027Y-76141085D02*
X51541979Y-76217276D01*
X51541979Y-76217276D02*
X51541979Y-76274419D01*
X51541979Y-76274419D02*
X51561027Y-76350609D01*
X51561027Y-76350609D02*
X51580074Y-76388704D01*
X51580074Y-76388704D02*
X51618169Y-76426800D01*
X51618169Y-76426800D02*
X51675312Y-76445847D01*
X51675312Y-76445847D02*
X51713408Y-76445847D01*
X51713408Y-76445847D02*
X51770550Y-76426800D01*
X51770550Y-76426800D02*
X51789598Y-76407752D01*
X51789598Y-76407752D02*
X51789598Y-76274419D01*
X51789598Y-76274419D02*
X51713408Y-76274419D01*
X51961027Y-76445847D02*
X51961027Y-76045847D01*
X51961027Y-76045847D02*
X52189598Y-76445847D01*
X52189598Y-76445847D02*
X52189598Y-76045847D01*
X52380075Y-76445847D02*
X52380075Y-76045847D01*
X52380075Y-76045847D02*
X52475313Y-76045847D01*
X52475313Y-76045847D02*
X52532456Y-76064895D01*
X52532456Y-76064895D02*
X52570551Y-76102990D01*
X52570551Y-76102990D02*
X52589598Y-76141085D01*
X52589598Y-76141085D02*
X52608646Y-76217276D01*
X52608646Y-76217276D02*
X52608646Y-76274419D01*
X52608646Y-76274419D02*
X52589598Y-76350609D01*
X52589598Y-76350609D02*
X52570551Y-76388704D01*
X52570551Y-76388704D02*
X52532456Y-76426800D01*
X52532456Y-76426800D02*
X52475313Y-76445847D01*
X52475313Y-76445847D02*
X52380075Y-76445847D01*
X49518169Y-76217276D02*
X49480074Y-76198228D01*
X49480074Y-76198228D02*
X49461027Y-76179180D01*
X49461027Y-76179180D02*
X49441979Y-76141085D01*
X49441979Y-76141085D02*
X49441979Y-76122038D01*
X49441979Y-76122038D02*
X49461027Y-76083942D01*
X49461027Y-76083942D02*
X49480074Y-76064895D01*
X49480074Y-76064895D02*
X49518169Y-76045847D01*
X49518169Y-76045847D02*
X49594360Y-76045847D01*
X49594360Y-76045847D02*
X49632455Y-76064895D01*
X49632455Y-76064895D02*
X49651503Y-76083942D01*
X49651503Y-76083942D02*
X49670550Y-76122038D01*
X49670550Y-76122038D02*
X49670550Y-76141085D01*
X49670550Y-76141085D02*
X49651503Y-76179180D01*
X49651503Y-76179180D02*
X49632455Y-76198228D01*
X49632455Y-76198228D02*
X49594360Y-76217276D01*
X49594360Y-76217276D02*
X49518169Y-76217276D01*
X49518169Y-76217276D02*
X49480074Y-76236323D01*
X49480074Y-76236323D02*
X49461027Y-76255371D01*
X49461027Y-76255371D02*
X49441979Y-76293466D01*
X49441979Y-76293466D02*
X49441979Y-76369657D01*
X49441979Y-76369657D02*
X49461027Y-76407752D01*
X49461027Y-76407752D02*
X49480074Y-76426800D01*
X49480074Y-76426800D02*
X49518169Y-76445847D01*
X49518169Y-76445847D02*
X49594360Y-76445847D01*
X49594360Y-76445847D02*
X49632455Y-76426800D01*
X49632455Y-76426800D02*
X49651503Y-76407752D01*
X49651503Y-76407752D02*
X49670550Y-76369657D01*
X49670550Y-76369657D02*
X49670550Y-76293466D01*
X49670550Y-76293466D02*
X49651503Y-76255371D01*
X49651503Y-76255371D02*
X49632455Y-76236323D01*
X49632455Y-76236323D02*
X49594360Y-76217276D01*
X46922931Y-76045847D02*
X47189598Y-76045847D01*
X47189598Y-76045847D02*
X47018169Y-76445847D01*
X44532455Y-76045847D02*
X44456265Y-76045847D01*
X44456265Y-76045847D02*
X44418169Y-76064895D01*
X44418169Y-76064895D02*
X44399122Y-76083942D01*
X44399122Y-76083942D02*
X44361027Y-76141085D01*
X44361027Y-76141085D02*
X44341979Y-76217276D01*
X44341979Y-76217276D02*
X44341979Y-76369657D01*
X44341979Y-76369657D02*
X44361027Y-76407752D01*
X44361027Y-76407752D02*
X44380074Y-76426800D01*
X44380074Y-76426800D02*
X44418169Y-76445847D01*
X44418169Y-76445847D02*
X44494360Y-76445847D01*
X44494360Y-76445847D02*
X44532455Y-76426800D01*
X44532455Y-76426800D02*
X44551503Y-76407752D01*
X44551503Y-76407752D02*
X44570550Y-76369657D01*
X44570550Y-76369657D02*
X44570550Y-76274419D01*
X44570550Y-76274419D02*
X44551503Y-76236323D01*
X44551503Y-76236323D02*
X44532455Y-76217276D01*
X44532455Y-76217276D02*
X44494360Y-76198228D01*
X44494360Y-76198228D02*
X44418169Y-76198228D01*
X44418169Y-76198228D02*
X44380074Y-76217276D01*
X44380074Y-76217276D02*
X44361027Y-76236323D01*
X44361027Y-76236323D02*
X44341979Y-76274419D01*
X42051503Y-76045847D02*
X41861027Y-76045847D01*
X41861027Y-76045847D02*
X41841979Y-76236323D01*
X41841979Y-76236323D02*
X41861027Y-76217276D01*
X41861027Y-76217276D02*
X41899122Y-76198228D01*
X41899122Y-76198228D02*
X41994360Y-76198228D01*
X41994360Y-76198228D02*
X42032455Y-76217276D01*
X42032455Y-76217276D02*
X42051503Y-76236323D01*
X42051503Y-76236323D02*
X42070550Y-76274419D01*
X42070550Y-76274419D02*
X42070550Y-76369657D01*
X42070550Y-76369657D02*
X42051503Y-76407752D01*
X42051503Y-76407752D02*
X42032455Y-76426800D01*
X42032455Y-76426800D02*
X41994360Y-76445847D01*
X41994360Y-76445847D02*
X41899122Y-76445847D01*
X41899122Y-76445847D02*
X41861027Y-76426800D01*
X41861027Y-76426800D02*
X41841979Y-76407752D01*
X39532455Y-76179180D02*
X39532455Y-76445847D01*
X39437217Y-76026800D02*
X39341979Y-76312514D01*
X39341979Y-76312514D02*
X39589598Y-76312514D01*
X36722931Y-76045847D02*
X36970550Y-76045847D01*
X36970550Y-76045847D02*
X36837217Y-76198228D01*
X36837217Y-76198228D02*
X36894360Y-76198228D01*
X36894360Y-76198228D02*
X36932455Y-76217276D01*
X36932455Y-76217276D02*
X36951503Y-76236323D01*
X36951503Y-76236323D02*
X36970550Y-76274419D01*
X36970550Y-76274419D02*
X36970550Y-76369657D01*
X36970550Y-76369657D02*
X36951503Y-76407752D01*
X36951503Y-76407752D02*
X36932455Y-76426800D01*
X36932455Y-76426800D02*
X36894360Y-76445847D01*
X36894360Y-76445847D02*
X36780074Y-76445847D01*
X36780074Y-76445847D02*
X36741979Y-76426800D01*
X36741979Y-76426800D02*
X36722931Y-76407752D01*
X34079847Y-58104761D02*
X34403657Y-58104761D01*
X34403657Y-58104761D02*
X34441752Y-58085714D01*
X34441752Y-58085714D02*
X34460800Y-58066666D01*
X34460800Y-58066666D02*
X34479847Y-58028571D01*
X34479847Y-58028571D02*
X34479847Y-57952380D01*
X34479847Y-57952380D02*
X34460800Y-57914285D01*
X34460800Y-57914285D02*
X34441752Y-57895238D01*
X34441752Y-57895238D02*
X34403657Y-57876190D01*
X34403657Y-57876190D02*
X34079847Y-57876190D01*
X34117942Y-57704761D02*
X34098895Y-57685713D01*
X34098895Y-57685713D02*
X34079847Y-57647618D01*
X34079847Y-57647618D02*
X34079847Y-57552380D01*
X34079847Y-57552380D02*
X34098895Y-57514285D01*
X34098895Y-57514285D02*
X34117942Y-57495237D01*
X34117942Y-57495237D02*
X34156038Y-57476190D01*
X34156038Y-57476190D02*
X34194133Y-57476190D01*
X34194133Y-57476190D02*
X34251276Y-57495237D01*
X34251276Y-57495237D02*
X34479847Y-57723809D01*
X34479847Y-57723809D02*
X34479847Y-57476190D01*
X34179847Y-64404761D02*
X34503657Y-64404761D01*
X34503657Y-64404761D02*
X34541752Y-64385714D01*
X34541752Y-64385714D02*
X34560800Y-64366666D01*
X34560800Y-64366666D02*
X34579847Y-64328571D01*
X34579847Y-64328571D02*
X34579847Y-64252380D01*
X34579847Y-64252380D02*
X34560800Y-64214285D01*
X34560800Y-64214285D02*
X34541752Y-64195238D01*
X34541752Y-64195238D02*
X34503657Y-64176190D01*
X34503657Y-64176190D02*
X34179847Y-64176190D01*
X34179847Y-64023809D02*
X34179847Y-63776190D01*
X34179847Y-63776190D02*
X34332228Y-63909523D01*
X34332228Y-63909523D02*
X34332228Y-63852380D01*
X34332228Y-63852380D02*
X34351276Y-63814285D01*
X34351276Y-63814285D02*
X34370323Y-63795237D01*
X34370323Y-63795237D02*
X34408419Y-63776190D01*
X34408419Y-63776190D02*
X34503657Y-63776190D01*
X34503657Y-63776190D02*
X34541752Y-63795237D01*
X34541752Y-63795237D02*
X34560800Y-63814285D01*
X34560800Y-63814285D02*
X34579847Y-63852380D01*
X34579847Y-63852380D02*
X34579847Y-63966666D01*
X34579847Y-63966666D02*
X34560800Y-64004761D01*
X34560800Y-64004761D02*
X34541752Y-64023809D01*
X34117942Y-62528570D02*
X34098895Y-62509522D01*
X34098895Y-62509522D02*
X34079847Y-62471427D01*
X34079847Y-62471427D02*
X34079847Y-62376189D01*
X34079847Y-62376189D02*
X34098895Y-62338094D01*
X34098895Y-62338094D02*
X34117942Y-62319046D01*
X34117942Y-62319046D02*
X34156038Y-62299999D01*
X34156038Y-62299999D02*
X34194133Y-62299999D01*
X34194133Y-62299999D02*
X34251276Y-62319046D01*
X34251276Y-62319046D02*
X34479847Y-62547618D01*
X34479847Y-62547618D02*
X34479847Y-62299999D01*
X34213180Y-61957142D02*
X34479847Y-61957142D01*
X34060800Y-62052380D02*
X34346514Y-62147618D01*
X34346514Y-62147618D02*
X34346514Y-61899999D01*
X34479847Y-61557142D02*
X34479847Y-61747618D01*
X34479847Y-61747618D02*
X34079847Y-61747618D01*
X34441752Y-61195237D02*
X34460800Y-61214285D01*
X34460800Y-61214285D02*
X34479847Y-61271427D01*
X34479847Y-61271427D02*
X34479847Y-61309523D01*
X34479847Y-61309523D02*
X34460800Y-61366666D01*
X34460800Y-61366666D02*
X34422704Y-61404761D01*
X34422704Y-61404761D02*
X34384609Y-61423808D01*
X34384609Y-61423808D02*
X34308419Y-61442856D01*
X34308419Y-61442856D02*
X34251276Y-61442856D01*
X34251276Y-61442856D02*
X34175085Y-61423808D01*
X34175085Y-61423808D02*
X34136990Y-61404761D01*
X34136990Y-61404761D02*
X34098895Y-61366666D01*
X34098895Y-61366666D02*
X34079847Y-61309523D01*
X34079847Y-61309523D02*
X34079847Y-61271427D01*
X34079847Y-61271427D02*
X34098895Y-61214285D01*
X34098895Y-61214285D02*
X34117942Y-61195237D01*
X34479847Y-60814285D02*
X34479847Y-61042856D01*
X34479847Y-60928570D02*
X34079847Y-60928570D01*
X34079847Y-60928570D02*
X34136990Y-60966666D01*
X34136990Y-60966666D02*
X34175085Y-61004761D01*
X34175085Y-61004761D02*
X34194133Y-61042856D01*
X34079847Y-60566666D02*
X34079847Y-60528571D01*
X34079847Y-60528571D02*
X34098895Y-60490475D01*
X34098895Y-60490475D02*
X34117942Y-60471428D01*
X34117942Y-60471428D02*
X34156038Y-60452380D01*
X34156038Y-60452380D02*
X34232228Y-60433333D01*
X34232228Y-60433333D02*
X34327466Y-60433333D01*
X34327466Y-60433333D02*
X34403657Y-60452380D01*
X34403657Y-60452380D02*
X34441752Y-60471428D01*
X34441752Y-60471428D02*
X34460800Y-60490475D01*
X34460800Y-60490475D02*
X34479847Y-60528571D01*
X34479847Y-60528571D02*
X34479847Y-60566666D01*
X34479847Y-60566666D02*
X34460800Y-60604761D01*
X34460800Y-60604761D02*
X34441752Y-60623809D01*
X34441752Y-60623809D02*
X34403657Y-60642856D01*
X34403657Y-60642856D02*
X34327466Y-60661904D01*
X34327466Y-60661904D02*
X34232228Y-60661904D01*
X34232228Y-60661904D02*
X34156038Y-60642856D01*
X34156038Y-60642856D02*
X34117942Y-60623809D01*
X34117942Y-60623809D02*
X34098895Y-60604761D01*
X34098895Y-60604761D02*
X34079847Y-60566666D01*
X34117942Y-60280952D02*
X34098895Y-60261904D01*
X34098895Y-60261904D02*
X34079847Y-60223809D01*
X34079847Y-60223809D02*
X34079847Y-60128571D01*
X34079847Y-60128571D02*
X34098895Y-60090476D01*
X34098895Y-60090476D02*
X34117942Y-60071428D01*
X34117942Y-60071428D02*
X34156038Y-60052381D01*
X34156038Y-60052381D02*
X34194133Y-60052381D01*
X34194133Y-60052381D02*
X34251276Y-60071428D01*
X34251276Y-60071428D02*
X34479847Y-60300000D01*
X34479847Y-60300000D02*
X34479847Y-60052381D01*
X34079847Y-59690476D02*
X34079847Y-59880952D01*
X34079847Y-59880952D02*
X34270323Y-59900000D01*
X34270323Y-59900000D02*
X34251276Y-59880952D01*
X34251276Y-59880952D02*
X34232228Y-59842857D01*
X34232228Y-59842857D02*
X34232228Y-59747619D01*
X34232228Y-59747619D02*
X34251276Y-59709524D01*
X34251276Y-59709524D02*
X34270323Y-59690476D01*
X34270323Y-59690476D02*
X34308419Y-59671429D01*
X34308419Y-59671429D02*
X34403657Y-59671429D01*
X34403657Y-59671429D02*
X34441752Y-59690476D01*
X34441752Y-59690476D02*
X34460800Y-59709524D01*
X34460800Y-59709524D02*
X34479847Y-59747619D01*
X34479847Y-59747619D02*
X34479847Y-59842857D01*
X34479847Y-59842857D02*
X34460800Y-59880952D01*
X34460800Y-59880952D02*
X34441752Y-59900000D01*
X46288333Y-55841752D02*
X46269285Y-55860800D01*
X46269285Y-55860800D02*
X46212143Y-55879847D01*
X46212143Y-55879847D02*
X46174047Y-55879847D01*
X46174047Y-55879847D02*
X46116904Y-55860800D01*
X46116904Y-55860800D02*
X46078809Y-55822704D01*
X46078809Y-55822704D02*
X46059762Y-55784609D01*
X46059762Y-55784609D02*
X46040714Y-55708419D01*
X46040714Y-55708419D02*
X46040714Y-55651276D01*
X46040714Y-55651276D02*
X46059762Y-55575085D01*
X46059762Y-55575085D02*
X46078809Y-55536990D01*
X46078809Y-55536990D02*
X46116904Y-55498895D01*
X46116904Y-55498895D02*
X46174047Y-55479847D01*
X46174047Y-55479847D02*
X46212143Y-55479847D01*
X46212143Y-55479847D02*
X46269285Y-55498895D01*
X46269285Y-55498895D02*
X46288333Y-55517942D01*
X46669285Y-55879847D02*
X46440714Y-55879847D01*
X46555000Y-55879847D02*
X46555000Y-55479847D01*
X46555000Y-55479847D02*
X46516904Y-55536990D01*
X46516904Y-55536990D02*
X46478809Y-55575085D01*
X46478809Y-55575085D02*
X46440714Y-55594133D01*
X47495238Y-59879847D02*
X47495238Y-60203657D01*
X47495238Y-60203657D02*
X47514285Y-60241752D01*
X47514285Y-60241752D02*
X47533333Y-60260800D01*
X47533333Y-60260800D02*
X47571428Y-60279847D01*
X47571428Y-60279847D02*
X47647619Y-60279847D01*
X47647619Y-60279847D02*
X47685714Y-60260800D01*
X47685714Y-60260800D02*
X47704761Y-60241752D01*
X47704761Y-60241752D02*
X47723809Y-60203657D01*
X47723809Y-60203657D02*
X47723809Y-59879847D01*
X48085714Y-60013180D02*
X48085714Y-60279847D01*
X47990476Y-59860800D02*
X47895238Y-60146514D01*
X47895238Y-60146514D02*
X48142857Y-60146514D01*
X48471429Y-60165561D02*
X48661905Y-60165561D01*
X48433334Y-60279847D02*
X48566667Y-59879847D01*
X48566667Y-59879847D02*
X48700000Y-60279847D01*
X48776191Y-59879847D02*
X49004762Y-59879847D01*
X48890476Y-60279847D02*
X48890476Y-59879847D01*
X49138096Y-60279847D02*
X49138096Y-59879847D01*
X49138096Y-59879847D02*
X49271429Y-60165561D01*
X49271429Y-60165561D02*
X49404762Y-59879847D01*
X49404762Y-59879847D02*
X49404762Y-60279847D01*
X49595239Y-60070323D02*
X49728572Y-60070323D01*
X49785715Y-60279847D02*
X49595239Y-60279847D01*
X49595239Y-60279847D02*
X49595239Y-59879847D01*
X49595239Y-59879847D02*
X49785715Y-59879847D01*
X50166667Y-59898895D02*
X50128572Y-59879847D01*
X50128572Y-59879847D02*
X50071429Y-59879847D01*
X50071429Y-59879847D02*
X50014286Y-59898895D01*
X50014286Y-59898895D02*
X49976191Y-59936990D01*
X49976191Y-59936990D02*
X49957144Y-59975085D01*
X49957144Y-59975085D02*
X49938096Y-60051276D01*
X49938096Y-60051276D02*
X49938096Y-60108419D01*
X49938096Y-60108419D02*
X49957144Y-60184609D01*
X49957144Y-60184609D02*
X49976191Y-60222704D01*
X49976191Y-60222704D02*
X50014286Y-60260800D01*
X50014286Y-60260800D02*
X50071429Y-60279847D01*
X50071429Y-60279847D02*
X50109525Y-60279847D01*
X50109525Y-60279847D02*
X50166667Y-60260800D01*
X50166667Y-60260800D02*
X50185715Y-60241752D01*
X50185715Y-60241752D02*
X50185715Y-60108419D01*
X50185715Y-60108419D02*
X50109525Y-60108419D01*
X50338096Y-60165561D02*
X50528572Y-60165561D01*
X50300001Y-60279847D02*
X50433334Y-59879847D01*
X50433334Y-59879847D02*
X50566667Y-60279847D01*
X50661905Y-59879847D02*
X50909524Y-59879847D01*
X50909524Y-59879847D02*
X50776191Y-60032228D01*
X50776191Y-60032228D02*
X50833334Y-60032228D01*
X50833334Y-60032228D02*
X50871429Y-60051276D01*
X50871429Y-60051276D02*
X50890477Y-60070323D01*
X50890477Y-60070323D02*
X50909524Y-60108419D01*
X50909524Y-60108419D02*
X50909524Y-60203657D01*
X50909524Y-60203657D02*
X50890477Y-60241752D01*
X50890477Y-60241752D02*
X50871429Y-60260800D01*
X50871429Y-60260800D02*
X50833334Y-60279847D01*
X50833334Y-60279847D02*
X50719048Y-60279847D01*
X50719048Y-60279847D02*
X50680953Y-60260800D01*
X50680953Y-60260800D02*
X50661905Y-60241752D01*
X51061905Y-59917942D02*
X51080953Y-59898895D01*
X51080953Y-59898895D02*
X51119048Y-59879847D01*
X51119048Y-59879847D02*
X51214286Y-59879847D01*
X51214286Y-59879847D02*
X51252381Y-59898895D01*
X51252381Y-59898895D02*
X51271429Y-59917942D01*
X51271429Y-59917942D02*
X51290476Y-59956038D01*
X51290476Y-59956038D02*
X51290476Y-59994133D01*
X51290476Y-59994133D02*
X51271429Y-60051276D01*
X51271429Y-60051276D02*
X51042857Y-60279847D01*
X51042857Y-60279847D02*
X51290476Y-60279847D01*
X51519047Y-60051276D02*
X51480952Y-60032228D01*
X51480952Y-60032228D02*
X51461905Y-60013180D01*
X51461905Y-60013180D02*
X51442857Y-59975085D01*
X51442857Y-59975085D02*
X51442857Y-59956038D01*
X51442857Y-59956038D02*
X51461905Y-59917942D01*
X51461905Y-59917942D02*
X51480952Y-59898895D01*
X51480952Y-59898895D02*
X51519047Y-59879847D01*
X51519047Y-59879847D02*
X51595238Y-59879847D01*
X51595238Y-59879847D02*
X51633333Y-59898895D01*
X51633333Y-59898895D02*
X51652381Y-59917942D01*
X51652381Y-59917942D02*
X51671428Y-59956038D01*
X51671428Y-59956038D02*
X51671428Y-59975085D01*
X51671428Y-59975085D02*
X51652381Y-60013180D01*
X51652381Y-60013180D02*
X51633333Y-60032228D01*
X51633333Y-60032228D02*
X51595238Y-60051276D01*
X51595238Y-60051276D02*
X51519047Y-60051276D01*
X51519047Y-60051276D02*
X51480952Y-60070323D01*
X51480952Y-60070323D02*
X51461905Y-60089371D01*
X51461905Y-60089371D02*
X51442857Y-60127466D01*
X51442857Y-60127466D02*
X51442857Y-60203657D01*
X51442857Y-60203657D02*
X51461905Y-60241752D01*
X51461905Y-60241752D02*
X51480952Y-60260800D01*
X51480952Y-60260800D02*
X51519047Y-60279847D01*
X51519047Y-60279847D02*
X51595238Y-60279847D01*
X51595238Y-60279847D02*
X51633333Y-60260800D01*
X51633333Y-60260800D02*
X51652381Y-60241752D01*
X51652381Y-60241752D02*
X51671428Y-60203657D01*
X51671428Y-60203657D02*
X51671428Y-60127466D01*
X51671428Y-60127466D02*
X51652381Y-60089371D01*
X51652381Y-60089371D02*
X51633333Y-60070323D01*
X51633333Y-60070323D02*
X51595238Y-60051276D01*
X51842857Y-60279847D02*
X51842857Y-59879847D01*
X51842857Y-59879847D02*
X51995238Y-59879847D01*
X51995238Y-59879847D02*
X52033333Y-59898895D01*
X52033333Y-59898895D02*
X52052380Y-59917942D01*
X52052380Y-59917942D02*
X52071428Y-59956038D01*
X52071428Y-59956038D02*
X52071428Y-60013180D01*
X52071428Y-60013180D02*
X52052380Y-60051276D01*
X52052380Y-60051276D02*
X52033333Y-60070323D01*
X52033333Y-60070323D02*
X51995238Y-60089371D01*
X51995238Y-60089371D02*
X51842857Y-60089371D01*
X52242857Y-60127466D02*
X52547619Y-60127466D01*
X52719047Y-60165561D02*
X52909523Y-60165561D01*
X52680952Y-60279847D02*
X52814285Y-59879847D01*
X52814285Y-59879847D02*
X52947618Y-60279847D01*
X53080952Y-59879847D02*
X53080952Y-60203657D01*
X53080952Y-60203657D02*
X53099999Y-60241752D01*
X53099999Y-60241752D02*
X53119047Y-60260800D01*
X53119047Y-60260800D02*
X53157142Y-60279847D01*
X53157142Y-60279847D02*
X53233333Y-60279847D01*
X53233333Y-60279847D02*
X53271428Y-60260800D01*
X53271428Y-60260800D02*
X53290475Y-60241752D01*
X53290475Y-60241752D02*
X53309523Y-60203657D01*
X53309523Y-60203657D02*
X53309523Y-59879847D01*
X50418333Y-55841752D02*
X50399285Y-55860800D01*
X50399285Y-55860800D02*
X50342143Y-55879847D01*
X50342143Y-55879847D02*
X50304047Y-55879847D01*
X50304047Y-55879847D02*
X50246904Y-55860800D01*
X50246904Y-55860800D02*
X50208809Y-55822704D01*
X50208809Y-55822704D02*
X50189762Y-55784609D01*
X50189762Y-55784609D02*
X50170714Y-55708419D01*
X50170714Y-55708419D02*
X50170714Y-55651276D01*
X50170714Y-55651276D02*
X50189762Y-55575085D01*
X50189762Y-55575085D02*
X50208809Y-55536990D01*
X50208809Y-55536990D02*
X50246904Y-55498895D01*
X50246904Y-55498895D02*
X50304047Y-55479847D01*
X50304047Y-55479847D02*
X50342143Y-55479847D01*
X50342143Y-55479847D02*
X50399285Y-55498895D01*
X50399285Y-55498895D02*
X50418333Y-55517942D01*
X50551666Y-55479847D02*
X50799285Y-55479847D01*
X50799285Y-55479847D02*
X50665952Y-55632228D01*
X50665952Y-55632228D02*
X50723095Y-55632228D01*
X50723095Y-55632228D02*
X50761190Y-55651276D01*
X50761190Y-55651276D02*
X50780238Y-55670323D01*
X50780238Y-55670323D02*
X50799285Y-55708419D01*
X50799285Y-55708419D02*
X50799285Y-55803657D01*
X50799285Y-55803657D02*
X50780238Y-55841752D01*
X50780238Y-55841752D02*
X50761190Y-55860800D01*
X50761190Y-55860800D02*
X50723095Y-55879847D01*
X50723095Y-55879847D02*
X50608809Y-55879847D01*
X50608809Y-55879847D02*
X50570714Y-55860800D01*
X50570714Y-55860800D02*
X50551666Y-55841752D01*
X66233333Y-62179847D02*
X66100000Y-61989371D01*
X66004762Y-62179847D02*
X66004762Y-61779847D01*
X66004762Y-61779847D02*
X66157143Y-61779847D01*
X66157143Y-61779847D02*
X66195238Y-61798895D01*
X66195238Y-61798895D02*
X66214285Y-61817942D01*
X66214285Y-61817942D02*
X66233333Y-61856038D01*
X66233333Y-61856038D02*
X66233333Y-61913180D01*
X66233333Y-61913180D02*
X66214285Y-61951276D01*
X66214285Y-61951276D02*
X66195238Y-61970323D01*
X66195238Y-61970323D02*
X66157143Y-61989371D01*
X66157143Y-61989371D02*
X66004762Y-61989371D01*
X66595238Y-61779847D02*
X66404762Y-61779847D01*
X66404762Y-61779847D02*
X66385714Y-61970323D01*
X66385714Y-61970323D02*
X66404762Y-61951276D01*
X66404762Y-61951276D02*
X66442857Y-61932228D01*
X66442857Y-61932228D02*
X66538095Y-61932228D01*
X66538095Y-61932228D02*
X66576190Y-61951276D01*
X66576190Y-61951276D02*
X66595238Y-61970323D01*
X66595238Y-61970323D02*
X66614285Y-62008419D01*
X66614285Y-62008419D02*
X66614285Y-62103657D01*
X66614285Y-62103657D02*
X66595238Y-62141752D01*
X66595238Y-62141752D02*
X66576190Y-62160800D01*
X66576190Y-62160800D02*
X66538095Y-62179847D01*
X66538095Y-62179847D02*
X66442857Y-62179847D01*
X66442857Y-62179847D02*
X66404762Y-62160800D01*
X66404762Y-62160800D02*
X66385714Y-62141752D01*
X54858333Y-55841752D02*
X54839285Y-55860800D01*
X54839285Y-55860800D02*
X54782143Y-55879847D01*
X54782143Y-55879847D02*
X54744047Y-55879847D01*
X54744047Y-55879847D02*
X54686904Y-55860800D01*
X54686904Y-55860800D02*
X54648809Y-55822704D01*
X54648809Y-55822704D02*
X54629762Y-55784609D01*
X54629762Y-55784609D02*
X54610714Y-55708419D01*
X54610714Y-55708419D02*
X54610714Y-55651276D01*
X54610714Y-55651276D02*
X54629762Y-55575085D01*
X54629762Y-55575085D02*
X54648809Y-55536990D01*
X54648809Y-55536990D02*
X54686904Y-55498895D01*
X54686904Y-55498895D02*
X54744047Y-55479847D01*
X54744047Y-55479847D02*
X54782143Y-55479847D01*
X54782143Y-55479847D02*
X54839285Y-55498895D01*
X54839285Y-55498895D02*
X54858333Y-55517942D01*
X55220238Y-55479847D02*
X55029762Y-55479847D01*
X55029762Y-55479847D02*
X55010714Y-55670323D01*
X55010714Y-55670323D02*
X55029762Y-55651276D01*
X55029762Y-55651276D02*
X55067857Y-55632228D01*
X55067857Y-55632228D02*
X55163095Y-55632228D01*
X55163095Y-55632228D02*
X55201190Y-55651276D01*
X55201190Y-55651276D02*
X55220238Y-55670323D01*
X55220238Y-55670323D02*
X55239285Y-55708419D01*
X55239285Y-55708419D02*
X55239285Y-55803657D01*
X55239285Y-55803657D02*
X55220238Y-55841752D01*
X55220238Y-55841752D02*
X55201190Y-55860800D01*
X55201190Y-55860800D02*
X55163095Y-55879847D01*
X55163095Y-55879847D02*
X55067857Y-55879847D01*
X55067857Y-55879847D02*
X55029762Y-55860800D01*
X55029762Y-55860800D02*
X55010714Y-55841752D01*
X59062262Y-55779847D02*
X59062262Y-55379847D01*
X59062262Y-55379847D02*
X59157500Y-55379847D01*
X59157500Y-55379847D02*
X59214643Y-55398895D01*
X59214643Y-55398895D02*
X59252738Y-55436990D01*
X59252738Y-55436990D02*
X59271785Y-55475085D01*
X59271785Y-55475085D02*
X59290833Y-55551276D01*
X59290833Y-55551276D02*
X59290833Y-55608419D01*
X59290833Y-55608419D02*
X59271785Y-55684609D01*
X59271785Y-55684609D02*
X59252738Y-55722704D01*
X59252738Y-55722704D02*
X59214643Y-55760800D01*
X59214643Y-55760800D02*
X59157500Y-55779847D01*
X59157500Y-55779847D02*
X59062262Y-55779847D01*
X59443214Y-55417942D02*
X59462262Y-55398895D01*
X59462262Y-55398895D02*
X59500357Y-55379847D01*
X59500357Y-55379847D02*
X59595595Y-55379847D01*
X59595595Y-55379847D02*
X59633690Y-55398895D01*
X59633690Y-55398895D02*
X59652738Y-55417942D01*
X59652738Y-55417942D02*
X59671785Y-55456038D01*
X59671785Y-55456038D02*
X59671785Y-55494133D01*
X59671785Y-55494133D02*
X59652738Y-55551276D01*
X59652738Y-55551276D02*
X59424166Y-55779847D01*
X59424166Y-55779847D02*
X59671785Y-55779847D01*
X63839762Y-55779847D02*
X63839762Y-55379847D01*
X63839762Y-55379847D02*
X63935000Y-55379847D01*
X63935000Y-55379847D02*
X63992143Y-55398895D01*
X63992143Y-55398895D02*
X64030238Y-55436990D01*
X64030238Y-55436990D02*
X64049285Y-55475085D01*
X64049285Y-55475085D02*
X64068333Y-55551276D01*
X64068333Y-55551276D02*
X64068333Y-55608419D01*
X64068333Y-55608419D02*
X64049285Y-55684609D01*
X64049285Y-55684609D02*
X64030238Y-55722704D01*
X64030238Y-55722704D02*
X63992143Y-55760800D01*
X63992143Y-55760800D02*
X63935000Y-55779847D01*
X63935000Y-55779847D02*
X63839762Y-55779847D01*
X64449285Y-55779847D02*
X64220714Y-55779847D01*
X64335000Y-55779847D02*
X64335000Y-55379847D01*
X64335000Y-55379847D02*
X64296904Y-55436990D01*
X64296904Y-55436990D02*
X64258809Y-55475085D01*
X64258809Y-55475085D02*
X64220714Y-55494133D01*
X69266666Y-56779847D02*
X69266666Y-57065561D01*
X69266666Y-57065561D02*
X69247619Y-57122704D01*
X69247619Y-57122704D02*
X69209523Y-57160800D01*
X69209523Y-57160800D02*
X69152381Y-57179847D01*
X69152381Y-57179847D02*
X69114285Y-57179847D01*
X69628571Y-56913180D02*
X69628571Y-57179847D01*
X69533333Y-56760800D02*
X69438095Y-57046514D01*
X69438095Y-57046514D02*
X69685714Y-57046514D01*
X59933333Y-66179847D02*
X59800000Y-65989371D01*
X59704762Y-66179847D02*
X59704762Y-65779847D01*
X59704762Y-65779847D02*
X59857143Y-65779847D01*
X59857143Y-65779847D02*
X59895238Y-65798895D01*
X59895238Y-65798895D02*
X59914285Y-65817942D01*
X59914285Y-65817942D02*
X59933333Y-65856038D01*
X59933333Y-65856038D02*
X59933333Y-65913180D01*
X59933333Y-65913180D02*
X59914285Y-65951276D01*
X59914285Y-65951276D02*
X59895238Y-65970323D01*
X59895238Y-65970323D02*
X59857143Y-65989371D01*
X59857143Y-65989371D02*
X59704762Y-65989371D01*
X60276190Y-65913180D02*
X60276190Y-66179847D01*
X60180952Y-65760800D02*
X60085714Y-66046514D01*
X60085714Y-66046514D02*
X60333333Y-66046514D01*
X59933333Y-63679847D02*
X59800000Y-63489371D01*
X59704762Y-63679847D02*
X59704762Y-63279847D01*
X59704762Y-63279847D02*
X59857143Y-63279847D01*
X59857143Y-63279847D02*
X59895238Y-63298895D01*
X59895238Y-63298895D02*
X59914285Y-63317942D01*
X59914285Y-63317942D02*
X59933333Y-63356038D01*
X59933333Y-63356038D02*
X59933333Y-63413180D01*
X59933333Y-63413180D02*
X59914285Y-63451276D01*
X59914285Y-63451276D02*
X59895238Y-63470323D01*
X59895238Y-63470323D02*
X59857143Y-63489371D01*
X59857143Y-63489371D02*
X59704762Y-63489371D01*
X60066666Y-63279847D02*
X60333333Y-63279847D01*
X60333333Y-63279847D02*
X60161904Y-63679847D01*
X66330833Y-67779847D02*
X66197500Y-67589371D01*
X66102262Y-67779847D02*
X66102262Y-67379847D01*
X66102262Y-67379847D02*
X66254643Y-67379847D01*
X66254643Y-67379847D02*
X66292738Y-67398895D01*
X66292738Y-67398895D02*
X66311785Y-67417942D01*
X66311785Y-67417942D02*
X66330833Y-67456038D01*
X66330833Y-67456038D02*
X66330833Y-67513180D01*
X66330833Y-67513180D02*
X66311785Y-67551276D01*
X66311785Y-67551276D02*
X66292738Y-67570323D01*
X66292738Y-67570323D02*
X66254643Y-67589371D01*
X66254643Y-67589371D02*
X66102262Y-67589371D01*
X66673690Y-67379847D02*
X66597500Y-67379847D01*
X66597500Y-67379847D02*
X66559404Y-67398895D01*
X66559404Y-67398895D02*
X66540357Y-67417942D01*
X66540357Y-67417942D02*
X66502262Y-67475085D01*
X66502262Y-67475085D02*
X66483214Y-67551276D01*
X66483214Y-67551276D02*
X66483214Y-67703657D01*
X66483214Y-67703657D02*
X66502262Y-67741752D01*
X66502262Y-67741752D02*
X66521309Y-67760800D01*
X66521309Y-67760800D02*
X66559404Y-67779847D01*
X66559404Y-67779847D02*
X66635595Y-67779847D01*
X66635595Y-67779847D02*
X66673690Y-67760800D01*
X66673690Y-67760800D02*
X66692738Y-67741752D01*
X66692738Y-67741752D02*
X66711785Y-67703657D01*
X66711785Y-67703657D02*
X66711785Y-67608419D01*
X66711785Y-67608419D02*
X66692738Y-67570323D01*
X66692738Y-67570323D02*
X66673690Y-67551276D01*
X66673690Y-67551276D02*
X66635595Y-67532228D01*
X66635595Y-67532228D02*
X66559404Y-67532228D01*
X66559404Y-67532228D02*
X66521309Y-67551276D01*
X66521309Y-67551276D02*
X66502262Y-67570323D01*
X66502262Y-67570323D02*
X66483214Y-67608419D01*
X31979847Y-79233333D02*
X32265561Y-79233333D01*
X32265561Y-79233333D02*
X32322704Y-79252380D01*
X32322704Y-79252380D02*
X32360800Y-79290476D01*
X32360800Y-79290476D02*
X32379847Y-79347618D01*
X32379847Y-79347618D02*
X32379847Y-79385714D01*
X32017942Y-79061904D02*
X31998895Y-79042856D01*
X31998895Y-79042856D02*
X31979847Y-79004761D01*
X31979847Y-79004761D02*
X31979847Y-78909523D01*
X31979847Y-78909523D02*
X31998895Y-78871428D01*
X31998895Y-78871428D02*
X32017942Y-78852380D01*
X32017942Y-78852380D02*
X32056038Y-78833333D01*
X32056038Y-78833333D02*
X32094133Y-78833333D01*
X32094133Y-78833333D02*
X32151276Y-78852380D01*
X32151276Y-78852380D02*
X32379847Y-79080952D01*
X32379847Y-79080952D02*
X32379847Y-78833333D01*
X43379847Y-72304761D02*
X43703657Y-72304761D01*
X43703657Y-72304761D02*
X43741752Y-72285714D01*
X43741752Y-72285714D02*
X43760800Y-72266666D01*
X43760800Y-72266666D02*
X43779847Y-72228571D01*
X43779847Y-72228571D02*
X43779847Y-72152380D01*
X43779847Y-72152380D02*
X43760800Y-72114285D01*
X43760800Y-72114285D02*
X43741752Y-72095238D01*
X43741752Y-72095238D02*
X43703657Y-72076190D01*
X43703657Y-72076190D02*
X43379847Y-72076190D01*
X43779847Y-71676190D02*
X43779847Y-71904761D01*
X43779847Y-71790475D02*
X43379847Y-71790475D01*
X43379847Y-71790475D02*
X43436990Y-71828571D01*
X43436990Y-71828571D02*
X43475085Y-71866666D01*
X43475085Y-71866666D02*
X43494133Y-71904761D01*
X43779847Y-71299998D02*
X43379847Y-71299998D01*
X43379847Y-71299998D02*
X43379847Y-71204760D01*
X43379847Y-71204760D02*
X43398895Y-71147617D01*
X43398895Y-71147617D02*
X43436990Y-71109522D01*
X43436990Y-71109522D02*
X43475085Y-71090475D01*
X43475085Y-71090475D02*
X43551276Y-71071427D01*
X43551276Y-71071427D02*
X43608419Y-71071427D01*
X43608419Y-71071427D02*
X43684609Y-71090475D01*
X43684609Y-71090475D02*
X43722704Y-71109522D01*
X43722704Y-71109522D02*
X43760800Y-71147617D01*
X43760800Y-71147617D02*
X43779847Y-71204760D01*
X43779847Y-71204760D02*
X43779847Y-71299998D01*
X43760800Y-70919046D02*
X43779847Y-70861903D01*
X43779847Y-70861903D02*
X43779847Y-70766665D01*
X43779847Y-70766665D02*
X43760800Y-70728570D01*
X43760800Y-70728570D02*
X43741752Y-70709522D01*
X43741752Y-70709522D02*
X43703657Y-70690475D01*
X43703657Y-70690475D02*
X43665561Y-70690475D01*
X43665561Y-70690475D02*
X43627466Y-70709522D01*
X43627466Y-70709522D02*
X43608419Y-70728570D01*
X43608419Y-70728570D02*
X43589371Y-70766665D01*
X43589371Y-70766665D02*
X43570323Y-70842856D01*
X43570323Y-70842856D02*
X43551276Y-70880951D01*
X43551276Y-70880951D02*
X43532228Y-70899998D01*
X43532228Y-70899998D02*
X43494133Y-70919046D01*
X43494133Y-70919046D02*
X43456038Y-70919046D01*
X43456038Y-70919046D02*
X43417942Y-70899998D01*
X43417942Y-70899998D02*
X43398895Y-70880951D01*
X43398895Y-70880951D02*
X43379847Y-70842856D01*
X43379847Y-70842856D02*
X43379847Y-70747617D01*
X43379847Y-70747617D02*
X43398895Y-70690475D01*
X43779847Y-70309523D02*
X43779847Y-70538094D01*
X43779847Y-70423808D02*
X43379847Y-70423808D01*
X43379847Y-70423808D02*
X43436990Y-70461904D01*
X43436990Y-70461904D02*
X43475085Y-70499999D01*
X43475085Y-70499999D02*
X43494133Y-70538094D01*
X43379847Y-70176190D02*
X43379847Y-69928571D01*
X43379847Y-69928571D02*
X43532228Y-70061904D01*
X43532228Y-70061904D02*
X43532228Y-70004761D01*
X43532228Y-70004761D02*
X43551276Y-69966666D01*
X43551276Y-69966666D02*
X43570323Y-69947618D01*
X43570323Y-69947618D02*
X43608419Y-69928571D01*
X43608419Y-69928571D02*
X43703657Y-69928571D01*
X43703657Y-69928571D02*
X43741752Y-69947618D01*
X43741752Y-69947618D02*
X43760800Y-69966666D01*
X43760800Y-69966666D02*
X43779847Y-70004761D01*
X43779847Y-70004761D02*
X43779847Y-70119047D01*
X43779847Y-70119047D02*
X43760800Y-70157142D01*
X43760800Y-70157142D02*
X43741752Y-70176190D01*
X43379847Y-69795238D02*
X43379847Y-69547619D01*
X43379847Y-69547619D02*
X43532228Y-69680952D01*
X43532228Y-69680952D02*
X43532228Y-69623809D01*
X43532228Y-69623809D02*
X43551276Y-69585714D01*
X43551276Y-69585714D02*
X43570323Y-69566666D01*
X43570323Y-69566666D02*
X43608419Y-69547619D01*
X43608419Y-69547619D02*
X43703657Y-69547619D01*
X43703657Y-69547619D02*
X43741752Y-69566666D01*
X43741752Y-69566666D02*
X43760800Y-69585714D01*
X43760800Y-69585714D02*
X43779847Y-69623809D01*
X43779847Y-69623809D02*
X43779847Y-69738095D01*
X43779847Y-69738095D02*
X43760800Y-69776190D01*
X43760800Y-69776190D02*
X43741752Y-69795238D01*
X43379847Y-69414286D02*
X43379847Y-69147619D01*
X43379847Y-69147619D02*
X43779847Y-69319048D01*
X43760800Y-69014286D02*
X43779847Y-68957143D01*
X43779847Y-68957143D02*
X43779847Y-68861905D01*
X43779847Y-68861905D02*
X43760800Y-68823810D01*
X43760800Y-68823810D02*
X43741752Y-68804762D01*
X43741752Y-68804762D02*
X43703657Y-68785715D01*
X43703657Y-68785715D02*
X43665561Y-68785715D01*
X43665561Y-68785715D02*
X43627466Y-68804762D01*
X43627466Y-68804762D02*
X43608419Y-68823810D01*
X43608419Y-68823810D02*
X43589371Y-68861905D01*
X43589371Y-68861905D02*
X43570323Y-68938096D01*
X43570323Y-68938096D02*
X43551276Y-68976191D01*
X43551276Y-68976191D02*
X43532228Y-68995238D01*
X43532228Y-68995238D02*
X43494133Y-69014286D01*
X43494133Y-69014286D02*
X43456038Y-69014286D01*
X43456038Y-69014286D02*
X43417942Y-68995238D01*
X43417942Y-68995238D02*
X43398895Y-68976191D01*
X43398895Y-68976191D02*
X43379847Y-68938096D01*
X43379847Y-68938096D02*
X43379847Y-68842857D01*
X43379847Y-68842857D02*
X43398895Y-68785715D01*
X43817942Y-68709525D02*
X43817942Y-68404763D01*
X71366666Y-77479847D02*
X71366666Y-77765561D01*
X71366666Y-77765561D02*
X71347619Y-77822704D01*
X71347619Y-77822704D02*
X71309523Y-77860800D01*
X71309523Y-77860800D02*
X71252381Y-77879847D01*
X71252381Y-77879847D02*
X71214285Y-77879847D01*
X71766666Y-77879847D02*
X71538095Y-77879847D01*
X71652381Y-77879847D02*
X71652381Y-77479847D01*
X71652381Y-77479847D02*
X71614285Y-77536990D01*
X71614285Y-77536990D02*
X71576190Y-77575085D01*
X71576190Y-77575085D02*
X71538095Y-77594133D01*
X59933333Y-71241752D02*
X59914285Y-71260800D01*
X59914285Y-71260800D02*
X59857143Y-71279847D01*
X59857143Y-71279847D02*
X59819047Y-71279847D01*
X59819047Y-71279847D02*
X59761904Y-71260800D01*
X59761904Y-71260800D02*
X59723809Y-71222704D01*
X59723809Y-71222704D02*
X59704762Y-71184609D01*
X59704762Y-71184609D02*
X59685714Y-71108419D01*
X59685714Y-71108419D02*
X59685714Y-71051276D01*
X59685714Y-71051276D02*
X59704762Y-70975085D01*
X59704762Y-70975085D02*
X59723809Y-70936990D01*
X59723809Y-70936990D02*
X59761904Y-70898895D01*
X59761904Y-70898895D02*
X59819047Y-70879847D01*
X59819047Y-70879847D02*
X59857143Y-70879847D01*
X59857143Y-70879847D02*
X59914285Y-70898895D01*
X59914285Y-70898895D02*
X59933333Y-70917942D01*
X60276190Y-71013180D02*
X60276190Y-71279847D01*
X60180952Y-70860800D02*
X60085714Y-71146514D01*
X60085714Y-71146514D02*
X60333333Y-71146514D01*
X57979847Y-78833333D02*
X58265561Y-78833333D01*
X58265561Y-78833333D02*
X58322704Y-78852380D01*
X58322704Y-78852380D02*
X58360800Y-78890476D01*
X58360800Y-78890476D02*
X58379847Y-78947618D01*
X58379847Y-78947618D02*
X58379847Y-78985714D01*
X57979847Y-78680952D02*
X57979847Y-78433333D01*
X57979847Y-78433333D02*
X58132228Y-78566666D01*
X58132228Y-78566666D02*
X58132228Y-78509523D01*
X58132228Y-78509523D02*
X58151276Y-78471428D01*
X58151276Y-78471428D02*
X58170323Y-78452380D01*
X58170323Y-78452380D02*
X58208419Y-78433333D01*
X58208419Y-78433333D02*
X58303657Y-78433333D01*
X58303657Y-78433333D02*
X58341752Y-78452380D01*
X58341752Y-78452380D02*
X58360800Y-78471428D01*
X58360800Y-78471428D02*
X58379847Y-78509523D01*
X58379847Y-78509523D02*
X58379847Y-78623809D01*
X58379847Y-78623809D02*
X58360800Y-78661904D01*
X58360800Y-78661904D02*
X58341752Y-78680952D01*
X36763333Y-73779847D02*
X36630000Y-73589371D01*
X36534762Y-73779847D02*
X36534762Y-73379847D01*
X36534762Y-73379847D02*
X36687143Y-73379847D01*
X36687143Y-73379847D02*
X36725238Y-73398895D01*
X36725238Y-73398895D02*
X36744285Y-73417942D01*
X36744285Y-73417942D02*
X36763333Y-73456038D01*
X36763333Y-73456038D02*
X36763333Y-73513180D01*
X36763333Y-73513180D02*
X36744285Y-73551276D01*
X36744285Y-73551276D02*
X36725238Y-73570323D01*
X36725238Y-73570323D02*
X36687143Y-73589371D01*
X36687143Y-73589371D02*
X36534762Y-73589371D01*
X37144285Y-73779847D02*
X36915714Y-73779847D01*
X37030000Y-73779847D02*
X37030000Y-73379847D01*
X37030000Y-73379847D02*
X36991904Y-73436990D01*
X36991904Y-73436990D02*
X36953809Y-73475085D01*
X36953809Y-73475085D02*
X36915714Y-73494133D01*
X59933333Y-73841752D02*
X59914285Y-73860800D01*
X59914285Y-73860800D02*
X59857143Y-73879847D01*
X59857143Y-73879847D02*
X59819047Y-73879847D01*
X59819047Y-73879847D02*
X59761904Y-73860800D01*
X59761904Y-73860800D02*
X59723809Y-73822704D01*
X59723809Y-73822704D02*
X59704762Y-73784609D01*
X59704762Y-73784609D02*
X59685714Y-73708419D01*
X59685714Y-73708419D02*
X59685714Y-73651276D01*
X59685714Y-73651276D02*
X59704762Y-73575085D01*
X59704762Y-73575085D02*
X59723809Y-73536990D01*
X59723809Y-73536990D02*
X59761904Y-73498895D01*
X59761904Y-73498895D02*
X59819047Y-73479847D01*
X59819047Y-73479847D02*
X59857143Y-73479847D01*
X59857143Y-73479847D02*
X59914285Y-73498895D01*
X59914285Y-73498895D02*
X59933333Y-73517942D01*
X60085714Y-73517942D02*
X60104762Y-73498895D01*
X60104762Y-73498895D02*
X60142857Y-73479847D01*
X60142857Y-73479847D02*
X60238095Y-73479847D01*
X60238095Y-73479847D02*
X60276190Y-73498895D01*
X60276190Y-73498895D02*
X60295238Y-73517942D01*
X60295238Y-73517942D02*
X60314285Y-73556038D01*
X60314285Y-73556038D02*
X60314285Y-73594133D01*
X60314285Y-73594133D02*
X60295238Y-73651276D01*
X60295238Y-73651276D02*
X60066666Y-73879847D01*
X60066666Y-73879847D02*
X60314285Y-73879847D01*
X34189371Y-72790475D02*
X34379847Y-72790475D01*
X33979847Y-72923808D02*
X34189371Y-72790475D01*
X34189371Y-72790475D02*
X33979847Y-72657142D01*
X34379847Y-72314285D02*
X34379847Y-72542856D01*
X34379847Y-72428570D02*
X33979847Y-72428570D01*
X33979847Y-72428570D02*
X34036990Y-72466666D01*
X34036990Y-72466666D02*
X34075085Y-72504761D01*
X34075085Y-72504761D02*
X34094133Y-72542856D01*
X33979847Y-71914285D02*
X33979847Y-71666666D01*
X33979847Y-71666666D02*
X34132228Y-71799999D01*
X34132228Y-71799999D02*
X34132228Y-71742856D01*
X34132228Y-71742856D02*
X34151276Y-71704761D01*
X34151276Y-71704761D02*
X34170323Y-71685713D01*
X34170323Y-71685713D02*
X34208419Y-71666666D01*
X34208419Y-71666666D02*
X34303657Y-71666666D01*
X34303657Y-71666666D02*
X34341752Y-71685713D01*
X34341752Y-71685713D02*
X34360800Y-71704761D01*
X34360800Y-71704761D02*
X34379847Y-71742856D01*
X34379847Y-71742856D02*
X34379847Y-71857142D01*
X34379847Y-71857142D02*
X34360800Y-71895237D01*
X34360800Y-71895237D02*
X34341752Y-71914285D01*
X34017942Y-71514285D02*
X33998895Y-71495237D01*
X33998895Y-71495237D02*
X33979847Y-71457142D01*
X33979847Y-71457142D02*
X33979847Y-71361904D01*
X33979847Y-71361904D02*
X33998895Y-71323809D01*
X33998895Y-71323809D02*
X34017942Y-71304761D01*
X34017942Y-71304761D02*
X34056038Y-71285714D01*
X34056038Y-71285714D02*
X34094133Y-71285714D01*
X34094133Y-71285714D02*
X34151276Y-71304761D01*
X34151276Y-71304761D02*
X34379847Y-71533333D01*
X34379847Y-71533333D02*
X34379847Y-71285714D01*
X34341752Y-71114285D02*
X34360800Y-71095238D01*
X34360800Y-71095238D02*
X34379847Y-71114285D01*
X34379847Y-71114285D02*
X34360800Y-71133333D01*
X34360800Y-71133333D02*
X34341752Y-71114285D01*
X34341752Y-71114285D02*
X34379847Y-71114285D01*
X33979847Y-70961905D02*
X33979847Y-70695238D01*
X33979847Y-70695238D02*
X34379847Y-70866667D01*
X33979847Y-70371429D02*
X33979847Y-70447619D01*
X33979847Y-70447619D02*
X33998895Y-70485715D01*
X33998895Y-70485715D02*
X34017942Y-70504762D01*
X34017942Y-70504762D02*
X34075085Y-70542857D01*
X34075085Y-70542857D02*
X34151276Y-70561905D01*
X34151276Y-70561905D02*
X34303657Y-70561905D01*
X34303657Y-70561905D02*
X34341752Y-70542857D01*
X34341752Y-70542857D02*
X34360800Y-70523810D01*
X34360800Y-70523810D02*
X34379847Y-70485715D01*
X34379847Y-70485715D02*
X34379847Y-70409524D01*
X34379847Y-70409524D02*
X34360800Y-70371429D01*
X34360800Y-70371429D02*
X34341752Y-70352381D01*
X34341752Y-70352381D02*
X34303657Y-70333334D01*
X34303657Y-70333334D02*
X34208419Y-70333334D01*
X34208419Y-70333334D02*
X34170323Y-70352381D01*
X34170323Y-70352381D02*
X34151276Y-70371429D01*
X34151276Y-70371429D02*
X34132228Y-70409524D01*
X34132228Y-70409524D02*
X34132228Y-70485715D01*
X34132228Y-70485715D02*
X34151276Y-70523810D01*
X34151276Y-70523810D02*
X34170323Y-70542857D01*
X34170323Y-70542857D02*
X34208419Y-70561905D01*
X34151276Y-70104763D02*
X34132228Y-70142858D01*
X34132228Y-70142858D02*
X34113180Y-70161905D01*
X34113180Y-70161905D02*
X34075085Y-70180953D01*
X34075085Y-70180953D02*
X34056038Y-70180953D01*
X34056038Y-70180953D02*
X34017942Y-70161905D01*
X34017942Y-70161905D02*
X33998895Y-70142858D01*
X33998895Y-70142858D02*
X33979847Y-70104763D01*
X33979847Y-70104763D02*
X33979847Y-70028572D01*
X33979847Y-70028572D02*
X33998895Y-69990477D01*
X33998895Y-69990477D02*
X34017942Y-69971429D01*
X34017942Y-69971429D02*
X34056038Y-69952382D01*
X34056038Y-69952382D02*
X34075085Y-69952382D01*
X34075085Y-69952382D02*
X34113180Y-69971429D01*
X34113180Y-69971429D02*
X34132228Y-69990477D01*
X34132228Y-69990477D02*
X34151276Y-70028572D01*
X34151276Y-70028572D02*
X34151276Y-70104763D01*
X34151276Y-70104763D02*
X34170323Y-70142858D01*
X34170323Y-70142858D02*
X34189371Y-70161905D01*
X34189371Y-70161905D02*
X34227466Y-70180953D01*
X34227466Y-70180953D02*
X34303657Y-70180953D01*
X34303657Y-70180953D02*
X34341752Y-70161905D01*
X34341752Y-70161905D02*
X34360800Y-70142858D01*
X34360800Y-70142858D02*
X34379847Y-70104763D01*
X34379847Y-70104763D02*
X34379847Y-70028572D01*
X34379847Y-70028572D02*
X34360800Y-69990477D01*
X34360800Y-69990477D02*
X34341752Y-69971429D01*
X34341752Y-69971429D02*
X34303657Y-69952382D01*
X34303657Y-69952382D02*
X34227466Y-69952382D01*
X34227466Y-69952382D02*
X34189371Y-69971429D01*
X34189371Y-69971429D02*
X34170323Y-69990477D01*
X34170323Y-69990477D02*
X34151276Y-70028572D01*
X34379847Y-69476191D02*
X33979847Y-69476191D01*
X34379847Y-69247620D02*
X34151276Y-69419049D01*
X33979847Y-69247620D02*
X34208419Y-69476191D01*
X34379847Y-69076191D02*
X33979847Y-69076191D01*
X34170323Y-69076191D02*
X34170323Y-68847620D01*
X34379847Y-68847620D02*
X33979847Y-68847620D01*
X34113180Y-68695239D02*
X34113180Y-68485715D01*
X34113180Y-68485715D02*
X34379847Y-68695239D01*
X34379847Y-68695239D02*
X34379847Y-68485715D01*
X30185714Y-65070323D02*
X30242857Y-65089371D01*
X30242857Y-65089371D02*
X30261904Y-65108419D01*
X30261904Y-65108419D02*
X30280952Y-65146514D01*
X30280952Y-65146514D02*
X30280952Y-65203657D01*
X30280952Y-65203657D02*
X30261904Y-65241752D01*
X30261904Y-65241752D02*
X30242857Y-65260800D01*
X30242857Y-65260800D02*
X30204762Y-65279847D01*
X30204762Y-65279847D02*
X30052381Y-65279847D01*
X30052381Y-65279847D02*
X30052381Y-64879847D01*
X30052381Y-64879847D02*
X30185714Y-64879847D01*
X30185714Y-64879847D02*
X30223809Y-64898895D01*
X30223809Y-64898895D02*
X30242857Y-64917942D01*
X30242857Y-64917942D02*
X30261904Y-64956038D01*
X30261904Y-64956038D02*
X30261904Y-64994133D01*
X30261904Y-64994133D02*
X30242857Y-65032228D01*
X30242857Y-65032228D02*
X30223809Y-65051276D01*
X30223809Y-65051276D02*
X30185714Y-65070323D01*
X30185714Y-65070323D02*
X30052381Y-65070323D01*
X30395238Y-64879847D02*
X30623809Y-64879847D01*
X30509523Y-65279847D02*
X30509523Y-64879847D01*
X30966666Y-65279847D02*
X30738095Y-65279847D01*
X30852381Y-65279847D02*
X30852381Y-64879847D01*
X30852381Y-64879847D02*
X30814285Y-64936990D01*
X30814285Y-64936990D02*
X30776190Y-64975085D01*
X30776190Y-64975085D02*
X30738095Y-64994133D01*
X31371429Y-65070323D02*
X31428572Y-65089371D01*
X31428572Y-65089371D02*
X31447619Y-65108419D01*
X31447619Y-65108419D02*
X31466667Y-65146514D01*
X31466667Y-65146514D02*
X31466667Y-65203657D01*
X31466667Y-65203657D02*
X31447619Y-65241752D01*
X31447619Y-65241752D02*
X31428572Y-65260800D01*
X31428572Y-65260800D02*
X31390477Y-65279847D01*
X31390477Y-65279847D02*
X31238096Y-65279847D01*
X31238096Y-65279847D02*
X31238096Y-64879847D01*
X31238096Y-64879847D02*
X31371429Y-64879847D01*
X31371429Y-64879847D02*
X31409524Y-64898895D01*
X31409524Y-64898895D02*
X31428572Y-64917942D01*
X31428572Y-64917942D02*
X31447619Y-64956038D01*
X31447619Y-64956038D02*
X31447619Y-64994133D01*
X31447619Y-64994133D02*
X31428572Y-65032228D01*
X31428572Y-65032228D02*
X31409524Y-65051276D01*
X31409524Y-65051276D02*
X31371429Y-65070323D01*
X31371429Y-65070323D02*
X31238096Y-65070323D01*
X31809524Y-65279847D02*
X31809524Y-65070323D01*
X31809524Y-65070323D02*
X31790477Y-65032228D01*
X31790477Y-65032228D02*
X31752381Y-65013180D01*
X31752381Y-65013180D02*
X31676191Y-65013180D01*
X31676191Y-65013180D02*
X31638096Y-65032228D01*
X31809524Y-65260800D02*
X31771429Y-65279847D01*
X31771429Y-65279847D02*
X31676191Y-65279847D01*
X31676191Y-65279847D02*
X31638096Y-65260800D01*
X31638096Y-65260800D02*
X31619048Y-65222704D01*
X31619048Y-65222704D02*
X31619048Y-65184609D01*
X31619048Y-65184609D02*
X31638096Y-65146514D01*
X31638096Y-65146514D02*
X31676191Y-65127466D01*
X31676191Y-65127466D02*
X31771429Y-65127466D01*
X31771429Y-65127466D02*
X31809524Y-65108419D01*
X31942858Y-65013180D02*
X32095239Y-65013180D01*
X32000001Y-64879847D02*
X32000001Y-65222704D01*
X32000001Y-65222704D02*
X32019048Y-65260800D01*
X32019048Y-65260800D02*
X32057143Y-65279847D01*
X32057143Y-65279847D02*
X32095239Y-65279847D01*
X32171429Y-65013180D02*
X32323810Y-65013180D01*
X32228572Y-64879847D02*
X32228572Y-65222704D01*
X32228572Y-65222704D02*
X32247619Y-65260800D01*
X32247619Y-65260800D02*
X32285714Y-65279847D01*
X32285714Y-65279847D02*
X32323810Y-65279847D01*
X32609524Y-65260800D02*
X32571428Y-65279847D01*
X32571428Y-65279847D02*
X32495238Y-65279847D01*
X32495238Y-65279847D02*
X32457143Y-65260800D01*
X32457143Y-65260800D02*
X32438095Y-65222704D01*
X32438095Y-65222704D02*
X32438095Y-65070323D01*
X32438095Y-65070323D02*
X32457143Y-65032228D01*
X32457143Y-65032228D02*
X32495238Y-65013180D01*
X32495238Y-65013180D02*
X32571428Y-65013180D01*
X32571428Y-65013180D02*
X32609524Y-65032228D01*
X32609524Y-65032228D02*
X32628571Y-65070323D01*
X32628571Y-65070323D02*
X32628571Y-65108419D01*
X32628571Y-65108419D02*
X32438095Y-65146514D01*
X32800000Y-65279847D02*
X32800000Y-65013180D01*
X32800000Y-65089371D02*
X32819047Y-65051276D01*
X32819047Y-65051276D02*
X32838095Y-65032228D01*
X32838095Y-65032228D02*
X32876190Y-65013180D01*
X32876190Y-65013180D02*
X32914285Y-65013180D01*
X33009523Y-65013180D02*
X33104761Y-65279847D01*
X33200000Y-65013180D02*
X33104761Y-65279847D01*
X33104761Y-65279847D02*
X33066666Y-65375085D01*
X33066666Y-65375085D02*
X33047619Y-65394133D01*
X33047619Y-65394133D02*
X33009523Y-65413180D01*
X47409524Y-71889371D02*
X47409524Y-72079847D01*
X47276191Y-71679847D02*
X47409524Y-71889371D01*
X47409524Y-71889371D02*
X47542857Y-71679847D01*
X47657143Y-71717942D02*
X47676191Y-71698895D01*
X47676191Y-71698895D02*
X47714286Y-71679847D01*
X47714286Y-71679847D02*
X47809524Y-71679847D01*
X47809524Y-71679847D02*
X47847619Y-71698895D01*
X47847619Y-71698895D02*
X47866667Y-71717942D01*
X47866667Y-71717942D02*
X47885714Y-71756038D01*
X47885714Y-71756038D02*
X47885714Y-71794133D01*
X47885714Y-71794133D02*
X47866667Y-71851276D01*
X47866667Y-71851276D02*
X47638095Y-72079847D01*
X47638095Y-72079847D02*
X47885714Y-72079847D01*
X46071428Y-72679847D02*
X45842857Y-72679847D01*
X45957143Y-72679847D02*
X45957143Y-72279847D01*
X45957143Y-72279847D02*
X45919047Y-72336990D01*
X45919047Y-72336990D02*
X45880952Y-72375085D01*
X45880952Y-72375085D02*
X45842857Y-72394133D01*
X46414285Y-72279847D02*
X46338095Y-72279847D01*
X46338095Y-72279847D02*
X46299999Y-72298895D01*
X46299999Y-72298895D02*
X46280952Y-72317942D01*
X46280952Y-72317942D02*
X46242857Y-72375085D01*
X46242857Y-72375085D02*
X46223809Y-72451276D01*
X46223809Y-72451276D02*
X46223809Y-72603657D01*
X46223809Y-72603657D02*
X46242857Y-72641752D01*
X46242857Y-72641752D02*
X46261904Y-72660800D01*
X46261904Y-72660800D02*
X46299999Y-72679847D01*
X46299999Y-72679847D02*
X46376190Y-72679847D01*
X46376190Y-72679847D02*
X46414285Y-72660800D01*
X46414285Y-72660800D02*
X46433333Y-72641752D01*
X46433333Y-72641752D02*
X46452380Y-72603657D01*
X46452380Y-72603657D02*
X46452380Y-72508419D01*
X46452380Y-72508419D02*
X46433333Y-72470323D01*
X46433333Y-72470323D02*
X46414285Y-72451276D01*
X46414285Y-72451276D02*
X46376190Y-72432228D01*
X46376190Y-72432228D02*
X46299999Y-72432228D01*
X46299999Y-72432228D02*
X46261904Y-72451276D01*
X46261904Y-72451276D02*
X46242857Y-72470323D01*
X46242857Y-72470323D02*
X46223809Y-72508419D01*
X46928571Y-72679847D02*
X46928571Y-72279847D01*
X46928571Y-72279847D02*
X47061904Y-72565561D01*
X47061904Y-72565561D02*
X47195237Y-72279847D01*
X47195237Y-72279847D02*
X47195237Y-72679847D01*
X47385714Y-72679847D02*
X47385714Y-72279847D01*
X47385714Y-72470323D02*
X47614285Y-72470323D01*
X47614285Y-72679847D02*
X47614285Y-72279847D01*
X47766666Y-72413180D02*
X47976190Y-72413180D01*
X47976190Y-72413180D02*
X47766666Y-72679847D01*
X47766666Y-72679847D02*
X47976190Y-72679847D01*
X59933333Y-68779847D02*
X59800000Y-68589371D01*
X59704762Y-68779847D02*
X59704762Y-68379847D01*
X59704762Y-68379847D02*
X59857143Y-68379847D01*
X59857143Y-68379847D02*
X59895238Y-68398895D01*
X59895238Y-68398895D02*
X59914285Y-68417942D01*
X59914285Y-68417942D02*
X59933333Y-68456038D01*
X59933333Y-68456038D02*
X59933333Y-68513180D01*
X59933333Y-68513180D02*
X59914285Y-68551276D01*
X59914285Y-68551276D02*
X59895238Y-68570323D01*
X59895238Y-68570323D02*
X59857143Y-68589371D01*
X59857143Y-68589371D02*
X59704762Y-68589371D01*
X60066666Y-68379847D02*
X60314285Y-68379847D01*
X60314285Y-68379847D02*
X60180952Y-68532228D01*
X60180952Y-68532228D02*
X60238095Y-68532228D01*
X60238095Y-68532228D02*
X60276190Y-68551276D01*
X60276190Y-68551276D02*
X60295238Y-68570323D01*
X60295238Y-68570323D02*
X60314285Y-68608419D01*
X60314285Y-68608419D02*
X60314285Y-68703657D01*
X60314285Y-68703657D02*
X60295238Y-68741752D01*
X60295238Y-68741752D02*
X60276190Y-68760800D01*
X60276190Y-68760800D02*
X60238095Y-68779847D01*
X60238095Y-68779847D02*
X60123809Y-68779847D01*
X60123809Y-68779847D02*
X60085714Y-68760800D01*
X60085714Y-68760800D02*
X60066666Y-68741752D01*
X41833333Y-73779847D02*
X41700000Y-73589371D01*
X41604762Y-73779847D02*
X41604762Y-73379847D01*
X41604762Y-73379847D02*
X41757143Y-73379847D01*
X41757143Y-73379847D02*
X41795238Y-73398895D01*
X41795238Y-73398895D02*
X41814285Y-73417942D01*
X41814285Y-73417942D02*
X41833333Y-73456038D01*
X41833333Y-73456038D02*
X41833333Y-73513180D01*
X41833333Y-73513180D02*
X41814285Y-73551276D01*
X41814285Y-73551276D02*
X41795238Y-73570323D01*
X41795238Y-73570323D02*
X41757143Y-73589371D01*
X41757143Y-73589371D02*
X41604762Y-73589371D01*
X41985714Y-73417942D02*
X42004762Y-73398895D01*
X42004762Y-73398895D02*
X42042857Y-73379847D01*
X42042857Y-73379847D02*
X42138095Y-73379847D01*
X42138095Y-73379847D02*
X42176190Y-73398895D01*
X42176190Y-73398895D02*
X42195238Y-73417942D01*
X42195238Y-73417942D02*
X42214285Y-73456038D01*
X42214285Y-73456038D02*
X42214285Y-73494133D01*
X42214285Y-73494133D02*
X42195238Y-73551276D01*
X42195238Y-73551276D02*
X41966666Y-73779847D01*
X41966666Y-73779847D02*
X42214285Y-73779847D01*
D12*
%TO.C,U2*%
X35780000Y-55285000D02*
X35440000Y-54815000D01*
X36120000Y-54815000D01*
X35780000Y-55285000D01*
G36*
X35780000Y-55285000D02*
G01*
X35440000Y-54815000D01*
X36120000Y-54815000D01*
X35780000Y-55285000D01*
G37*
X42130000Y-60545000D02*
X36610000Y-60545000D01*
X42130000Y-60275000D02*
X42130000Y-60545000D01*
X42130000Y-55025000D02*
X42130000Y-55295000D01*
X36610000Y-60545000D02*
X36610000Y-60275000D01*
X36610000Y-55295000D02*
X36610000Y-55025000D01*
X36610000Y-55025000D02*
X42130000Y-55025000D01*
%TO.C,U3*%
X36832500Y-61375000D02*
X42352500Y-61375000D01*
X36832500Y-61645000D02*
X36832500Y-61375000D01*
X36832500Y-66895000D02*
X36832500Y-66625000D01*
X42352500Y-61375000D02*
X42352500Y-61645000D01*
X42352500Y-66625000D02*
X42352500Y-66895000D01*
X42352500Y-66895000D02*
X36832500Y-66895000D01*
X36002500Y-61635000D02*
X35662500Y-61165000D01*
X36342500Y-61165000D01*
X36002500Y-61635000D01*
G36*
X36002500Y-61635000D02*
G01*
X35662500Y-61165000D01*
X36342500Y-61165000D01*
X36002500Y-61635000D01*
G37*
%TO.C,C1*%
X46616252Y-57885000D02*
X46093748Y-57885000D01*
X46616252Y-56415000D02*
X46093748Y-56415000D01*
%TO.C,U4*%
D13*
X46870000Y-62880000D02*
G75*
G02*
X46670000Y-62880000I-100000J0D01*
G01*
X46670000Y-62880000D02*
G75*
G02*
X46870000Y-62880000I100000J0D01*
G01*
D14*
X56110000Y-69180000D02*
X56110000Y-69075000D01*
X56110000Y-69180000D02*
X56005000Y-69180000D01*
X56110000Y-62180000D02*
X56110000Y-62285000D01*
X56110000Y-62180000D02*
X56005000Y-62180000D01*
X49110000Y-69180000D02*
X49215000Y-69180000D01*
X49110000Y-69180000D02*
X49110000Y-69075000D01*
X49110000Y-62180000D02*
X49215000Y-62180000D01*
X49110000Y-62180000D02*
X49110000Y-62285000D01*
%TO.C,C3*%
D12*
X50746252Y-57885000D02*
X50223748Y-57885000D01*
X50746252Y-56415000D02*
X50223748Y-56415000D01*
%TO.C,R5*%
X66090436Y-64235000D02*
X66544564Y-64235000D01*
X66090436Y-62765000D02*
X66544564Y-62765000D01*
%TO.C,C5*%
X54663748Y-57885000D02*
X55186252Y-57885000D01*
X54663748Y-56415000D02*
X55186252Y-56415000D01*
%TO.C,D2*%
X60357500Y-56190000D02*
X57672500Y-56190000D01*
X57672500Y-58110000D02*
X60357500Y-58110000D01*
X57672500Y-56190000D02*
X57672500Y-58110000D01*
%TO.C,D1*%
X65135000Y-56190000D02*
X62450000Y-56190000D01*
X62450000Y-58110000D02*
X65135000Y-58110000D01*
X62450000Y-56190000D02*
X62450000Y-58110000D01*
%TO.C,J4*%
X74405000Y-57675000D02*
X74405000Y-65515000D01*
X71755000Y-60325000D02*
X71755000Y-57675000D01*
X71755000Y-57675000D02*
X74405000Y-57675000D01*
X69105000Y-65515000D02*
X74405000Y-65515000D01*
X69105000Y-60325000D02*
X71755000Y-60325000D01*
X69105000Y-60325000D02*
X69105000Y-65515000D01*
X69105000Y-59055000D02*
X69105000Y-57675000D01*
X69105000Y-57675000D02*
X70485000Y-57675000D01*
%TO.C,R4*%
X62457064Y-66775000D02*
X62002936Y-66775000D01*
X62457064Y-65305000D02*
X62002936Y-65305000D01*
%TO.C,R7*%
X62457064Y-64235000D02*
X62002936Y-64235000D01*
X62457064Y-62765000D02*
X62002936Y-62765000D01*
%TO.C,R6*%
X66624564Y-66775000D02*
X66170436Y-66775000D01*
X66624564Y-65305000D02*
X66170436Y-65305000D01*
%TO.C,J2*%
X55990000Y-79485000D02*
X55990000Y-76725000D01*
X35560000Y-79485000D02*
X55990000Y-79485000D01*
X35560000Y-79485000D02*
X35560000Y-76725000D01*
X35560000Y-76725000D02*
X55990000Y-76725000D01*
X34290000Y-79485000D02*
X32910000Y-79485000D01*
X32910000Y-79485000D02*
X32910000Y-78105000D01*
%TO.C,U1*%
D13*
X35090000Y-67990000D02*
G75*
G02*
X34890000Y-67990000I-100000J0D01*
G01*
X34890000Y-67990000D02*
G75*
G02*
X35090000Y-67990000I100000J0D01*
G01*
D14*
X37435000Y-73005000D02*
X41435000Y-73005000D01*
X37435000Y-67965000D02*
X41435000Y-67965000D01*
%TO.C,J1*%
D12*
X71645000Y-66565000D02*
X73025000Y-66565000D01*
X71645000Y-67945000D02*
X71645000Y-66565000D01*
X71645000Y-69215000D02*
X71645000Y-76945000D01*
X71645000Y-69215000D02*
X74405000Y-69215000D01*
X71645000Y-76945000D02*
X74405000Y-76945000D01*
X74405000Y-69215000D02*
X74405000Y-76945000D01*
%TO.C,C4*%
X61968748Y-70385000D02*
X62491252Y-70385000D01*
X61968748Y-71855000D02*
X62491252Y-71855000D01*
%TO.C,J3*%
X58945000Y-79485000D02*
X58945000Y-78105000D01*
X60325000Y-79485000D02*
X58945000Y-79485000D01*
X61595000Y-76725000D02*
X69325000Y-76725000D01*
X61595000Y-79485000D02*
X61595000Y-76725000D01*
X61595000Y-79485000D02*
X69325000Y-79485000D01*
X69325000Y-79485000D02*
X69325000Y-76725000D01*
%TO.C,R1*%
X37057064Y-74195000D02*
X36602936Y-74195000D01*
X37057064Y-75665000D02*
X36602936Y-75665000D01*
%TO.C,C2*%
X61968748Y-72925000D02*
X62491252Y-72925000D01*
X61968748Y-74395000D02*
X62491252Y-74395000D01*
%TO.C,Y1*%
X29890000Y-66510000D02*
X29890000Y-73880000D01*
X33610000Y-66510000D02*
X29890000Y-66510000D01*
X33610000Y-73880000D02*
X33610000Y-66510000D01*
%TO.C,BT1*%
X30370000Y-58945000D02*
X31750000Y-58945000D01*
X30370000Y-60325000D02*
X30370000Y-58945000D01*
X30370000Y-61595000D02*
X30370000Y-64245000D01*
X30370000Y-61595000D02*
X33130000Y-61595000D01*
X30370000Y-64245000D02*
X33130000Y-64245000D01*
X33130000Y-61595000D02*
X33130000Y-64245000D01*
%TO.C,Y2*%
X49945000Y-75520000D02*
X57315000Y-75520000D01*
X57315000Y-71800000D02*
X49945000Y-71800000D01*
X57315000Y-75520000D02*
X57315000Y-71800000D01*
%TO.C,R3*%
X62457064Y-67845000D02*
X62002936Y-67845000D01*
X62457064Y-69315000D02*
X62002936Y-69315000D01*
%TO.C,R2*%
X41682936Y-74195000D02*
X42137064Y-74195000D01*
X41682936Y-75665000D02*
X42137064Y-75665000D01*
%TD*%
M02*
