%TF.GenerationSoftware,KiCad,Pcbnew,10.0.3-10.0.3~ubuntu24.04.1*%
%TF.CreationDate,2026-05-16T21:26:25+07:00*%
%TF.ProjectId,MCU Datalogger,4d435520-4461-4746-916c-6f676765722e,1*%
%TF.SameCoordinates,Original*%
%TF.FileFunction,Plated,1,2,PTH,Drill*%
%TF.FilePolarity,Positive*%
%FSLAX46Y46*%
G04 Gerber Fmt 4.6, Leading zero omitted, Abs format (unit mm)*
G04 Created by KiCad (PCBNEW 10.0.3-10.0.3~ubuntu24.04.1) date 2026-05-16 21:26:25*
%MOMM*%
%LPD*%
G01*
G04 APERTURE LIST*
%TA.AperFunction,ViaDrill*%
%ADD10C,0.300000*%
%TD*%
%TA.AperFunction,ComponentDrill*%
%ADD11C,1.000000*%
%TD*%
G04 APERTURE END LIST*
D10*
X34917199Y-73010833D03*
X37465000Y-66040000D03*
X39370000Y-58420000D03*
X39370000Y-67310000D03*
X43180000Y-67310000D03*
X44021250Y-60753750D03*
X44427499Y-59077501D03*
X45085000Y-55260000D03*
X45085000Y-69850000D03*
X45885003Y-69850000D03*
X46355000Y-58277501D03*
X46685006Y-69850000D03*
X46990000Y-62865000D03*
X47115784Y-64009216D03*
X47625000Y-69850000D03*
X48260000Y-61595000D03*
X49530000Y-71755000D03*
X50135263Y-63555130D03*
X50165000Y-66917500D03*
X50610000Y-62675000D03*
X52070000Y-64770000D03*
X52705000Y-62865000D03*
X52817080Y-71755000D03*
X53340000Y-63500000D03*
X53975000Y-71755000D03*
X54610000Y-66617500D03*
X55114273Y-68029198D03*
X55245000Y-65280000D03*
X55245000Y-71960000D03*
X55880000Y-71120000D03*
X56515000Y-55880000D03*
X58393630Y-67780000D03*
X60325000Y-61595000D03*
X60524910Y-64801638D03*
X64562055Y-69562971D03*
X64770000Y-61595000D03*
X64770000Y-73660000D03*
X66110013Y-68015013D03*
D11*
%TO.C,BT1*%
X31750000Y-60325000D03*
X31750000Y-62865000D03*
%TO.C,J2*%
X34290000Y-78105000D03*
X36830000Y-78105000D03*
X39370000Y-78105000D03*
X41910000Y-78105000D03*
X44450000Y-78105000D03*
X46990000Y-78105000D03*
X49530000Y-78105000D03*
X52070000Y-78105000D03*
X54610000Y-78105000D03*
%TO.C,J3*%
X60325000Y-78105000D03*
X62865000Y-78105000D03*
X65405000Y-78105000D03*
X67945000Y-78105000D03*
%TO.C,J4*%
X70485000Y-59055000D03*
X70485000Y-61595000D03*
X70485000Y-64135000D03*
X73025000Y-59055000D03*
X73025000Y-61595000D03*
X73025000Y-64135000D03*
%TO.C,J1*%
X73025000Y-67945000D03*
X73025000Y-70485000D03*
X73025000Y-73025000D03*
X73025000Y-75565000D03*
M02*
