%TF.GenerationSoftware,KiCad,Pcbnew,10.0.3-10.0.3~ubuntu24.04.1*%
%TF.CreationDate,2026-05-16T21:25:17+07:00*%
%TF.ProjectId,MCU Datalogger,4d435520-4461-4746-916c-6f676765722e,1*%
%TF.SameCoordinates,Original*%
%TF.FileFunction,Copper,L2,Bot*%
%TF.FilePolarity,Positive*%
%FSLAX46Y46*%
G04 Gerber Fmt 4.6, Leading zero omitted, Abs format (unit mm)*
G04 Created by KiCad (PCBNEW 10.0.3-10.0.3~ubuntu24.04.1) date 2026-05-16 21:25:17*
%MOMM*%
%LPD*%
G01*
G04 APERTURE LIST*
%TA.AperFunction,ComponentPad*%
%ADD10C,1.700000*%
%TD*%
%TA.AperFunction,ComponentPad*%
%ADD11R,1.700000X1.700000*%
%TD*%
%TA.AperFunction,ViaPad*%
%ADD12C,0.900000*%
%TD*%
%TA.AperFunction,ViaPad*%
%ADD13C,0.600000*%
%TD*%
%TA.AperFunction,Conductor*%
%ADD14C,0.350000*%
%TD*%
%TA.AperFunction,Conductor*%
%ADD15C,0.200000*%
%TD*%
%TA.AperFunction,Conductor*%
%ADD16C,0.125000*%
%TD*%
G04 APERTURE END LIST*
D10*
%TO.P,J4,6,Pin_6_6*%
%TO.N,GND*%
X73025000Y-64135000D03*
%TO.P,J4,5,Pin_5_5*%
%TO.N,/RESET*%
X70485000Y-64135000D03*
%TO.P,J4,4,Pin_4_4*%
%TO.N,/MOSI*%
X73025000Y-61595000D03*
%TO.P,J4,3,Pin_3_3*%
%TO.N,/SCK*%
X70485000Y-61595000D03*
%TO.P,J4,2,Pin_2_2*%
%TO.N,/Vcc*%
X73025000Y-59055000D03*
D11*
%TO.P,J4,1,Pin_1_1*%
%TO.N,/MISO*%
X70485000Y-59055000D03*
%TD*%
D10*
%TO.P,J2,9,Pin_9_9*%
%TO.N,/Vcc*%
X54610000Y-78105000D03*
%TO.P,J2,8,Pin_8_8*%
%TO.N,GND*%
X52070000Y-78105000D03*
%TO.P,J2,7,Pin_7_7*%
%TO.N,/D8*%
X49530000Y-78105000D03*
%TO.P,J2,6,Pin_6_6*%
%TO.N,/D7*%
X46990000Y-78105000D03*
%TO.P,J2,5,Pin_5_5*%
%TO.N,/D6*%
X44450000Y-78105000D03*
%TO.P,J2,4,Pin_4_4*%
%TO.N,/D5*%
X41910000Y-78105000D03*
%TO.P,J2,3,Pin_3_3*%
%TO.N,/D4*%
X39370000Y-78105000D03*
%TO.P,J2,2,Pin_2_2*%
%TO.N,/D3*%
X36830000Y-78105000D03*
D11*
%TO.P,J2,1,Pin_1_1*%
%TO.N,/D2*%
X34290000Y-78105000D03*
%TD*%
%TO.P,J1,1,Pin_1_1*%
%TO.N,GND*%
X73025000Y-67945000D03*
D10*
%TO.P,J1,2,Pin_2_2*%
%TO.N,/Vcc*%
X73025000Y-70485000D03*
%TO.P,J1,3,Pin_3_3*%
%TO.N,/SDA*%
X73025000Y-73025000D03*
%TO.P,J1,4,Pin_4_4*%
%TO.N,/SCK*%
X73025000Y-75565000D03*
%TD*%
D11*
%TO.P,J3,1,Pin_1_1*%
%TO.N,GND*%
X60325000Y-78105000D03*
D10*
%TO.P,J3,2,Pin_2_2*%
%TO.N,/Vcc*%
X62865000Y-78105000D03*
%TO.P,J3,3,Pin_3_3*%
%TO.N,/RX*%
X65405000Y-78105000D03*
%TO.P,J3,4,Pin_4_4*%
%TO.N,/TX*%
X67945000Y-78105000D03*
%TD*%
D11*
%TO.P,BT1,1,+_1*%
%TO.N,/Vcc*%
X31750000Y-60325000D03*
D10*
%TO.P,BT1,2,-_2*%
%TO.N,GND*%
X31750000Y-62865000D03*
%TD*%
D12*
%TO.N,GND*%
X39370000Y-58420000D03*
D13*
%TO.N,/SDA*%
X44021250Y-60753750D03*
%TO.N,/SCK*%
X44427499Y-59077501D03*
D12*
%TO.N,GND*%
X37465000Y-66040000D03*
%TO.N,/Vcc*%
X46355000Y-58277501D03*
X45085000Y-55260000D03*
X39370000Y-67310000D03*
X43180000Y-67310000D03*
%TO.N,GND*%
X34917199Y-73010833D03*
%TO.N,/Vcc*%
X60524910Y-64801638D03*
X58393630Y-67780000D03*
X66110013Y-68015013D03*
X64562055Y-69562971D03*
D13*
%TO.N,Net-(U4-PB7)*%
X47625000Y-69850000D03*
X49530000Y-71755000D03*
D12*
%TO.N,GND*%
X56515000Y-55880000D03*
X60325000Y-61595000D03*
X64770000Y-73660000D03*
X55245000Y-65280000D03*
X64770000Y-61595000D03*
X50165000Y-66917500D03*
X50135263Y-63555130D03*
D13*
%TO.N,/SDA*%
X53340000Y-63500000D03*
%TO.N,/SCK*%
X52705000Y-62865000D03*
X55114273Y-68029198D03*
X54610000Y-66617500D03*
%TO.N,/D3*%
X45885003Y-69850000D03*
X46990000Y-62865000D03*
%TO.N,/D4*%
X47115784Y-64009216D03*
X46685006Y-69850000D03*
%TO.N,/MOSI*%
X55245000Y-71960000D03*
%TO.N,/MISO*%
X55880000Y-71120000D03*
%TO.N,/RX*%
X52817080Y-71755000D03*
X52070000Y-64770000D03*
%TO.N,/TX*%
X53975000Y-71755000D03*
X50610000Y-62675000D03*
%TO.N,/D2*%
X48260000Y-61595000D03*
X45085000Y-69850000D03*
%TD*%
%TO.N,/Vcc*%
D14*
X46355000Y-58277501D02*
X46355000Y-56530000D01*
X46355000Y-56530000D02*
X45085000Y-55260000D01*
X43180000Y-67310000D02*
X39370000Y-67310000D01*
D15*
X60524910Y-65648720D02*
X60524910Y-64801638D01*
X58393630Y-67780000D02*
X60524910Y-65648720D01*
D14*
X64562055Y-69562971D02*
X66110013Y-68015013D01*
%TO.N,Net-(U4-PB7)*%
D15*
X47625000Y-70485000D02*
X47625000Y-69850000D01*
X48895000Y-71755000D02*
X47625000Y-70485000D01*
X49530000Y-71755000D02*
X48895000Y-71755000D01*
%TO.N,/SDA*%
X52283529Y-63500000D02*
X49537279Y-60753750D01*
X49537279Y-60753750D02*
X44021250Y-60753750D01*
X53340000Y-63500000D02*
X52283529Y-63500000D01*
%TO.N,/SCK*%
X48917501Y-59077501D02*
X44427499Y-59077501D01*
X52705000Y-62865000D02*
X48917501Y-59077501D01*
X55114273Y-68029198D02*
X55114273Y-67121773D01*
X55114273Y-67121773D02*
X54610000Y-66617500D01*
%TO.N,/D3*%
D16*
X45885003Y-63969997D02*
X45885003Y-69850000D01*
X46990000Y-62865000D02*
X45885003Y-63969997D01*
%TO.N,/D4*%
X47115784Y-64009216D02*
X46685006Y-64439994D01*
X46685006Y-64439994D02*
X46685006Y-69850000D01*
%TO.N,/MOSI*%
D15*
X55245000Y-71960000D02*
X61033654Y-71960000D01*
X70248654Y-62745000D02*
X71875000Y-62745000D01*
X61033654Y-71960000D02*
X70248654Y-62745000D01*
X71875000Y-62745000D02*
X73025000Y-61595000D01*
%TO.N,/MISO*%
X55880000Y-71120000D02*
X58420000Y-71120000D01*
X58420000Y-71120000D02*
X70485000Y-59055000D01*
%TO.N,/RX*%
X52070000Y-65405000D02*
X52070000Y-64770000D01*
X52810000Y-66145000D02*
X52070000Y-65405000D01*
X52817080Y-70764169D02*
X52810000Y-70757089D01*
X52817080Y-71755000D02*
X52817080Y-70764169D01*
X52810000Y-70757089D02*
X52810000Y-66145000D01*
%TO.N,/TX*%
X53975000Y-65405000D02*
X52705000Y-64135000D01*
X53975000Y-71755000D02*
X53975000Y-65405000D01*
X52070000Y-64135000D02*
X50610000Y-62675000D01*
X52705000Y-64135000D02*
X52070000Y-64135000D01*
%TO.N,/D2*%
D16*
X45085000Y-69850000D02*
X45085000Y-62865000D01*
X45085000Y-62865000D02*
X46355000Y-61595000D01*
X46355000Y-61595000D02*
X48260000Y-61595000D01*
%TD*%
%TA.AperFunction,Conductor*%
%TO.N,GND*%
G36*
X32152165Y-54629685D02*
G01*
X32197920Y-54682489D01*
X32199687Y-54686547D01*
X32215024Y-54723574D01*
X32271426Y-54779976D01*
X32345118Y-54810500D01*
X44056796Y-54810500D01*
X44123835Y-54830185D01*
X44169590Y-54882989D01*
X44179534Y-54952147D01*
X44172741Y-54976905D01*
X44172795Y-54976922D01*
X44172184Y-54978935D01*
X44171356Y-54981954D01*
X44171028Y-54982743D01*
X44171025Y-54982756D01*
X44134500Y-55166379D01*
X44134500Y-55353620D01*
X44171025Y-55537243D01*
X44171027Y-55537251D01*
X44242676Y-55710228D01*
X44242681Y-55710237D01*
X44346697Y-55865907D01*
X44346700Y-55865911D01*
X44479088Y-55998299D01*
X44479092Y-55998302D01*
X44634762Y-56102318D01*
X44634768Y-56102321D01*
X44634769Y-56102322D01*
X44807749Y-56173973D01*
X44950069Y-56202282D01*
X44991379Y-56210499D01*
X44991383Y-56210500D01*
X44991384Y-56210500D01*
X45028837Y-56210500D01*
X45095876Y-56230185D01*
X45116518Y-56246819D01*
X45643181Y-56773482D01*
X45676666Y-56834805D01*
X45679500Y-56861163D01*
X45679500Y-57557428D01*
X45659815Y-57624467D01*
X45643181Y-57645109D01*
X45616700Y-57671589D01*
X45616697Y-57671593D01*
X45512681Y-57827263D01*
X45512676Y-57827272D01*
X45441027Y-58000249D01*
X45441025Y-58000257D01*
X45404500Y-58183880D01*
X45404500Y-58353001D01*
X45384815Y-58420040D01*
X45332011Y-58465795D01*
X45280500Y-58477001D01*
X45007265Y-58477001D01*
X44940226Y-58457316D01*
X44938374Y-58456103D01*
X44806684Y-58368110D01*
X44806671Y-58368103D01*
X44661000Y-58307765D01*
X44660988Y-58307762D01*
X44506344Y-58277001D01*
X44506341Y-58277001D01*
X44348657Y-58277001D01*
X44348654Y-58277001D01*
X44194009Y-58307762D01*
X44193997Y-58307765D01*
X44048326Y-58368103D01*
X44048313Y-58368110D01*
X43917210Y-58455711D01*
X43917206Y-58455714D01*
X43805712Y-58567208D01*
X43805709Y-58567212D01*
X43718108Y-58698315D01*
X43718101Y-58698328D01*
X43657763Y-58843999D01*
X43657760Y-58844011D01*
X43626999Y-58998654D01*
X43626999Y-59156347D01*
X43657760Y-59310990D01*
X43657763Y-59311002D01*
X43718101Y-59456673D01*
X43718108Y-59456686D01*
X43805709Y-59587789D01*
X43805712Y-59587793D01*
X43917206Y-59699287D01*
X43917214Y-59699293D01*
X43966965Y-59732536D01*
X44011771Y-59786148D01*
X44020478Y-59855473D01*
X43990324Y-59918500D01*
X43930881Y-59955220D01*
X43922267Y-59957255D01*
X43787758Y-59984011D01*
X43787748Y-59984014D01*
X43642077Y-60044352D01*
X43642064Y-60044359D01*
X43510961Y-60131960D01*
X43510957Y-60131963D01*
X43399463Y-60243457D01*
X43399460Y-60243461D01*
X43311859Y-60374564D01*
X43311852Y-60374577D01*
X43251514Y-60520248D01*
X43251511Y-60520260D01*
X43220750Y-60674903D01*
X43220750Y-60832596D01*
X43251511Y-60987239D01*
X43251514Y-60987251D01*
X43311852Y-61132922D01*
X43311859Y-61132935D01*
X43399460Y-61264038D01*
X43399463Y-61264042D01*
X43510957Y-61375536D01*
X43510961Y-61375539D01*
X43642064Y-61463140D01*
X43642077Y-61463147D01*
X43787748Y-61523485D01*
X43787753Y-61523487D01*
X43920082Y-61549809D01*
X43942403Y-61554249D01*
X43942406Y-61554250D01*
X43942408Y-61554250D01*
X44100094Y-61554250D01*
X44100095Y-61554249D01*
X44254747Y-61523487D01*
X44400429Y-61463144D01*
X44445766Y-61432851D01*
X44532125Y-61375148D01*
X44598803Y-61354270D01*
X44601016Y-61354250D01*
X45500185Y-61354250D01*
X45567224Y-61373935D01*
X45612979Y-61426739D01*
X45622923Y-61495897D01*
X45593898Y-61559453D01*
X45587866Y-61565931D01*
X44739310Y-62414488D01*
X44634489Y-62519308D01*
X44634485Y-62519313D01*
X44560369Y-62647687D01*
X44560368Y-62647688D01*
X44542633Y-62713877D01*
X44522000Y-62790880D01*
X44522000Y-62790882D01*
X44522000Y-69229559D01*
X44502315Y-69296598D01*
X44485681Y-69317240D01*
X44463213Y-69339707D01*
X44463210Y-69339711D01*
X44375609Y-69470814D01*
X44375602Y-69470827D01*
X44315264Y-69616498D01*
X44315261Y-69616510D01*
X44284500Y-69771153D01*
X44284500Y-69928846D01*
X44315261Y-70083489D01*
X44315264Y-70083501D01*
X44375602Y-70229172D01*
X44375609Y-70229185D01*
X44463210Y-70360288D01*
X44463213Y-70360292D01*
X44574707Y-70471786D01*
X44574711Y-70471789D01*
X44705814Y-70559390D01*
X44705827Y-70559397D01*
X44786106Y-70592649D01*
X44851503Y-70619737D01*
X45004077Y-70650086D01*
X45006153Y-70650499D01*
X45006156Y-70650500D01*
X45006158Y-70650500D01*
X45163844Y-70650500D01*
X45163845Y-70650499D01*
X45318497Y-70619737D01*
X45437550Y-70570423D01*
X45507017Y-70562955D01*
X45532450Y-70570422D01*
X45651506Y-70619737D01*
X45804080Y-70650086D01*
X45806156Y-70650499D01*
X45806159Y-70650500D01*
X45806161Y-70650500D01*
X45963847Y-70650500D01*
X45963848Y-70650499D01*
X46118500Y-70619737D01*
X46237553Y-70570423D01*
X46307020Y-70562955D01*
X46332453Y-70570422D01*
X46451509Y-70619737D01*
X46604083Y-70650086D01*
X46606159Y-70650499D01*
X46606162Y-70650500D01*
X46606164Y-70650500D01*
X46763850Y-70650500D01*
X46888088Y-70625787D01*
X46918503Y-70619737D01*
X46918503Y-70619736D01*
X46919392Y-70619560D01*
X46988984Y-70625787D01*
X47044161Y-70668650D01*
X47063357Y-70709077D01*
X47065422Y-70716783D01*
X47065425Y-70716790D01*
X47085340Y-70751283D01*
X47085341Y-70751284D01*
X47144477Y-70853712D01*
X47144481Y-70853717D01*
X47263349Y-70972585D01*
X47263355Y-70972590D01*
X48410139Y-72119374D01*
X48410149Y-72119385D01*
X48414479Y-72123715D01*
X48414480Y-72123716D01*
X48526284Y-72235520D01*
X48526286Y-72235521D01*
X48582762Y-72268127D01*
X48582761Y-72268127D01*
X48582764Y-72268128D01*
X48663209Y-72314574D01*
X48663210Y-72314574D01*
X48663215Y-72314577D01*
X48815942Y-72355500D01*
X48815943Y-72355500D01*
X48950234Y-72355500D01*
X49017273Y-72375185D01*
X49019125Y-72376398D01*
X49150814Y-72464390D01*
X49150827Y-72464397D01*
X49296498Y-72524735D01*
X49296503Y-72524737D01*
X49451153Y-72555499D01*
X49451156Y-72555500D01*
X49451158Y-72555500D01*
X49608844Y-72555500D01*
X49608845Y-72555499D01*
X49763497Y-72524737D01*
X49909179Y-72464394D01*
X50040289Y-72376789D01*
X50151789Y-72265289D01*
X50239394Y-72134179D01*
X50299737Y-71988497D01*
X50330500Y-71833842D01*
X50330500Y-71676158D01*
X50330500Y-71676155D01*
X50330499Y-71676153D01*
X50324206Y-71644516D01*
X50299737Y-71521503D01*
X50297089Y-71515109D01*
X50239397Y-71375827D01*
X50239390Y-71375814D01*
X50151789Y-71244711D01*
X50151786Y-71244707D01*
X50040292Y-71133213D01*
X50040288Y-71133210D01*
X49909185Y-71045609D01*
X49909172Y-71045602D01*
X49763501Y-70985264D01*
X49763489Y-70985261D01*
X49608845Y-70954500D01*
X49608842Y-70954500D01*
X49451158Y-70954500D01*
X49451155Y-70954500D01*
X49296510Y-70985261D01*
X49296507Y-70985262D01*
X49296506Y-70985262D01*
X49296503Y-70985263D01*
X49235761Y-71010423D01*
X49145356Y-71047869D01*
X49075886Y-71055337D01*
X49013407Y-71024061D01*
X49010223Y-71020988D01*
X48359011Y-70369776D01*
X48325526Y-70308453D01*
X48330510Y-70238761D01*
X48332131Y-70234643D01*
X48377960Y-70124000D01*
X50292125Y-70124000D01*
X50313728Y-70132948D01*
X50319292Y-70135414D01*
X50352574Y-70151155D01*
X50358009Y-70153891D01*
X50401230Y-70176992D01*
X50406525Y-70179991D01*
X50438118Y-70198926D01*
X50443263Y-70202184D01*
X50615122Y-70317017D01*
X50620098Y-70320522D01*
X50649671Y-70342455D01*
X50654469Y-70346199D01*
X50692351Y-70377288D01*
X50696958Y-70381262D01*
X50724245Y-70405993D01*
X50728654Y-70410191D01*
X50874809Y-70556346D01*
X50879007Y-70560755D01*
X50903738Y-70588042D01*
X50907712Y-70592649D01*
X50938801Y-70630531D01*
X50942545Y-70635329D01*
X50964478Y-70664902D01*
X50967983Y-70669878D01*
X51082816Y-70841737D01*
X51086074Y-70846882D01*
X51105009Y-70878475D01*
X51108008Y-70883770D01*
X51131109Y-70926991D01*
X51133845Y-70932426D01*
X51149586Y-70965708D01*
X51152052Y-70971272D01*
X51173540Y-71023149D01*
X51195028Y-70971272D01*
X51197494Y-70965708D01*
X51213235Y-70932426D01*
X51215224Y-70928472D01*
X51214976Y-70925946D01*
X51211764Y-70876940D01*
X51211499Y-70868830D01*
X51211499Y-70649674D01*
X51211500Y-70649635D01*
X51211500Y-70124000D01*
X50292125Y-70124000D01*
X48377960Y-70124000D01*
X48394735Y-70083501D01*
X48394737Y-70083497D01*
X48425500Y-69928842D01*
X48425500Y-69771158D01*
X48425500Y-69771155D01*
X48425499Y-69771153D01*
X48394738Y-69616510D01*
X48394737Y-69616503D01*
X48394735Y-69616498D01*
X48334397Y-69470827D01*
X48334390Y-69470814D01*
X48246789Y-69339711D01*
X48246786Y-69339707D01*
X48135292Y-69228213D01*
X48135288Y-69228210D01*
X48004185Y-69140609D01*
X48004172Y-69140602D01*
X47858501Y-69080264D01*
X47858489Y-69080261D01*
X47703845Y-69049500D01*
X47703842Y-69049500D01*
X47546158Y-69049500D01*
X47546153Y-69049500D01*
X47396197Y-69079328D01*
X47326605Y-69073101D01*
X47271428Y-69030238D01*
X47248184Y-68964348D01*
X47248006Y-68957711D01*
X47248006Y-68160547D01*
X48246006Y-68160547D01*
X48408728Y-68227948D01*
X48414292Y-68230414D01*
X48447574Y-68246155D01*
X48453009Y-68248891D01*
X48496230Y-68271992D01*
X48501525Y-68274991D01*
X48533118Y-68293926D01*
X48538263Y-68297184D01*
X48710122Y-68412017D01*
X48715098Y-68415522D01*
X48744671Y-68437455D01*
X48749469Y-68441199D01*
X48787351Y-68472288D01*
X48791958Y-68476262D01*
X48819245Y-68500993D01*
X48823654Y-68505191D01*
X48969809Y-68651346D01*
X48974007Y-68655755D01*
X48998738Y-68683042D01*
X49002712Y-68687649D01*
X49033801Y-68725531D01*
X49037545Y-68730329D01*
X49059478Y-68759902D01*
X49062983Y-68764878D01*
X49126000Y-68859189D01*
X49126000Y-68821775D01*
X50124000Y-68821775D01*
X50124000Y-69126000D01*
X51211500Y-69126000D01*
X51211500Y-68555587D01*
X51146912Y-68598744D01*
X51141773Y-68601999D01*
X51110195Y-68620927D01*
X51104898Y-68623928D01*
X51061680Y-68647029D01*
X51056244Y-68649765D01*
X51022951Y-68665512D01*
X51017385Y-68667979D01*
X50800044Y-68758004D01*
X50794364Y-68760195D01*
X50759684Y-68772603D01*
X50753905Y-68774512D01*
X50706999Y-68788740D01*
X50701132Y-68790364D01*
X50665405Y-68799312D01*
X50659465Y-68800645D01*
X50386960Y-68854837D01*
X50332640Y-68853502D01*
X50164999Y-68811504D01*
X50124000Y-68821775D01*
X49126000Y-68821775D01*
X49126000Y-68560598D01*
X48987497Y-68468055D01*
X48982523Y-68464553D01*
X48952948Y-68442620D01*
X48948147Y-68438873D01*
X48910264Y-68407783D01*
X48905657Y-68403809D01*
X48878370Y-68379078D01*
X48873961Y-68374880D01*
X48707620Y-68208539D01*
X48703422Y-68204130D01*
X48678691Y-68176843D01*
X48674717Y-68172236D01*
X48643627Y-68134353D01*
X48639880Y-68129552D01*
X48617947Y-68099977D01*
X48614445Y-68095003D01*
X48483756Y-67899412D01*
X48480501Y-67894273D01*
X48461573Y-67862695D01*
X48458573Y-67857399D01*
X48435471Y-67814180D01*
X48432733Y-67808742D01*
X48416986Y-67775448D01*
X48414520Y-67769884D01*
X48354093Y-67624000D01*
X48246006Y-67624000D01*
X48246006Y-68160547D01*
X47248006Y-68160547D01*
X47248006Y-67167500D01*
X49250780Y-67167500D01*
X49255905Y-67193262D01*
X49255908Y-67193274D01*
X49327173Y-67365325D01*
X49327175Y-67365329D01*
X49430636Y-67520169D01*
X49430642Y-67520177D01*
X49562322Y-67651857D01*
X49562330Y-67651863D01*
X49717170Y-67755324D01*
X49889226Y-67826591D01*
X49889236Y-67826594D01*
X49914999Y-67831718D01*
X50415000Y-67831718D01*
X50440763Y-67826594D01*
X50440773Y-67826591D01*
X50612829Y-67755324D01*
X50767669Y-67651863D01*
X50767677Y-67651857D01*
X50899357Y-67520177D01*
X50899363Y-67520169D01*
X51002824Y-67365329D01*
X51002826Y-67365325D01*
X51074091Y-67193274D01*
X51074094Y-67193262D01*
X51079219Y-67167500D01*
X50415000Y-67167500D01*
X50415000Y-67831718D01*
X49914999Y-67831718D01*
X49915000Y-67831717D01*
X49915000Y-67167500D01*
X49250780Y-67167500D01*
X47248006Y-67167500D01*
X47248006Y-66667499D01*
X49250780Y-66667499D01*
X49250781Y-66667500D01*
X49915000Y-66667500D01*
X50415000Y-66667500D01*
X51079219Y-66667500D01*
X51079219Y-66667499D01*
X51074094Y-66641737D01*
X51074091Y-66641725D01*
X51002826Y-66469674D01*
X51002824Y-66469670D01*
X50899363Y-66314830D01*
X50899357Y-66314822D01*
X50767677Y-66183142D01*
X50767669Y-66183136D01*
X50612829Y-66079675D01*
X50612825Y-66079673D01*
X50440774Y-66008408D01*
X50440762Y-66008405D01*
X50415000Y-66003280D01*
X50415000Y-66667500D01*
X49915000Y-66667500D01*
X49915000Y-66003281D01*
X49914999Y-66003280D01*
X49889237Y-66008405D01*
X49889225Y-66008408D01*
X49717174Y-66079673D01*
X49717170Y-66079675D01*
X49562330Y-66183136D01*
X49562322Y-66183142D01*
X49430642Y-66314822D01*
X49430636Y-66314830D01*
X49327175Y-66469670D01*
X49327173Y-66469674D01*
X49255908Y-66641725D01*
X49255905Y-66641737D01*
X49250780Y-66667499D01*
X47248006Y-66667499D01*
X47248006Y-65413295D01*
X48246006Y-65413295D01*
X48246006Y-66603264D01*
X48281865Y-66422992D01*
X48283198Y-66417055D01*
X48292147Y-66381328D01*
X48293771Y-66375458D01*
X48307998Y-66328563D01*
X48309906Y-66322788D01*
X48322308Y-66288126D01*
X48324499Y-66282447D01*
X48414520Y-66065116D01*
X48416986Y-66059552D01*
X48432733Y-66026258D01*
X48435471Y-66020820D01*
X48458573Y-65977601D01*
X48461573Y-65972305D01*
X48480501Y-65940727D01*
X48483756Y-65935588D01*
X48614445Y-65739997D01*
X48617947Y-65735023D01*
X48639880Y-65705448D01*
X48643627Y-65700647D01*
X48674717Y-65662764D01*
X48678691Y-65658157D01*
X48703422Y-65630870D01*
X48707620Y-65626461D01*
X48873961Y-65460120D01*
X48878370Y-65455922D01*
X48905657Y-65431191D01*
X48910264Y-65427217D01*
X48948147Y-65396127D01*
X48952948Y-65392380D01*
X48982523Y-65370447D01*
X48987496Y-65366945D01*
X49126000Y-65274399D01*
X49126000Y-65218098D01*
X48985170Y-65124000D01*
X48531953Y-65124000D01*
X48528329Y-65128887D01*
X48524585Y-65133685D01*
X48493496Y-65171567D01*
X48489522Y-65176174D01*
X48464791Y-65203461D01*
X48460593Y-65207870D01*
X48314438Y-65354025D01*
X48310029Y-65358223D01*
X48282742Y-65382954D01*
X48278135Y-65386928D01*
X48246006Y-65413295D01*
X47248006Y-65413295D01*
X47248006Y-64900861D01*
X47267691Y-64833822D01*
X47320495Y-64788067D01*
X47347822Y-64779243D01*
X47349281Y-64778953D01*
X47494963Y-64718610D01*
X47626073Y-64631005D01*
X47737573Y-64519505D01*
X47825178Y-64388395D01*
X47885521Y-64242713D01*
X47916284Y-64088058D01*
X47916284Y-63930374D01*
X47916284Y-63930371D01*
X47916283Y-63930369D01*
X47910755Y-63902577D01*
X47891371Y-63805130D01*
X49221043Y-63805130D01*
X49226168Y-63830892D01*
X49226171Y-63830904D01*
X49297436Y-64002955D01*
X49297438Y-64002959D01*
X49400899Y-64157799D01*
X49400905Y-64157807D01*
X49532585Y-64289487D01*
X49532593Y-64289493D01*
X49687433Y-64392954D01*
X49859489Y-64464221D01*
X49859499Y-64464224D01*
X49885262Y-64469348D01*
X49885263Y-64469347D01*
X49885263Y-63805130D01*
X49221043Y-63805130D01*
X47891371Y-63805130D01*
X47885521Y-63775719D01*
X47876889Y-63754880D01*
X47825181Y-63630043D01*
X47825174Y-63630030D01*
X47737573Y-63498927D01*
X47737570Y-63498923D01*
X47684607Y-63445960D01*
X47651122Y-63384637D01*
X47656106Y-63314945D01*
X47669187Y-63289387D01*
X47699389Y-63244187D01*
X47699390Y-63244184D01*
X47699394Y-63244179D01*
X47759737Y-63098497D01*
X47790500Y-62943842D01*
X47790500Y-62786158D01*
X47790500Y-62786155D01*
X47790499Y-62786153D01*
X47779381Y-62730261D01*
X47759737Y-62631503D01*
X47757089Y-62625109D01*
X47699397Y-62485827D01*
X47699395Y-62485823D01*
X47699394Y-62485821D01*
X47699389Y-62485814D01*
X47680398Y-62457391D01*
X47659520Y-62390714D01*
X47678004Y-62323334D01*
X47729983Y-62276643D01*
X47798953Y-62265467D01*
X47852391Y-62285398D01*
X47878459Y-62302816D01*
X47880821Y-62304394D01*
X47880823Y-62304395D01*
X47880827Y-62304397D01*
X47987011Y-62348379D01*
X48026503Y-62364737D01*
X48181153Y-62395499D01*
X48181156Y-62395500D01*
X48181158Y-62395500D01*
X48338844Y-62395500D01*
X48338845Y-62395499D01*
X48493497Y-62364737D01*
X48639179Y-62304394D01*
X48770289Y-62216789D01*
X48881789Y-62105289D01*
X48969394Y-61974179D01*
X49029737Y-61828497D01*
X49060500Y-61673842D01*
X49060500Y-61516158D01*
X49060500Y-61516155D01*
X49057772Y-61502442D01*
X49063999Y-61432851D01*
X49106861Y-61377673D01*
X49172751Y-61354428D01*
X49179389Y-61354250D01*
X49237182Y-61354250D01*
X49304221Y-61373935D01*
X49324863Y-61390569D01*
X49960630Y-62026336D01*
X49994115Y-62087659D01*
X49989131Y-62157351D01*
X49976051Y-62182907D01*
X49935018Y-62244316D01*
X49935020Y-62244315D01*
X49900606Y-62295821D01*
X49840263Y-62441503D01*
X49823161Y-62527477D01*
X49823160Y-62527478D01*
X49808311Y-62602132D01*
X49807071Y-62601885D01*
X49783376Y-62660568D01*
X49733588Y-62698188D01*
X49687435Y-62717305D01*
X49687429Y-62717308D01*
X49532589Y-62820769D01*
X49532585Y-62820772D01*
X49400905Y-62952452D01*
X49400899Y-62952460D01*
X49297438Y-63107300D01*
X49297436Y-63107304D01*
X49226171Y-63279355D01*
X49226168Y-63279367D01*
X49221043Y-63305129D01*
X49221044Y-63305130D01*
X50011263Y-63305130D01*
X50078302Y-63324815D01*
X50124057Y-63377619D01*
X50135263Y-63429130D01*
X50135263Y-63555130D01*
X50261263Y-63555130D01*
X50328302Y-63574815D01*
X50374057Y-63627619D01*
X50385263Y-63679130D01*
X50385263Y-64469348D01*
X50411026Y-64464224D01*
X50411036Y-64464221D01*
X50583092Y-64392954D01*
X50737932Y-64289493D01*
X50737940Y-64289487D01*
X50869621Y-64157806D01*
X50935460Y-64059270D01*
X50989072Y-64014465D01*
X51058397Y-64005757D01*
X51098247Y-64024822D01*
X51101861Y-64016096D01*
X51291808Y-64206043D01*
X51291808Y-64206044D01*
X51335988Y-64250224D01*
X51369473Y-64311547D01*
X51364489Y-64381239D01*
X51362868Y-64385357D01*
X51300264Y-64536498D01*
X51300261Y-64536510D01*
X51269500Y-64691153D01*
X51269500Y-64848846D01*
X51300261Y-65003489D01*
X51300264Y-65003501D01*
X51360602Y-65149172D01*
X51360609Y-65149185D01*
X51448601Y-65280873D01*
X51469479Y-65347550D01*
X51469499Y-65349764D01*
X51469499Y-65484054D01*
X51469498Y-65484054D01*
X51510423Y-65636785D01*
X51510424Y-65636788D01*
X51514566Y-65643961D01*
X51514569Y-65643966D01*
X51589477Y-65773712D01*
X51589481Y-65773717D01*
X51708349Y-65892585D01*
X51708355Y-65892590D01*
X52173181Y-66357416D01*
X52206666Y-66418739D01*
X52209500Y-66445097D01*
X52209500Y-70670419D01*
X52209499Y-70670437D01*
X52209499Y-70678032D01*
X52209499Y-70836146D01*
X52212355Y-70846803D01*
X52216580Y-70878897D01*
X52216580Y-71175234D01*
X52196895Y-71242273D01*
X52195682Y-71244125D01*
X52107689Y-71375814D01*
X52107682Y-71375827D01*
X52047344Y-71521498D01*
X52047341Y-71521510D01*
X52016580Y-71676153D01*
X52016580Y-71833846D01*
X52047341Y-71988489D01*
X52047344Y-71988501D01*
X52107682Y-72134172D01*
X52107689Y-72134185D01*
X52195290Y-72265288D01*
X52195293Y-72265292D01*
X52306787Y-72376786D01*
X52306791Y-72376789D01*
X52437894Y-72464390D01*
X52437907Y-72464397D01*
X52583578Y-72524735D01*
X52583583Y-72524737D01*
X52738233Y-72555499D01*
X52738236Y-72555500D01*
X52738238Y-72555500D01*
X52895924Y-72555500D01*
X52895925Y-72555499D01*
X53050577Y-72524737D01*
X53196259Y-72464394D01*
X53327149Y-72376936D01*
X53393826Y-72356058D01*
X53461206Y-72374542D01*
X53464931Y-72376936D01*
X53595814Y-72464390D01*
X53595827Y-72464397D01*
X53741498Y-72524735D01*
X53741503Y-72524737D01*
X53896153Y-72555499D01*
X53896156Y-72555500D01*
X53896158Y-72555500D01*
X54053844Y-72555500D01*
X54053845Y-72555499D01*
X54208497Y-72524737D01*
X54354179Y-72464394D01*
X54434346Y-72410827D01*
X54501023Y-72389950D01*
X54568403Y-72408434D01*
X54606339Y-72445039D01*
X54623210Y-72470288D01*
X54623213Y-72470292D01*
X54734707Y-72581786D01*
X54734711Y-72581789D01*
X54865814Y-72669390D01*
X54865827Y-72669397D01*
X54988239Y-72720101D01*
X55011503Y-72729737D01*
X55166153Y-72760499D01*
X55166156Y-72760500D01*
X55166158Y-72760500D01*
X55323844Y-72760500D01*
X55323845Y-72760499D01*
X55478497Y-72729737D01*
X55624179Y-72669394D01*
X55680854Y-72631525D01*
X55682732Y-72630270D01*
X62624000Y-72630270D01*
X62624000Y-74126000D01*
X62881194Y-74126000D01*
X62838229Y-73910000D01*
X63855780Y-73910000D01*
X63860905Y-73935762D01*
X63860908Y-73935774D01*
X63932173Y-74107825D01*
X63932175Y-74107829D01*
X64035636Y-74262669D01*
X64035642Y-74262677D01*
X64167322Y-74394357D01*
X64167330Y-74394363D01*
X64322170Y-74497824D01*
X64494226Y-74569091D01*
X64494236Y-74569094D01*
X64519999Y-74574218D01*
X65020000Y-74574218D01*
X65045763Y-74569094D01*
X65045773Y-74569091D01*
X65217829Y-74497824D01*
X65372669Y-74394363D01*
X65372677Y-74394357D01*
X65504357Y-74262677D01*
X65504363Y-74262669D01*
X65595683Y-74126000D01*
X67624000Y-74126000D01*
X69126000Y-74126000D01*
X70124000Y-74126000D01*
X70950205Y-74126000D01*
X70875314Y-73979019D01*
X70873189Y-73974636D01*
X70860846Y-73947861D01*
X70858891Y-73943392D01*
X70843893Y-73907175D01*
X70842121Y-73902647D01*
X70831936Y-73875037D01*
X70830342Y-73870440D01*
X70752545Y-73631007D01*
X70751131Y-73626347D01*
X70743138Y-73598005D01*
X70741911Y-73593300D01*
X70732758Y-73555183D01*
X70731713Y-73550423D01*
X70725964Y-73521523D01*
X70725108Y-73516728D01*
X70685723Y-73268059D01*
X70685056Y-73263236D01*
X70681596Y-73234003D01*
X70681119Y-73229165D01*
X70678041Y-73190086D01*
X70677754Y-73185221D01*
X70676596Y-73155769D01*
X70676500Y-73150897D01*
X70676500Y-72899103D01*
X70676596Y-72894231D01*
X70677754Y-72864779D01*
X70678041Y-72859914D01*
X70681119Y-72820835D01*
X70681596Y-72815997D01*
X70685056Y-72786764D01*
X70685723Y-72781941D01*
X70710738Y-72624000D01*
X70124000Y-72624000D01*
X70124000Y-74126000D01*
X69126000Y-74126000D01*
X69126000Y-72624000D01*
X67624000Y-72624000D01*
X67624000Y-74126000D01*
X65595683Y-74126000D01*
X65607824Y-74107829D01*
X65607826Y-74107825D01*
X65679091Y-73935774D01*
X65679094Y-73935762D01*
X65684219Y-73910000D01*
X65020000Y-73910000D01*
X65020000Y-74574218D01*
X64519999Y-74574218D01*
X64520000Y-74574217D01*
X64520000Y-73910000D01*
X63855780Y-73910000D01*
X62838229Y-73910000D01*
X62832659Y-73882000D01*
X62833992Y-73827679D01*
X62875993Y-73660000D01*
X62833992Y-73492321D01*
X62832659Y-73438000D01*
X62838229Y-73409999D01*
X63855780Y-73409999D01*
X63855781Y-73410000D01*
X64520000Y-73410000D01*
X65020000Y-73410000D01*
X65684219Y-73410000D01*
X65684219Y-73409999D01*
X65679094Y-73384237D01*
X65679091Y-73384225D01*
X65607826Y-73212174D01*
X65607824Y-73212170D01*
X65504363Y-73057330D01*
X65504357Y-73057322D01*
X65372677Y-72925642D01*
X65372669Y-72925636D01*
X65217829Y-72822175D01*
X65217825Y-72822173D01*
X65045774Y-72750908D01*
X65045762Y-72750905D01*
X65020000Y-72745780D01*
X65020000Y-73410000D01*
X64520000Y-73410000D01*
X64520000Y-72745781D01*
X64519999Y-72745780D01*
X64494237Y-72750905D01*
X64494225Y-72750908D01*
X64322174Y-72822173D01*
X64322170Y-72822175D01*
X64167330Y-72925636D01*
X64167322Y-72925642D01*
X64035642Y-73057322D01*
X64035636Y-73057330D01*
X63932175Y-73212170D01*
X63932173Y-73212174D01*
X63860908Y-73384225D01*
X63860905Y-73384237D01*
X63855780Y-73409999D01*
X62838229Y-73409999D01*
X62886865Y-73165492D01*
X62888198Y-73159555D01*
X62897147Y-73123828D01*
X62898771Y-73117958D01*
X62912998Y-73071063D01*
X62914906Y-73065288D01*
X62927308Y-73030626D01*
X62929499Y-73024947D01*
X63019520Y-72807616D01*
X63021986Y-72802052D01*
X63037733Y-72768758D01*
X63040471Y-72763320D01*
X63063573Y-72720101D01*
X63066573Y-72714805D01*
X63085501Y-72683227D01*
X63088756Y-72678088D01*
X63124896Y-72624000D01*
X66415104Y-72624000D01*
X66451244Y-72678088D01*
X66454499Y-72683227D01*
X66473427Y-72714805D01*
X66476427Y-72720101D01*
X66499529Y-72763320D01*
X66502267Y-72768758D01*
X66518014Y-72802052D01*
X66520480Y-72807616D01*
X66610501Y-73024947D01*
X66612692Y-73030626D01*
X66625094Y-73065288D01*
X66626000Y-73068030D01*
X66626000Y-72624000D01*
X66415104Y-72624000D01*
X63124896Y-72624000D01*
X62630270Y-72624000D01*
X62624000Y-72630270D01*
X55682732Y-72630270D01*
X55755875Y-72581398D01*
X55822553Y-72560520D01*
X55824766Y-72560500D01*
X60946985Y-72560500D01*
X60947001Y-72560501D01*
X60954597Y-72560501D01*
X61112708Y-72560501D01*
X61112711Y-72560501D01*
X61265439Y-72519577D01*
X61315558Y-72490639D01*
X61402370Y-72440520D01*
X61514174Y-72328716D01*
X61514174Y-72328714D01*
X61524382Y-72318507D01*
X61524384Y-72318504D01*
X62409398Y-71433490D01*
X65124000Y-71433490D01*
X65124000Y-71626000D01*
X66626000Y-71626000D01*
X67624000Y-71626000D01*
X69126000Y-71626000D01*
X70124000Y-71626000D01*
X70970586Y-71626000D01*
X70875314Y-71439019D01*
X70873189Y-71434636D01*
X70860846Y-71407861D01*
X70858891Y-71403392D01*
X70843893Y-71367175D01*
X70842121Y-71362647D01*
X70831936Y-71335037D01*
X70830342Y-71330440D01*
X70752545Y-71091007D01*
X70751131Y-71086347D01*
X70743138Y-71058005D01*
X70741911Y-71053300D01*
X70732758Y-71015183D01*
X70731713Y-71010423D01*
X70725964Y-70981523D01*
X70725108Y-70976728D01*
X70685723Y-70728059D01*
X70685056Y-70723236D01*
X70681596Y-70694003D01*
X70681119Y-70689165D01*
X70678041Y-70650086D01*
X70677754Y-70645221D01*
X70676596Y-70615769D01*
X70676500Y-70610897D01*
X70676500Y-70378713D01*
X71674500Y-70378713D01*
X71674500Y-70591287D01*
X71677418Y-70609711D01*
X71704113Y-70778259D01*
X71707754Y-70801243D01*
X71767546Y-70985264D01*
X71773444Y-71003414D01*
X71869951Y-71192820D01*
X71994890Y-71364786D01*
X72145213Y-71515109D01*
X72317182Y-71640050D01*
X72325946Y-71644516D01*
X72376742Y-71692491D01*
X72393536Y-71760312D01*
X72370998Y-71826447D01*
X72325946Y-71865484D01*
X72317182Y-71869949D01*
X72145213Y-71994890D01*
X71994890Y-72145213D01*
X71869951Y-72317179D01*
X71773444Y-72506585D01*
X71707753Y-72708760D01*
X71674500Y-72918713D01*
X71674500Y-73131286D01*
X71707457Y-73339372D01*
X71707754Y-73341243D01*
X71772381Y-73540145D01*
X71773444Y-73543414D01*
X71869951Y-73732820D01*
X71994890Y-73904786D01*
X72145213Y-74055109D01*
X72317182Y-74180050D01*
X72325946Y-74184516D01*
X72376742Y-74232491D01*
X72393536Y-74300312D01*
X72370998Y-74366447D01*
X72325946Y-74405484D01*
X72317182Y-74409949D01*
X72145213Y-74534890D01*
X71994890Y-74685213D01*
X71869951Y-74857179D01*
X71773444Y-75046585D01*
X71707753Y-75248760D01*
X71674500Y-75458713D01*
X71674500Y-75671286D01*
X71705598Y-75867634D01*
X71707754Y-75881243D01*
X71769420Y-76071032D01*
X71773444Y-76083414D01*
X71869951Y-76272820D01*
X71994890Y-76444786D01*
X72145213Y-76595109D01*
X72317179Y-76720048D01*
X72317181Y-76720049D01*
X72317184Y-76720051D01*
X72506588Y-76816557D01*
X72708757Y-76882246D01*
X72918713Y-76915500D01*
X72918714Y-76915500D01*
X73131286Y-76915500D01*
X73131287Y-76915500D01*
X73341243Y-76882246D01*
X73543412Y-76816557D01*
X73732816Y-76720051D01*
X73754789Y-76704086D01*
X73904786Y-76595109D01*
X73904788Y-76595106D01*
X73904792Y-76595104D01*
X74055104Y-76444792D01*
X74055106Y-76444788D01*
X74055109Y-76444786D01*
X74180048Y-76272820D01*
X74180047Y-76272820D01*
X74180051Y-76272816D01*
X74276557Y-76083412D01*
X74342246Y-75881243D01*
X74375500Y-75671287D01*
X74375500Y-75458713D01*
X74342246Y-75248757D01*
X74276557Y-75046588D01*
X74180051Y-74857184D01*
X74180049Y-74857181D01*
X74180048Y-74857179D01*
X74055109Y-74685213D01*
X73904786Y-74534890D01*
X73732820Y-74409951D01*
X73732115Y-74409591D01*
X73724054Y-74405485D01*
X73673259Y-74357512D01*
X73656463Y-74289692D01*
X73678999Y-74223556D01*
X73724054Y-74184515D01*
X73732816Y-74180051D01*
X73754789Y-74164086D01*
X73904786Y-74055109D01*
X73904788Y-74055106D01*
X73904792Y-74055104D01*
X74055104Y-73904792D01*
X74055106Y-73904788D01*
X74055109Y-73904786D01*
X74171061Y-73745190D01*
X74180051Y-73732816D01*
X74276557Y-73543412D01*
X74342246Y-73341243D01*
X74375500Y-73131287D01*
X74375500Y-72918713D01*
X74342246Y-72708757D01*
X74276557Y-72506588D01*
X74180051Y-72317184D01*
X74180049Y-72317181D01*
X74180048Y-72317179D01*
X74055109Y-72145213D01*
X73904786Y-71994890D01*
X73732820Y-71869951D01*
X73732115Y-71869591D01*
X73724054Y-71865485D01*
X73673259Y-71817512D01*
X73656463Y-71749692D01*
X73678999Y-71683556D01*
X73724054Y-71644515D01*
X73732816Y-71640051D01*
X73857787Y-71549255D01*
X73904786Y-71515109D01*
X73904788Y-71515106D01*
X73904792Y-71515104D01*
X74055104Y-71364792D01*
X74055106Y-71364788D01*
X74055109Y-71364786D01*
X74180048Y-71192820D01*
X74180047Y-71192820D01*
X74180051Y-71192816D01*
X74276557Y-71003412D01*
X74342246Y-70801243D01*
X74375500Y-70591287D01*
X74375500Y-70378713D01*
X74342246Y-70168757D01*
X74276557Y-69966588D01*
X74180051Y-69777184D01*
X74180049Y-69777181D01*
X74180048Y-69777179D01*
X74084825Y-69646115D01*
X74084824Y-69646115D01*
X74055104Y-69605208D01*
X73904792Y-69454896D01*
X73855385Y-69419000D01*
X73908480Y-69419000D01*
X73912680Y-69360270D01*
X73954552Y-69304337D01*
X73985529Y-69287422D01*
X74117086Y-69238354D01*
X74117093Y-69238350D01*
X74232187Y-69152190D01*
X74232190Y-69152187D01*
X74318350Y-69037093D01*
X74318354Y-69037086D01*
X74368596Y-68902379D01*
X74368598Y-68902372D01*
X74374999Y-68842844D01*
X74375000Y-68842827D01*
X74375000Y-67047172D01*
X74374999Y-67047155D01*
X74368598Y-66987627D01*
X74368596Y-66987620D01*
X74318354Y-66852913D01*
X74318350Y-66852906D01*
X74232190Y-66737812D01*
X74232187Y-66737809D01*
X74117093Y-66651649D01*
X74117086Y-66651645D01*
X73982379Y-66601403D01*
X73982372Y-66601401D01*
X73922844Y-66595000D01*
X73275000Y-66595000D01*
X73275000Y-67511988D01*
X73217993Y-67479075D01*
X73090826Y-67445000D01*
X72959174Y-67445000D01*
X72832007Y-67479075D01*
X72775000Y-67511988D01*
X72775000Y-66595000D01*
X72127155Y-66595000D01*
X72067627Y-66601401D01*
X72067620Y-66601403D01*
X71932913Y-66651645D01*
X71932906Y-66651649D01*
X71817812Y-66737809D01*
X71817809Y-66737812D01*
X71731649Y-66852906D01*
X71731645Y-66852913D01*
X71681403Y-66987620D01*
X71681401Y-66987627D01*
X71675000Y-67047155D01*
X71675000Y-67695000D01*
X72591988Y-67695000D01*
X72559075Y-67752007D01*
X72525000Y-67879174D01*
X72525000Y-68010826D01*
X72559075Y-68137993D01*
X72591988Y-68195000D01*
X71675000Y-68195000D01*
X71675000Y-68842844D01*
X71681401Y-68902372D01*
X71681403Y-68902379D01*
X71731645Y-69037086D01*
X71731649Y-69037093D01*
X71817809Y-69152187D01*
X71817812Y-69152190D01*
X71932906Y-69238350D01*
X71932913Y-69238354D01*
X72064470Y-69287422D01*
X72120404Y-69329293D01*
X72144821Y-69394758D01*
X72139547Y-69419000D01*
X72194615Y-69419000D01*
X72145208Y-69454896D01*
X71994896Y-69605208D01*
X71965175Y-69646115D01*
X71965173Y-69646115D01*
X71869951Y-69777179D01*
X71773444Y-69966585D01*
X71707753Y-70168760D01*
X71683042Y-70324779D01*
X71674500Y-70378713D01*
X70676500Y-70378713D01*
X70676500Y-70359103D01*
X70676596Y-70354231D01*
X70677754Y-70324779D01*
X70678041Y-70319914D01*
X70681119Y-70280835D01*
X70681596Y-70275997D01*
X70685056Y-70246764D01*
X70685723Y-70241941D01*
X70704403Y-70124000D01*
X70124000Y-70124000D01*
X70124000Y-71626000D01*
X69126000Y-71626000D01*
X69126000Y-70124000D01*
X67624000Y-70124000D01*
X67624000Y-71626000D01*
X66626000Y-71626000D01*
X66626000Y-70124000D01*
X66432853Y-70124000D01*
X66423937Y-70153389D01*
X66422028Y-70159168D01*
X66409625Y-70193830D01*
X66407435Y-70199506D01*
X66317034Y-70417754D01*
X66314568Y-70423317D01*
X66298828Y-70456597D01*
X66296092Y-70462032D01*
X66272991Y-70505253D01*
X66269991Y-70510549D01*
X66251056Y-70542141D01*
X66247799Y-70547285D01*
X66116551Y-70743711D01*
X66113048Y-70748685D01*
X66091115Y-70778259D01*
X66087369Y-70783059D01*
X66056280Y-70820941D01*
X66052306Y-70825548D01*
X66027575Y-70852835D01*
X66023377Y-70857244D01*
X65856328Y-71024293D01*
X65851919Y-71028491D01*
X65824632Y-71053222D01*
X65820025Y-71057196D01*
X65782143Y-71088285D01*
X65777343Y-71092031D01*
X65747769Y-71113964D01*
X65742795Y-71117467D01*
X65546369Y-71248715D01*
X65541225Y-71251972D01*
X65509633Y-71270907D01*
X65504337Y-71273907D01*
X65461116Y-71297008D01*
X65455681Y-71299744D01*
X65422401Y-71315484D01*
X65416838Y-71317950D01*
X65198590Y-71408351D01*
X65192914Y-71410541D01*
X65158252Y-71422944D01*
X65152473Y-71424853D01*
X65124000Y-71433490D01*
X62409398Y-71433490D01*
X63661201Y-70181686D01*
X63722522Y-70148203D01*
X63792214Y-70153187D01*
X63836561Y-70181688D01*
X63956143Y-70301270D01*
X63956147Y-70301273D01*
X64111817Y-70405289D01*
X64111826Y-70405294D01*
X64124658Y-70410609D01*
X64284804Y-70476944D01*
X64427124Y-70505253D01*
X64468434Y-70513470D01*
X64468438Y-70513471D01*
X64468439Y-70513471D01*
X64655672Y-70513471D01*
X64655673Y-70513470D01*
X64839306Y-70476944D01*
X65012286Y-70405293D01*
X65167963Y-70301273D01*
X65300357Y-70168879D01*
X65404377Y-70013202D01*
X65476028Y-69840222D01*
X65512555Y-69656587D01*
X65512555Y-69619134D01*
X65532240Y-69552095D01*
X65548874Y-69531453D01*
X65954327Y-69126000D01*
X67711117Y-69126000D01*
X69126000Y-69126000D01*
X70124000Y-69126000D01*
X70708760Y-69126000D01*
X70702972Y-69101501D01*
X70701428Y-69093916D01*
X70693522Y-69047738D01*
X70692455Y-69040069D01*
X70681289Y-68936217D01*
X70680977Y-68932905D01*
X70679364Y-68912856D01*
X70679142Y-68909542D01*
X70677713Y-68882855D01*
X70677580Y-68879539D01*
X70677044Y-68859491D01*
X70677000Y-68856177D01*
X70677000Y-67994454D01*
X70686439Y-67947002D01*
X70687268Y-67945000D01*
X70686439Y-67942998D01*
X70677000Y-67895546D01*
X70677000Y-67624000D01*
X70124000Y-67624000D01*
X70124000Y-69126000D01*
X69126000Y-69126000D01*
X69126000Y-67624000D01*
X68018909Y-67624000D01*
X68044117Y-67750732D01*
X68045158Y-67756727D01*
X68050562Y-67793155D01*
X68051307Y-67799198D01*
X68056110Y-67847967D01*
X68056558Y-67854038D01*
X68058364Y-67890813D01*
X68058513Y-67896895D01*
X68058513Y-68133131D01*
X68058364Y-68139213D01*
X68056558Y-68175988D01*
X68056110Y-68182059D01*
X68051307Y-68230828D01*
X68050562Y-68236871D01*
X68045158Y-68273299D01*
X68044117Y-68279294D01*
X67998028Y-68511000D01*
X67996695Y-68516937D01*
X67987746Y-68552665D01*
X67986122Y-68558535D01*
X67971895Y-68605431D01*
X67969986Y-68611210D01*
X67957583Y-68645872D01*
X67955393Y-68651548D01*
X67864992Y-68869796D01*
X67862526Y-68875359D01*
X67846786Y-68908639D01*
X67844050Y-68914074D01*
X67820949Y-68957295D01*
X67817949Y-68962591D01*
X67799014Y-68994183D01*
X67795757Y-68999327D01*
X67711117Y-69126000D01*
X65954327Y-69126000D01*
X66078495Y-69001832D01*
X66139818Y-68968347D01*
X66166176Y-68965513D01*
X66203630Y-68965513D01*
X66203631Y-68965512D01*
X66387264Y-68928986D01*
X66560244Y-68857335D01*
X66715921Y-68753315D01*
X66848315Y-68620921D01*
X66952335Y-68465244D01*
X67023986Y-68292264D01*
X67060513Y-68108629D01*
X67060513Y-67921397D01*
X67023986Y-67737762D01*
X66952335Y-67564782D01*
X66952334Y-67564781D01*
X66952331Y-67564775D01*
X66848315Y-67409105D01*
X66848312Y-67409101D01*
X66728730Y-67289519D01*
X66695245Y-67228196D01*
X66700229Y-67158504D01*
X66728728Y-67114159D01*
X69097921Y-64744966D01*
X69159242Y-64711483D01*
X69228934Y-64716467D01*
X69284867Y-64758339D01*
X69296085Y-64776354D01*
X69329951Y-64842820D01*
X69454890Y-65014786D01*
X69605213Y-65165109D01*
X69777179Y-65290048D01*
X69777181Y-65290049D01*
X69777184Y-65290051D01*
X69966588Y-65386557D01*
X70168757Y-65452246D01*
X70378713Y-65485500D01*
X70378714Y-65485500D01*
X70591286Y-65485500D01*
X70591287Y-65485500D01*
X70801243Y-65452246D01*
X71003412Y-65386557D01*
X71192816Y-65290051D01*
X71245361Y-65251875D01*
X71364786Y-65165109D01*
X71364788Y-65165106D01*
X71364792Y-65165104D01*
X71515104Y-65014792D01*
X71515106Y-65014788D01*
X71515109Y-65014786D01*
X71528940Y-64995748D01*
X71640051Y-64842816D01*
X71688031Y-64748649D01*
X71702159Y-64776377D01*
X71762925Y-64761329D01*
X71829060Y-64783866D01*
X71868101Y-64828920D01*
X71873937Y-64840374D01*
X71912706Y-64893737D01*
X71912707Y-64893737D01*
X72542037Y-64264408D01*
X72559075Y-64327993D01*
X72624901Y-64442007D01*
X72717993Y-64535099D01*
X72832007Y-64600925D01*
X72895591Y-64617962D01*
X72266261Y-65247291D01*
X72319630Y-65286065D01*
X72508379Y-65382238D01*
X72709845Y-65447698D01*
X72919081Y-65480838D01*
X73130919Y-65480838D01*
X73340152Y-65447698D01*
X73340155Y-65447698D01*
X73541620Y-65382238D01*
X73730373Y-65286063D01*
X73783737Y-65247291D01*
X73783738Y-65247291D01*
X73154408Y-64617962D01*
X73217993Y-64600925D01*
X73332007Y-64535099D01*
X73425099Y-64442007D01*
X73490925Y-64327993D01*
X73507962Y-64264408D01*
X74137291Y-64893738D01*
X74137291Y-64893737D01*
X74176063Y-64840373D01*
X74272238Y-64651620D01*
X74337698Y-64450155D01*
X74337698Y-64450152D01*
X74370838Y-64240919D01*
X74370838Y-64029080D01*
X74337698Y-63819847D01*
X74337698Y-63819844D01*
X74272238Y-63618379D01*
X74176065Y-63429630D01*
X74137291Y-63376261D01*
X73507962Y-64005590D01*
X73490925Y-63942007D01*
X73425099Y-63827993D01*
X73332007Y-63734901D01*
X73217993Y-63669075D01*
X73154408Y-63652037D01*
X73783737Y-63022707D01*
X73783737Y-63022706D01*
X73730374Y-62983937D01*
X73718920Y-62978101D01*
X73668124Y-62930126D01*
X73651329Y-62862305D01*
X73668115Y-62813045D01*
X73638649Y-62798031D01*
X73732816Y-62750051D01*
X73885748Y-62638940D01*
X73904786Y-62625109D01*
X73904788Y-62625106D01*
X73904792Y-62625104D01*
X74055104Y-62474792D01*
X74055106Y-62474788D01*
X74055109Y-62474786D01*
X74178902Y-62304397D01*
X74180051Y-62302816D01*
X74276557Y-62113412D01*
X74342246Y-61911243D01*
X74375500Y-61701287D01*
X74375500Y-61488713D01*
X74342246Y-61278757D01*
X74276557Y-61076588D01*
X74180051Y-60887184D01*
X74180049Y-60887181D01*
X74180048Y-60887179D01*
X74055109Y-60715213D01*
X73904786Y-60564890D01*
X73732820Y-60439951D01*
X73732115Y-60439591D01*
X73724054Y-60435485D01*
X73673259Y-60387512D01*
X73656463Y-60319692D01*
X73678999Y-60253556D01*
X73724054Y-60214515D01*
X73732816Y-60210051D01*
X73790678Y-60168012D01*
X73904786Y-60085109D01*
X73904788Y-60085106D01*
X73904792Y-60085104D01*
X74055104Y-59934792D01*
X74055106Y-59934788D01*
X74055109Y-59934786D01*
X74180048Y-59762820D01*
X74180047Y-59762820D01*
X74180051Y-59762816D01*
X74276557Y-59573412D01*
X74342246Y-59371243D01*
X74375500Y-59161287D01*
X74375500Y-58948713D01*
X74342246Y-58738757D01*
X74276557Y-58536588D01*
X74180051Y-58347184D01*
X74180049Y-58347181D01*
X74180048Y-58347179D01*
X74055109Y-58175213D01*
X73904786Y-58024890D01*
X73732820Y-57899951D01*
X73543414Y-57803444D01*
X73543413Y-57803443D01*
X73543412Y-57803443D01*
X73341243Y-57737754D01*
X73341241Y-57737753D01*
X73341240Y-57737753D01*
X73179957Y-57712208D01*
X73131287Y-57704500D01*
X72918713Y-57704500D01*
X72870042Y-57712208D01*
X72708760Y-57737753D01*
X72634714Y-57761812D01*
X72546035Y-57790626D01*
X72506585Y-57803444D01*
X72317179Y-57899951D01*
X72145215Y-58024889D01*
X72031673Y-58138431D01*
X71970350Y-58171915D01*
X71900658Y-58166931D01*
X71844725Y-58125059D01*
X71827810Y-58094082D01*
X71778797Y-57962671D01*
X71778793Y-57962664D01*
X71692547Y-57847455D01*
X71692544Y-57847452D01*
X71577335Y-57761206D01*
X71577328Y-57761202D01*
X71442482Y-57710908D01*
X71442483Y-57710908D01*
X71382883Y-57704501D01*
X71382881Y-57704500D01*
X71382873Y-57704500D01*
X71382864Y-57704500D01*
X69587129Y-57704500D01*
X69587123Y-57704501D01*
X69527516Y-57710908D01*
X69392671Y-57761202D01*
X69392664Y-57761206D01*
X69277455Y-57847452D01*
X69277452Y-57847455D01*
X69191206Y-57962664D01*
X69191202Y-57962671D01*
X69140908Y-58097517D01*
X69134501Y-58157116D01*
X69134500Y-58157135D01*
X69134500Y-59504901D01*
X69114815Y-59571940D01*
X69098181Y-59592582D01*
X66367430Y-62323334D01*
X60915317Y-67775448D01*
X58207584Y-70483181D01*
X58146261Y-70516666D01*
X58119903Y-70519500D01*
X56459766Y-70519500D01*
X56392727Y-70499815D01*
X56390875Y-70498602D01*
X56259185Y-70410609D01*
X56259172Y-70410602D01*
X56113501Y-70350264D01*
X56113489Y-70350261D01*
X55958845Y-70319500D01*
X55958842Y-70319500D01*
X55801158Y-70319500D01*
X55801155Y-70319500D01*
X55646510Y-70350261D01*
X55646498Y-70350264D01*
X55500827Y-70410602D01*
X55500814Y-70410609D01*
X55369711Y-70498210D01*
X55369707Y-70498213D01*
X55258213Y-70609707D01*
X55258210Y-70609711D01*
X55170609Y-70740814D01*
X55170602Y-70740827D01*
X55110264Y-70886498D01*
X55110261Y-70886510D01*
X55079500Y-71041153D01*
X55079500Y-71079243D01*
X55059815Y-71146282D01*
X55007011Y-71192037D01*
X55002953Y-71193804D01*
X54865823Y-71250604D01*
X54865816Y-71250608D01*
X54785652Y-71304172D01*
X54718974Y-71325049D01*
X54651594Y-71306564D01*
X54613659Y-71269959D01*
X54596397Y-71244124D01*
X54575520Y-71177446D01*
X54575500Y-71175234D01*
X54575500Y-68858065D01*
X54595185Y-68791026D01*
X54647989Y-68745271D01*
X54717147Y-68735327D01*
X54746952Y-68743504D01*
X54861682Y-68791026D01*
X54880776Y-68798935D01*
X54995600Y-68821775D01*
X55035426Y-68829697D01*
X55035429Y-68829698D01*
X55035431Y-68829698D01*
X55193117Y-68829698D01*
X55193118Y-68829697D01*
X55347770Y-68798935D01*
X55493452Y-68738592D01*
X55624562Y-68650987D01*
X55736062Y-68539487D01*
X55823667Y-68408377D01*
X55884010Y-68262695D01*
X55914773Y-68108040D01*
X55914773Y-67950356D01*
X55914773Y-67950353D01*
X55914772Y-67950351D01*
X55907921Y-67915907D01*
X55884010Y-67795701D01*
X55873169Y-67769529D01*
X55838728Y-67686379D01*
X57443130Y-67686379D01*
X57443130Y-67873620D01*
X57479655Y-68057243D01*
X57479657Y-68057251D01*
X57551306Y-68230228D01*
X57551311Y-68230237D01*
X57655327Y-68385907D01*
X57655330Y-68385911D01*
X57787718Y-68518299D01*
X57787722Y-68518302D01*
X57943392Y-68622318D01*
X57943398Y-68622321D01*
X57943399Y-68622322D01*
X58116379Y-68693973D01*
X58275033Y-68725531D01*
X58300009Y-68730499D01*
X58300013Y-68730500D01*
X58300014Y-68730500D01*
X58487247Y-68730500D01*
X58487248Y-68730499D01*
X58670881Y-68693973D01*
X58843861Y-68622322D01*
X58999538Y-68518302D01*
X59131932Y-68385908D01*
X59235952Y-68230231D01*
X59307603Y-68057251D01*
X59344130Y-67873616D01*
X59344130Y-67730096D01*
X59363815Y-67663057D01*
X59380449Y-67642415D01*
X60085188Y-66937676D01*
X60883416Y-66139448D01*
X60883421Y-66139444D01*
X60893624Y-66129240D01*
X60893626Y-66129240D01*
X61005430Y-66017436D01*
X61065601Y-65913216D01*
X61084487Y-65880505D01*
X61125410Y-65727777D01*
X61125410Y-65596710D01*
X61145095Y-65529671D01*
X61161724Y-65509033D01*
X61263212Y-65407546D01*
X61367232Y-65251869D01*
X61438883Y-65078889D01*
X61475410Y-64895254D01*
X61475410Y-64708022D01*
X61438883Y-64524387D01*
X61367232Y-64351407D01*
X61367231Y-64351406D01*
X61367228Y-64351400D01*
X61263212Y-64195730D01*
X61263209Y-64195726D01*
X61193483Y-64126000D01*
X62624000Y-64126000D01*
X63153379Y-64126000D01*
X63929130Y-63350248D01*
X63917615Y-63345479D01*
X63912049Y-63343012D01*
X63878756Y-63327265D01*
X63873320Y-63324529D01*
X63830102Y-63301428D01*
X63824805Y-63298427D01*
X63793227Y-63279499D01*
X63788088Y-63276244D01*
X63592497Y-63145555D01*
X63587523Y-63142053D01*
X63557948Y-63120120D01*
X63553147Y-63116373D01*
X63515264Y-63085283D01*
X63510657Y-63081309D01*
X63483370Y-63056578D01*
X63478961Y-63052380D01*
X63312620Y-62886039D01*
X63308422Y-62881630D01*
X63283691Y-62854343D01*
X63279717Y-62849736D01*
X63248627Y-62811853D01*
X63244880Y-62807052D01*
X63222947Y-62777477D01*
X63219445Y-62772503D01*
X63120219Y-62624000D01*
X62624000Y-62624000D01*
X62624000Y-64126000D01*
X61193483Y-64126000D01*
X61130821Y-64063338D01*
X61130817Y-64063335D01*
X60975147Y-63959319D01*
X60975138Y-63959314D01*
X60802161Y-63887665D01*
X60802153Y-63887663D01*
X60618530Y-63851138D01*
X60618526Y-63851138D01*
X60431294Y-63851138D01*
X60431289Y-63851138D01*
X60247666Y-63887663D01*
X60247658Y-63887665D01*
X60074681Y-63959314D01*
X60074672Y-63959319D01*
X59919002Y-64063335D01*
X59918998Y-64063338D01*
X59786610Y-64195726D01*
X59786607Y-64195730D01*
X59682591Y-64351400D01*
X59682586Y-64351409D01*
X59610937Y-64524386D01*
X59610935Y-64524394D01*
X59574410Y-64708017D01*
X59574410Y-64895258D01*
X59610935Y-65078881D01*
X59610937Y-65078889D01*
X59682586Y-65251866D01*
X59682591Y-65251875D01*
X59782237Y-65401005D01*
X59803115Y-65467683D01*
X59784630Y-65535063D01*
X59766816Y-65557577D01*
X58531213Y-66793181D01*
X58469890Y-66826666D01*
X58443532Y-66829500D01*
X58300009Y-66829500D01*
X58116386Y-66866025D01*
X58116378Y-66866027D01*
X57943401Y-66937676D01*
X57943392Y-66937681D01*
X57787722Y-67041697D01*
X57787718Y-67041700D01*
X57655330Y-67174088D01*
X57655327Y-67174092D01*
X57551311Y-67329762D01*
X57551306Y-67329771D01*
X57479657Y-67502748D01*
X57479655Y-67502756D01*
X57443130Y-67686379D01*
X55838728Y-67686379D01*
X55823670Y-67650025D01*
X55823663Y-67650012D01*
X55735671Y-67518323D01*
X55714793Y-67451645D01*
X55714773Y-67449432D01*
X55714773Y-67210833D01*
X55714774Y-67210820D01*
X55714774Y-67042717D01*
X55714716Y-67042499D01*
X55673850Y-66889989D01*
X55656399Y-66859762D01*
X55594797Y-66753063D01*
X55594791Y-66753055D01*
X55444573Y-66602837D01*
X55438583Y-66591867D01*
X55434283Y-66592547D01*
X55410500Y-66568764D01*
X55410500Y-66538658D01*
X55379737Y-66384003D01*
X55364265Y-66346652D01*
X55371108Y-66345291D01*
X55366237Y-66299968D01*
X55397512Y-66237490D01*
X55457602Y-66201838D01*
X55464076Y-66200369D01*
X55520771Y-66189092D01*
X55520774Y-66189091D01*
X55692825Y-66117826D01*
X55692829Y-66117824D01*
X55847669Y-66014363D01*
X55847677Y-66014357D01*
X55872285Y-65989749D01*
X57624000Y-65989749D01*
X57757095Y-65934620D01*
X57762771Y-65932430D01*
X57797433Y-65920027D01*
X57803212Y-65918118D01*
X57850108Y-65903891D01*
X57855978Y-65902267D01*
X57891706Y-65893318D01*
X57897642Y-65891985D01*
X58051660Y-65861348D01*
X58633325Y-65279682D01*
X58602359Y-65124000D01*
X57624000Y-65124000D01*
X57624000Y-65989749D01*
X55872285Y-65989749D01*
X55979357Y-65882677D01*
X55979363Y-65882669D01*
X56082824Y-65727829D01*
X56082826Y-65727825D01*
X56154091Y-65555774D01*
X56154094Y-65555762D01*
X56159219Y-65530000D01*
X55369000Y-65530000D01*
X55301961Y-65510315D01*
X55256206Y-65457511D01*
X55245000Y-65406000D01*
X55245000Y-65280000D01*
X55119000Y-65280000D01*
X55051961Y-65260315D01*
X55006206Y-65207511D01*
X54995000Y-65156000D01*
X54995000Y-65030000D01*
X55495000Y-65030000D01*
X56159219Y-65030000D01*
X56159219Y-65029999D01*
X56154094Y-65004237D01*
X56154091Y-65004225D01*
X56082826Y-64832174D01*
X56082824Y-64832170D01*
X55979363Y-64677330D01*
X55979357Y-64677322D01*
X55847677Y-64545642D01*
X55847669Y-64545636D01*
X55692829Y-64442175D01*
X55692825Y-64442173D01*
X55520774Y-64370908D01*
X55520762Y-64370905D01*
X55495000Y-64365780D01*
X55495000Y-65030000D01*
X54995000Y-65030000D01*
X54995000Y-64365781D01*
X54994999Y-64365780D01*
X54969237Y-64370905D01*
X54969225Y-64370908D01*
X54797174Y-64442173D01*
X54797170Y-64442175D01*
X54642330Y-64545636D01*
X54642322Y-64545642D01*
X54510642Y-64677322D01*
X54510639Y-64677326D01*
X54428726Y-64799918D01*
X54375114Y-64844723D01*
X54305789Y-64853430D01*
X54271039Y-64836804D01*
X54266645Y-64847410D01*
X53771738Y-64352503D01*
X53738253Y-64291180D01*
X53743237Y-64221488D01*
X53785109Y-64165555D01*
X53790529Y-64161720D01*
X53830519Y-64134999D01*
X53843987Y-64126000D01*
X57624000Y-64126000D01*
X58695727Y-64126000D01*
X58769931Y-63946855D01*
X58772397Y-63941292D01*
X58788137Y-63908012D01*
X58790873Y-63902577D01*
X58813974Y-63859356D01*
X58816974Y-63854060D01*
X58835909Y-63822468D01*
X58839166Y-63817324D01*
X58970414Y-63620898D01*
X58973917Y-63615924D01*
X58995850Y-63586350D01*
X58999596Y-63581550D01*
X59030685Y-63543668D01*
X59034659Y-63539061D01*
X59059390Y-63511774D01*
X59063588Y-63507365D01*
X59126000Y-63444953D01*
X59126000Y-63129799D01*
X59112948Y-63120120D01*
X59108147Y-63116373D01*
X59070264Y-63085283D01*
X59065657Y-63081309D01*
X59038370Y-63056578D01*
X59033961Y-63052380D01*
X58867620Y-62886039D01*
X58863422Y-62881630D01*
X58838691Y-62854343D01*
X58834717Y-62849736D01*
X58803627Y-62811853D01*
X58799880Y-62807052D01*
X58777947Y-62777477D01*
X58774445Y-62772503D01*
X58675219Y-62624000D01*
X57624000Y-62624000D01*
X57624000Y-64126000D01*
X53843987Y-64126000D01*
X53850289Y-64121789D01*
X53961789Y-64010289D01*
X54049394Y-63879179D01*
X54055005Y-63865634D01*
X54080066Y-63805130D01*
X54109737Y-63733497D01*
X54140500Y-63578842D01*
X54140500Y-63421158D01*
X54140500Y-63421155D01*
X54140499Y-63421153D01*
X54125451Y-63345501D01*
X54109737Y-63266503D01*
X54109735Y-63266498D01*
X54102889Y-63249969D01*
X55124000Y-63249969D01*
X55124104Y-63250492D01*
X55125145Y-63256489D01*
X55130549Y-63292920D01*
X55131294Y-63298961D01*
X55136097Y-63347733D01*
X55136545Y-63353803D01*
X55136794Y-63358889D01*
X55245000Y-63385993D01*
X55412679Y-63343992D01*
X55467000Y-63342659D01*
X55739508Y-63396865D01*
X55745445Y-63398198D01*
X55781172Y-63407147D01*
X55787042Y-63408771D01*
X55833937Y-63422998D01*
X55839712Y-63424906D01*
X55874374Y-63437308D01*
X55880053Y-63439499D01*
X56097384Y-63529520D01*
X56102948Y-63531986D01*
X56136242Y-63547733D01*
X56141680Y-63550471D01*
X56184899Y-63573573D01*
X56190195Y-63576573D01*
X56221773Y-63595501D01*
X56226912Y-63598756D01*
X56422503Y-63729445D01*
X56427477Y-63732947D01*
X56457052Y-63754880D01*
X56461853Y-63758627D01*
X56499736Y-63789717D01*
X56504343Y-63793691D01*
X56531630Y-63818422D01*
X56536039Y-63822620D01*
X56626000Y-63912581D01*
X56626000Y-62624000D01*
X55124000Y-62624000D01*
X55124000Y-63249969D01*
X54102889Y-63249969D01*
X54049397Y-63120827D01*
X54049390Y-63120814D01*
X53961789Y-62989711D01*
X53961786Y-62989707D01*
X53850292Y-62878213D01*
X53850288Y-62878210D01*
X53719185Y-62790609D01*
X53719172Y-62790602D01*
X53573501Y-62730264D01*
X53573492Y-62730261D01*
X53572382Y-62730041D01*
X53571854Y-62729764D01*
X53567665Y-62728494D01*
X53567906Y-62727699D01*
X53510471Y-62697655D01*
X53475898Y-62636939D01*
X53474966Y-62632657D01*
X53474737Y-62631503D01*
X53440913Y-62549844D01*
X53414397Y-62485827D01*
X53414390Y-62485814D01*
X53326789Y-62354711D01*
X53326786Y-62354707D01*
X53215292Y-62243213D01*
X53215288Y-62243210D01*
X53084185Y-62155609D01*
X53084172Y-62155602D01*
X52938501Y-62095264D01*
X52938491Y-62095261D01*
X52783149Y-62064361D01*
X52721238Y-62031976D01*
X52719660Y-62030425D01*
X52534235Y-61845000D01*
X59410780Y-61845000D01*
X59415905Y-61870762D01*
X59415908Y-61870774D01*
X59487173Y-62042825D01*
X59487175Y-62042829D01*
X59590636Y-62197669D01*
X59590642Y-62197677D01*
X59722322Y-62329357D01*
X59722330Y-62329363D01*
X59877170Y-62432824D01*
X60049226Y-62504091D01*
X60049236Y-62504094D01*
X60074999Y-62509218D01*
X60575000Y-62509218D01*
X60600763Y-62504094D01*
X60600773Y-62504091D01*
X60772829Y-62432824D01*
X60927669Y-62329363D01*
X60927677Y-62329357D01*
X61059357Y-62197677D01*
X61059363Y-62197669D01*
X61162824Y-62042829D01*
X61162826Y-62042825D01*
X61234091Y-61870774D01*
X61234094Y-61870762D01*
X61239219Y-61845000D01*
X63855780Y-61845000D01*
X63860905Y-61870762D01*
X63860908Y-61870774D01*
X63932173Y-62042825D01*
X63932175Y-62042829D01*
X64035636Y-62197669D01*
X64035642Y-62197677D01*
X64167322Y-62329357D01*
X64167330Y-62329363D01*
X64322170Y-62432824D01*
X64494226Y-62504091D01*
X64494236Y-62504094D01*
X64519999Y-62509218D01*
X65020000Y-62509218D01*
X65045763Y-62504094D01*
X65045773Y-62504091D01*
X65217829Y-62432824D01*
X65372669Y-62329363D01*
X65372677Y-62329357D01*
X65504357Y-62197677D01*
X65504363Y-62197669D01*
X65607824Y-62042829D01*
X65607826Y-62042825D01*
X65679091Y-61870774D01*
X65679094Y-61870762D01*
X65684219Y-61845000D01*
X65020000Y-61845000D01*
X65020000Y-62509218D01*
X64519999Y-62509218D01*
X64520000Y-62509217D01*
X64520000Y-61845000D01*
X63855780Y-61845000D01*
X61239219Y-61845000D01*
X60575000Y-61845000D01*
X60575000Y-62509218D01*
X60074999Y-62509218D01*
X60075000Y-62509217D01*
X60075000Y-61845000D01*
X59410780Y-61845000D01*
X52534235Y-61845000D01*
X51212616Y-60523381D01*
X52624000Y-60523381D01*
X53246366Y-61145747D01*
X53251663Y-61147354D01*
X53257440Y-61149263D01*
X53292101Y-61161665D01*
X53297778Y-61163855D01*
X53488728Y-61242948D01*
X53494292Y-61245414D01*
X53527574Y-61261155D01*
X53533009Y-61263891D01*
X53576230Y-61286992D01*
X53581525Y-61289991D01*
X53613118Y-61308926D01*
X53618263Y-61312184D01*
X53790122Y-61427017D01*
X53795098Y-61430522D01*
X53824671Y-61452455D01*
X53829469Y-61456199D01*
X53867351Y-61487288D01*
X53871958Y-61491262D01*
X53899245Y-61515993D01*
X53903654Y-61520191D01*
X54009463Y-61626000D01*
X54126000Y-61626000D01*
X55124000Y-61626000D01*
X56626000Y-61626000D01*
X57624000Y-61626000D01*
X58423228Y-61626000D01*
X62624000Y-61626000D01*
X62868228Y-61626000D01*
X62875993Y-61595000D01*
X62833992Y-61427321D01*
X62832659Y-61373000D01*
X62838229Y-61344999D01*
X63855780Y-61344999D01*
X63855781Y-61345000D01*
X64520000Y-61345000D01*
X65020000Y-61345000D01*
X65684219Y-61345000D01*
X65684219Y-61344999D01*
X65679094Y-61319237D01*
X65679091Y-61319225D01*
X65607826Y-61147174D01*
X65607824Y-61147170D01*
X65504363Y-60992330D01*
X65504357Y-60992322D01*
X65372677Y-60860642D01*
X65372669Y-60860636D01*
X65217829Y-60757175D01*
X65217825Y-60757173D01*
X65045774Y-60685908D01*
X65045762Y-60685905D01*
X65020000Y-60680780D01*
X65020000Y-61345000D01*
X64520000Y-61345000D01*
X64520000Y-60680781D01*
X64519999Y-60680780D01*
X64494237Y-60685905D01*
X64494225Y-60685908D01*
X64322174Y-60757173D01*
X64322170Y-60757175D01*
X64167330Y-60860636D01*
X64167322Y-60860642D01*
X64035642Y-60992322D01*
X64035636Y-60992330D01*
X63932175Y-61147170D01*
X63932173Y-61147174D01*
X63860908Y-61319225D01*
X63860905Y-61319237D01*
X63855780Y-61344999D01*
X62838229Y-61344999D01*
X62886865Y-61100492D01*
X62888198Y-61094555D01*
X62897147Y-61058828D01*
X62898771Y-61052958D01*
X62912998Y-61006063D01*
X62914906Y-61000288D01*
X62927308Y-60965626D01*
X62929499Y-60959947D01*
X63019520Y-60742616D01*
X63021986Y-60737052D01*
X63037733Y-60703758D01*
X63040471Y-60698320D01*
X63063573Y-60655101D01*
X63066573Y-60649805D01*
X63085501Y-60618227D01*
X63088756Y-60613088D01*
X63219445Y-60417497D01*
X63222947Y-60412523D01*
X63244880Y-60382948D01*
X63248627Y-60378147D01*
X63279717Y-60340264D01*
X63283691Y-60335657D01*
X63308422Y-60308370D01*
X63312620Y-60303961D01*
X63478961Y-60137620D01*
X63483370Y-60133422D01*
X63493766Y-60124000D01*
X66046234Y-60124000D01*
X66056630Y-60133422D01*
X66061039Y-60137620D01*
X66227380Y-60303961D01*
X66231578Y-60308370D01*
X66256309Y-60335657D01*
X66260283Y-60340264D01*
X66291373Y-60378147D01*
X66295120Y-60382948D01*
X66317053Y-60412523D01*
X66320555Y-60417497D01*
X66451244Y-60613088D01*
X66454499Y-60618227D01*
X66473427Y-60649805D01*
X66476427Y-60655101D01*
X66499529Y-60698320D01*
X66502267Y-60703758D01*
X66518014Y-60737052D01*
X66520480Y-60742617D01*
X66525248Y-60754129D01*
X66626000Y-60653378D01*
X66626000Y-60124000D01*
X66046234Y-60124000D01*
X63493766Y-60124000D01*
X62624000Y-60124000D01*
X62624000Y-61626000D01*
X58423228Y-61626000D01*
X58430993Y-61595000D01*
X58388992Y-61427321D01*
X58387659Y-61373000D01*
X58393229Y-61344999D01*
X59410780Y-61344999D01*
X59410781Y-61345000D01*
X60075000Y-61345000D01*
X60575000Y-61345000D01*
X61239219Y-61345000D01*
X61239219Y-61344999D01*
X61234094Y-61319237D01*
X61234091Y-61319225D01*
X61162826Y-61147174D01*
X61162824Y-61147170D01*
X61059363Y-60992330D01*
X61059357Y-60992322D01*
X60927677Y-60860642D01*
X60927669Y-60860636D01*
X60772829Y-60757175D01*
X60772825Y-60757173D01*
X60600774Y-60685908D01*
X60600762Y-60685905D01*
X60575000Y-60680780D01*
X60575000Y-61345000D01*
X60075000Y-61345000D01*
X60075000Y-60680781D01*
X60074999Y-60680780D01*
X60049237Y-60685905D01*
X60049225Y-60685908D01*
X59877174Y-60757173D01*
X59877170Y-60757175D01*
X59722330Y-60860636D01*
X59722322Y-60860642D01*
X59590642Y-60992322D01*
X59590636Y-60992330D01*
X59487175Y-61147170D01*
X59487173Y-61147174D01*
X59415908Y-61319225D01*
X59415905Y-61319237D01*
X59410780Y-61344999D01*
X58393229Y-61344999D01*
X58441865Y-61100492D01*
X58443198Y-61094555D01*
X58452147Y-61058828D01*
X58453771Y-61052958D01*
X58467998Y-61006063D01*
X58469906Y-61000288D01*
X58482308Y-60965626D01*
X58484499Y-60959947D01*
X58574520Y-60742616D01*
X58576986Y-60737052D01*
X58592733Y-60703758D01*
X58595471Y-60698320D01*
X58618573Y-60655101D01*
X58621573Y-60649805D01*
X58640501Y-60618227D01*
X58643756Y-60613088D01*
X58774445Y-60417497D01*
X58777947Y-60412523D01*
X58799880Y-60382948D01*
X58803627Y-60378147D01*
X58834717Y-60340264D01*
X58838691Y-60335657D01*
X58863422Y-60308370D01*
X58867620Y-60303961D01*
X59033961Y-60137620D01*
X59038370Y-60133422D01*
X59048766Y-60124000D01*
X57624000Y-60124000D01*
X57624000Y-61626000D01*
X56626000Y-61626000D01*
X56626000Y-60124000D01*
X55124000Y-60124000D01*
X55124000Y-61626000D01*
X54126000Y-61626000D01*
X54126000Y-60124000D01*
X52624000Y-60124000D01*
X52624000Y-60523381D01*
X51212616Y-60523381D01*
X49405091Y-58715856D01*
X49405089Y-58715853D01*
X49286218Y-58596982D01*
X49286217Y-58596981D01*
X49199405Y-58546861D01*
X49199405Y-58546860D01*
X49199401Y-58546859D01*
X49149286Y-58517924D01*
X48996558Y-58477000D01*
X48838444Y-58477000D01*
X48830848Y-58477000D01*
X48830832Y-58477001D01*
X47429500Y-58477001D01*
X47362461Y-58457316D01*
X47316706Y-58404512D01*
X47305500Y-58353001D01*
X47305500Y-58183884D01*
X47305499Y-58183880D01*
X47300178Y-58157128D01*
X47273574Y-58023379D01*
X50124000Y-58023379D01*
X50136974Y-58036353D01*
X50136993Y-58036374D01*
X51226619Y-59126000D01*
X51626000Y-59126000D01*
X52624000Y-59126000D01*
X54126000Y-59126000D01*
X55124000Y-59126000D01*
X56626000Y-59126000D01*
X57624000Y-59126000D01*
X59126000Y-59126000D01*
X60124000Y-59126000D01*
X61626000Y-59126000D01*
X62624000Y-59126000D01*
X64126000Y-59126000D01*
X65124000Y-59126000D01*
X66626000Y-59126000D01*
X67624000Y-59126000D01*
X68136500Y-59126000D01*
X68136500Y-58143752D01*
X68136545Y-58140428D01*
X68137084Y-58120326D01*
X68137217Y-58117006D01*
X68138649Y-58090320D01*
X68138871Y-58087011D01*
X68140481Y-58067018D01*
X68140792Y-58063715D01*
X68151962Y-57959825D01*
X68153029Y-57952157D01*
X68160936Y-57905971D01*
X68162481Y-57898381D01*
X68176826Y-57837670D01*
X68178842Y-57830191D01*
X68192450Y-57785328D01*
X68194929Y-57777988D01*
X68252362Y-57624000D01*
X67624000Y-57624000D01*
X67624000Y-59126000D01*
X66626000Y-59126000D01*
X66626000Y-57624000D01*
X65124000Y-57624000D01*
X65124000Y-59126000D01*
X64126000Y-59126000D01*
X64126000Y-57624000D01*
X62624000Y-57624000D01*
X62624000Y-59126000D01*
X61626000Y-59126000D01*
X61626000Y-57624000D01*
X60124000Y-57624000D01*
X60124000Y-59126000D01*
X59126000Y-59126000D01*
X59126000Y-57624000D01*
X57624000Y-57624000D01*
X57624000Y-59126000D01*
X56626000Y-59126000D01*
X56626000Y-57801812D01*
X56515000Y-57774004D01*
X56347360Y-57816002D01*
X56293040Y-57817337D01*
X56020535Y-57763145D01*
X56014595Y-57761812D01*
X55978868Y-57752864D01*
X55973001Y-57751240D01*
X55926095Y-57737012D01*
X55920316Y-57735103D01*
X55885636Y-57722695D01*
X55879956Y-57720504D01*
X55662615Y-57630479D01*
X55657049Y-57628012D01*
X55648567Y-57624000D01*
X55124000Y-57624000D01*
X55124000Y-59126000D01*
X54126000Y-59126000D01*
X54126000Y-57624000D01*
X52624000Y-57624000D01*
X52624000Y-59126000D01*
X51626000Y-59126000D01*
X51626000Y-57624000D01*
X50124000Y-57624000D01*
X50124000Y-58023379D01*
X47273574Y-58023379D01*
X47268973Y-58000250D01*
X47197322Y-57827270D01*
X47197321Y-57827269D01*
X47197318Y-57827263D01*
X47093302Y-57671593D01*
X47093299Y-57671589D01*
X47066819Y-57645109D01*
X47033334Y-57583786D01*
X47030500Y-57557428D01*
X47030500Y-56463466D01*
X47004541Y-56332969D01*
X47004540Y-56332968D01*
X47004540Y-56332964D01*
X46953620Y-56210031D01*
X46948442Y-56202282D01*
X46879698Y-56099398D01*
X46879697Y-56099397D01*
X46879695Y-56099394D01*
X46785606Y-56005305D01*
X46588801Y-55808500D01*
X47867527Y-55808500D01*
X47935947Y-55973682D01*
X47938137Y-55979357D01*
X47950540Y-56014019D01*
X47952449Y-56019799D01*
X47966675Y-56066693D01*
X47968298Y-56072559D01*
X47977247Y-56108283D01*
X47978581Y-56114222D01*
X48014104Y-56292799D01*
X48015145Y-56298797D01*
X48020549Y-56335230D01*
X48021294Y-56341272D01*
X48026097Y-56390045D01*
X48026545Y-56396114D01*
X48028351Y-56432886D01*
X48028500Y-56438969D01*
X48028500Y-56626000D01*
X49126000Y-56626000D01*
X50124000Y-56626000D01*
X51626000Y-56626000D01*
X52624000Y-56626000D01*
X54126000Y-56626000D01*
X54126000Y-56130000D01*
X55600780Y-56130000D01*
X55605905Y-56155762D01*
X55605908Y-56155774D01*
X55677173Y-56327825D01*
X55677175Y-56327829D01*
X55780636Y-56482669D01*
X55780642Y-56482677D01*
X55912322Y-56614357D01*
X55912330Y-56614363D01*
X56067170Y-56717824D01*
X56239226Y-56789091D01*
X56239236Y-56789094D01*
X56264999Y-56794218D01*
X56765000Y-56794218D01*
X56790763Y-56789094D01*
X56790773Y-56789091D01*
X56962829Y-56717824D01*
X57100253Y-56626000D01*
X58309545Y-56626000D01*
X59126000Y-56626000D01*
X60124000Y-56626000D01*
X61626000Y-56626000D01*
X62624000Y-56626000D01*
X64126000Y-56626000D01*
X65124000Y-56626000D01*
X66626000Y-56626000D01*
X67624000Y-56626000D01*
X69126000Y-56626000D01*
X70124000Y-56626000D01*
X71626000Y-56626000D01*
X72624000Y-56626000D01*
X73823742Y-56626000D01*
X73777845Y-56602614D01*
X73773552Y-56600319D01*
X73747856Y-56585929D01*
X73743656Y-56583467D01*
X73710233Y-56562986D01*
X73706131Y-56560361D01*
X73681637Y-56543995D01*
X73677642Y-56541210D01*
X73480304Y-56397837D01*
X73476416Y-56394894D01*
X73453257Y-56376635D01*
X73449492Y-56373545D01*
X73419685Y-56348084D01*
X73416046Y-56344850D01*
X73394441Y-56324876D01*
X73390937Y-56321506D01*
X73218494Y-56149063D01*
X73215124Y-56145559D01*
X73195150Y-56123954D01*
X73191916Y-56120315D01*
X73166455Y-56090508D01*
X73163365Y-56086743D01*
X73145106Y-56063584D01*
X73142163Y-56059696D01*
X72998790Y-55862358D01*
X72996005Y-55858363D01*
X72979639Y-55833869D01*
X72977014Y-55829767D01*
X72956533Y-55796344D01*
X72954071Y-55792144D01*
X72939681Y-55766448D01*
X72937386Y-55762155D01*
X72858839Y-55608000D01*
X72624000Y-55608000D01*
X72624000Y-56626000D01*
X71626000Y-56626000D01*
X71626000Y-55808500D01*
X70124000Y-55808500D01*
X70124000Y-56626000D01*
X69126000Y-56626000D01*
X69126000Y-55808500D01*
X67624000Y-55808500D01*
X67624000Y-56626000D01*
X66626000Y-56626000D01*
X66626000Y-55808500D01*
X65124000Y-55808500D01*
X65124000Y-56626000D01*
X64126000Y-56626000D01*
X64126000Y-55808500D01*
X62624000Y-55808500D01*
X62624000Y-56626000D01*
X61626000Y-56626000D01*
X61626000Y-55808500D01*
X60124000Y-55808500D01*
X60124000Y-56626000D01*
X59126000Y-56626000D01*
X59126000Y-55808500D01*
X58426916Y-55808500D01*
X58409006Y-55880000D01*
X58451008Y-56047678D01*
X58452341Y-56102000D01*
X58398135Y-56374508D01*
X58396802Y-56380445D01*
X58387853Y-56416172D01*
X58386229Y-56422042D01*
X58372002Y-56468937D01*
X58370094Y-56474712D01*
X58357692Y-56509374D01*
X58355501Y-56515053D01*
X58309545Y-56626000D01*
X57100253Y-56626000D01*
X57117669Y-56614363D01*
X57117677Y-56614357D01*
X57249357Y-56482677D01*
X57249363Y-56482669D01*
X57352824Y-56327829D01*
X57352826Y-56327825D01*
X57424091Y-56155774D01*
X57424094Y-56155762D01*
X57429219Y-56130000D01*
X56765000Y-56130000D01*
X56765000Y-56794218D01*
X56264999Y-56794218D01*
X56265000Y-56794217D01*
X56265000Y-56130000D01*
X55600780Y-56130000D01*
X54126000Y-56130000D01*
X54126000Y-55808500D01*
X52624000Y-55808500D01*
X52624000Y-56626000D01*
X51626000Y-56626000D01*
X51626000Y-55808500D01*
X50124000Y-55808500D01*
X50124000Y-56626000D01*
X49126000Y-56626000D01*
X49126000Y-55808500D01*
X47867527Y-55808500D01*
X46588801Y-55808500D01*
X46410300Y-55629999D01*
X55600780Y-55629999D01*
X55600781Y-55630000D01*
X57429219Y-55630000D01*
X57429219Y-55629999D01*
X57424094Y-55604237D01*
X57424091Y-55604225D01*
X57352826Y-55432174D01*
X57352824Y-55432170D01*
X57249363Y-55277330D01*
X57249357Y-55277322D01*
X57117677Y-55145642D01*
X57117669Y-55145636D01*
X56957762Y-55038790D01*
X56958973Y-55036977D01*
X56916136Y-54994904D01*
X56900670Y-54926768D01*
X56914721Y-54888032D01*
X56832595Y-54854015D01*
X56820936Y-54850478D01*
X56626332Y-54811769D01*
X56614208Y-54810575D01*
X56415792Y-54810575D01*
X56403668Y-54811769D01*
X56209064Y-54850478D01*
X56197405Y-54854015D01*
X56118875Y-54886542D01*
X56128309Y-54952147D01*
X56099284Y-55015703D01*
X56071587Y-55037817D01*
X56072238Y-55038790D01*
X55912330Y-55145636D01*
X55912322Y-55145642D01*
X55780642Y-55277322D01*
X55780636Y-55277330D01*
X55677175Y-55432170D01*
X55677173Y-55432174D01*
X55605908Y-55604225D01*
X55605905Y-55604237D01*
X55600780Y-55629999D01*
X46410300Y-55629999D01*
X46071819Y-55291518D01*
X46038334Y-55230195D01*
X46035500Y-55203837D01*
X46035500Y-55166383D01*
X46035499Y-55166379D01*
X46010120Y-55038790D01*
X45998973Y-54982749D01*
X45998644Y-54981954D01*
X45998595Y-54981506D01*
X45997205Y-54976922D01*
X45998074Y-54976658D01*
X45991174Y-54912485D01*
X46022448Y-54850005D01*
X46082537Y-54814352D01*
X46113204Y-54810500D01*
X55731113Y-54810500D01*
X71715118Y-54810500D01*
X71794882Y-54810500D01*
X71868574Y-54779976D01*
X71924976Y-54723574D01*
X71940313Y-54686547D01*
X71984155Y-54632143D01*
X72050449Y-54610079D01*
X72054874Y-54610000D01*
X73507384Y-54610000D01*
X73574423Y-54629685D01*
X73620178Y-54682489D01*
X73629855Y-54714597D01*
X73661198Y-54912485D01*
X73661523Y-54914534D01*
X73724781Y-55109223D01*
X73753907Y-55166384D01*
X73817666Y-55291518D01*
X73817715Y-55291613D01*
X73938028Y-55457213D01*
X74082786Y-55601971D01*
X74231792Y-55710228D01*
X74248390Y-55722287D01*
X74335061Y-55766448D01*
X74430776Y-55815218D01*
X74430778Y-55815218D01*
X74430781Y-55815220D01*
X74625466Y-55878477D01*
X74825399Y-55910143D01*
X74888533Y-55940072D01*
X74925464Y-55999384D01*
X74930000Y-56032616D01*
X74930000Y-57485125D01*
X74910315Y-57552164D01*
X74857511Y-57597919D01*
X74853487Y-57599672D01*
X74852379Y-57600131D01*
X74841902Y-57604462D01*
X74816514Y-57614958D01*
X74816440Y-57615008D01*
X74787598Y-57643850D01*
X74787541Y-57643908D01*
X74760091Y-57671321D01*
X74760028Y-57671415D01*
X74744793Y-57708195D01*
X74744762Y-57708269D01*
X74729509Y-57745021D01*
X74729500Y-57745071D01*
X74729500Y-57745118D01*
X74729500Y-57784288D01*
X74727910Y-60098714D01*
X74725520Y-63578846D01*
X74724923Y-64446189D01*
X74724923Y-64446195D01*
X74723270Y-66852906D01*
X74721781Y-69019968D01*
X74721781Y-69019971D01*
X74716440Y-76796068D01*
X74716405Y-76796434D01*
X74716405Y-76848479D01*
X74716378Y-76887707D01*
X74716404Y-76887840D01*
X74731773Y-76924945D01*
X74731756Y-76924952D01*
X74731803Y-76925018D01*
X74746851Y-76961416D01*
X74746852Y-76961418D01*
X74746924Y-76961525D01*
X74746930Y-76961534D01*
X74774971Y-76989575D01*
X74775014Y-76989653D01*
X74775032Y-76989636D01*
X74803214Y-77017857D01*
X74803216Y-77017858D01*
X74803227Y-77017865D01*
X74803326Y-77017930D01*
X74803331Y-77017935D01*
X74835734Y-77031356D01*
X74839666Y-77032985D01*
X74839745Y-77033018D01*
X74853532Y-77038740D01*
X74907905Y-77082619D01*
X74929924Y-77148928D01*
X74930000Y-77153268D01*
X74930000Y-78587383D01*
X74910315Y-78654422D01*
X74857511Y-78700177D01*
X74825398Y-78709856D01*
X74625465Y-78741522D01*
X74430776Y-78804781D01*
X74248386Y-78897715D01*
X74082786Y-79018028D01*
X73938028Y-79162786D01*
X73817715Y-79328386D01*
X73724781Y-79510776D01*
X73666574Y-79689921D01*
X73661523Y-79705466D01*
X73629856Y-79905399D01*
X73599928Y-79968533D01*
X73540616Y-80005464D01*
X73507384Y-80010000D01*
X72036415Y-80010000D01*
X71969376Y-79990315D01*
X71923621Y-79937511D01*
X71921837Y-79933411D01*
X71911918Y-79909441D01*
X71911881Y-79909385D01*
X71883755Y-79881259D01*
X71883735Y-79881222D01*
X71883727Y-79881231D01*
X71855531Y-79853016D01*
X71855484Y-79852985D01*
X71819392Y-79838035D01*
X71819356Y-79838020D01*
X71781822Y-79822459D01*
X71781787Y-79822459D01*
X71742371Y-79822459D01*
X61339678Y-79819033D01*
X61339675Y-79819033D01*
X59307984Y-79818364D01*
X59307982Y-79818364D01*
X52296637Y-79816056D01*
X52296635Y-79816056D01*
X51842228Y-79815906D01*
X51842225Y-79815906D01*
X32437275Y-79809517D01*
X32437106Y-79809500D01*
X32424882Y-79809500D01*
X32384666Y-79809500D01*
X32345184Y-79809487D01*
X32345183Y-79809487D01*
X32345177Y-79809487D01*
X32345117Y-79809498D01*
X32307672Y-79825010D01*
X32307660Y-79825015D01*
X32307634Y-79825026D01*
X32290566Y-79832089D01*
X32271449Y-79840000D01*
X32243245Y-79868204D01*
X32215037Y-79896393D01*
X32200088Y-79932481D01*
X32200060Y-79932550D01*
X32199655Y-79933526D01*
X32155779Y-79987901D01*
X32089471Y-80009924D01*
X32085124Y-80010000D01*
X30632616Y-80010000D01*
X30565577Y-79990315D01*
X30519822Y-79937511D01*
X30510144Y-79905402D01*
X30478477Y-79705466D01*
X30415220Y-79510781D01*
X30415218Y-79510778D01*
X30415218Y-79510776D01*
X30358161Y-79398797D01*
X30322287Y-79328390D01*
X30314556Y-79317749D01*
X30201971Y-79162786D01*
X30057213Y-79018028D01*
X29891613Y-78897715D01*
X29891612Y-78897714D01*
X29891610Y-78897713D01*
X29834653Y-78868691D01*
X29709223Y-78804781D01*
X29514534Y-78741522D01*
X29314602Y-78709856D01*
X29251467Y-78679927D01*
X29214536Y-78620615D01*
X29210000Y-78587383D01*
X29210000Y-77938839D01*
X30208000Y-77938839D01*
X30362155Y-78017386D01*
X30366448Y-78019681D01*
X30392144Y-78034071D01*
X30396344Y-78036533D01*
X30429767Y-78057014D01*
X30433869Y-78059639D01*
X30458363Y-78076005D01*
X30462358Y-78078790D01*
X30659696Y-78222163D01*
X30663584Y-78225106D01*
X30686743Y-78243365D01*
X30690508Y-78246455D01*
X30720315Y-78271916D01*
X30723954Y-78275150D01*
X30745559Y-78295124D01*
X30749063Y-78298494D01*
X30921506Y-78470937D01*
X30924876Y-78474441D01*
X30944850Y-78496046D01*
X30948084Y-78499685D01*
X30973545Y-78529492D01*
X30976635Y-78533257D01*
X30994894Y-78556416D01*
X30997837Y-78560304D01*
X31141210Y-78757642D01*
X31143995Y-78761637D01*
X31160361Y-78786131D01*
X31162986Y-78790233D01*
X31183467Y-78823656D01*
X31185929Y-78827856D01*
X31200319Y-78853552D01*
X31202614Y-78857845D01*
X31281161Y-79012000D01*
X31626000Y-79012000D01*
X31626000Y-77624000D01*
X30208000Y-77624000D01*
X30208000Y-77938839D01*
X29210000Y-77938839D01*
X29210000Y-77207135D01*
X32939500Y-77207135D01*
X32939500Y-79002870D01*
X32939501Y-79002876D01*
X32945908Y-79062483D01*
X32996202Y-79197328D01*
X32996206Y-79197335D01*
X33082452Y-79312544D01*
X33082455Y-79312547D01*
X33197664Y-79398793D01*
X33197671Y-79398797D01*
X33332517Y-79449091D01*
X33332516Y-79449091D01*
X33339444Y-79449835D01*
X33392127Y-79455500D01*
X35187872Y-79455499D01*
X35247483Y-79449091D01*
X35382331Y-79398796D01*
X35497546Y-79312546D01*
X35583796Y-79197331D01*
X35632810Y-79065916D01*
X35674681Y-79009984D01*
X35740145Y-78985566D01*
X35808418Y-79000417D01*
X35836673Y-79021569D01*
X35950213Y-79135109D01*
X36122179Y-79260048D01*
X36122181Y-79260049D01*
X36122184Y-79260051D01*
X36311588Y-79356557D01*
X36513757Y-79422246D01*
X36723713Y-79455500D01*
X36723714Y-79455500D01*
X36936286Y-79455500D01*
X36936287Y-79455500D01*
X37146243Y-79422246D01*
X37348412Y-79356557D01*
X37537816Y-79260051D01*
X37624138Y-79197335D01*
X37709786Y-79135109D01*
X37709788Y-79135106D01*
X37709792Y-79135104D01*
X37860104Y-78984792D01*
X37860106Y-78984788D01*
X37860109Y-78984786D01*
X37985048Y-78812820D01*
X37985047Y-78812820D01*
X37985051Y-78812816D01*
X37989514Y-78804054D01*
X38037488Y-78753259D01*
X38105308Y-78736463D01*
X38171444Y-78758999D01*
X38210484Y-78804054D01*
X38210855Y-78804781D01*
X38214951Y-78812820D01*
X38339890Y-78984786D01*
X38490213Y-79135109D01*
X38662179Y-79260048D01*
X38662181Y-79260049D01*
X38662184Y-79260051D01*
X38851588Y-79356557D01*
X39053757Y-79422246D01*
X39263713Y-79455500D01*
X39263714Y-79455500D01*
X39476286Y-79455500D01*
X39476287Y-79455500D01*
X39686243Y-79422246D01*
X39888412Y-79356557D01*
X40077816Y-79260051D01*
X40164138Y-79197335D01*
X40249786Y-79135109D01*
X40249788Y-79135106D01*
X40249792Y-79135104D01*
X40400104Y-78984792D01*
X40400106Y-78984788D01*
X40400109Y-78984786D01*
X40525048Y-78812820D01*
X40525047Y-78812820D01*
X40525051Y-78812816D01*
X40529514Y-78804054D01*
X40577488Y-78753259D01*
X40645308Y-78736463D01*
X40711444Y-78758999D01*
X40750484Y-78804054D01*
X40750855Y-78804781D01*
X40754951Y-78812820D01*
X40879890Y-78984786D01*
X41030213Y-79135109D01*
X41202179Y-79260048D01*
X41202181Y-79260049D01*
X41202184Y-79260051D01*
X41391588Y-79356557D01*
X41593757Y-79422246D01*
X41803713Y-79455500D01*
X41803714Y-79455500D01*
X42016286Y-79455500D01*
X42016287Y-79455500D01*
X42226243Y-79422246D01*
X42428412Y-79356557D01*
X42617816Y-79260051D01*
X42704138Y-79197335D01*
X42789786Y-79135109D01*
X42789788Y-79135106D01*
X42789792Y-79135104D01*
X42940104Y-78984792D01*
X42940106Y-78984788D01*
X42940109Y-78984786D01*
X43065048Y-78812820D01*
X43065047Y-78812820D01*
X43065051Y-78812816D01*
X43069514Y-78804054D01*
X43117488Y-78753259D01*
X43185308Y-78736463D01*
X43251444Y-78758999D01*
X43290484Y-78804054D01*
X43290855Y-78804781D01*
X43294951Y-78812820D01*
X43419890Y-78984786D01*
X43570213Y-79135109D01*
X43742179Y-79260048D01*
X43742181Y-79260049D01*
X43742184Y-79260051D01*
X43931588Y-79356557D01*
X44133757Y-79422246D01*
X44343713Y-79455500D01*
X44343714Y-79455500D01*
X44556286Y-79455500D01*
X44556287Y-79455500D01*
X44766243Y-79422246D01*
X44968412Y-79356557D01*
X45157816Y-79260051D01*
X45244138Y-79197335D01*
X45329786Y-79135109D01*
X45329788Y-79135106D01*
X45329792Y-79135104D01*
X45480104Y-78984792D01*
X45480106Y-78984788D01*
X45480109Y-78984786D01*
X45605048Y-78812820D01*
X45605047Y-78812820D01*
X45605051Y-78812816D01*
X45609514Y-78804054D01*
X45657488Y-78753259D01*
X45725308Y-78736463D01*
X45791444Y-78758999D01*
X45830484Y-78804054D01*
X45830855Y-78804781D01*
X45834951Y-78812820D01*
X45959890Y-78984786D01*
X46110213Y-79135109D01*
X46282179Y-79260048D01*
X46282181Y-79260049D01*
X46282184Y-79260051D01*
X46471588Y-79356557D01*
X46673757Y-79422246D01*
X46883713Y-79455500D01*
X46883714Y-79455500D01*
X47096286Y-79455500D01*
X47096287Y-79455500D01*
X47306243Y-79422246D01*
X47508412Y-79356557D01*
X47697816Y-79260051D01*
X47784138Y-79197335D01*
X47869786Y-79135109D01*
X47869788Y-79135106D01*
X47869792Y-79135104D01*
X48020104Y-78984792D01*
X48020106Y-78984788D01*
X48020109Y-78984786D01*
X48145048Y-78812820D01*
X48145047Y-78812820D01*
X48145051Y-78812816D01*
X48149514Y-78804054D01*
X48197488Y-78753259D01*
X48265308Y-78736463D01*
X48331444Y-78758999D01*
X48370484Y-78804054D01*
X48370855Y-78804781D01*
X48374951Y-78812820D01*
X48499890Y-78984786D01*
X48650213Y-79135109D01*
X48822179Y-79260048D01*
X48822181Y-79260049D01*
X48822184Y-79260051D01*
X49011588Y-79356557D01*
X49213757Y-79422246D01*
X49423713Y-79455500D01*
X49423714Y-79455500D01*
X49636286Y-79455500D01*
X49636287Y-79455500D01*
X49846243Y-79422246D01*
X50048412Y-79356557D01*
X50237816Y-79260051D01*
X50324138Y-79197335D01*
X50409786Y-79135109D01*
X50409788Y-79135106D01*
X50409792Y-79135104D01*
X50560104Y-78984792D01*
X50560106Y-78984788D01*
X50560109Y-78984786D01*
X50573940Y-78965748D01*
X50685051Y-78812816D01*
X50733031Y-78718649D01*
X50747159Y-78746377D01*
X50807925Y-78731329D01*
X50874060Y-78753866D01*
X50913101Y-78798920D01*
X50918937Y-78810374D01*
X50957706Y-78863737D01*
X50957707Y-78863737D01*
X51587037Y-78234408D01*
X51604075Y-78297993D01*
X51669901Y-78412007D01*
X51762993Y-78505099D01*
X51877007Y-78570925D01*
X51940591Y-78587962D01*
X51311261Y-79217291D01*
X51364630Y-79256065D01*
X51553379Y-79352238D01*
X51754845Y-79417698D01*
X51964081Y-79450838D01*
X52175919Y-79450838D01*
X52385152Y-79417698D01*
X52385155Y-79417698D01*
X52586620Y-79352238D01*
X52775373Y-79256063D01*
X52828737Y-79217291D01*
X52828738Y-79217291D01*
X52199408Y-78587962D01*
X52262993Y-78570925D01*
X52377007Y-78505099D01*
X52470099Y-78412007D01*
X52535925Y-78297993D01*
X52552962Y-78234408D01*
X53182291Y-78863738D01*
X53182291Y-78863737D01*
X53221064Y-78810371D01*
X53226898Y-78798923D01*
X53274871Y-78748126D01*
X53342692Y-78731329D01*
X53391954Y-78748115D01*
X53406968Y-78718648D01*
X53454949Y-78812816D01*
X53566058Y-78965746D01*
X53566058Y-78965748D01*
X53579890Y-78984786D01*
X53730213Y-79135109D01*
X53902179Y-79260048D01*
X53902181Y-79260049D01*
X53902184Y-79260051D01*
X54091588Y-79356557D01*
X54293757Y-79422246D01*
X54503713Y-79455500D01*
X54503714Y-79455500D01*
X54716286Y-79455500D01*
X54716287Y-79455500D01*
X54926243Y-79422246D01*
X55128412Y-79356557D01*
X55317816Y-79260051D01*
X55404138Y-79197335D01*
X55489786Y-79135109D01*
X55489788Y-79135106D01*
X55489792Y-79135104D01*
X55640104Y-78984792D01*
X55640106Y-78984788D01*
X55640109Y-78984786D01*
X55759970Y-78819809D01*
X57624000Y-78819809D01*
X57977000Y-78819925D01*
X57977000Y-78154454D01*
X57986439Y-78107002D01*
X57987268Y-78105000D01*
X57986439Y-78102998D01*
X57977000Y-78055546D01*
X57977000Y-77624000D01*
X57624000Y-77624000D01*
X57624000Y-78819809D01*
X55759970Y-78819809D01*
X55765048Y-78812820D01*
X55765047Y-78812820D01*
X55765051Y-78812816D01*
X55861557Y-78623412D01*
X55927246Y-78421243D01*
X55960500Y-78211287D01*
X55960500Y-77998713D01*
X55927246Y-77788757D01*
X55861557Y-77586588D01*
X55765051Y-77397184D01*
X55765049Y-77397181D01*
X55765048Y-77397179D01*
X55640109Y-77225213D01*
X55622051Y-77207155D01*
X58975000Y-77207155D01*
X58975000Y-77855000D01*
X59891988Y-77855000D01*
X59859075Y-77912007D01*
X59825000Y-78039174D01*
X59825000Y-78170826D01*
X59859075Y-78297993D01*
X59891988Y-78355000D01*
X58975000Y-78355000D01*
X58975000Y-79002844D01*
X58981401Y-79062372D01*
X58981403Y-79062379D01*
X59031645Y-79197086D01*
X59031649Y-79197093D01*
X59117809Y-79312187D01*
X59117812Y-79312190D01*
X59232906Y-79398350D01*
X59232913Y-79398354D01*
X59367620Y-79448596D01*
X59367627Y-79448598D01*
X59427155Y-79454999D01*
X59427172Y-79455000D01*
X61222828Y-79455000D01*
X61222844Y-79454999D01*
X61282372Y-79448598D01*
X61282379Y-79448596D01*
X61417086Y-79398354D01*
X61417093Y-79398350D01*
X61532187Y-79312190D01*
X61532190Y-79312187D01*
X61618350Y-79197093D01*
X61618354Y-79197086D01*
X61667422Y-79065529D01*
X61709293Y-79009595D01*
X61774757Y-78985178D01*
X61799000Y-78990451D01*
X61799000Y-78935385D01*
X61834896Y-78984792D01*
X61985208Y-79135104D01*
X62026115Y-79164824D01*
X62026115Y-79164825D01*
X62157179Y-79260048D01*
X62157181Y-79260049D01*
X62157184Y-79260051D01*
X62346588Y-79356557D01*
X62548757Y-79422246D01*
X62758713Y-79455500D01*
X62758714Y-79455500D01*
X62971286Y-79455500D01*
X62971287Y-79455500D01*
X63181243Y-79422246D01*
X63383412Y-79356557D01*
X63572816Y-79260051D01*
X63659138Y-79197335D01*
X63744786Y-79135109D01*
X63744788Y-79135106D01*
X63744792Y-79135104D01*
X63895104Y-78984792D01*
X63895106Y-78984788D01*
X63895109Y-78984786D01*
X64020048Y-78812820D01*
X64020047Y-78812820D01*
X64020051Y-78812816D01*
X64024514Y-78804054D01*
X64072488Y-78753259D01*
X64140308Y-78736463D01*
X64206444Y-78758999D01*
X64245484Y-78804054D01*
X64245855Y-78804781D01*
X64249951Y-78812820D01*
X64374890Y-78984786D01*
X64525213Y-79135109D01*
X64697179Y-79260048D01*
X64697181Y-79260049D01*
X64697184Y-79260051D01*
X64886588Y-79356557D01*
X65088757Y-79422246D01*
X65298713Y-79455500D01*
X65298714Y-79455500D01*
X65511286Y-79455500D01*
X65511287Y-79455500D01*
X65721243Y-79422246D01*
X65923412Y-79356557D01*
X66112816Y-79260051D01*
X66199138Y-79197335D01*
X66284786Y-79135109D01*
X66284788Y-79135106D01*
X66284792Y-79135104D01*
X66435104Y-78984792D01*
X66435106Y-78984788D01*
X66435109Y-78984786D01*
X66560048Y-78812820D01*
X66560047Y-78812820D01*
X66560051Y-78812816D01*
X66564514Y-78804054D01*
X66612488Y-78753259D01*
X66680308Y-78736463D01*
X66746444Y-78758999D01*
X66785484Y-78804054D01*
X66785855Y-78804781D01*
X66789951Y-78812820D01*
X66914890Y-78984786D01*
X67065213Y-79135109D01*
X67237179Y-79260048D01*
X67237181Y-79260049D01*
X67237184Y-79260051D01*
X67426588Y-79356557D01*
X67628757Y-79422246D01*
X67838713Y-79455500D01*
X67838714Y-79455500D01*
X68051286Y-79455500D01*
X68051287Y-79455500D01*
X68261243Y-79422246D01*
X68463412Y-79356557D01*
X68652816Y-79260051D01*
X68739138Y-79197335D01*
X68824786Y-79135109D01*
X68824788Y-79135106D01*
X68824792Y-79135104D01*
X68975104Y-78984792D01*
X68975106Y-78984788D01*
X68975109Y-78984786D01*
X69091967Y-78823943D01*
X70180759Y-78823943D01*
X71626000Y-78824420D01*
X71626000Y-77879261D01*
X72624000Y-77879261D01*
X72624000Y-79012000D01*
X72858839Y-79012000D01*
X72937386Y-78857845D01*
X72939681Y-78853552D01*
X72954071Y-78827856D01*
X72956533Y-78823656D01*
X72977014Y-78790233D01*
X72979639Y-78786131D01*
X72996005Y-78761637D01*
X72998790Y-78757642D01*
X73142163Y-78560304D01*
X73145106Y-78556416D01*
X73163365Y-78533257D01*
X73166455Y-78529492D01*
X73191916Y-78499685D01*
X73195150Y-78496046D01*
X73215124Y-78474441D01*
X73218494Y-78470937D01*
X73390937Y-78298494D01*
X73394441Y-78295124D01*
X73416046Y-78275150D01*
X73419685Y-78271916D01*
X73449492Y-78246455D01*
X73453257Y-78243365D01*
X73476416Y-78225106D01*
X73480304Y-78222163D01*
X73677642Y-78078790D01*
X73681637Y-78076005D01*
X73706131Y-78059639D01*
X73710233Y-78057014D01*
X73743656Y-78036533D01*
X73747856Y-78034071D01*
X73773552Y-78019681D01*
X73777845Y-78017386D01*
X73932000Y-77938839D01*
X73932000Y-77735826D01*
X73907175Y-77746107D01*
X73902647Y-77747879D01*
X73875037Y-77758064D01*
X73870440Y-77759658D01*
X73631007Y-77837455D01*
X73626347Y-77838869D01*
X73598005Y-77846862D01*
X73593300Y-77848089D01*
X73555183Y-77857242D01*
X73550423Y-77858287D01*
X73521523Y-77864036D01*
X73516728Y-77864892D01*
X73268059Y-77904277D01*
X73263236Y-77904944D01*
X73234003Y-77908404D01*
X73229165Y-77908881D01*
X73190086Y-77911959D01*
X73185221Y-77912246D01*
X73155769Y-77913404D01*
X73150897Y-77913500D01*
X72899103Y-77913500D01*
X72894231Y-77913404D01*
X72864779Y-77912246D01*
X72859914Y-77911959D01*
X72820835Y-77908881D01*
X72815997Y-77908404D01*
X72786764Y-77904944D01*
X72781941Y-77904277D01*
X72624000Y-77879261D01*
X71626000Y-77879261D01*
X71626000Y-77624000D01*
X70246591Y-77624000D01*
X70284277Y-77861941D01*
X70284944Y-77866764D01*
X70288404Y-77895997D01*
X70288881Y-77900835D01*
X70291959Y-77939914D01*
X70292246Y-77944779D01*
X70293404Y-77974231D01*
X70293500Y-77979103D01*
X70293500Y-78230897D01*
X70293404Y-78235769D01*
X70292246Y-78265221D01*
X70291959Y-78270086D01*
X70288881Y-78309165D01*
X70288404Y-78314003D01*
X70284944Y-78343236D01*
X70284277Y-78348059D01*
X70244892Y-78596728D01*
X70244036Y-78601523D01*
X70238287Y-78630423D01*
X70237242Y-78635183D01*
X70228089Y-78673300D01*
X70226862Y-78678005D01*
X70218869Y-78706347D01*
X70217455Y-78711007D01*
X70180759Y-78823943D01*
X69091967Y-78823943D01*
X69100048Y-78812820D01*
X69100047Y-78812820D01*
X69100051Y-78812816D01*
X69196557Y-78623412D01*
X69262246Y-78421243D01*
X69295500Y-78211287D01*
X69295500Y-77998713D01*
X69262246Y-77788757D01*
X69196557Y-77586588D01*
X69100051Y-77397184D01*
X69100049Y-77397181D01*
X69100048Y-77397179D01*
X68975109Y-77225213D01*
X68824786Y-77074890D01*
X68652820Y-76949951D01*
X68463414Y-76853444D01*
X68463413Y-76853443D01*
X68463412Y-76853443D01*
X68261243Y-76787754D01*
X68261241Y-76787753D01*
X68261240Y-76787753D01*
X68099957Y-76762208D01*
X68051287Y-76754500D01*
X67838713Y-76754500D01*
X67790042Y-76762208D01*
X67628760Y-76787753D01*
X67426585Y-76853444D01*
X67237179Y-76949951D01*
X67065213Y-77074890D01*
X66914890Y-77225213D01*
X66789949Y-77397182D01*
X66785484Y-77405946D01*
X66737509Y-77456742D01*
X66669688Y-77473536D01*
X66603553Y-77450998D01*
X66564516Y-77405946D01*
X66560050Y-77397182D01*
X66435109Y-77225213D01*
X66284786Y-77074890D01*
X66112820Y-76949951D01*
X65923414Y-76853444D01*
X65923413Y-76853443D01*
X65923412Y-76853443D01*
X65721243Y-76787754D01*
X65721241Y-76787753D01*
X65721240Y-76787753D01*
X65559957Y-76762208D01*
X65511287Y-76754500D01*
X65298713Y-76754500D01*
X65250042Y-76762208D01*
X65088760Y-76787753D01*
X64886585Y-76853444D01*
X64697179Y-76949951D01*
X64525213Y-77074890D01*
X64374890Y-77225213D01*
X64249949Y-77397182D01*
X64245484Y-77405946D01*
X64197509Y-77456742D01*
X64129688Y-77473536D01*
X64063553Y-77450998D01*
X64024516Y-77405946D01*
X64020050Y-77397182D01*
X63895109Y-77225213D01*
X63744786Y-77074890D01*
X63572820Y-76949951D01*
X63383414Y-76853444D01*
X63383413Y-76853443D01*
X63383412Y-76853443D01*
X63181243Y-76787754D01*
X63181241Y-76787753D01*
X63181240Y-76787753D01*
X63019957Y-76762208D01*
X62971287Y-76754500D01*
X62758713Y-76754500D01*
X62710042Y-76762208D01*
X62548760Y-76787753D01*
X62346585Y-76853444D01*
X62157179Y-76949951D01*
X62026115Y-77045173D01*
X62026115Y-77045175D01*
X61985208Y-77074896D01*
X61834896Y-77225208D01*
X61799000Y-77274614D01*
X61799000Y-77221519D01*
X61740270Y-77217319D01*
X61684337Y-77175447D01*
X61667422Y-77144470D01*
X61618354Y-77012913D01*
X61618350Y-77012906D01*
X61532190Y-76897812D01*
X61532187Y-76897809D01*
X61417093Y-76811649D01*
X61417086Y-76811645D01*
X61282379Y-76761403D01*
X61282372Y-76761401D01*
X61222844Y-76755000D01*
X60575000Y-76755000D01*
X60575000Y-77671988D01*
X60517993Y-77639075D01*
X60390826Y-77605000D01*
X60259174Y-77605000D01*
X60132007Y-77639075D01*
X60075000Y-77671988D01*
X60075000Y-76755000D01*
X59427155Y-76755000D01*
X59367627Y-76761401D01*
X59367620Y-76761403D01*
X59232913Y-76811645D01*
X59232906Y-76811649D01*
X59117812Y-76897809D01*
X59117809Y-76897812D01*
X59031649Y-77012906D01*
X59031645Y-77012913D01*
X58981403Y-77147620D01*
X58981401Y-77147627D01*
X58975000Y-77207155D01*
X55622051Y-77207155D01*
X55489786Y-77074890D01*
X55317820Y-76949951D01*
X55128414Y-76853444D01*
X55128413Y-76853443D01*
X55128412Y-76853443D01*
X54926243Y-76787754D01*
X54926241Y-76787753D01*
X54926240Y-76787753D01*
X54764957Y-76762208D01*
X54716287Y-76754500D01*
X54503713Y-76754500D01*
X54455042Y-76762208D01*
X54293760Y-76787753D01*
X54091585Y-76853444D01*
X53902179Y-76949951D01*
X53730213Y-77074890D01*
X53579890Y-77225213D01*
X53566058Y-77244250D01*
X53566059Y-77244252D01*
X53454949Y-77397184D01*
X53406968Y-77491350D01*
X53392840Y-77463622D01*
X53332072Y-77478670D01*
X53265937Y-77456132D01*
X53226899Y-77411079D01*
X53221065Y-77399630D01*
X53182291Y-77346261D01*
X52552962Y-77975590D01*
X52535925Y-77912007D01*
X52470099Y-77797993D01*
X52377007Y-77704901D01*
X52262993Y-77639075D01*
X52199409Y-77622037D01*
X52828737Y-76992707D01*
X52828737Y-76992706D01*
X52775374Y-76953937D01*
X52586620Y-76857761D01*
X52385154Y-76792301D01*
X52175919Y-76759162D01*
X51964081Y-76759162D01*
X51754847Y-76792301D01*
X51754844Y-76792301D01*
X51553379Y-76857761D01*
X51364623Y-76953938D01*
X51311261Y-76992706D01*
X51311261Y-76992707D01*
X51940591Y-77622037D01*
X51877007Y-77639075D01*
X51762993Y-77704901D01*
X51669901Y-77797993D01*
X51604075Y-77912007D01*
X51587037Y-77975591D01*
X50957707Y-77346261D01*
X50957706Y-77346261D01*
X50918936Y-77399626D01*
X50913099Y-77411082D01*
X50865123Y-77461877D01*
X50797302Y-77478670D01*
X50748046Y-77461883D01*
X50733031Y-77491350D01*
X50685051Y-77397184D01*
X50573939Y-77244250D01*
X50573940Y-77244250D01*
X50560109Y-77225213D01*
X50409786Y-77074890D01*
X50237820Y-76949951D01*
X50048414Y-76853444D01*
X50048413Y-76853443D01*
X50048412Y-76853443D01*
X49846243Y-76787754D01*
X49846241Y-76787753D01*
X49846240Y-76787753D01*
X49684957Y-76762208D01*
X49636287Y-76754500D01*
X49423713Y-76754500D01*
X49375042Y-76762208D01*
X49213760Y-76787753D01*
X49011585Y-76853444D01*
X48822179Y-76949951D01*
X48650213Y-77074890D01*
X48499890Y-77225213D01*
X48374949Y-77397182D01*
X48370484Y-77405946D01*
X48322509Y-77456742D01*
X48254688Y-77473536D01*
X48188553Y-77450998D01*
X48149516Y-77405946D01*
X48145050Y-77397182D01*
X48020109Y-77225213D01*
X47869786Y-77074890D01*
X47697820Y-76949951D01*
X47508414Y-76853444D01*
X47508413Y-76853443D01*
X47508412Y-76853443D01*
X47306243Y-76787754D01*
X47306241Y-76787753D01*
X47306240Y-76787753D01*
X47144957Y-76762208D01*
X47096287Y-76754500D01*
X46883713Y-76754500D01*
X46835042Y-76762208D01*
X46673760Y-76787753D01*
X46471585Y-76853444D01*
X46282179Y-76949951D01*
X46110213Y-77074890D01*
X45959890Y-77225213D01*
X45834949Y-77397182D01*
X45830484Y-77405946D01*
X45782509Y-77456742D01*
X45714688Y-77473536D01*
X45648553Y-77450998D01*
X45609516Y-77405946D01*
X45605050Y-77397182D01*
X45480109Y-77225213D01*
X45329786Y-77074890D01*
X45157820Y-76949951D01*
X44968414Y-76853444D01*
X44968413Y-76853443D01*
X44968412Y-76853443D01*
X44766243Y-76787754D01*
X44766241Y-76787753D01*
X44766240Y-76787753D01*
X44604957Y-76762208D01*
X44556287Y-76754500D01*
X44343713Y-76754500D01*
X44295042Y-76762208D01*
X44133760Y-76787753D01*
X43931585Y-76853444D01*
X43742179Y-76949951D01*
X43570213Y-77074890D01*
X43419890Y-77225213D01*
X43294949Y-77397182D01*
X43290484Y-77405946D01*
X43242509Y-77456742D01*
X43174688Y-77473536D01*
X43108553Y-77450998D01*
X43069516Y-77405946D01*
X43065050Y-77397182D01*
X42940109Y-77225213D01*
X42789786Y-77074890D01*
X42617820Y-76949951D01*
X42428414Y-76853444D01*
X42428413Y-76853443D01*
X42428412Y-76853443D01*
X42226243Y-76787754D01*
X42226241Y-76787753D01*
X42226240Y-76787753D01*
X42064957Y-76762208D01*
X42016287Y-76754500D01*
X41803713Y-76754500D01*
X41755042Y-76762208D01*
X41593760Y-76787753D01*
X41391585Y-76853444D01*
X41202179Y-76949951D01*
X41030213Y-77074890D01*
X40879890Y-77225213D01*
X40754949Y-77397182D01*
X40750484Y-77405946D01*
X40702509Y-77456742D01*
X40634688Y-77473536D01*
X40568553Y-77450998D01*
X40529516Y-77405946D01*
X40525050Y-77397182D01*
X40400109Y-77225213D01*
X40249786Y-77074890D01*
X40077820Y-76949951D01*
X39888414Y-76853444D01*
X39888413Y-76853443D01*
X39888412Y-76853443D01*
X39686243Y-76787754D01*
X39686241Y-76787753D01*
X39686240Y-76787753D01*
X39524957Y-76762208D01*
X39476287Y-76754500D01*
X39263713Y-76754500D01*
X39215042Y-76762208D01*
X39053760Y-76787753D01*
X38851585Y-76853444D01*
X38662179Y-76949951D01*
X38490213Y-77074890D01*
X38339890Y-77225213D01*
X38214949Y-77397182D01*
X38210484Y-77405946D01*
X38162509Y-77456742D01*
X38094688Y-77473536D01*
X38028553Y-77450998D01*
X37989516Y-77405946D01*
X37985050Y-77397182D01*
X37860109Y-77225213D01*
X37709786Y-77074890D01*
X37537820Y-76949951D01*
X37348414Y-76853444D01*
X37348413Y-76853443D01*
X37348412Y-76853443D01*
X37146243Y-76787754D01*
X37146241Y-76787753D01*
X37146240Y-76787753D01*
X36984957Y-76762208D01*
X36936287Y-76754500D01*
X36723713Y-76754500D01*
X36675042Y-76762208D01*
X36513760Y-76787753D01*
X36311585Y-76853444D01*
X36122179Y-76949951D01*
X35950215Y-77074889D01*
X35836673Y-77188431D01*
X35775350Y-77221915D01*
X35705658Y-77216931D01*
X35649725Y-77175059D01*
X35632810Y-77144082D01*
X35583797Y-77012671D01*
X35583793Y-77012664D01*
X35497547Y-76897455D01*
X35497544Y-76897452D01*
X35382335Y-76811206D01*
X35382328Y-76811202D01*
X35247482Y-76760908D01*
X35247483Y-76760908D01*
X35187883Y-76754501D01*
X35187881Y-76754500D01*
X35187873Y-76754500D01*
X35187864Y-76754500D01*
X33392129Y-76754500D01*
X33392123Y-76754501D01*
X33332516Y-76760908D01*
X33197671Y-76811202D01*
X33197664Y-76811206D01*
X33082455Y-76897452D01*
X33082452Y-76897455D01*
X32996206Y-77012664D01*
X32996202Y-77012671D01*
X32945908Y-77147517D01*
X32939501Y-77207116D01*
X32939500Y-77207135D01*
X29210000Y-77207135D01*
X29210000Y-77134873D01*
X29229685Y-77067834D01*
X29282489Y-77022079D01*
X29286495Y-77020334D01*
X29323574Y-77004976D01*
X29379976Y-76948574D01*
X29410500Y-76874882D01*
X29410500Y-76795118D01*
X29410500Y-76626000D01*
X30408500Y-76626000D01*
X31626000Y-76626000D01*
X31626000Y-75993990D01*
X32624000Y-75993990D01*
X32628126Y-75990902D01*
X32635396Y-75985854D01*
X32680463Y-75956890D01*
X32688077Y-75952372D01*
X32750667Y-75918195D01*
X32758581Y-75914233D01*
X32807318Y-75891975D01*
X32815498Y-75888587D01*
X33012982Y-75814931D01*
X33020321Y-75812452D01*
X33065172Y-75798847D01*
X33072648Y-75796832D01*
X33133363Y-75782484D01*
X33140955Y-75780939D01*
X33187160Y-75773028D01*
X33194833Y-75771959D01*
X33298755Y-75760788D01*
X33302064Y-75760477D01*
X33322101Y-75758865D01*
X33325413Y-75758643D01*
X33352095Y-75757214D01*
X33355413Y-75757081D01*
X33375464Y-75756545D01*
X33378778Y-75756501D01*
X34126000Y-75756500D01*
X35124000Y-75756500D01*
X35201248Y-75756500D01*
X35204572Y-75756545D01*
X35224673Y-75757084D01*
X35227993Y-75757217D01*
X35254680Y-75758649D01*
X35257989Y-75758871D01*
X35277982Y-75760481D01*
X35281285Y-75760792D01*
X35385175Y-75771962D01*
X35392843Y-75773029D01*
X35439029Y-75780936D01*
X35446619Y-75782481D01*
X35507330Y-75796826D01*
X35514809Y-75798842D01*
X35559672Y-75812450D01*
X35567012Y-75814929D01*
X35764502Y-75888587D01*
X35772682Y-75891975D01*
X35821419Y-75914233D01*
X35829333Y-75918195D01*
X35887442Y-75949925D01*
X35907139Y-75940846D01*
X35911608Y-75938891D01*
X35947825Y-75923893D01*
X35952353Y-75922121D01*
X35979963Y-75911936D01*
X35984560Y-75910342D01*
X36036003Y-75893627D01*
X37624000Y-75893627D01*
X37675440Y-75910342D01*
X37680037Y-75911936D01*
X37707647Y-75922121D01*
X37712175Y-75923893D01*
X37748392Y-75938891D01*
X37752861Y-75940846D01*
X37779636Y-75953189D01*
X37784019Y-75955314D01*
X38008361Y-76069622D01*
X38012654Y-76071917D01*
X38038350Y-76086307D01*
X38042550Y-76088769D01*
X38075973Y-76109250D01*
X38080073Y-76111874D01*
X38100000Y-76125187D01*
X38119927Y-76111874D01*
X38124027Y-76109250D01*
X38157450Y-76088769D01*
X38161650Y-76086307D01*
X38187346Y-76071917D01*
X38191639Y-76069622D01*
X38415981Y-75955314D01*
X38420364Y-75953189D01*
X38447139Y-75940846D01*
X38451608Y-75938891D01*
X38487825Y-75923893D01*
X38492353Y-75922121D01*
X38519963Y-75911936D01*
X38524560Y-75910342D01*
X38616000Y-75880631D01*
X40124000Y-75880631D01*
X40215440Y-75910342D01*
X40220037Y-75911936D01*
X40247647Y-75922121D01*
X40252175Y-75923893D01*
X40288392Y-75938891D01*
X40292861Y-75940846D01*
X40319636Y-75953189D01*
X40324019Y-75955314D01*
X40548361Y-76069622D01*
X40552654Y-76071917D01*
X40578350Y-76086307D01*
X40582550Y-76088769D01*
X40615973Y-76109250D01*
X40620073Y-76111874D01*
X40640000Y-76125187D01*
X40659927Y-76111874D01*
X40664027Y-76109250D01*
X40697450Y-76088769D01*
X40701650Y-76086307D01*
X40727346Y-76071917D01*
X40731639Y-76069622D01*
X40955981Y-75955314D01*
X40960364Y-75953189D01*
X40987139Y-75940846D01*
X40991608Y-75938891D01*
X41027825Y-75923893D01*
X41032353Y-75922121D01*
X41059963Y-75911936D01*
X41064560Y-75910342D01*
X41196001Y-75867634D01*
X42624000Y-75867634D01*
X42755440Y-75910342D01*
X42760037Y-75911936D01*
X42787647Y-75922121D01*
X42792175Y-75923893D01*
X42828392Y-75938891D01*
X42832861Y-75940846D01*
X42859636Y-75953189D01*
X42864019Y-75955314D01*
X43088361Y-76069622D01*
X43092654Y-76071917D01*
X43118350Y-76086307D01*
X43122550Y-76088769D01*
X43155973Y-76109250D01*
X43160073Y-76111874D01*
X43180000Y-76125187D01*
X43199927Y-76111874D01*
X43204027Y-76109250D01*
X43237450Y-76088769D01*
X43241650Y-76086307D01*
X43267346Y-76071917D01*
X43271639Y-76069622D01*
X43495981Y-75955314D01*
X43500364Y-75953189D01*
X43527139Y-75940846D01*
X43531608Y-75938891D01*
X43567825Y-75923893D01*
X43572353Y-75922121D01*
X43599963Y-75911936D01*
X43604560Y-75910342D01*
X43776001Y-75854637D01*
X45124000Y-75854637D01*
X45295440Y-75910342D01*
X45300037Y-75911936D01*
X45327647Y-75922121D01*
X45332175Y-75923893D01*
X45368392Y-75938891D01*
X45372861Y-75940846D01*
X45399636Y-75953189D01*
X45404019Y-75955314D01*
X45628361Y-76069622D01*
X45632654Y-76071917D01*
X45658350Y-76086307D01*
X45662550Y-76088769D01*
X45695973Y-76109250D01*
X45700073Y-76111874D01*
X45720000Y-76125187D01*
X45739927Y-76111874D01*
X45744027Y-76109250D01*
X45777450Y-76088769D01*
X45781650Y-76086307D01*
X45807346Y-76071917D01*
X45811639Y-76069622D01*
X46035981Y-75955314D01*
X46040364Y-75953189D01*
X46067139Y-75940846D01*
X46071608Y-75938891D01*
X46107825Y-75923893D01*
X46112353Y-75922121D01*
X46139963Y-75911936D01*
X46144560Y-75910342D01*
X46356002Y-75841640D01*
X47624000Y-75841640D01*
X47835440Y-75910342D01*
X47840037Y-75911936D01*
X47867647Y-75922121D01*
X47872175Y-75923893D01*
X47908392Y-75938891D01*
X47912861Y-75940846D01*
X47939636Y-75953189D01*
X47944019Y-75955314D01*
X48168361Y-76069622D01*
X48172654Y-76071917D01*
X48198350Y-76086307D01*
X48202550Y-76088769D01*
X48235973Y-76109250D01*
X48240073Y-76111874D01*
X48260000Y-76125187D01*
X48279927Y-76111874D01*
X48284027Y-76109250D01*
X48317450Y-76088769D01*
X48321650Y-76086307D01*
X48347346Y-76071917D01*
X48351639Y-76069622D01*
X48575981Y-75955314D01*
X48580364Y-75953189D01*
X48607139Y-75940846D01*
X48611608Y-75938891D01*
X48647825Y-75923893D01*
X48652353Y-75922121D01*
X48679963Y-75911936D01*
X48684560Y-75910342D01*
X48923993Y-75832545D01*
X48928653Y-75831131D01*
X48936000Y-75829059D01*
X50124000Y-75829059D01*
X50131347Y-75831131D01*
X50136007Y-75832545D01*
X50375440Y-75910342D01*
X50380037Y-75911936D01*
X50407647Y-75922121D01*
X50412175Y-75923893D01*
X50448392Y-75938891D01*
X50452861Y-75940846D01*
X50479636Y-75953189D01*
X50484019Y-75955314D01*
X50708361Y-76069622D01*
X50712654Y-76071917D01*
X50738350Y-76086307D01*
X50742550Y-76088769D01*
X50775973Y-76109250D01*
X50780073Y-76111874D01*
X50804205Y-76127997D01*
X50822390Y-76115848D01*
X50826495Y-76113221D01*
X50859915Y-76092744D01*
X50864108Y-76090286D01*
X50889792Y-76075902D01*
X50894087Y-76073606D01*
X51117752Y-75959643D01*
X51122130Y-75957520D01*
X51148874Y-75945190D01*
X51153336Y-75943238D01*
X51189552Y-75928236D01*
X51194086Y-75926461D01*
X51221730Y-75916262D01*
X51226333Y-75914666D01*
X51465104Y-75837085D01*
X51469768Y-75835670D01*
X51498145Y-75827668D01*
X51502862Y-75826438D01*
X51516004Y-75823284D01*
X52624000Y-75823284D01*
X52637138Y-75826438D01*
X52641855Y-75827668D01*
X52670232Y-75835670D01*
X52674896Y-75837085D01*
X52913667Y-75914666D01*
X52918270Y-75916262D01*
X52945914Y-75926461D01*
X52950448Y-75928236D01*
X52986664Y-75943238D01*
X52991126Y-75945190D01*
X53017870Y-75957520D01*
X53022248Y-75959643D01*
X53245918Y-76073609D01*
X53250212Y-76075905D01*
X53275907Y-76090295D01*
X53280107Y-76092756D01*
X53313528Y-76113236D01*
X53317627Y-76115860D01*
X53335794Y-76127998D01*
X53359927Y-76111874D01*
X53364027Y-76109250D01*
X53397450Y-76088769D01*
X53401650Y-76086307D01*
X53427346Y-76071917D01*
X53431639Y-76069622D01*
X53655981Y-75955314D01*
X53660364Y-75953189D01*
X53687139Y-75940846D01*
X53691608Y-75938891D01*
X53727825Y-75923893D01*
X53732353Y-75922121D01*
X53759963Y-75911936D01*
X53764560Y-75910342D01*
X54003993Y-75832545D01*
X54008653Y-75831131D01*
X54036995Y-75823138D01*
X54041700Y-75821911D01*
X54079817Y-75812758D01*
X54084577Y-75811713D01*
X54096003Y-75809440D01*
X55124000Y-75809440D01*
X55135423Y-75811713D01*
X55140183Y-75812758D01*
X55178300Y-75821911D01*
X55183005Y-75823138D01*
X55211347Y-75831131D01*
X55216007Y-75832545D01*
X55455440Y-75910342D01*
X55460037Y-75911936D01*
X55487647Y-75922121D01*
X55492175Y-75923893D01*
X55528392Y-75938891D01*
X55532861Y-75940846D01*
X55559636Y-75953189D01*
X55564019Y-75955314D01*
X55788361Y-76069622D01*
X55792654Y-76071917D01*
X55818350Y-76086307D01*
X55822550Y-76088769D01*
X55855973Y-76109250D01*
X55860073Y-76111874D01*
X55884568Y-76128240D01*
X55888565Y-76131026D01*
X56092269Y-76279025D01*
X56096157Y-76281968D01*
X56119316Y-76300227D01*
X56123081Y-76303317D01*
X56152888Y-76328778D01*
X56156527Y-76332012D01*
X56178132Y-76351986D01*
X56181636Y-76355356D01*
X56359644Y-76533364D01*
X56363014Y-76536868D01*
X56382988Y-76558473D01*
X56386222Y-76562112D01*
X56411683Y-76591919D01*
X56414773Y-76595684D01*
X56433032Y-76618843D01*
X56435975Y-76622731D01*
X56438350Y-76626000D01*
X56626000Y-76626000D01*
X57624000Y-76626000D01*
X58110993Y-76626000D01*
X70124000Y-76626000D01*
X70929824Y-76626000D01*
X70875314Y-76519019D01*
X70873189Y-76514636D01*
X70860846Y-76487861D01*
X70858891Y-76483392D01*
X70843893Y-76447175D01*
X70842121Y-76442647D01*
X70831936Y-76415037D01*
X70830342Y-76410440D01*
X70752545Y-76171007D01*
X70751131Y-76166347D01*
X70743138Y-76138005D01*
X70741911Y-76133300D01*
X70732758Y-76095183D01*
X70731713Y-76090423D01*
X70725964Y-76061523D01*
X70725108Y-76056728D01*
X70685723Y-75808059D01*
X70685056Y-75803236D01*
X70681596Y-75774003D01*
X70681119Y-75769165D01*
X70678041Y-75730086D01*
X70677754Y-75725221D01*
X70676596Y-75695769D01*
X70676500Y-75690897D01*
X70676500Y-75439103D01*
X70676596Y-75434231D01*
X70677754Y-75404779D01*
X70678041Y-75399914D01*
X70681119Y-75360835D01*
X70681596Y-75355997D01*
X70685056Y-75326764D01*
X70685723Y-75321941D01*
X70717074Y-75124000D01*
X70124000Y-75124000D01*
X70124000Y-76626000D01*
X58110993Y-76626000D01*
X58112419Y-76622559D01*
X58134677Y-76573823D01*
X58138638Y-76565909D01*
X58172815Y-76503319D01*
X58177333Y-76495705D01*
X58206297Y-76450638D01*
X58211345Y-76443368D01*
X58340243Y-76271184D01*
X58345796Y-76264293D01*
X58380876Y-76223808D01*
X58386908Y-76217329D01*
X58437329Y-76166908D01*
X58443808Y-76160876D01*
X58484293Y-76125796D01*
X58491184Y-76120243D01*
X58663368Y-75991345D01*
X58670638Y-75986297D01*
X58715705Y-75957333D01*
X58723319Y-75952815D01*
X58785909Y-75918638D01*
X58793823Y-75914677D01*
X58842559Y-75892419D01*
X58850739Y-75889030D01*
X59048096Y-75815421D01*
X59055436Y-75812942D01*
X59100305Y-75799332D01*
X59107788Y-75797315D01*
X59126000Y-75793012D01*
X59126000Y-75757000D01*
X60124000Y-75757000D01*
X60275546Y-75757000D01*
X60322998Y-75766439D01*
X60325000Y-75767268D01*
X60327002Y-75766439D01*
X60374454Y-75757000D01*
X61236177Y-75757000D01*
X61239491Y-75757044D01*
X61259539Y-75757580D01*
X61262855Y-75757713D01*
X61289542Y-75759142D01*
X61292856Y-75759364D01*
X61312905Y-75760977D01*
X61316217Y-75761289D01*
X61420069Y-75772455D01*
X61427738Y-75773522D01*
X61473916Y-75781428D01*
X61481501Y-75782972D01*
X61542212Y-75797315D01*
X61549695Y-75799332D01*
X61594564Y-75812942D01*
X61601904Y-75815421D01*
X61626000Y-75824408D01*
X61626000Y-75765438D01*
X62624000Y-75765438D01*
X62626764Y-75765056D01*
X62655997Y-75761596D01*
X62660835Y-75761119D01*
X62699914Y-75758041D01*
X62704779Y-75757754D01*
X62734231Y-75756596D01*
X62739103Y-75756500D01*
X62990897Y-75756500D01*
X62995769Y-75756596D01*
X63025221Y-75757754D01*
X63030086Y-75758041D01*
X63069165Y-75761119D01*
X63074003Y-75761596D01*
X63103236Y-75765056D01*
X63108059Y-75765723D01*
X63356728Y-75805108D01*
X63361523Y-75805964D01*
X63390423Y-75811713D01*
X63395183Y-75812758D01*
X63433300Y-75821911D01*
X63438005Y-75823138D01*
X63466347Y-75831131D01*
X63471007Y-75832545D01*
X63710440Y-75910342D01*
X63715037Y-75911936D01*
X63742647Y-75922121D01*
X63747175Y-75923893D01*
X63783392Y-75938891D01*
X63787861Y-75940846D01*
X63814636Y-75953189D01*
X63819019Y-75955314D01*
X64043361Y-76069622D01*
X64047654Y-76071917D01*
X64073350Y-76086307D01*
X64077550Y-76088769D01*
X64110973Y-76109250D01*
X64115073Y-76111874D01*
X64126000Y-76119174D01*
X64126000Y-75571078D01*
X65124000Y-75571078D01*
X65124000Y-75771732D01*
X65161941Y-75765723D01*
X65166764Y-75765056D01*
X65195997Y-75761596D01*
X65200835Y-75761119D01*
X65239914Y-75758041D01*
X65244779Y-75757754D01*
X65274231Y-75756596D01*
X65279103Y-75756500D01*
X65530897Y-75756500D01*
X65535769Y-75756596D01*
X65565221Y-75757754D01*
X65570086Y-75758041D01*
X65609165Y-75761119D01*
X65614003Y-75761596D01*
X65643236Y-75765056D01*
X65648059Y-75765723D01*
X65896728Y-75805108D01*
X65901523Y-75805964D01*
X65930423Y-75811713D01*
X65935183Y-75812758D01*
X65973300Y-75821911D01*
X65978005Y-75823138D01*
X66006347Y-75831131D01*
X66011007Y-75832545D01*
X66250440Y-75910342D01*
X66255037Y-75911936D01*
X66282647Y-75922121D01*
X66287175Y-75923893D01*
X66323392Y-75938891D01*
X66327861Y-75940846D01*
X66354636Y-75953189D01*
X66359019Y-75955314D01*
X66583361Y-76069622D01*
X66587654Y-76071917D01*
X66613350Y-76086307D01*
X66617550Y-76088769D01*
X66626000Y-76093947D01*
X66626000Y-75778067D01*
X67624000Y-75778067D01*
X67701941Y-75765723D01*
X67706764Y-75765056D01*
X67735997Y-75761596D01*
X67740835Y-75761119D01*
X67779914Y-75758041D01*
X67784779Y-75757754D01*
X67814231Y-75756596D01*
X67819103Y-75756500D01*
X68070897Y-75756500D01*
X68075769Y-75756596D01*
X68105221Y-75757754D01*
X68110086Y-75758041D01*
X68149165Y-75761119D01*
X68154003Y-75761596D01*
X68183236Y-75765056D01*
X68188059Y-75765723D01*
X68436728Y-75805108D01*
X68441523Y-75805964D01*
X68470423Y-75811713D01*
X68475183Y-75812758D01*
X68513300Y-75821911D01*
X68518005Y-75823138D01*
X68546347Y-75831131D01*
X68551007Y-75832545D01*
X68790440Y-75910342D01*
X68795037Y-75911936D01*
X68822647Y-75922121D01*
X68827175Y-75923893D01*
X68863392Y-75938891D01*
X68867861Y-75940846D01*
X68894636Y-75953189D01*
X68899019Y-75955314D01*
X69123361Y-76069622D01*
X69126000Y-76071032D01*
X69126000Y-75124000D01*
X67624000Y-75124000D01*
X67624000Y-75778067D01*
X66626000Y-75778067D01*
X66626000Y-75124000D01*
X66053958Y-75124000D01*
X66029343Y-75146309D01*
X66024736Y-75150283D01*
X65986853Y-75181373D01*
X65982052Y-75185120D01*
X65952477Y-75207053D01*
X65947503Y-75210555D01*
X65751912Y-75341244D01*
X65746773Y-75344499D01*
X65715195Y-75363427D01*
X65709898Y-75366428D01*
X65666680Y-75389529D01*
X65661244Y-75392265D01*
X65627951Y-75408012D01*
X65622385Y-75410479D01*
X65405044Y-75500504D01*
X65399364Y-75502695D01*
X65364684Y-75515103D01*
X65358905Y-75517012D01*
X65311999Y-75531240D01*
X65306132Y-75532864D01*
X65270405Y-75541812D01*
X65264465Y-75543145D01*
X65124000Y-75571078D01*
X64126000Y-75571078D01*
X64126000Y-75496794D01*
X63917615Y-75410479D01*
X63912049Y-75408012D01*
X63878756Y-75392265D01*
X63873320Y-75389529D01*
X63830102Y-75366428D01*
X63824805Y-75363427D01*
X63793227Y-75344499D01*
X63788088Y-75341244D01*
X63592497Y-75210555D01*
X63587523Y-75207053D01*
X63557948Y-75185120D01*
X63553147Y-75181373D01*
X63515264Y-75150283D01*
X63510657Y-75146309D01*
X63486042Y-75124000D01*
X62624000Y-75124000D01*
X62624000Y-75765438D01*
X61626000Y-75765438D01*
X61626000Y-75124000D01*
X60124000Y-75124000D01*
X60124000Y-75757000D01*
X59126000Y-75757000D01*
X59126000Y-75124000D01*
X57624000Y-75124000D01*
X57624000Y-76626000D01*
X56626000Y-76626000D01*
X56626000Y-75124000D01*
X55124000Y-75124000D01*
X55124000Y-75809440D01*
X54096003Y-75809440D01*
X54113477Y-75805964D01*
X54118271Y-75805108D01*
X54126000Y-75803883D01*
X54126000Y-75124000D01*
X52624000Y-75124000D01*
X52624000Y-75823284D01*
X51516004Y-75823284D01*
X51540980Y-75817290D01*
X51545727Y-75816248D01*
X51574591Y-75810507D01*
X51579383Y-75809652D01*
X51626000Y-75802268D01*
X51626000Y-75124000D01*
X50124000Y-75124000D01*
X50124000Y-75829059D01*
X48936000Y-75829059D01*
X48956995Y-75823138D01*
X48961700Y-75821911D01*
X48999817Y-75812758D01*
X49004577Y-75811713D01*
X49033477Y-75805964D01*
X49038272Y-75805108D01*
X49126000Y-75791213D01*
X49126000Y-75124000D01*
X47624000Y-75124000D01*
X47624000Y-75841640D01*
X46356002Y-75841640D01*
X46383993Y-75832545D01*
X46388653Y-75831131D01*
X46416995Y-75823138D01*
X46421700Y-75821911D01*
X46459817Y-75812758D01*
X46464577Y-75811713D01*
X46493477Y-75805964D01*
X46498272Y-75805108D01*
X46626000Y-75784877D01*
X46626000Y-75124000D01*
X45124000Y-75124000D01*
X45124000Y-75854637D01*
X43776001Y-75854637D01*
X43843993Y-75832545D01*
X43848653Y-75831131D01*
X43876995Y-75823138D01*
X43881700Y-75821911D01*
X43919817Y-75812758D01*
X43924577Y-75811713D01*
X43953477Y-75805964D01*
X43958272Y-75805108D01*
X44126000Y-75778542D01*
X44126000Y-75124000D01*
X42624000Y-75124000D01*
X42624000Y-75867634D01*
X41196001Y-75867634D01*
X41303993Y-75832545D01*
X41308653Y-75831131D01*
X41336995Y-75823138D01*
X41341700Y-75821911D01*
X41379817Y-75812758D01*
X41384577Y-75811713D01*
X41413477Y-75805964D01*
X41418272Y-75805108D01*
X41626000Y-75772207D01*
X41626000Y-75124000D01*
X40124000Y-75124000D01*
X40124000Y-75880631D01*
X38616000Y-75880631D01*
X38763993Y-75832545D01*
X38768653Y-75831131D01*
X38796995Y-75823138D01*
X38801700Y-75821911D01*
X38839817Y-75812758D01*
X38844577Y-75811713D01*
X38873477Y-75805964D01*
X38878272Y-75805108D01*
X39126000Y-75765872D01*
X39126000Y-75124000D01*
X37624000Y-75124000D01*
X37624000Y-75893627D01*
X36036003Y-75893627D01*
X36223993Y-75832545D01*
X36228653Y-75831131D01*
X36256995Y-75823138D01*
X36261700Y-75821911D01*
X36299817Y-75812758D01*
X36304577Y-75811713D01*
X36333477Y-75805964D01*
X36338272Y-75805108D01*
X36586941Y-75765723D01*
X36591764Y-75765056D01*
X36620997Y-75761596D01*
X36625835Y-75761119D01*
X36626000Y-75761106D01*
X36626000Y-75124000D01*
X35124000Y-75124000D01*
X35124000Y-75756500D01*
X34126000Y-75756500D01*
X34126000Y-75124000D01*
X32624000Y-75124000D01*
X32624000Y-75993990D01*
X31626000Y-75993990D01*
X31626000Y-75124000D01*
X30408500Y-75124000D01*
X30408500Y-76626000D01*
X29410500Y-76626000D01*
X29410500Y-74126000D01*
X30408500Y-74126000D01*
X31626000Y-74126000D01*
X32624000Y-74126000D01*
X33324993Y-74126000D01*
X37624000Y-74126000D01*
X39126000Y-74126000D01*
X40124000Y-74126000D01*
X41626000Y-74126000D01*
X42624000Y-74126000D01*
X44126000Y-74126000D01*
X45124000Y-74126000D01*
X46626000Y-74126000D01*
X47624000Y-74126000D01*
X49126000Y-74126000D01*
X49126000Y-73508373D01*
X49077765Y-73498779D01*
X49071823Y-73497445D01*
X49036097Y-73488495D01*
X49030233Y-73486872D01*
X48983338Y-73472646D01*
X48977560Y-73470737D01*
X48942899Y-73458335D01*
X48937222Y-73456145D01*
X48935998Y-73455638D01*
X50124000Y-73455638D01*
X50124000Y-74126000D01*
X51626000Y-74126000D01*
X51626000Y-73547077D01*
X52624000Y-73547077D01*
X52624000Y-74126000D01*
X54126000Y-74126000D01*
X54126000Y-73757782D01*
X55124000Y-73757782D01*
X55124000Y-74126000D01*
X56626000Y-74126000D01*
X57624000Y-74126000D01*
X59126000Y-74126000D01*
X59126000Y-73558500D01*
X60124000Y-73558500D01*
X60124000Y-74126000D01*
X61626000Y-74126000D01*
X61626000Y-73450454D01*
X61617163Y-73454115D01*
X61609570Y-73456973D01*
X61563073Y-73472757D01*
X61555308Y-73475113D01*
X61339452Y-73532952D01*
X61331549Y-73534794D01*
X61283397Y-73544372D01*
X61275395Y-73545694D01*
X61210595Y-73554227D01*
X61202518Y-73555022D01*
X61153508Y-73558235D01*
X61145396Y-73558501D01*
X60923669Y-73558501D01*
X60923637Y-73558500D01*
X60124000Y-73558500D01*
X59126000Y-73558500D01*
X57624000Y-73558500D01*
X57624000Y-74126000D01*
X56626000Y-74126000D01*
X56626000Y-73558500D01*
X56077890Y-73558500D01*
X56073009Y-73561109D01*
X56067574Y-73563845D01*
X56034292Y-73579586D01*
X56028728Y-73582052D01*
X55837778Y-73661145D01*
X55832101Y-73663335D01*
X55797440Y-73675737D01*
X55791662Y-73677646D01*
X55744767Y-73691872D01*
X55738903Y-73693495D01*
X55703177Y-73702445D01*
X55697235Y-73703779D01*
X55494508Y-73744104D01*
X55488511Y-73745145D01*
X55452080Y-73750549D01*
X55446039Y-73751294D01*
X55397267Y-73756097D01*
X55391197Y-73756545D01*
X55354425Y-73758351D01*
X55348342Y-73758500D01*
X55141658Y-73758500D01*
X55135575Y-73758351D01*
X55124000Y-73757782D01*
X54126000Y-73757782D01*
X54126000Y-73551190D01*
X54121197Y-73551545D01*
X54084425Y-73553351D01*
X54078342Y-73553500D01*
X53871658Y-73553500D01*
X53865575Y-73553351D01*
X53828803Y-73551545D01*
X53822733Y-73551097D01*
X53773961Y-73546294D01*
X53767920Y-73545549D01*
X53731489Y-73540145D01*
X53725492Y-73539104D01*
X53522765Y-73498779D01*
X53516823Y-73497445D01*
X53481097Y-73488495D01*
X53475233Y-73486872D01*
X53428338Y-73472646D01*
X53422560Y-73470737D01*
X53396040Y-73461247D01*
X53369520Y-73470737D01*
X53363742Y-73472646D01*
X53316847Y-73486872D01*
X53310983Y-73488495D01*
X53275257Y-73497445D01*
X53269315Y-73498779D01*
X53066588Y-73539104D01*
X53060591Y-73540145D01*
X53024160Y-73545549D01*
X53018119Y-73546294D01*
X52969347Y-73551097D01*
X52963277Y-73551545D01*
X52926505Y-73553351D01*
X52920422Y-73553500D01*
X52713738Y-73553500D01*
X52707655Y-73553351D01*
X52670883Y-73551545D01*
X52664813Y-73551097D01*
X52624000Y-73547077D01*
X51626000Y-73547077D01*
X51626000Y-73106875D01*
X51622835Y-73104007D01*
X51618426Y-73099809D01*
X51472271Y-72953654D01*
X51468073Y-72949245D01*
X51443342Y-72921958D01*
X51439368Y-72917351D01*
X51408279Y-72879469D01*
X51404535Y-72874671D01*
X51382602Y-72845098D01*
X51379097Y-72840122D01*
X51264264Y-72668263D01*
X51261006Y-72663118D01*
X51242071Y-72631525D01*
X51239072Y-72626230D01*
X51237880Y-72624000D01*
X51109200Y-72624000D01*
X51108008Y-72626230D01*
X51105009Y-72631525D01*
X51086074Y-72663118D01*
X51082816Y-72668263D01*
X50967983Y-72840122D01*
X50964478Y-72845098D01*
X50942545Y-72874671D01*
X50938801Y-72879469D01*
X50907712Y-72917351D01*
X50903738Y-72921958D01*
X50879007Y-72949245D01*
X50874809Y-72953654D01*
X50728654Y-73099809D01*
X50724245Y-73104007D01*
X50696958Y-73128738D01*
X50692351Y-73132712D01*
X50654469Y-73163801D01*
X50649671Y-73167545D01*
X50620098Y-73189478D01*
X50615122Y-73192983D01*
X50443263Y-73307816D01*
X50438118Y-73311074D01*
X50406525Y-73330009D01*
X50401230Y-73333008D01*
X50358009Y-73356109D01*
X50352574Y-73358845D01*
X50319292Y-73374586D01*
X50313728Y-73377052D01*
X50124000Y-73455638D01*
X48935998Y-73455638D01*
X48746272Y-73377052D01*
X48740708Y-73374586D01*
X48707426Y-73358845D01*
X48701990Y-73356109D01*
X48679649Y-73344167D01*
X48653265Y-73340694D01*
X48645259Y-73339372D01*
X48611088Y-73332574D01*
X48582768Y-73348926D01*
X48514868Y-73365400D01*
X48458768Y-73348927D01*
X48192561Y-73195234D01*
X48192514Y-73195209D01*
X48104245Y-73144245D01*
X48104245Y-73144246D01*
X47998982Y-73083473D01*
X47992092Y-73079189D01*
X47951252Y-73051901D01*
X47944652Y-73047171D01*
X47892799Y-73007380D01*
X47886529Y-73002234D01*
X47849619Y-72969864D01*
X47843698Y-72964319D01*
X47692437Y-72813059D01*
X47692369Y-72812988D01*
X47624000Y-72744619D01*
X47624000Y-74126000D01*
X46626000Y-74126000D01*
X46626000Y-72624000D01*
X45124000Y-72624000D01*
X45124000Y-74126000D01*
X44126000Y-74126000D01*
X44126000Y-72624000D01*
X42624000Y-72624000D01*
X42624000Y-74126000D01*
X41626000Y-74126000D01*
X41626000Y-72624000D01*
X40124000Y-72624000D01*
X40124000Y-74126000D01*
X39126000Y-74126000D01*
X39126000Y-72624000D01*
X37624000Y-72624000D01*
X37624000Y-74126000D01*
X33324993Y-74126000D01*
X33235955Y-73992745D01*
X33232700Y-73987606D01*
X33213772Y-73956028D01*
X33210772Y-73950732D01*
X33187670Y-73907513D01*
X33184932Y-73902075D01*
X33169185Y-73868781D01*
X33166719Y-73863217D01*
X33076698Y-73645886D01*
X33074507Y-73640207D01*
X33062105Y-73605545D01*
X33060197Y-73599770D01*
X33045970Y-73552875D01*
X33044346Y-73547005D01*
X33035397Y-73511278D01*
X33034064Y-73505341D01*
X32985428Y-73260833D01*
X34002979Y-73260833D01*
X34008104Y-73286595D01*
X34008107Y-73286607D01*
X34079372Y-73458658D01*
X34079374Y-73458662D01*
X34182835Y-73613502D01*
X34182841Y-73613510D01*
X34314521Y-73745190D01*
X34314529Y-73745196D01*
X34469369Y-73848657D01*
X34641425Y-73919924D01*
X34641435Y-73919927D01*
X34667198Y-73925051D01*
X35167199Y-73925051D01*
X35192962Y-73919927D01*
X35192972Y-73919924D01*
X35365028Y-73848657D01*
X35519868Y-73745196D01*
X35519876Y-73745190D01*
X35651556Y-73613510D01*
X35651562Y-73613502D01*
X35755023Y-73458662D01*
X35755025Y-73458658D01*
X35826290Y-73286607D01*
X35826293Y-73286595D01*
X35831418Y-73260833D01*
X35167199Y-73260833D01*
X35167199Y-73925051D01*
X34667198Y-73925051D01*
X34667199Y-73925050D01*
X34667199Y-73260833D01*
X34002979Y-73260833D01*
X32985428Y-73260833D01*
X32979858Y-73232833D01*
X32981191Y-73178512D01*
X33023192Y-73010833D01*
X32981191Y-72843154D01*
X32979858Y-72788833D01*
X32985428Y-72760832D01*
X34002979Y-72760832D01*
X34002980Y-72760833D01*
X34667199Y-72760833D01*
X35167199Y-72760833D01*
X35831418Y-72760833D01*
X35831418Y-72760832D01*
X35826293Y-72735070D01*
X35826290Y-72735058D01*
X35755025Y-72563007D01*
X35755023Y-72563003D01*
X35651562Y-72408163D01*
X35651556Y-72408155D01*
X35519876Y-72276475D01*
X35519868Y-72276469D01*
X35365028Y-72173008D01*
X35365024Y-72173006D01*
X35192973Y-72101741D01*
X35192961Y-72101738D01*
X35167199Y-72096613D01*
X35167199Y-72760833D01*
X34667199Y-72760833D01*
X34667199Y-72096614D01*
X34667198Y-72096613D01*
X34641436Y-72101738D01*
X34641424Y-72101741D01*
X34469373Y-72173006D01*
X34469369Y-72173008D01*
X34314529Y-72276469D01*
X34314521Y-72276475D01*
X34182841Y-72408155D01*
X34182835Y-72408163D01*
X34079374Y-72563003D01*
X34079372Y-72563007D01*
X34008107Y-72735058D01*
X34008104Y-72735070D01*
X34002979Y-72760832D01*
X32985428Y-72760832D01*
X33012646Y-72624000D01*
X32624000Y-72624000D01*
X32624000Y-74126000D01*
X31626000Y-74126000D01*
X31626000Y-72624000D01*
X30408500Y-72624000D01*
X30408500Y-74126000D01*
X29410500Y-74126000D01*
X29410500Y-71626000D01*
X30408500Y-71626000D01*
X31626000Y-71626000D01*
X32624000Y-71626000D01*
X33553613Y-71626000D01*
X33626160Y-71553453D01*
X33630569Y-71549255D01*
X33657856Y-71524524D01*
X33662463Y-71520550D01*
X33700346Y-71489460D01*
X33705147Y-71485713D01*
X33734722Y-71463780D01*
X33739696Y-71460278D01*
X33935287Y-71329589D01*
X33940426Y-71326334D01*
X33972004Y-71307406D01*
X33977300Y-71304406D01*
X34020519Y-71281304D01*
X34025957Y-71278566D01*
X34059251Y-71262819D01*
X34064815Y-71260353D01*
X34126000Y-71235009D01*
X34126000Y-71073864D01*
X35124000Y-71073864D01*
X35139199Y-71073492D01*
X35411707Y-71127698D01*
X35417644Y-71129031D01*
X35453371Y-71137980D01*
X35459241Y-71139604D01*
X35506136Y-71153831D01*
X35511911Y-71155739D01*
X35546573Y-71168141D01*
X35552252Y-71170332D01*
X35769583Y-71260353D01*
X35775147Y-71262819D01*
X35808441Y-71278566D01*
X35813879Y-71281304D01*
X35857098Y-71304406D01*
X35862394Y-71307406D01*
X35893972Y-71326334D01*
X35899111Y-71329589D01*
X36094702Y-71460278D01*
X36099676Y-71463780D01*
X36129251Y-71485713D01*
X36134052Y-71489460D01*
X36171935Y-71520550D01*
X36176542Y-71524524D01*
X36203829Y-71549255D01*
X36208238Y-71553453D01*
X36280785Y-71626000D01*
X36626000Y-71626000D01*
X37624000Y-71626000D01*
X39126000Y-71626000D01*
X40124000Y-71626000D01*
X41626000Y-71626000D01*
X42624000Y-71626000D01*
X44126000Y-71626000D01*
X44126000Y-71372255D01*
X43999878Y-71287983D01*
X43994902Y-71284478D01*
X43965329Y-71262545D01*
X43960531Y-71258801D01*
X43922649Y-71227712D01*
X43918042Y-71223738D01*
X43890755Y-71199007D01*
X43886346Y-71194809D01*
X43740191Y-71048654D01*
X43735993Y-71044245D01*
X43711262Y-71016958D01*
X43707288Y-71012351D01*
X43676199Y-70974469D01*
X43672455Y-70969671D01*
X43650522Y-70940098D01*
X43647017Y-70935122D01*
X43532184Y-70763263D01*
X43528926Y-70758118D01*
X43509991Y-70726525D01*
X43506992Y-70721230D01*
X43483891Y-70678009D01*
X43481155Y-70672574D01*
X43465414Y-70639292D01*
X43462948Y-70633728D01*
X43383855Y-70442778D01*
X43381665Y-70437101D01*
X43369263Y-70402440D01*
X43367354Y-70396662D01*
X43353128Y-70349767D01*
X43351505Y-70343903D01*
X43342555Y-70308177D01*
X43341221Y-70302235D01*
X43305768Y-70124000D01*
X42624000Y-70124000D01*
X42624000Y-71626000D01*
X41626000Y-71626000D01*
X41626000Y-70124000D01*
X40124000Y-70124000D01*
X40124000Y-71626000D01*
X39126000Y-71626000D01*
X39126000Y-70124000D01*
X37624000Y-70124000D01*
X37624000Y-71626000D01*
X36626000Y-71626000D01*
X36626000Y-70124000D01*
X35124000Y-70124000D01*
X35124000Y-71073864D01*
X34126000Y-71073864D01*
X34126000Y-70124000D01*
X32624000Y-70124000D01*
X32624000Y-71626000D01*
X31626000Y-71626000D01*
X31626000Y-70124000D01*
X30408500Y-70124000D01*
X30408500Y-71626000D01*
X29410500Y-71626000D01*
X29410500Y-69126000D01*
X30408500Y-69126000D01*
X31626000Y-69126000D01*
X32624000Y-69126000D01*
X34126000Y-69126000D01*
X35124000Y-69126000D01*
X36626000Y-69126000D01*
X37624000Y-69126000D01*
X38662535Y-69126000D01*
X38615996Y-69106723D01*
X40124000Y-69106723D01*
X40124000Y-69126000D01*
X41626000Y-69126000D01*
X41626000Y-68983500D01*
X40372638Y-68983500D01*
X40354314Y-68995744D01*
X40349170Y-68999001D01*
X40317578Y-69017936D01*
X40312282Y-69020936D01*
X40269061Y-69044037D01*
X40263626Y-69046773D01*
X40230346Y-69062513D01*
X40224782Y-69064979D01*
X40124000Y-69106723D01*
X38615996Y-69106723D01*
X38515217Y-69064979D01*
X38509654Y-69062513D01*
X38476374Y-69046773D01*
X38470939Y-69044037D01*
X38427718Y-69020936D01*
X38422422Y-69017936D01*
X38390830Y-68999001D01*
X38385686Y-68995744D01*
X38189260Y-68864496D01*
X38184286Y-68860993D01*
X38154712Y-68839060D01*
X38149912Y-68835314D01*
X38112030Y-68804225D01*
X38107423Y-68800251D01*
X38080136Y-68775520D01*
X38075727Y-68771322D01*
X37908678Y-68604273D01*
X37904480Y-68599864D01*
X37879749Y-68572577D01*
X37875775Y-68567970D01*
X37844686Y-68530088D01*
X37840940Y-68525288D01*
X37819007Y-68495714D01*
X37815504Y-68490740D01*
X37684256Y-68294314D01*
X37680999Y-68289170D01*
X37662064Y-68257578D01*
X37659064Y-68252282D01*
X37635963Y-68209061D01*
X37633227Y-68203626D01*
X37624000Y-68184116D01*
X37624000Y-69126000D01*
X36626000Y-69126000D01*
X36626000Y-67796023D01*
X36612615Y-67790479D01*
X36607049Y-67788012D01*
X36573756Y-67772265D01*
X36568320Y-67769529D01*
X36525102Y-67746428D01*
X36519805Y-67743427D01*
X36488227Y-67724499D01*
X36483088Y-67721244D01*
X36337551Y-67624000D01*
X35124000Y-67624000D01*
X35124000Y-69126000D01*
X34126000Y-69126000D01*
X34126000Y-67624000D01*
X32624000Y-67624000D01*
X32624000Y-69126000D01*
X31626000Y-69126000D01*
X31626000Y-67624000D01*
X30408500Y-67624000D01*
X30408500Y-69126000D01*
X29410500Y-69126000D01*
X29410500Y-67216379D01*
X38419500Y-67216379D01*
X38419500Y-67403620D01*
X38456025Y-67587243D01*
X38456027Y-67587251D01*
X38527676Y-67760228D01*
X38527681Y-67760237D01*
X38631697Y-67915907D01*
X38631700Y-67915911D01*
X38764088Y-68048299D01*
X38764092Y-68048302D01*
X38919762Y-68152318D01*
X38919768Y-68152321D01*
X38919769Y-68152322D01*
X39092749Y-68223973D01*
X39235069Y-68252282D01*
X39276379Y-68260499D01*
X39276383Y-68260500D01*
X39276384Y-68260500D01*
X39463617Y-68260500D01*
X39463618Y-68260499D01*
X39647251Y-68223973D01*
X39820231Y-68152322D01*
X39975908Y-68048302D01*
X39975911Y-68048299D01*
X40002392Y-68021819D01*
X40063715Y-67988334D01*
X40090073Y-67985500D01*
X42459927Y-67985500D01*
X42526966Y-68005185D01*
X42547608Y-68021819D01*
X42574088Y-68048299D01*
X42574092Y-68048302D01*
X42729762Y-68152318D01*
X42729768Y-68152321D01*
X42729769Y-68152322D01*
X42902749Y-68223973D01*
X43045069Y-68252282D01*
X43086379Y-68260499D01*
X43086383Y-68260500D01*
X43086384Y-68260500D01*
X43273617Y-68260500D01*
X43273618Y-68260499D01*
X43457251Y-68223973D01*
X43630231Y-68152322D01*
X43785908Y-68048302D01*
X43918302Y-67915908D01*
X44022322Y-67760231D01*
X44093973Y-67587251D01*
X44130500Y-67403616D01*
X44130500Y-67216384D01*
X44093973Y-67032749D01*
X44022322Y-66859769D01*
X44022321Y-66859768D01*
X44022318Y-66859762D01*
X43918302Y-66704092D01*
X43918299Y-66704088D01*
X43785911Y-66571700D01*
X43785907Y-66571697D01*
X43630237Y-66467681D01*
X43630228Y-66467676D01*
X43457251Y-66396027D01*
X43457243Y-66396025D01*
X43273620Y-66359500D01*
X43273616Y-66359500D01*
X43086384Y-66359500D01*
X43086379Y-66359500D01*
X42902756Y-66396025D01*
X42902748Y-66396027D01*
X42729771Y-66467676D01*
X42729762Y-66467681D01*
X42574092Y-66571697D01*
X42574088Y-66571700D01*
X42547608Y-66598181D01*
X42486285Y-66631666D01*
X42459927Y-66634500D01*
X40090073Y-66634500D01*
X40023034Y-66614815D01*
X40002392Y-66598181D01*
X39975911Y-66571700D01*
X39975907Y-66571697D01*
X39820237Y-66467681D01*
X39820228Y-66467676D01*
X39647251Y-66396027D01*
X39647243Y-66396025D01*
X39463620Y-66359500D01*
X39463616Y-66359500D01*
X39276384Y-66359500D01*
X39276379Y-66359500D01*
X39092756Y-66396025D01*
X39092748Y-66396027D01*
X38919771Y-66467676D01*
X38919762Y-66467681D01*
X38764092Y-66571697D01*
X38764088Y-66571700D01*
X38631700Y-66704088D01*
X38631697Y-66704092D01*
X38527681Y-66859762D01*
X38527676Y-66859771D01*
X38456027Y-67032748D01*
X38456025Y-67032756D01*
X38419500Y-67216379D01*
X29410500Y-67216379D01*
X29410500Y-66626000D01*
X30408500Y-66626000D01*
X31626000Y-66626000D01*
X32624000Y-66626000D01*
X34126000Y-66626000D01*
X35124000Y-66626000D01*
X35607107Y-66626000D01*
X35593771Y-66582042D01*
X35592147Y-66576172D01*
X35583198Y-66540445D01*
X35581865Y-66534508D01*
X35533229Y-66290000D01*
X36550780Y-66290000D01*
X36555905Y-66315762D01*
X36555908Y-66315774D01*
X36627173Y-66487825D01*
X36627175Y-66487829D01*
X36730636Y-66642669D01*
X36730642Y-66642677D01*
X36862322Y-66774357D01*
X36862330Y-66774363D01*
X37017170Y-66877824D01*
X37189226Y-66949091D01*
X37189236Y-66949094D01*
X37214999Y-66954218D01*
X37715000Y-66954218D01*
X37740763Y-66949094D01*
X37740773Y-66949091D01*
X37912829Y-66877824D01*
X38067669Y-66774363D01*
X38067677Y-66774357D01*
X38199357Y-66642677D01*
X38199363Y-66642669D01*
X38302824Y-66487829D01*
X38302826Y-66487825D01*
X38374091Y-66315774D01*
X38374094Y-66315762D01*
X38379219Y-66290000D01*
X37715000Y-66290000D01*
X37715000Y-66954218D01*
X37214999Y-66954218D01*
X37215000Y-66954217D01*
X37215000Y-66290000D01*
X36550780Y-66290000D01*
X35533229Y-66290000D01*
X35527659Y-66262000D01*
X35528992Y-66207679D01*
X35570993Y-66040000D01*
X35528992Y-65872321D01*
X35527659Y-65818000D01*
X35533229Y-65789999D01*
X36550780Y-65789999D01*
X36550781Y-65790000D01*
X37215000Y-65790000D01*
X37715000Y-65790000D01*
X38379219Y-65790000D01*
X38379219Y-65789999D01*
X38374094Y-65764237D01*
X38374091Y-65764225D01*
X38302826Y-65592174D01*
X38302824Y-65592170D01*
X38250108Y-65513275D01*
X40124000Y-65513275D01*
X40224783Y-65555021D01*
X40230346Y-65557487D01*
X40263626Y-65573227D01*
X40269061Y-65575963D01*
X40312282Y-65599064D01*
X40317578Y-65602064D01*
X40349170Y-65620999D01*
X40354314Y-65624256D01*
X40372638Y-65636500D01*
X41626000Y-65636500D01*
X41626000Y-65437676D01*
X42624000Y-65437676D01*
X42636478Y-65433891D01*
X42642348Y-65432267D01*
X42678076Y-65423318D01*
X42684013Y-65421985D01*
X42915719Y-65375896D01*
X42921714Y-65374855D01*
X42958142Y-65369451D01*
X42964185Y-65368706D01*
X43012954Y-65363903D01*
X43019025Y-65363455D01*
X43055800Y-65361649D01*
X43061882Y-65361500D01*
X43298118Y-65361500D01*
X43304200Y-65361649D01*
X43340975Y-65363455D01*
X43347046Y-65363903D01*
X43395815Y-65368706D01*
X43401858Y-65369451D01*
X43438286Y-65374855D01*
X43444281Y-65375896D01*
X43524000Y-65391752D01*
X43524000Y-65124000D01*
X42624000Y-65124000D01*
X42624000Y-65437676D01*
X41626000Y-65437676D01*
X41626000Y-65124000D01*
X40124000Y-65124000D01*
X40124000Y-65513275D01*
X38250108Y-65513275D01*
X38199363Y-65437330D01*
X38199357Y-65437322D01*
X38067677Y-65305642D01*
X38067669Y-65305636D01*
X37912829Y-65202175D01*
X37912825Y-65202173D01*
X37740774Y-65130908D01*
X37740762Y-65130905D01*
X37715000Y-65125780D01*
X37715000Y-65790000D01*
X37215000Y-65790000D01*
X37215000Y-65125781D01*
X37214999Y-65125780D01*
X37189237Y-65130905D01*
X37189225Y-65130908D01*
X37017174Y-65202173D01*
X37017170Y-65202175D01*
X36862330Y-65305636D01*
X36862322Y-65305642D01*
X36730642Y-65437322D01*
X36730636Y-65437330D01*
X36627175Y-65592170D01*
X36627173Y-65592174D01*
X36555908Y-65764225D01*
X36555905Y-65764237D01*
X36550780Y-65789999D01*
X35533229Y-65789999D01*
X35581865Y-65545492D01*
X35583198Y-65539555D01*
X35592147Y-65503828D01*
X35593771Y-65497958D01*
X35607998Y-65451063D01*
X35609906Y-65445288D01*
X35622308Y-65410626D01*
X35624499Y-65404947D01*
X35714520Y-65187616D01*
X35716986Y-65182052D01*
X35732733Y-65148758D01*
X35735471Y-65143320D01*
X35745798Y-65124000D01*
X35124000Y-65124000D01*
X35124000Y-66626000D01*
X34126000Y-66626000D01*
X34126000Y-65124000D01*
X32624000Y-65124000D01*
X32624000Y-66626000D01*
X31626000Y-66626000D01*
X31626000Y-65208838D01*
X31624470Y-65208838D01*
X31619598Y-65208742D01*
X31590146Y-65207584D01*
X31585285Y-65207297D01*
X31546206Y-65204220D01*
X31541360Y-65203743D01*
X31512127Y-65200282D01*
X31507308Y-65199615D01*
X31259383Y-65160348D01*
X31254591Y-65159493D01*
X31225727Y-65153752D01*
X31220980Y-65152710D01*
X31182862Y-65143562D01*
X31178145Y-65142332D01*
X31149768Y-65134330D01*
X31145104Y-65132915D01*
X31117666Y-65124000D01*
X30408500Y-65124000D01*
X30408500Y-66626000D01*
X29410500Y-66626000D01*
X29410500Y-59427135D01*
X30399500Y-59427135D01*
X30399500Y-61222870D01*
X30399501Y-61222876D01*
X30405908Y-61282483D01*
X30456202Y-61417328D01*
X30456206Y-61417335D01*
X30542452Y-61532544D01*
X30542455Y-61532547D01*
X30599108Y-61574957D01*
X30657669Y-61618796D01*
X30792517Y-61669091D01*
X30852127Y-61675500D01*
X30886565Y-61675499D01*
X30879839Y-61680387D01*
X30930226Y-61695179D01*
X30947738Y-61715385D01*
X30950839Y-61712285D01*
X31620591Y-62382037D01*
X31557007Y-62399075D01*
X31442993Y-62464901D01*
X31349901Y-62557993D01*
X31284075Y-62672007D01*
X31267037Y-62735591D01*
X30637707Y-62106261D01*
X30637706Y-62106261D01*
X30598938Y-62159623D01*
X30502761Y-62348379D01*
X30437301Y-62549844D01*
X30437301Y-62549847D01*
X30404162Y-62759080D01*
X30404162Y-62970919D01*
X30437301Y-63180152D01*
X30437301Y-63180155D01*
X30502761Y-63381620D01*
X30598937Y-63570374D01*
X30637706Y-63623737D01*
X30637707Y-63623737D01*
X31267037Y-62994408D01*
X31284075Y-63057993D01*
X31349901Y-63172007D01*
X31442993Y-63265099D01*
X31557007Y-63330925D01*
X31620591Y-63347962D01*
X30991261Y-63977291D01*
X31044630Y-64016065D01*
X31233379Y-64112238D01*
X31434845Y-64177698D01*
X31644081Y-64210838D01*
X31855919Y-64210838D01*
X32065152Y-64177698D01*
X32065155Y-64177698D01*
X32224265Y-64126000D01*
X33730206Y-64126000D01*
X34126000Y-64126000D01*
X35124000Y-64126000D01*
X36626000Y-64126000D01*
X36626000Y-64106165D01*
X37624000Y-64106165D01*
X37632679Y-64103992D01*
X37687000Y-64102659D01*
X37804341Y-64126000D01*
X39126000Y-64126000D01*
X40124000Y-64126000D01*
X41626000Y-64126000D01*
X42624000Y-64126000D01*
X43524000Y-64126000D01*
X43524000Y-62758197D01*
X43524265Y-62750087D01*
X43527477Y-62701081D01*
X43528273Y-62693002D01*
X43536806Y-62628201D01*
X43537500Y-62624000D01*
X42624000Y-62624000D01*
X42624000Y-64126000D01*
X41626000Y-64126000D01*
X41626000Y-62624000D01*
X40124000Y-62624000D01*
X40124000Y-64126000D01*
X39126000Y-64126000D01*
X39126000Y-62624000D01*
X37624000Y-62624000D01*
X37624000Y-64106165D01*
X36626000Y-64106165D01*
X36626000Y-62624000D01*
X35124000Y-62624000D01*
X35124000Y-64126000D01*
X34126000Y-64126000D01*
X34126000Y-62624000D01*
X34084849Y-62624000D01*
X34085282Y-62627127D01*
X34088743Y-62656360D01*
X34089220Y-62661206D01*
X34092297Y-62700285D01*
X34092584Y-62705146D01*
X34093742Y-62734598D01*
X34093838Y-62739470D01*
X34093838Y-62990530D01*
X34093742Y-62995402D01*
X34092584Y-63024854D01*
X34092297Y-63029715D01*
X34089220Y-63068794D01*
X34088743Y-63073640D01*
X34085282Y-63102873D01*
X34084615Y-63107692D01*
X34045348Y-63355617D01*
X34044493Y-63360409D01*
X34038752Y-63389273D01*
X34037710Y-63394020D01*
X34028562Y-63432138D01*
X34027332Y-63436855D01*
X34019330Y-63465232D01*
X34017915Y-63469896D01*
X33940334Y-63708667D01*
X33938738Y-63713270D01*
X33928539Y-63740914D01*
X33926764Y-63745448D01*
X33911762Y-63781664D01*
X33909811Y-63786124D01*
X33897482Y-63812867D01*
X33895358Y-63817247D01*
X33781391Y-64040918D01*
X33779096Y-64045211D01*
X33764706Y-64070907D01*
X33762244Y-64075108D01*
X33741762Y-64108532D01*
X33739137Y-64112633D01*
X33730206Y-64126000D01*
X32224265Y-64126000D01*
X32266620Y-64112238D01*
X32455373Y-64016063D01*
X32508737Y-63977291D01*
X32508738Y-63977291D01*
X31879408Y-63347962D01*
X31942993Y-63330925D01*
X32057007Y-63265099D01*
X32150099Y-63172007D01*
X32215925Y-63057993D01*
X32232962Y-62994408D01*
X32862291Y-63623738D01*
X32862291Y-63623737D01*
X32901063Y-63570373D01*
X32997238Y-63381620D01*
X33062698Y-63180155D01*
X33062698Y-63180152D01*
X33095838Y-62970919D01*
X33095838Y-62759080D01*
X33062698Y-62549847D01*
X33062698Y-62549844D01*
X32997238Y-62348379D01*
X32901065Y-62159630D01*
X32862291Y-62106261D01*
X32232962Y-62735590D01*
X32215925Y-62672007D01*
X32150099Y-62557993D01*
X32057007Y-62464901D01*
X31942993Y-62399075D01*
X31879409Y-62382037D01*
X32549160Y-61712285D01*
X32552458Y-61715583D01*
X32576545Y-61691125D01*
X32619579Y-61679965D01*
X32613432Y-61675499D01*
X32647872Y-61675499D01*
X32707483Y-61669091D01*
X32823016Y-61626000D01*
X34031124Y-61626000D01*
X34126000Y-61626000D01*
X35124000Y-61626000D01*
X36626000Y-61626000D01*
X37624000Y-61626000D01*
X39126000Y-61626000D01*
X39126000Y-60352953D01*
X38875535Y-60303145D01*
X38869595Y-60301812D01*
X38833868Y-60292864D01*
X38828001Y-60291240D01*
X38781095Y-60277012D01*
X38775316Y-60275103D01*
X38740636Y-60262695D01*
X38734956Y-60260504D01*
X38616000Y-60211231D01*
X40124000Y-60211231D01*
X40124000Y-61626000D01*
X41626000Y-61626000D01*
X41626000Y-60124000D01*
X40314184Y-60124000D01*
X40309898Y-60126428D01*
X40266680Y-60149529D01*
X40261244Y-60152265D01*
X40227951Y-60168012D01*
X40222385Y-60170479D01*
X40124000Y-60211231D01*
X38616000Y-60211231D01*
X38517615Y-60170479D01*
X38512049Y-60168012D01*
X38478756Y-60152265D01*
X38473320Y-60149529D01*
X38430102Y-60126428D01*
X38425816Y-60124000D01*
X37624000Y-60124000D01*
X37624000Y-61626000D01*
X36626000Y-61626000D01*
X36626000Y-60124000D01*
X35124000Y-60124000D01*
X35124000Y-61626000D01*
X34126000Y-61626000D01*
X34126000Y-60124000D01*
X34098499Y-60124000D01*
X34098500Y-61236248D01*
X34098455Y-61239572D01*
X34097916Y-61259673D01*
X34097783Y-61262993D01*
X34096351Y-61289680D01*
X34096129Y-61292989D01*
X34094519Y-61312982D01*
X34094208Y-61316285D01*
X34083038Y-61420175D01*
X34081971Y-61427843D01*
X34074064Y-61474029D01*
X34072519Y-61481619D01*
X34058174Y-61542330D01*
X34056158Y-61549809D01*
X34042550Y-61594672D01*
X34040071Y-61602011D01*
X34031124Y-61626000D01*
X32823016Y-61626000D01*
X32842331Y-61618796D01*
X32957546Y-61532546D01*
X33043796Y-61417331D01*
X33094091Y-61282483D01*
X33100500Y-61222873D01*
X33100499Y-59427128D01*
X33094091Y-59367517D01*
X33081671Y-59334218D01*
X33043797Y-59232671D01*
X33043793Y-59232664D01*
X32957547Y-59117455D01*
X32957544Y-59117452D01*
X32842335Y-59031206D01*
X32842328Y-59031202D01*
X32707482Y-58980908D01*
X32707483Y-58980908D01*
X32647883Y-58974501D01*
X32647881Y-58974500D01*
X32647873Y-58974500D01*
X32647864Y-58974500D01*
X30852129Y-58974500D01*
X30852123Y-58974501D01*
X30792516Y-58980908D01*
X30657671Y-59031202D01*
X30657664Y-59031206D01*
X30542455Y-59117452D01*
X30542452Y-59117455D01*
X30456206Y-59232664D01*
X30456202Y-59232671D01*
X30405908Y-59367517D01*
X30399501Y-59427116D01*
X30399501Y-59427123D01*
X30399500Y-59427135D01*
X29410500Y-59427135D01*
X29410500Y-57745118D01*
X29379976Y-57671426D01*
X29332550Y-57624000D01*
X30402003Y-57624000D01*
X30407903Y-57683908D01*
X30408500Y-57696061D01*
X30408500Y-58058980D01*
X30472982Y-58034931D01*
X30480321Y-58032452D01*
X30525172Y-58018847D01*
X30532648Y-58016832D01*
X30593363Y-58002484D01*
X30600955Y-58000939D01*
X30647160Y-57993028D01*
X30654833Y-57991959D01*
X30758755Y-57980788D01*
X30762064Y-57980477D01*
X30782101Y-57978865D01*
X30785413Y-57978643D01*
X30812095Y-57977214D01*
X30815413Y-57977081D01*
X30835464Y-57976545D01*
X30838778Y-57976501D01*
X31626000Y-57976500D01*
X32624000Y-57976500D01*
X32661248Y-57976500D01*
X32664572Y-57976545D01*
X32684673Y-57977084D01*
X32687993Y-57977217D01*
X32714680Y-57978649D01*
X32717989Y-57978871D01*
X32737982Y-57980481D01*
X32741285Y-57980792D01*
X32845175Y-57991962D01*
X32852843Y-57993029D01*
X32899029Y-58000936D01*
X32906619Y-58002481D01*
X32967330Y-58016826D01*
X32974809Y-58018842D01*
X33019672Y-58032450D01*
X33027012Y-58034929D01*
X33224502Y-58108587D01*
X33232682Y-58111975D01*
X33281419Y-58134233D01*
X33289333Y-58138195D01*
X33351923Y-58172372D01*
X33359537Y-58176890D01*
X33404604Y-58205854D01*
X33411874Y-58210902D01*
X33584173Y-58339886D01*
X33591064Y-58345439D01*
X33631549Y-58380519D01*
X33638028Y-58386551D01*
X33688449Y-58436972D01*
X33694481Y-58443451D01*
X33729561Y-58483936D01*
X33735114Y-58490827D01*
X33864098Y-58663126D01*
X33869146Y-58670396D01*
X33898110Y-58715463D01*
X33902628Y-58723077D01*
X33936805Y-58785667D01*
X33940767Y-58793581D01*
X33963025Y-58842318D01*
X33966413Y-58850498D01*
X34040069Y-59047982D01*
X34042548Y-59055321D01*
X34056153Y-59100172D01*
X34058168Y-59107648D01*
X34062505Y-59126000D01*
X34126000Y-59126000D01*
X35124000Y-59126000D01*
X36626000Y-59126000D01*
X36626000Y-58670000D01*
X38455780Y-58670000D01*
X38460905Y-58695762D01*
X38460908Y-58695774D01*
X38532173Y-58867825D01*
X38532175Y-58867829D01*
X38635636Y-59022669D01*
X38635642Y-59022677D01*
X38767322Y-59154357D01*
X38767330Y-59154363D01*
X38922170Y-59257824D01*
X39094226Y-59329091D01*
X39094236Y-59329094D01*
X39119999Y-59334218D01*
X39620000Y-59334218D01*
X39645763Y-59329094D01*
X39645773Y-59329091D01*
X39817829Y-59257824D01*
X39972669Y-59154363D01*
X39972677Y-59154357D01*
X40104357Y-59022677D01*
X40104363Y-59022669D01*
X40207824Y-58867829D01*
X40207826Y-58867825D01*
X40279091Y-58695774D01*
X40279094Y-58695762D01*
X40284219Y-58670000D01*
X39620000Y-58670000D01*
X39620000Y-59334218D01*
X39119999Y-59334218D01*
X39120000Y-59334217D01*
X39120000Y-58670000D01*
X38455780Y-58670000D01*
X36626000Y-58670000D01*
X36626000Y-58169999D01*
X38455780Y-58169999D01*
X38455781Y-58170000D01*
X39120000Y-58170000D01*
X39620000Y-58170000D01*
X40284219Y-58170000D01*
X40284219Y-58169999D01*
X40279094Y-58144237D01*
X40279091Y-58144225D01*
X40207826Y-57972174D01*
X40207824Y-57972170D01*
X40104363Y-57817330D01*
X40104357Y-57817322D01*
X39972677Y-57685642D01*
X39972669Y-57685636D01*
X39880424Y-57624000D01*
X41143835Y-57624000D01*
X41210501Y-57784947D01*
X41212692Y-57790626D01*
X41225094Y-57825288D01*
X41227002Y-57831063D01*
X41241229Y-57877958D01*
X41242853Y-57883828D01*
X41251802Y-57919555D01*
X41253135Y-57925492D01*
X41307341Y-58198000D01*
X41306008Y-58252322D01*
X41264006Y-58420000D01*
X41306008Y-58587678D01*
X41307341Y-58642000D01*
X41253135Y-58914508D01*
X41251802Y-58920445D01*
X41242853Y-58956172D01*
X41241229Y-58962042D01*
X41227002Y-59008937D01*
X41225094Y-59014712D01*
X41212692Y-59049374D01*
X41210501Y-59055053D01*
X41181114Y-59126000D01*
X41626000Y-59126000D01*
X42624000Y-59126000D01*
X42628999Y-59126000D01*
X42628999Y-58974159D01*
X42629148Y-58968076D01*
X42630954Y-58931304D01*
X42631402Y-58925234D01*
X42636205Y-58876462D01*
X42636950Y-58870421D01*
X42642354Y-58833990D01*
X42643395Y-58827993D01*
X42683720Y-58625266D01*
X42685054Y-58619324D01*
X42694004Y-58583598D01*
X42695627Y-58577734D01*
X42709853Y-58530839D01*
X42711762Y-58525061D01*
X42724164Y-58490400D01*
X42726354Y-58484723D01*
X42805447Y-58293773D01*
X42807913Y-58288209D01*
X42823654Y-58254927D01*
X42826390Y-58249492D01*
X42849491Y-58206271D01*
X42852490Y-58200976D01*
X42871425Y-58169383D01*
X42874683Y-58164238D01*
X42989516Y-57992379D01*
X42993021Y-57987403D01*
X43014954Y-57957830D01*
X43018698Y-57953032D01*
X43049787Y-57915150D01*
X43053761Y-57910543D01*
X43078492Y-57883256D01*
X43082690Y-57878847D01*
X43228845Y-57732692D01*
X43233254Y-57728494D01*
X43260541Y-57703763D01*
X43265148Y-57699789D01*
X43303030Y-57668700D01*
X43307828Y-57664956D01*
X43337401Y-57643023D01*
X43342377Y-57639518D01*
X43365601Y-57624000D01*
X42624000Y-57624000D01*
X42624000Y-59126000D01*
X41626000Y-59126000D01*
X41626000Y-57624000D01*
X41143835Y-57624000D01*
X39880424Y-57624000D01*
X39817829Y-57582175D01*
X39817825Y-57582173D01*
X39645774Y-57510908D01*
X39645762Y-57510905D01*
X39620000Y-57505780D01*
X39620000Y-58170000D01*
X39120000Y-58170000D01*
X39120000Y-57505781D01*
X39119999Y-57505780D01*
X39094237Y-57510905D01*
X39094225Y-57510908D01*
X38922174Y-57582173D01*
X38922170Y-57582175D01*
X38767330Y-57685636D01*
X38767322Y-57685642D01*
X38635642Y-57817322D01*
X38635636Y-57817330D01*
X38532175Y-57972170D01*
X38532173Y-57972174D01*
X38460908Y-58144225D01*
X38460905Y-58144237D01*
X38455780Y-58169999D01*
X36626000Y-58169999D01*
X36626000Y-57624000D01*
X35124000Y-57624000D01*
X35124000Y-59126000D01*
X34126000Y-59126000D01*
X34126000Y-57624000D01*
X32624000Y-57624000D01*
X32624000Y-57976500D01*
X31626000Y-57976500D01*
X31626000Y-57624000D01*
X30402003Y-57624000D01*
X29332550Y-57624000D01*
X29323574Y-57615024D01*
X29286547Y-57599687D01*
X29232143Y-57555845D01*
X29210079Y-57489551D01*
X29210000Y-57485126D01*
X29210000Y-56626000D01*
X30316258Y-56626000D01*
X31626000Y-56626000D01*
X32624000Y-56626000D01*
X34126000Y-56626000D01*
X35124000Y-56626000D01*
X36626000Y-56626000D01*
X37624000Y-56626000D01*
X38622684Y-56626000D01*
X40124000Y-56626000D01*
X41626000Y-56626000D01*
X42624000Y-56626000D01*
X43695405Y-56626000D01*
X43623678Y-56554273D01*
X43619480Y-56549864D01*
X43594749Y-56522577D01*
X43590775Y-56517970D01*
X43559686Y-56480088D01*
X43555940Y-56475288D01*
X43534007Y-56445714D01*
X43530504Y-56440740D01*
X43399256Y-56244314D01*
X43395999Y-56239170D01*
X43377064Y-56207578D01*
X43374064Y-56202282D01*
X43350963Y-56159061D01*
X43348227Y-56153626D01*
X43332487Y-56120346D01*
X43330021Y-56114783D01*
X43239620Y-55896535D01*
X43237430Y-55890859D01*
X43225027Y-55856197D01*
X43223118Y-55850418D01*
X43210401Y-55808500D01*
X42624000Y-55808500D01*
X42624000Y-56626000D01*
X41626000Y-56626000D01*
X41626000Y-55808500D01*
X40124000Y-55808500D01*
X40124000Y-56626000D01*
X38622684Y-56626000D01*
X38734948Y-56579499D01*
X38740626Y-56577308D01*
X38775288Y-56564906D01*
X38781063Y-56562998D01*
X38827958Y-56548771D01*
X38833828Y-56547147D01*
X38869555Y-56538198D01*
X38875492Y-56536865D01*
X39126000Y-56487035D01*
X39126000Y-55808500D01*
X37624000Y-55808500D01*
X37624000Y-56626000D01*
X36626000Y-56626000D01*
X36626000Y-55808500D01*
X35124000Y-55808500D01*
X35124000Y-56626000D01*
X34126000Y-56626000D01*
X34126000Y-55808500D01*
X32624000Y-55808500D01*
X32624000Y-56626000D01*
X31626000Y-56626000D01*
X31626000Y-55608000D01*
X31281161Y-55608000D01*
X31202614Y-55762155D01*
X31200319Y-55766448D01*
X31185929Y-55792144D01*
X31183467Y-55796344D01*
X31162986Y-55829767D01*
X31160361Y-55833869D01*
X31143995Y-55858363D01*
X31141210Y-55862358D01*
X30997837Y-56059696D01*
X30994894Y-56063584D01*
X30976635Y-56086743D01*
X30973545Y-56090508D01*
X30948084Y-56120315D01*
X30944850Y-56123954D01*
X30924876Y-56145559D01*
X30921506Y-56149063D01*
X30749063Y-56321506D01*
X30745559Y-56324876D01*
X30723954Y-56344850D01*
X30720315Y-56348084D01*
X30690508Y-56373545D01*
X30686743Y-56376635D01*
X30663584Y-56394894D01*
X30659696Y-56397837D01*
X30462358Y-56541210D01*
X30458363Y-56543995D01*
X30433869Y-56560361D01*
X30429767Y-56562986D01*
X30396344Y-56583467D01*
X30392144Y-56585929D01*
X30366448Y-56600319D01*
X30362155Y-56602614D01*
X30316258Y-56626000D01*
X29210000Y-56626000D01*
X29210000Y-56032616D01*
X29229685Y-55965577D01*
X29282489Y-55919822D01*
X29314597Y-55910144D01*
X29514534Y-55878477D01*
X29709219Y-55815220D01*
X29891610Y-55722287D01*
X29984590Y-55654732D01*
X30057213Y-55601971D01*
X30057215Y-55601968D01*
X30057219Y-55601966D01*
X30201966Y-55457219D01*
X30201968Y-55457215D01*
X30201971Y-55457213D01*
X30277237Y-55353616D01*
X30322287Y-55291610D01*
X30415220Y-55109219D01*
X30478477Y-54914534D01*
X30510143Y-54714600D01*
X30540072Y-54651467D01*
X30599384Y-54614536D01*
X30632616Y-54610000D01*
X32085126Y-54610000D01*
X32152165Y-54629685D01*
G37*
%TD.AperFunction*%
%TD*%
M02*
